M48
; DRILL file {KiCad 9.0.6} date 2026-08-31T00:35:33+0200
; FORMAT={-:-/ absolute / metric / decimal}
; #@! TF.CreationDate,2026-08-31T00:35:33+02:00
; #@! TF.GenerationSoftware,Kicad,Pcbnew,9.0.6
; #@! TF.FileFunction,Plated,1,4,PTH
FMAT,2
METRIC
; #@! TA.AperFunction,Plated,PTH,ViaDrill
T1C0.250
; #@! TA.AperFunction,Plated,PTH,ViaDrill
T2C0.300
; #@! TA.AperFunction,Plated,PTH,ComponentDrill
T3C0.600
; #@! TA.AperFunction,Plated,PTH,ComponentDrill
T4C0.650
; #@! TA.AperFunction,Plated,PTH,ComponentDrill
T5C0.890
; #@! TA.AperFunction,Plated,PTH,ComponentDrill
T6C1.100
; #@! TA.AperFunction,Plated,PTH,ComponentDrill
T7C2.010
%
G90
G05
T1
X59.8Y-65.05
X60.5Y-65.6
X62.25Y-66.15
X85.9Y-86.0
X89.5Y-51.1
X89.5Y-105.9
X121.1Y-51.1
X122.7Y-51.1
X128.25Y-67.4
X128.25Y-78.45
X128.25Y-88.85
X132.6Y-42.3
X133.2Y-41.65
X149.3Y-124.5
X150.25Y-70.6
X150.25Y-79.3
X150.25Y-89.4
X150.4Y-65.6
X151.0Y-65.05
X151.0Y-66.15
X151.15Y-53.0
X151.7Y-113.95
X152.3Y-114.75
X152.85Y-117.9
X153.5Y-123.9
X154.338Y-112.75
X154.35Y-114.75
X154.6Y-113.95
X154.6Y-121.55
X155.7Y-66.75
X155.787Y-54.4
X156.2Y-86.0
X156.6Y-119.15
X156.838Y-105.9
X156.95Y-74.825
X156.95Y-77.9
X156.95Y-81.1
X157.0Y-113.75
X157.15Y-118.6
X157.45Y-58.825
X157.75Y-106.237
X157.75Y-118.6
X157.8Y-73.555
X158.0Y-57.555
X158.45Y-84.6
X158.6Y-67.4
X159.0Y-76.095
X159.0Y-77.365
X159.3Y-86.0
X159.3Y-118.5
X160.25Y-119.15
X160.75Y-122.3
X160.95Y-117.9
X161.4Y-86.0
X161.5Y-79.905
X161.55Y-122.5
X161.9Y-61.365
X162.0Y-81.175
X162.3Y-109.75
X162.3Y-60.095
X162.3Y-113.25
X162.45Y-117.5
X162.65Y-63.905
X162.9Y-112.75
X163.2Y-88.825
X163.25Y-125.75
X163.3Y-86.0
X163.6Y-62.635
X163.75Y-124.95
X164.0Y-87.555
X164.25Y-125.75
X164.45Y-55.6
X164.75Y-124.95
X165.35Y-110.05
X165.55Y-48.81
X165.6Y-89.4
X165.6Y-106.2
X165.75Y-127.4
X166.4Y-53.0
X166.45Y-122.5
X166.9Y-59.38
X167.25Y-122.3
X167.45Y-66.95
X167.45Y-74.9
X167.5Y-56.2
X167.5Y-79.7
X167.5Y-86.2
X168.1Y-66.88
X168.1Y-75.38
X168.1Y-82.88
X168.1Y-89.38
X168.3Y-117.4
X169.05Y-116.55
X169.25Y-115.9
X169.8Y-72.5
X170.15Y-58.225
X170.35Y-70.9
X170.9Y-116.55
X171.15Y-115.9
X171.3Y-102.0
X171.3Y-108.0
X171.9Y-92.0
X172.5Y-90.73
X173.1Y-63.27
X173.7Y-62.0
X174.3Y-64.225
X174.35Y-107.14
X174.35Y-109.48
X174.4Y-53.95
X176.75Y-103.6
X178.1Y-90.095
X178.65Y-91.365
T2
X56.75Y-68.2
X56.75Y-80.2
X56.75Y-92.2
X56.8Y-75.8
X56.8Y-87.8
X56.8Y-99.8
X64.6Y-107.8
X65.4Y-106.9
X70.7Y-110.587
X76.7Y-49.9
X76.7Y-61.5
X78.0Y-109.188
X78.75Y-68.2
X78.75Y-80.2
X78.75Y-92.2
X78.8Y-75.8
X78.8Y-87.8
X78.8Y-99.8
X79.2Y-112.412
X84.25Y-69.15
X84.25Y-91.2
X87.0Y-75.8
X96.5Y-103.0
X98.75Y-90.2
X100.75Y-68.2
X100.8Y-75.8
X104.2Y-87.8
X106.25Y-69.9
X108.25Y-86.2
X109.5Y-104.5
X110.0Y-109.188
X111.0Y-87.8
X114.0Y-109.188
X121.9Y-42.3
X121.9Y-54.0
X122.75Y-68.2
X122.75Y-80.2
X122.75Y-92.2
X122.8Y-75.8
X122.8Y-87.8
X122.8Y-99.8
X123.0Y-63.0
X133.0Y-63.0
X133.0Y-103.0
X135.0Y-104.5
X144.75Y-68.2
X144.75Y-80.2
X144.75Y-92.2
X144.8Y-75.8
X144.8Y-87.8
X144.8Y-99.8
X145.188Y-111.5
X149.6Y-111.5
X152.027Y-126.2
X152.7Y-119.4
X152.9Y-124.6
X153.94Y-78.63
X154.29Y-81.18
X155.525Y-83.745
X155.525Y-98.0
X156.4Y-123.0
X157.575Y-88.735
X159.286Y-114.192
X159.471Y-106.195
X159.472Y-102.625
X159.567Y-113.363
X159.866Y-111.363
X160.475Y-68.2
X160.475Y-84.045
X160.475Y-98.045
X160.544Y-114.595
X161.35Y-114.81
X161.481Y-112.912
X161.607Y-111.708
X161.664Y-105.978
X161.672Y-110.505
X161.911Y-97.163
X163.672Y-117.178
X165.389Y-112.437
X165.757Y-66.779
X165.757Y-70.271
X165.757Y-74.745
X166.562Y-52.05
X167.063Y-50.801
X167.143Y-108.479
X167.378Y-114.573
X167.849Y-96.65
X168.088Y-46.95
X169.912Y-48.8
X170.977Y-108.749
X170.998Y-106.481
X171.397Y-72.754
X175.3Y-52.05
X175.3Y-58.05
T4
X164.0Y-45.0
X164.0Y-46.27
X164.0Y-47.54
X164.0Y-48.81
X164.0Y-50.08
T5
X64.0Y-117.3
X66.54Y-117.3
X84.0Y-117.3
X86.54Y-117.3
X104.0Y-117.3
X106.54Y-117.3
T6
X79.0Y-42.46
X79.0Y-45.0
X79.0Y-50.46
X79.0Y-53.0
X119.0Y-45.0
X119.0Y-47.54
X119.0Y-53.0
X119.0Y-55.54
T7
X58.92Y-122.38
X69.08Y-122.38
X78.92Y-122.38
X89.08Y-122.38
X98.92Y-122.38
X109.08Y-122.38
T3
X159.68Y-124.07G85X159.68Y-125.17
G05
X159.68Y-128.5G85X159.68Y-129.1
G05
X168.32Y-124.07G85X168.32Y-125.17
G05
X168.32Y-128.5G85X168.32Y-129.1
G05
M30
