%TF.GenerationSoftware,KiCad,Pcbnew,9.0.6*%
%TF.CreationDate,2026-08-31T00:35:32+02:00*%
%TF.ProjectId,relay_board,72656c61-795f-4626-9f61-72642e6b6963,rev?*%
%TF.SameCoordinates,Original*%
%TF.FileFunction,Legend,Top*%
%TF.FilePolarity,Positive*%
%FSLAX46Y46*%
G04 Gerber Fmt 4.6, Leading zero omitted, Abs format (unit mm)*
G04 Created by KiCad (PCBNEW 9.0.6) date 2026-08-31 00:35:32*
%MOMM*%
%LPD*%
G01*
G04 APERTURE LIST*
G04 Aperture macros list*
%AMRoundRect*
0 Rectangle with rounded corners*
0 $1 Rounding radius*
0 $2 $3 $4 $5 $6 $7 $8 $9 X,Y pos of 4 corners*
0 Add a 4 corners polygon primitive as box body*
4,1,4,$2,$3,$4,$5,$6,$7,$8,$9,$2,$3,0*
0 Add four circle primitives for the rounded corners*
1,1,$1+$1,$2,$3*
1,1,$1+$1,$4,$5*
1,1,$1+$1,$6,$7*
1,1,$1+$1,$8,$9*
0 Add four rect primitives between the rounded corners*
20,1,$1+$1,$2,$3,$4,$5,0*
20,1,$1+$1,$4,$5,$6,$7,0*
20,1,$1+$1,$6,$7,$8,$9,0*
20,1,$1+$1,$8,$9,$2,$3,0*%
G04 Aperture macros list end*
%ADD10C,0.250000*%
%ADD11C,0.500000*%
%ADD12C,0.260000*%
%ADD13C,0.150000*%
%ADD14C,0.400000*%
%ADD15C,0.280000*%
%ADD16C,0.120000*%
%ADD17R,2.100000X1.600000*%
%ADD18R,1.800000X0.800000*%
%ADD19RoundRect,0.140000X0.170000X-0.140000X0.170000X0.140000X-0.170000X0.140000X-0.170000X-0.140000X0*%
%ADD20RoundRect,0.250000X-0.262500X-0.450000X0.262500X-0.450000X0.262500X0.450000X-0.262500X0.450000X0*%
%ADD21RoundRect,0.150000X-0.512500X-0.150000X0.512500X-0.150000X0.512500X0.150000X-0.512500X0.150000X0*%
%ADD22RoundRect,0.150000X-0.825000X-0.150000X0.825000X-0.150000X0.825000X0.150000X-0.825000X0.150000X0*%
%ADD23RoundRect,0.250000X0.475000X-0.250000X0.475000X0.250000X-0.475000X0.250000X-0.475000X-0.250000X0*%
%ADD24RoundRect,0.225000X0.250000X-0.225000X0.250000X0.225000X-0.250000X0.225000X-0.250000X-0.225000X0*%
%ADD25RoundRect,0.135000X-0.135000X-0.185000X0.135000X-0.185000X0.135000X0.185000X-0.135000X0.185000X0*%
%ADD26R,1.000000X1.000000*%
%ADD27C,1.000000*%
%ADD28O,1.600000X2.500000*%
%ADD29O,3.500000X7.000000*%
%ADD30RoundRect,0.140000X-0.140000X-0.170000X0.140000X-0.170000X0.140000X0.170000X-0.140000X0.170000X0*%
%ADD31C,0.650000*%
%ADD32R,0.600000X1.450000*%
%ADD33R,0.300000X1.450000*%
%ADD34O,1.000000X2.100000*%
%ADD35O,1.000000X1.600000*%
%ADD36C,3.200000*%
%ADD37C,1.100000*%
%ADD38RoundRect,0.249999X0.850001X-0.850001X0.850001X0.850001X-0.850001X0.850001X-0.850001X-0.850001X0*%
%ADD39C,2.200000*%
%ADD40RoundRect,0.218750X-0.218750X-0.256250X0.218750X-0.256250X0.218750X0.256250X-0.218750X0.256250X0*%
%ADD41C,2.000000*%
%ADD42RoundRect,0.250000X0.450000X-0.262500X0.450000X0.262500X-0.450000X0.262500X-0.450000X-0.262500X0*%
%ADD43RoundRect,0.075000X-0.662500X-0.075000X0.662500X-0.075000X0.662500X0.075000X-0.662500X0.075000X0*%
%ADD44RoundRect,0.075000X-0.075000X-0.662500X0.075000X-0.662500X0.075000X0.662500X-0.075000X0.662500X0*%
%ADD45RoundRect,0.249999X-0.850001X0.850001X-0.850001X-0.850001X0.850001X-0.850001X0.850001X0.850001X0*%
G04 APERTURE END LIST*
D10*
X113500000Y-41000000D02*
X113500000Y-62000000D01*
X84500000Y-62000000D02*
X113500000Y-62000000D01*
X84500000Y-41000000D02*
X113500000Y-41000000D01*
X84500000Y-41000000D02*
X84500000Y-62000000D01*
D11*
X63178571Y-55821023D02*
X63535714Y-55940071D01*
X63535714Y-55940071D02*
X63654761Y-56059119D01*
X63654761Y-56059119D02*
X63773809Y-56297214D01*
X63773809Y-56297214D02*
X63773809Y-56654357D01*
X63773809Y-56654357D02*
X63654761Y-56892452D01*
X63654761Y-56892452D02*
X63535714Y-57011500D01*
X63535714Y-57011500D02*
X63297619Y-57130547D01*
X63297619Y-57130547D02*
X62345238Y-57130547D01*
X62345238Y-57130547D02*
X62345238Y-54630547D01*
X62345238Y-54630547D02*
X63178571Y-54630547D01*
X63178571Y-54630547D02*
X63416666Y-54749595D01*
X63416666Y-54749595D02*
X63535714Y-54868642D01*
X63535714Y-54868642D02*
X63654761Y-55106738D01*
X63654761Y-55106738D02*
X63654761Y-55344833D01*
X63654761Y-55344833D02*
X63535714Y-55582928D01*
X63535714Y-55582928D02*
X63416666Y-55701976D01*
X63416666Y-55701976D02*
X63178571Y-55821023D01*
X63178571Y-55821023D02*
X62345238Y-55821023D01*
D12*
X103102380Y-114064075D02*
X103040476Y-114125980D01*
X103040476Y-114125980D02*
X102854761Y-114187884D01*
X102854761Y-114187884D02*
X102730952Y-114187884D01*
X102730952Y-114187884D02*
X102545238Y-114125980D01*
X102545238Y-114125980D02*
X102421428Y-114002170D01*
X102421428Y-114002170D02*
X102359523Y-113878360D01*
X102359523Y-113878360D02*
X102297619Y-113630741D01*
X102297619Y-113630741D02*
X102297619Y-113445027D01*
X102297619Y-113445027D02*
X102359523Y-113197408D01*
X102359523Y-113197408D02*
X102421428Y-113073599D01*
X102421428Y-113073599D02*
X102545238Y-112949789D01*
X102545238Y-112949789D02*
X102730952Y-112887884D01*
X102730952Y-112887884D02*
X102854761Y-112887884D01*
X102854761Y-112887884D02*
X103040476Y-112949789D01*
X103040476Y-112949789D02*
X103102380Y-113011694D01*
X103659523Y-114187884D02*
X103659523Y-112887884D01*
X103659523Y-113506932D02*
X104402380Y-113506932D01*
X104402380Y-114187884D02*
X104402380Y-112887884D01*
X104959524Y-113011694D02*
X105021428Y-112949789D01*
X105021428Y-112949789D02*
X105145238Y-112887884D01*
X105145238Y-112887884D02*
X105454762Y-112887884D01*
X105454762Y-112887884D02*
X105578571Y-112949789D01*
X105578571Y-112949789D02*
X105640476Y-113011694D01*
X105640476Y-113011694D02*
X105702381Y-113135503D01*
X105702381Y-113135503D02*
X105702381Y-113259313D01*
X105702381Y-113259313D02*
X105640476Y-113445027D01*
X105640476Y-113445027D02*
X104897619Y-114187884D01*
X104897619Y-114187884D02*
X105702381Y-114187884D01*
D13*
X167142857Y-45407200D02*
X167285714Y-45454819D01*
X167285714Y-45454819D02*
X167523809Y-45454819D01*
X167523809Y-45454819D02*
X167619047Y-45407200D01*
X167619047Y-45407200D02*
X167666666Y-45359580D01*
X167666666Y-45359580D02*
X167714285Y-45264342D01*
X167714285Y-45264342D02*
X167714285Y-45169104D01*
X167714285Y-45169104D02*
X167666666Y-45073866D01*
X167666666Y-45073866D02*
X167619047Y-45026247D01*
X167619047Y-45026247D02*
X167523809Y-44978628D01*
X167523809Y-44978628D02*
X167333333Y-44931009D01*
X167333333Y-44931009D02*
X167238095Y-44883390D01*
X167238095Y-44883390D02*
X167190476Y-44835771D01*
X167190476Y-44835771D02*
X167142857Y-44740533D01*
X167142857Y-44740533D02*
X167142857Y-44645295D01*
X167142857Y-44645295D02*
X167190476Y-44550057D01*
X167190476Y-44550057D02*
X167238095Y-44502438D01*
X167238095Y-44502438D02*
X167333333Y-44454819D01*
X167333333Y-44454819D02*
X167571428Y-44454819D01*
X167571428Y-44454819D02*
X167714285Y-44502438D01*
X168047619Y-44454819D02*
X168285714Y-45454819D01*
X168285714Y-45454819D02*
X168476190Y-44740533D01*
X168476190Y-44740533D02*
X168666666Y-45454819D01*
X168666666Y-45454819D02*
X168904762Y-44454819D01*
X169285714Y-45454819D02*
X169285714Y-44454819D01*
X169285714Y-44454819D02*
X169523809Y-44454819D01*
X169523809Y-44454819D02*
X169666666Y-44502438D01*
X169666666Y-44502438D02*
X169761904Y-44597676D01*
X169761904Y-44597676D02*
X169809523Y-44692914D01*
X169809523Y-44692914D02*
X169857142Y-44883390D01*
X169857142Y-44883390D02*
X169857142Y-45026247D01*
X169857142Y-45026247D02*
X169809523Y-45216723D01*
X169809523Y-45216723D02*
X169761904Y-45311961D01*
X169761904Y-45311961D02*
X169666666Y-45407200D01*
X169666666Y-45407200D02*
X169523809Y-45454819D01*
X169523809Y-45454819D02*
X169285714Y-45454819D01*
D12*
X83102380Y-114064075D02*
X83040476Y-114125980D01*
X83040476Y-114125980D02*
X82854761Y-114187884D01*
X82854761Y-114187884D02*
X82730952Y-114187884D01*
X82730952Y-114187884D02*
X82545238Y-114125980D01*
X82545238Y-114125980D02*
X82421428Y-114002170D01*
X82421428Y-114002170D02*
X82359523Y-113878360D01*
X82359523Y-113878360D02*
X82297619Y-113630741D01*
X82297619Y-113630741D02*
X82297619Y-113445027D01*
X82297619Y-113445027D02*
X82359523Y-113197408D01*
X82359523Y-113197408D02*
X82421428Y-113073599D01*
X82421428Y-113073599D02*
X82545238Y-112949789D01*
X82545238Y-112949789D02*
X82730952Y-112887884D01*
X82730952Y-112887884D02*
X82854761Y-112887884D01*
X82854761Y-112887884D02*
X83040476Y-112949789D01*
X83040476Y-112949789D02*
X83102380Y-113011694D01*
X83659523Y-114187884D02*
X83659523Y-112887884D01*
X83659523Y-113506932D02*
X84402380Y-113506932D01*
X84402380Y-114187884D02*
X84402380Y-112887884D01*
X85702381Y-114187884D02*
X84959524Y-114187884D01*
X85330952Y-114187884D02*
X85330952Y-112887884D01*
X85330952Y-112887884D02*
X85207143Y-113073599D01*
X85207143Y-113073599D02*
X85083333Y-113197408D01*
X85083333Y-113197408D02*
X84959524Y-113259313D01*
D13*
X136776190Y-112359580D02*
X136728571Y-112407200D01*
X136728571Y-112407200D02*
X136585714Y-112454819D01*
X136585714Y-112454819D02*
X136490476Y-112454819D01*
X136490476Y-112454819D02*
X136347619Y-112407200D01*
X136347619Y-112407200D02*
X136252381Y-112311961D01*
X136252381Y-112311961D02*
X136204762Y-112216723D01*
X136204762Y-112216723D02*
X136157143Y-112026247D01*
X136157143Y-112026247D02*
X136157143Y-111883390D01*
X136157143Y-111883390D02*
X136204762Y-111692914D01*
X136204762Y-111692914D02*
X136252381Y-111597676D01*
X136252381Y-111597676D02*
X136347619Y-111502438D01*
X136347619Y-111502438D02*
X136490476Y-111454819D01*
X136490476Y-111454819D02*
X136585714Y-111454819D01*
X136585714Y-111454819D02*
X136728571Y-111502438D01*
X136728571Y-111502438D02*
X136776190Y-111550057D01*
X137157143Y-112169104D02*
X137633333Y-112169104D01*
X137061905Y-112454819D02*
X137395238Y-111454819D01*
X137395238Y-111454819D02*
X137728571Y-112454819D01*
X138538095Y-112454819D02*
X138061905Y-112454819D01*
X138061905Y-112454819D02*
X138061905Y-111454819D01*
D12*
X62699999Y-112887884D02*
X62947618Y-112887884D01*
X62947618Y-112887884D02*
X63071428Y-112949789D01*
X63071428Y-112949789D02*
X63195237Y-113073599D01*
X63195237Y-113073599D02*
X63257142Y-113321218D01*
X63257142Y-113321218D02*
X63257142Y-113754551D01*
X63257142Y-113754551D02*
X63195237Y-114002170D01*
X63195237Y-114002170D02*
X63071428Y-114125980D01*
X63071428Y-114125980D02*
X62947618Y-114187884D01*
X62947618Y-114187884D02*
X62699999Y-114187884D01*
X62699999Y-114187884D02*
X62576190Y-114125980D01*
X62576190Y-114125980D02*
X62452380Y-114002170D01*
X62452380Y-114002170D02*
X62390476Y-113754551D01*
X62390476Y-113754551D02*
X62390476Y-113321218D01*
X62390476Y-113321218D02*
X62452380Y-113073599D01*
X62452380Y-113073599D02*
X62576190Y-112949789D01*
X62576190Y-112949789D02*
X62699999Y-112887884D01*
X63814285Y-112887884D02*
X63814285Y-113940265D01*
X63814285Y-113940265D02*
X63876190Y-114064075D01*
X63876190Y-114064075D02*
X63938095Y-114125980D01*
X63938095Y-114125980D02*
X64061904Y-114187884D01*
X64061904Y-114187884D02*
X64309523Y-114187884D01*
X64309523Y-114187884D02*
X64433333Y-114125980D01*
X64433333Y-114125980D02*
X64495238Y-114064075D01*
X64495238Y-114064075D02*
X64557142Y-113940265D01*
X64557142Y-113940265D02*
X64557142Y-112887884D01*
X64990476Y-112887884D02*
X65733333Y-112887884D01*
X65361905Y-114187884D02*
X65361905Y-112887884D01*
D14*
X96666666Y-49904438D02*
X96666666Y-47904438D01*
X96666666Y-47904438D02*
X97142856Y-47904438D01*
X97142856Y-47904438D02*
X97428571Y-47999676D01*
X97428571Y-47999676D02*
X97619047Y-48190152D01*
X97619047Y-48190152D02*
X97714285Y-48380628D01*
X97714285Y-48380628D02*
X97809523Y-48761580D01*
X97809523Y-48761580D02*
X97809523Y-49047295D01*
X97809523Y-49047295D02*
X97714285Y-49428247D01*
X97714285Y-49428247D02*
X97619047Y-49618723D01*
X97619047Y-49618723D02*
X97428571Y-49809200D01*
X97428571Y-49809200D02*
X97142856Y-49904438D01*
X97142856Y-49904438D02*
X96666666Y-49904438D01*
X98666666Y-47904438D02*
X98666666Y-49523485D01*
X98666666Y-49523485D02*
X98761904Y-49713961D01*
X98761904Y-49713961D02*
X98857142Y-49809200D01*
X98857142Y-49809200D02*
X99047618Y-49904438D01*
X99047618Y-49904438D02*
X99428571Y-49904438D01*
X99428571Y-49904438D02*
X99619047Y-49809200D01*
X99619047Y-49809200D02*
X99714285Y-49713961D01*
X99714285Y-49713961D02*
X99809523Y-49523485D01*
X99809523Y-49523485D02*
X99809523Y-47904438D01*
X100476190Y-47904438D02*
X101619047Y-47904438D01*
X101047618Y-49904438D02*
X101047618Y-47904438D01*
D11*
X135773809Y-45392452D02*
X135654761Y-45511500D01*
X135654761Y-45511500D02*
X135297619Y-45630547D01*
X135297619Y-45630547D02*
X135059523Y-45630547D01*
X135059523Y-45630547D02*
X134702380Y-45511500D01*
X134702380Y-45511500D02*
X134464285Y-45273404D01*
X134464285Y-45273404D02*
X134345238Y-45035309D01*
X134345238Y-45035309D02*
X134226190Y-44559119D01*
X134226190Y-44559119D02*
X134226190Y-44201976D01*
X134226190Y-44201976D02*
X134345238Y-43725785D01*
X134345238Y-43725785D02*
X134464285Y-43487690D01*
X134464285Y-43487690D02*
X134702380Y-43249595D01*
X134702380Y-43249595D02*
X135059523Y-43130547D01*
X135059523Y-43130547D02*
X135297619Y-43130547D01*
X135297619Y-43130547D02*
X135654761Y-43249595D01*
X135654761Y-43249595D02*
X135773809Y-43368642D01*
X62404762Y-44916261D02*
X63595238Y-44916261D01*
X62166667Y-45630547D02*
X63000000Y-43130547D01*
X63000000Y-43130547D02*
X63833333Y-45630547D01*
D15*
X73399999Y-107233106D02*
X73666665Y-107233106D01*
X73666665Y-107233106D02*
X73799999Y-107299773D01*
X73799999Y-107299773D02*
X73933332Y-107433106D01*
X73933332Y-107433106D02*
X73999999Y-107699773D01*
X73999999Y-107699773D02*
X73999999Y-108166440D01*
X73999999Y-108166440D02*
X73933332Y-108433106D01*
X73933332Y-108433106D02*
X73799999Y-108566440D01*
X73799999Y-108566440D02*
X73666665Y-108633106D01*
X73666665Y-108633106D02*
X73399999Y-108633106D01*
X73399999Y-108633106D02*
X73266665Y-108566440D01*
X73266665Y-108566440D02*
X73133332Y-108433106D01*
X73133332Y-108433106D02*
X73066665Y-108166440D01*
X73066665Y-108166440D02*
X73066665Y-107699773D01*
X73066665Y-107699773D02*
X73133332Y-107433106D01*
X73133332Y-107433106D02*
X73266665Y-107299773D01*
X73266665Y-107299773D02*
X73399999Y-107233106D01*
X74599999Y-107699773D02*
X74599999Y-109099773D01*
X74599999Y-107766440D02*
X74733332Y-107699773D01*
X74733332Y-107699773D02*
X74999999Y-107699773D01*
X74999999Y-107699773D02*
X75133332Y-107766440D01*
X75133332Y-107766440D02*
X75199999Y-107833106D01*
X75199999Y-107833106D02*
X75266666Y-107966440D01*
X75266666Y-107966440D02*
X75266666Y-108366440D01*
X75266666Y-108366440D02*
X75199999Y-108499773D01*
X75199999Y-108499773D02*
X75133332Y-108566440D01*
X75133332Y-108566440D02*
X74999999Y-108633106D01*
X74999999Y-108633106D02*
X74733332Y-108633106D01*
X74733332Y-108633106D02*
X74599999Y-108566440D01*
X76399999Y-108566440D02*
X76266666Y-108633106D01*
X76266666Y-108633106D02*
X75999999Y-108633106D01*
X75999999Y-108633106D02*
X75866666Y-108566440D01*
X75866666Y-108566440D02*
X75799999Y-108433106D01*
X75799999Y-108433106D02*
X75799999Y-107899773D01*
X75799999Y-107899773D02*
X75866666Y-107766440D01*
X75866666Y-107766440D02*
X75999999Y-107699773D01*
X75999999Y-107699773D02*
X76266666Y-107699773D01*
X76266666Y-107699773D02*
X76399999Y-107766440D01*
X76399999Y-107766440D02*
X76466666Y-107899773D01*
X76466666Y-107899773D02*
X76466666Y-108033106D01*
X76466666Y-108033106D02*
X75799999Y-108166440D01*
X77066666Y-107699773D02*
X77066666Y-108633106D01*
X77066666Y-107833106D02*
X77133333Y-107766440D01*
X77133333Y-107766440D02*
X77266666Y-107699773D01*
X77266666Y-107699773D02*
X77466666Y-107699773D01*
X77466666Y-107699773D02*
X77599999Y-107766440D01*
X77599999Y-107766440D02*
X77666666Y-107899773D01*
X77666666Y-107899773D02*
X77666666Y-108633106D01*
X78333333Y-108633106D02*
X78333333Y-107233106D01*
X78333333Y-107233106D02*
X78800000Y-108233106D01*
X78800000Y-108233106D02*
X79266666Y-107233106D01*
X79266666Y-107233106D02*
X79266666Y-108633106D01*
X80533333Y-108633106D02*
X80533333Y-107899773D01*
X80533333Y-107899773D02*
X80466666Y-107766440D01*
X80466666Y-107766440D02*
X80333333Y-107699773D01*
X80333333Y-107699773D02*
X80066666Y-107699773D01*
X80066666Y-107699773D02*
X79933333Y-107766440D01*
X80533333Y-108566440D02*
X80400000Y-108633106D01*
X80400000Y-108633106D02*
X80066666Y-108633106D01*
X80066666Y-108633106D02*
X79933333Y-108566440D01*
X79933333Y-108566440D02*
X79866666Y-108433106D01*
X79866666Y-108433106D02*
X79866666Y-108299773D01*
X79866666Y-108299773D02*
X79933333Y-108166440D01*
X79933333Y-108166440D02*
X80066666Y-108099773D01*
X80066666Y-108099773D02*
X80400000Y-108099773D01*
X80400000Y-108099773D02*
X80533333Y-108033106D01*
X81800000Y-107699773D02*
X81800000Y-108833106D01*
X81800000Y-108833106D02*
X81733333Y-108966440D01*
X81733333Y-108966440D02*
X81666667Y-109033106D01*
X81666667Y-109033106D02*
X81533333Y-109099773D01*
X81533333Y-109099773D02*
X81333333Y-109099773D01*
X81333333Y-109099773D02*
X81200000Y-109033106D01*
X81800000Y-108566440D02*
X81666667Y-108633106D01*
X81666667Y-108633106D02*
X81400000Y-108633106D01*
X81400000Y-108633106D02*
X81266667Y-108566440D01*
X81266667Y-108566440D02*
X81200000Y-108499773D01*
X81200000Y-108499773D02*
X81133333Y-108366440D01*
X81133333Y-108366440D02*
X81133333Y-107966440D01*
X81133333Y-107966440D02*
X81200000Y-107833106D01*
X81200000Y-107833106D02*
X81266667Y-107766440D01*
X81266667Y-107766440D02*
X81400000Y-107699773D01*
X81400000Y-107699773D02*
X81666667Y-107699773D01*
X81666667Y-107699773D02*
X81800000Y-107766440D01*
X82466667Y-107699773D02*
X82466667Y-108633106D01*
X82466667Y-107833106D02*
X82533334Y-107766440D01*
X82533334Y-107766440D02*
X82666667Y-107699773D01*
X82666667Y-107699773D02*
X82866667Y-107699773D01*
X82866667Y-107699773D02*
X83000000Y-107766440D01*
X83000000Y-107766440D02*
X83066667Y-107899773D01*
X83066667Y-107899773D02*
X83066667Y-108633106D01*
X84266667Y-108566440D02*
X84133334Y-108633106D01*
X84133334Y-108633106D02*
X83866667Y-108633106D01*
X83866667Y-108633106D02*
X83733334Y-108566440D01*
X83733334Y-108566440D02*
X83666667Y-108433106D01*
X83666667Y-108433106D02*
X83666667Y-107899773D01*
X83666667Y-107899773D02*
X83733334Y-107766440D01*
X83733334Y-107766440D02*
X83866667Y-107699773D01*
X83866667Y-107699773D02*
X84133334Y-107699773D01*
X84133334Y-107699773D02*
X84266667Y-107766440D01*
X84266667Y-107766440D02*
X84333334Y-107899773D01*
X84333334Y-107899773D02*
X84333334Y-108033106D01*
X84333334Y-108033106D02*
X83666667Y-108166440D01*
X84733334Y-107699773D02*
X85266667Y-107699773D01*
X84933334Y-107233106D02*
X84933334Y-108433106D01*
X84933334Y-108433106D02*
X85000001Y-108566440D01*
X85000001Y-108566440D02*
X85133334Y-108633106D01*
X85133334Y-108633106D02*
X85266667Y-108633106D01*
X85733334Y-108633106D02*
X85733334Y-107699773D01*
X85733334Y-107233106D02*
X85666667Y-107299773D01*
X85666667Y-107299773D02*
X85733334Y-107366440D01*
X85733334Y-107366440D02*
X85800001Y-107299773D01*
X85800001Y-107299773D02*
X85733334Y-107233106D01*
X85733334Y-107233106D02*
X85733334Y-107366440D01*
X87000001Y-108566440D02*
X86866668Y-108633106D01*
X86866668Y-108633106D02*
X86600001Y-108633106D01*
X86600001Y-108633106D02*
X86466668Y-108566440D01*
X86466668Y-108566440D02*
X86400001Y-108499773D01*
X86400001Y-108499773D02*
X86333334Y-108366440D01*
X86333334Y-108366440D02*
X86333334Y-107966440D01*
X86333334Y-107966440D02*
X86400001Y-107833106D01*
X86400001Y-107833106D02*
X86466668Y-107766440D01*
X86466668Y-107766440D02*
X86600001Y-107699773D01*
X86600001Y-107699773D02*
X86866668Y-107699773D01*
X86866668Y-107699773D02*
X87000001Y-107766440D01*
X87533334Y-108566440D02*
X87666668Y-108633106D01*
X87666668Y-108633106D02*
X87933334Y-108633106D01*
X87933334Y-108633106D02*
X88066668Y-108566440D01*
X88066668Y-108566440D02*
X88133334Y-108433106D01*
X88133334Y-108433106D02*
X88133334Y-108366440D01*
X88133334Y-108366440D02*
X88066668Y-108233106D01*
X88066668Y-108233106D02*
X87933334Y-108166440D01*
X87933334Y-108166440D02*
X87733334Y-108166440D01*
X87733334Y-108166440D02*
X87600001Y-108099773D01*
X87600001Y-108099773D02*
X87533334Y-107966440D01*
X87533334Y-107966440D02*
X87533334Y-107899773D01*
X87533334Y-107899773D02*
X87600001Y-107766440D01*
X87600001Y-107766440D02*
X87733334Y-107699773D01*
X87733334Y-107699773D02*
X87933334Y-107699773D01*
X87933334Y-107699773D02*
X88066668Y-107766440D01*
X90600001Y-108633106D02*
X90133334Y-107966440D01*
X89800001Y-108633106D02*
X89800001Y-107233106D01*
X89800001Y-107233106D02*
X90333334Y-107233106D01*
X90333334Y-107233106D02*
X90466668Y-107299773D01*
X90466668Y-107299773D02*
X90533334Y-107366440D01*
X90533334Y-107366440D02*
X90600001Y-107499773D01*
X90600001Y-107499773D02*
X90600001Y-107699773D01*
X90600001Y-107699773D02*
X90533334Y-107833106D01*
X90533334Y-107833106D02*
X90466668Y-107899773D01*
X90466668Y-107899773D02*
X90333334Y-107966440D01*
X90333334Y-107966440D02*
X89800001Y-107966440D01*
X91733334Y-108566440D02*
X91600001Y-108633106D01*
X91600001Y-108633106D02*
X91333334Y-108633106D01*
X91333334Y-108633106D02*
X91200001Y-108566440D01*
X91200001Y-108566440D02*
X91133334Y-108433106D01*
X91133334Y-108433106D02*
X91133334Y-107899773D01*
X91133334Y-107899773D02*
X91200001Y-107766440D01*
X91200001Y-107766440D02*
X91333334Y-107699773D01*
X91333334Y-107699773D02*
X91600001Y-107699773D01*
X91600001Y-107699773D02*
X91733334Y-107766440D01*
X91733334Y-107766440D02*
X91800001Y-107899773D01*
X91800001Y-107899773D02*
X91800001Y-108033106D01*
X91800001Y-108033106D02*
X91133334Y-108166440D01*
X92600001Y-108633106D02*
X92466668Y-108566440D01*
X92466668Y-108566440D02*
X92400001Y-108433106D01*
X92400001Y-108433106D02*
X92400001Y-107233106D01*
X93733334Y-108633106D02*
X93733334Y-107899773D01*
X93733334Y-107899773D02*
X93666667Y-107766440D01*
X93666667Y-107766440D02*
X93533334Y-107699773D01*
X93533334Y-107699773D02*
X93266667Y-107699773D01*
X93266667Y-107699773D02*
X93133334Y-107766440D01*
X93733334Y-108566440D02*
X93600001Y-108633106D01*
X93600001Y-108633106D02*
X93266667Y-108633106D01*
X93266667Y-108633106D02*
X93133334Y-108566440D01*
X93133334Y-108566440D02*
X93066667Y-108433106D01*
X93066667Y-108433106D02*
X93066667Y-108299773D01*
X93066667Y-108299773D02*
X93133334Y-108166440D01*
X93133334Y-108166440D02*
X93266667Y-108099773D01*
X93266667Y-108099773D02*
X93600001Y-108099773D01*
X93600001Y-108099773D02*
X93733334Y-108033106D01*
X94266668Y-107699773D02*
X94600001Y-108633106D01*
X94933334Y-107699773D02*
X94600001Y-108633106D01*
X94600001Y-108633106D02*
X94466668Y-108966440D01*
X94466668Y-108966440D02*
X94400001Y-109033106D01*
X94400001Y-109033106D02*
X94266668Y-109099773D01*
X97000002Y-107899773D02*
X97200002Y-107966440D01*
X97200002Y-107966440D02*
X97266668Y-108033106D01*
X97266668Y-108033106D02*
X97333335Y-108166440D01*
X97333335Y-108166440D02*
X97333335Y-108366440D01*
X97333335Y-108366440D02*
X97266668Y-108499773D01*
X97266668Y-108499773D02*
X97200002Y-108566440D01*
X97200002Y-108566440D02*
X97066668Y-108633106D01*
X97066668Y-108633106D02*
X96533335Y-108633106D01*
X96533335Y-108633106D02*
X96533335Y-107233106D01*
X96533335Y-107233106D02*
X97000002Y-107233106D01*
X97000002Y-107233106D02*
X97133335Y-107299773D01*
X97133335Y-107299773D02*
X97200002Y-107366440D01*
X97200002Y-107366440D02*
X97266668Y-107499773D01*
X97266668Y-107499773D02*
X97266668Y-107633106D01*
X97266668Y-107633106D02*
X97200002Y-107766440D01*
X97200002Y-107766440D02*
X97133335Y-107833106D01*
X97133335Y-107833106D02*
X97000002Y-107899773D01*
X97000002Y-107899773D02*
X96533335Y-107899773D01*
X98133335Y-108633106D02*
X98000002Y-108566440D01*
X98000002Y-108566440D02*
X97933335Y-108499773D01*
X97933335Y-108499773D02*
X97866668Y-108366440D01*
X97866668Y-108366440D02*
X97866668Y-107966440D01*
X97866668Y-107966440D02*
X97933335Y-107833106D01*
X97933335Y-107833106D02*
X98000002Y-107766440D01*
X98000002Y-107766440D02*
X98133335Y-107699773D01*
X98133335Y-107699773D02*
X98333335Y-107699773D01*
X98333335Y-107699773D02*
X98466668Y-107766440D01*
X98466668Y-107766440D02*
X98533335Y-107833106D01*
X98533335Y-107833106D02*
X98600002Y-107966440D01*
X98600002Y-107966440D02*
X98600002Y-108366440D01*
X98600002Y-108366440D02*
X98533335Y-108499773D01*
X98533335Y-108499773D02*
X98466668Y-108566440D01*
X98466668Y-108566440D02*
X98333335Y-108633106D01*
X98333335Y-108633106D02*
X98133335Y-108633106D01*
X99800002Y-108633106D02*
X99800002Y-107899773D01*
X99800002Y-107899773D02*
X99733335Y-107766440D01*
X99733335Y-107766440D02*
X99600002Y-107699773D01*
X99600002Y-107699773D02*
X99333335Y-107699773D01*
X99333335Y-107699773D02*
X99200002Y-107766440D01*
X99800002Y-108566440D02*
X99666669Y-108633106D01*
X99666669Y-108633106D02*
X99333335Y-108633106D01*
X99333335Y-108633106D02*
X99200002Y-108566440D01*
X99200002Y-108566440D02*
X99133335Y-108433106D01*
X99133335Y-108433106D02*
X99133335Y-108299773D01*
X99133335Y-108299773D02*
X99200002Y-108166440D01*
X99200002Y-108166440D02*
X99333335Y-108099773D01*
X99333335Y-108099773D02*
X99666669Y-108099773D01*
X99666669Y-108099773D02*
X99800002Y-108033106D01*
X100466669Y-108633106D02*
X100466669Y-107699773D01*
X100466669Y-107966440D02*
X100533336Y-107833106D01*
X100533336Y-107833106D02*
X100600002Y-107766440D01*
X100600002Y-107766440D02*
X100733336Y-107699773D01*
X100733336Y-107699773D02*
X100866669Y-107699773D01*
X101933336Y-108633106D02*
X101933336Y-107233106D01*
X101933336Y-108566440D02*
X101800003Y-108633106D01*
X101800003Y-108633106D02*
X101533336Y-108633106D01*
X101533336Y-108633106D02*
X101400003Y-108566440D01*
X101400003Y-108566440D02*
X101333336Y-108499773D01*
X101333336Y-108499773D02*
X101266669Y-108366440D01*
X101266669Y-108366440D02*
X101266669Y-107966440D01*
X101266669Y-107966440D02*
X101333336Y-107833106D01*
X101333336Y-107833106D02*
X101400003Y-107766440D01*
X101400003Y-107766440D02*
X101533336Y-107699773D01*
X101533336Y-107699773D02*
X101800003Y-107699773D01*
X101800003Y-107699773D02*
X101933336Y-107766440D01*
X103666670Y-108633106D02*
X103666670Y-107699773D01*
X103666670Y-107966440D02*
X103733337Y-107833106D01*
X103733337Y-107833106D02*
X103800003Y-107766440D01*
X103800003Y-107766440D02*
X103933337Y-107699773D01*
X103933337Y-107699773D02*
X104066670Y-107699773D01*
X105066670Y-108566440D02*
X104933337Y-108633106D01*
X104933337Y-108633106D02*
X104666670Y-108633106D01*
X104666670Y-108633106D02*
X104533337Y-108566440D01*
X104533337Y-108566440D02*
X104466670Y-108433106D01*
X104466670Y-108433106D02*
X104466670Y-107899773D01*
X104466670Y-107899773D02*
X104533337Y-107766440D01*
X104533337Y-107766440D02*
X104666670Y-107699773D01*
X104666670Y-107699773D02*
X104933337Y-107699773D01*
X104933337Y-107699773D02*
X105066670Y-107766440D01*
X105066670Y-107766440D02*
X105133337Y-107899773D01*
X105133337Y-107899773D02*
X105133337Y-108033106D01*
X105133337Y-108033106D02*
X104466670Y-108166440D01*
X105600004Y-107699773D02*
X105933337Y-108633106D01*
X105933337Y-108633106D02*
X106266670Y-107699773D01*
X108333338Y-107899773D02*
X108533338Y-107966440D01*
X108533338Y-107966440D02*
X108600004Y-108033106D01*
X108600004Y-108033106D02*
X108666671Y-108166440D01*
X108666671Y-108166440D02*
X108666671Y-108366440D01*
X108666671Y-108366440D02*
X108600004Y-108499773D01*
X108600004Y-108499773D02*
X108533338Y-108566440D01*
X108533338Y-108566440D02*
X108400004Y-108633106D01*
X108400004Y-108633106D02*
X107866671Y-108633106D01*
X107866671Y-108633106D02*
X107866671Y-107233106D01*
X107866671Y-107233106D02*
X108333338Y-107233106D01*
X108333338Y-107233106D02*
X108466671Y-107299773D01*
X108466671Y-107299773D02*
X108533338Y-107366440D01*
X108533338Y-107366440D02*
X108600004Y-107499773D01*
X108600004Y-107499773D02*
X108600004Y-107633106D01*
X108600004Y-107633106D02*
X108533338Y-107766440D01*
X108533338Y-107766440D02*
X108466671Y-107833106D01*
X108466671Y-107833106D02*
X108333338Y-107899773D01*
X108333338Y-107899773D02*
X107866671Y-107899773D01*
X111333338Y-107366440D02*
X111400005Y-107299773D01*
X111400005Y-107299773D02*
X111533338Y-107233106D01*
X111533338Y-107233106D02*
X111866672Y-107233106D01*
X111866672Y-107233106D02*
X112000005Y-107299773D01*
X112000005Y-107299773D02*
X112066672Y-107366440D01*
X112066672Y-107366440D02*
X112133338Y-107499773D01*
X112133338Y-107499773D02*
X112133338Y-107633106D01*
X112133338Y-107633106D02*
X112066672Y-107833106D01*
X112066672Y-107833106D02*
X111266672Y-108633106D01*
X111266672Y-108633106D02*
X112133338Y-108633106D01*
X113000005Y-107233106D02*
X113133338Y-107233106D01*
X113133338Y-107233106D02*
X113266671Y-107299773D01*
X113266671Y-107299773D02*
X113333338Y-107366440D01*
X113333338Y-107366440D02*
X113400005Y-107499773D01*
X113400005Y-107499773D02*
X113466671Y-107766440D01*
X113466671Y-107766440D02*
X113466671Y-108099773D01*
X113466671Y-108099773D02*
X113400005Y-108366440D01*
X113400005Y-108366440D02*
X113333338Y-108499773D01*
X113333338Y-108499773D02*
X113266671Y-108566440D01*
X113266671Y-108566440D02*
X113133338Y-108633106D01*
X113133338Y-108633106D02*
X113000005Y-108633106D01*
X113000005Y-108633106D02*
X112866671Y-108566440D01*
X112866671Y-108566440D02*
X112800005Y-108499773D01*
X112800005Y-108499773D02*
X112733338Y-108366440D01*
X112733338Y-108366440D02*
X112666671Y-108099773D01*
X112666671Y-108099773D02*
X112666671Y-107766440D01*
X112666671Y-107766440D02*
X112733338Y-107499773D01*
X112733338Y-107499773D02*
X112800005Y-107366440D01*
X112800005Y-107366440D02*
X112866671Y-107299773D01*
X112866671Y-107299773D02*
X113000005Y-107233106D01*
X114000004Y-107366440D02*
X114066671Y-107299773D01*
X114066671Y-107299773D02*
X114200004Y-107233106D01*
X114200004Y-107233106D02*
X114533338Y-107233106D01*
X114533338Y-107233106D02*
X114666671Y-107299773D01*
X114666671Y-107299773D02*
X114733338Y-107366440D01*
X114733338Y-107366440D02*
X114800004Y-107499773D01*
X114800004Y-107499773D02*
X114800004Y-107633106D01*
X114800004Y-107633106D02*
X114733338Y-107833106D01*
X114733338Y-107833106D02*
X113933338Y-108633106D01*
X113933338Y-108633106D02*
X114800004Y-108633106D01*
X116000004Y-107233106D02*
X115733337Y-107233106D01*
X115733337Y-107233106D02*
X115600004Y-107299773D01*
X115600004Y-107299773D02*
X115533337Y-107366440D01*
X115533337Y-107366440D02*
X115400004Y-107566440D01*
X115400004Y-107566440D02*
X115333337Y-107833106D01*
X115333337Y-107833106D02*
X115333337Y-108366440D01*
X115333337Y-108366440D02*
X115400004Y-108499773D01*
X115400004Y-108499773D02*
X115466671Y-108566440D01*
X115466671Y-108566440D02*
X115600004Y-108633106D01*
X115600004Y-108633106D02*
X115866671Y-108633106D01*
X115866671Y-108633106D02*
X116000004Y-108566440D01*
X116000004Y-108566440D02*
X116066671Y-108499773D01*
X116066671Y-108499773D02*
X116133337Y-108366440D01*
X116133337Y-108366440D02*
X116133337Y-108033106D01*
X116133337Y-108033106D02*
X116066671Y-107899773D01*
X116066671Y-107899773D02*
X116000004Y-107833106D01*
X116000004Y-107833106D02*
X115866671Y-107766440D01*
X115866671Y-107766440D02*
X115600004Y-107766440D01*
X115600004Y-107766440D02*
X115466671Y-107833106D01*
X115466671Y-107833106D02*
X115400004Y-107899773D01*
X115400004Y-107899773D02*
X115333337Y-108033106D01*
X116733337Y-108099773D02*
X117800004Y-108099773D01*
X118733337Y-107233106D02*
X118866670Y-107233106D01*
X118866670Y-107233106D02*
X119000003Y-107299773D01*
X119000003Y-107299773D02*
X119066670Y-107366440D01*
X119066670Y-107366440D02*
X119133337Y-107499773D01*
X119133337Y-107499773D02*
X119200003Y-107766440D01*
X119200003Y-107766440D02*
X119200003Y-108099773D01*
X119200003Y-108099773D02*
X119133337Y-108366440D01*
X119133337Y-108366440D02*
X119066670Y-108499773D01*
X119066670Y-108499773D02*
X119000003Y-108566440D01*
X119000003Y-108566440D02*
X118866670Y-108633106D01*
X118866670Y-108633106D02*
X118733337Y-108633106D01*
X118733337Y-108633106D02*
X118600003Y-108566440D01*
X118600003Y-108566440D02*
X118533337Y-108499773D01*
X118533337Y-108499773D02*
X118466670Y-108366440D01*
X118466670Y-108366440D02*
X118400003Y-108099773D01*
X118400003Y-108099773D02*
X118400003Y-107766440D01*
X118400003Y-107766440D02*
X118466670Y-107499773D01*
X118466670Y-107499773D02*
X118533337Y-107366440D01*
X118533337Y-107366440D02*
X118600003Y-107299773D01*
X118600003Y-107299773D02*
X118733337Y-107233106D01*
X120000003Y-107833106D02*
X119866670Y-107766440D01*
X119866670Y-107766440D02*
X119800003Y-107699773D01*
X119800003Y-107699773D02*
X119733336Y-107566440D01*
X119733336Y-107566440D02*
X119733336Y-107499773D01*
X119733336Y-107499773D02*
X119800003Y-107366440D01*
X119800003Y-107366440D02*
X119866670Y-107299773D01*
X119866670Y-107299773D02*
X120000003Y-107233106D01*
X120000003Y-107233106D02*
X120266670Y-107233106D01*
X120266670Y-107233106D02*
X120400003Y-107299773D01*
X120400003Y-107299773D02*
X120466670Y-107366440D01*
X120466670Y-107366440D02*
X120533336Y-107499773D01*
X120533336Y-107499773D02*
X120533336Y-107566440D01*
X120533336Y-107566440D02*
X120466670Y-107699773D01*
X120466670Y-107699773D02*
X120400003Y-107766440D01*
X120400003Y-107766440D02*
X120266670Y-107833106D01*
X120266670Y-107833106D02*
X120000003Y-107833106D01*
X120000003Y-107833106D02*
X119866670Y-107899773D01*
X119866670Y-107899773D02*
X119800003Y-107966440D01*
X119800003Y-107966440D02*
X119733336Y-108099773D01*
X119733336Y-108099773D02*
X119733336Y-108366440D01*
X119733336Y-108366440D02*
X119800003Y-108499773D01*
X119800003Y-108499773D02*
X119866670Y-108566440D01*
X119866670Y-108566440D02*
X120000003Y-108633106D01*
X120000003Y-108633106D02*
X120266670Y-108633106D01*
X120266670Y-108633106D02*
X120400003Y-108566440D01*
X120400003Y-108566440D02*
X120466670Y-108499773D01*
X120466670Y-108499773D02*
X120533336Y-108366440D01*
X120533336Y-108366440D02*
X120533336Y-108099773D01*
X120533336Y-108099773D02*
X120466670Y-107966440D01*
X120466670Y-107966440D02*
X120400003Y-107899773D01*
X120400003Y-107899773D02*
X120266670Y-107833106D01*
X121133336Y-108099773D02*
X122200003Y-108099773D01*
X122733336Y-107233106D02*
X123600002Y-107233106D01*
X123600002Y-107233106D02*
X123133336Y-107766440D01*
X123133336Y-107766440D02*
X123333336Y-107766440D01*
X123333336Y-107766440D02*
X123466669Y-107833106D01*
X123466669Y-107833106D02*
X123533336Y-107899773D01*
X123533336Y-107899773D02*
X123600002Y-108033106D01*
X123600002Y-108033106D02*
X123600002Y-108366440D01*
X123600002Y-108366440D02*
X123533336Y-108499773D01*
X123533336Y-108499773D02*
X123466669Y-108566440D01*
X123466669Y-108566440D02*
X123333336Y-108633106D01*
X123333336Y-108633106D02*
X122933336Y-108633106D01*
X122933336Y-108633106D02*
X122800002Y-108566440D01*
X122800002Y-108566440D02*
X122733336Y-108499773D01*
X124466669Y-107233106D02*
X124600002Y-107233106D01*
X124600002Y-107233106D02*
X124733335Y-107299773D01*
X124733335Y-107299773D02*
X124800002Y-107366440D01*
X124800002Y-107366440D02*
X124866669Y-107499773D01*
X124866669Y-107499773D02*
X124933335Y-107766440D01*
X124933335Y-107766440D02*
X124933335Y-108099773D01*
X124933335Y-108099773D02*
X124866669Y-108366440D01*
X124866669Y-108366440D02*
X124800002Y-108499773D01*
X124800002Y-108499773D02*
X124733335Y-108566440D01*
X124733335Y-108566440D02*
X124600002Y-108633106D01*
X124600002Y-108633106D02*
X124466669Y-108633106D01*
X124466669Y-108633106D02*
X124333335Y-108566440D01*
X124333335Y-108566440D02*
X124266669Y-108499773D01*
X124266669Y-108499773D02*
X124200002Y-108366440D01*
X124200002Y-108366440D02*
X124133335Y-108099773D01*
X124133335Y-108099773D02*
X124133335Y-107766440D01*
X124133335Y-107766440D02*
X124200002Y-107499773D01*
X124200002Y-107499773D02*
X124266669Y-107366440D01*
X124266669Y-107366440D02*
X124333335Y-107299773D01*
X124333335Y-107299773D02*
X124466669Y-107233106D01*
D11*
X134345238Y-57130547D02*
X134345238Y-54630547D01*
X134345238Y-54630547D02*
X134940476Y-54630547D01*
X134940476Y-54630547D02*
X135297619Y-54749595D01*
X135297619Y-54749595D02*
X135535714Y-54987690D01*
X135535714Y-54987690D02*
X135654761Y-55225785D01*
X135654761Y-55225785D02*
X135773809Y-55701976D01*
X135773809Y-55701976D02*
X135773809Y-56059119D01*
X135773809Y-56059119D02*
X135654761Y-56535309D01*
X135654761Y-56535309D02*
X135535714Y-56773404D01*
X135535714Y-56773404D02*
X135297619Y-57011500D01*
X135297619Y-57011500D02*
X134940476Y-57130547D01*
X134940476Y-57130547D02*
X134345238Y-57130547D01*
D16*
%TO.C,K9*%
X121050000Y-90650000D02*
X121050000Y-91000000D01*
X121050000Y-90650000D02*
X127950000Y-90650000D01*
X121050000Y-101350000D02*
X121050000Y-101000000D01*
X121050000Y-101350000D02*
X127950000Y-101350000D01*
X127950000Y-90650000D02*
X127950000Y-91000000D01*
X127950000Y-101350000D02*
X127950000Y-101000000D01*
D10*
X119500000Y-92200000D02*
G75*
G02*
X118900000Y-92200000I-300000J0D01*
G01*
X118900000Y-92200000D02*
G75*
G02*
X119500000Y-92200000I300000J0D01*
G01*
D16*
%TO.C,C6*%
X167740000Y-74107836D02*
X167740000Y-73892164D01*
X168460000Y-74107836D02*
X168460000Y-73892164D01*
%TO.C,C11*%
X167740000Y-65607836D02*
X167740000Y-65392164D01*
X168460000Y-65607836D02*
X168460000Y-65392164D01*
%TO.C,R9*%
X168772936Y-46765000D02*
X169227064Y-46765000D01*
X168772936Y-48235000D02*
X169227064Y-48235000D01*
%TO.C,K12*%
X143050000Y-90650000D02*
X143050000Y-91000000D01*
X143050000Y-90650000D02*
X149950000Y-90650000D01*
X143050000Y-101350000D02*
X143050000Y-101000000D01*
X143050000Y-101350000D02*
X149950000Y-101350000D01*
X149950000Y-90650000D02*
X149950000Y-91000000D01*
X149950000Y-101350000D02*
X149950000Y-101000000D01*
D10*
X141500000Y-92200000D02*
G75*
G02*
X140900000Y-92200000I-300000J0D01*
G01*
X140900000Y-92200000D02*
G75*
G02*
X141500000Y-92200000I300000J0D01*
G01*
D16*
%TO.C,U5*%
X168090000Y-51440000D02*
X169910000Y-51440000D01*
X168090000Y-51490000D02*
X168090000Y-51440000D01*
X168090000Y-54560000D02*
X168090000Y-54510000D01*
X169910000Y-51440000D02*
X169910000Y-51490000D01*
X169910000Y-52610000D02*
X169910000Y-53390000D01*
X169910000Y-54510000D02*
X169910000Y-54560000D01*
X169910000Y-54560000D02*
X168090000Y-54560000D01*
X167550000Y-51490000D02*
X167310000Y-51160000D01*
X167790000Y-51160000D01*
X167550000Y-51490000D01*
G36*
X167550000Y-51490000D02*
G01*
X167310000Y-51160000D01*
X167790000Y-51160000D01*
X167550000Y-51490000D01*
G37*
%TO.C,U4*%
X155940000Y-86940000D02*
X160060000Y-86940000D01*
X155940000Y-86995000D02*
X155940000Y-86940000D01*
X155940000Y-97060000D02*
X155940000Y-97005000D01*
X160060000Y-86940000D02*
X160060000Y-86995000D01*
X160060000Y-97005000D02*
X160060000Y-97060000D01*
X160060000Y-97060000D02*
X155940000Y-97060000D01*
X155400000Y-86990000D02*
X155160000Y-86660000D01*
X155640000Y-86660000D01*
X155400000Y-86990000D01*
G36*
X155400000Y-86990000D02*
G01*
X155160000Y-86660000D01*
X155640000Y-86660000D01*
X155400000Y-86990000D01*
G37*
%TO.C,C7*%
X167740000Y-88107836D02*
X167740000Y-87892164D01*
X168460000Y-88107836D02*
X168460000Y-87892164D01*
%TO.C,K1*%
X55050000Y-66650000D02*
X55050000Y-67000000D01*
X55050000Y-66650000D02*
X61950000Y-66650000D01*
X55050000Y-77350000D02*
X55050000Y-77000000D01*
X55050000Y-77350000D02*
X61950000Y-77350000D01*
X61950000Y-66650000D02*
X61950000Y-67000000D01*
X61950000Y-77350000D02*
X61950000Y-77000000D01*
D10*
X53500000Y-68200000D02*
G75*
G02*
X52900000Y-68200000I-300000J0D01*
G01*
X52900000Y-68200000D02*
G75*
G02*
X53500000Y-68200000I300000J0D01*
G01*
D16*
%TO.C,C1*%
X173265000Y-53261252D02*
X173265000Y-52738748D01*
X174735000Y-53261252D02*
X174735000Y-52738748D01*
%TO.C,C3*%
X168490000Y-59140580D02*
X168490000Y-58859420D01*
X169510000Y-59140580D02*
X169510000Y-58859420D01*
%TO.C,C5*%
X166540000Y-58107836D02*
X166540000Y-57892164D01*
X167260000Y-58107836D02*
X167260000Y-57892164D01*
%TO.C,R4*%
X168846359Y-101620000D02*
X169153641Y-101620000D01*
X168846359Y-102380000D02*
X169153641Y-102380000D01*
%TO.C,K11*%
X143050000Y-78650000D02*
X143050000Y-79000000D01*
X143050000Y-78650000D02*
X149950000Y-78650000D01*
X143050000Y-89350000D02*
X143050000Y-89000000D01*
X143050000Y-89350000D02*
X149950000Y-89350000D01*
X149950000Y-78650000D02*
X149950000Y-79000000D01*
X149950000Y-89350000D02*
X149950000Y-89000000D01*
D10*
X141500000Y-80200000D02*
G75*
G02*
X140900000Y-80200000I-300000J0D01*
G01*
X140900000Y-80200000D02*
G75*
G02*
X141500000Y-80200000I300000J0D01*
G01*
D16*
%TO.C,J8*%
X162840000Y-44190000D02*
X164000000Y-44190000D01*
X162840000Y-45000000D02*
X162840000Y-44190000D01*
X162840000Y-45810000D02*
X162840000Y-50825000D01*
X162840000Y-45810000D02*
X163333292Y-45810000D01*
X162840000Y-50825000D02*
X163682077Y-50825000D01*
X164317923Y-50825000D02*
X165160000Y-50825000D01*
X164666708Y-45810000D02*
X165160000Y-45810000D01*
X165160000Y-45810000D02*
X165160000Y-50825000D01*
%TO.C,J9*%
X96500000Y-115000000D02*
X111500000Y-115000000D01*
%TO.C,C8*%
X155792164Y-118140000D02*
X156007836Y-118140000D01*
X155792164Y-118860000D02*
X156007836Y-118860000D01*
%TO.C,K16*%
X66550000Y-52350000D02*
X66550000Y-52700000D01*
X66550000Y-63050000D02*
X66550000Y-62700000D01*
X73450000Y-52350000D02*
X66550000Y-52350000D01*
X73450000Y-52350000D02*
X73450000Y-52700000D01*
X73450000Y-63050000D02*
X66550000Y-63050000D01*
X73450000Y-63050000D02*
X73450000Y-62700000D01*
D10*
X75600000Y-61500000D02*
G75*
G02*
X75000000Y-61500000I-300000J0D01*
G01*
X75000000Y-61500000D02*
G75*
G02*
X75600000Y-61500000I300000J0D01*
G01*
D16*
%TO.C,R10*%
X154846359Y-48820000D02*
X155153641Y-48820000D01*
X154846359Y-49580000D02*
X155153641Y-49580000D01*
%TO.C,J1*%
X159300000Y-125850000D02*
X159300000Y-127850000D01*
X159300000Y-129750000D02*
X159300000Y-131150000D01*
X168700000Y-125850000D02*
X168700000Y-127850000D01*
X168700000Y-129750000D02*
X168700000Y-131150000D01*
%TO.C,C15*%
X168892164Y-107640000D02*
X169107836Y-107640000D01*
X168892164Y-108360000D02*
X169107836Y-108360000D01*
%TO.C,R1*%
X149846359Y-118620000D02*
X150153641Y-118620000D01*
X149846359Y-119380000D02*
X150153641Y-119380000D01*
%TO.C,D1*%
X153515000Y-52265000D02*
X153515000Y-53735000D01*
X153515000Y-53735000D02*
X155800000Y-53735000D01*
X155800000Y-52265000D02*
X153515000Y-52265000D01*
%TO.C,K7*%
X121050000Y-66650000D02*
X121050000Y-67000000D01*
X121050000Y-66650000D02*
X127950000Y-66650000D01*
X121050000Y-77350000D02*
X121050000Y-77000000D01*
X121050000Y-77350000D02*
X127950000Y-77350000D01*
X127950000Y-66650000D02*
X127950000Y-67000000D01*
X127950000Y-77350000D02*
X127950000Y-77000000D01*
D10*
X119500000Y-68200000D02*
G75*
G02*
X118900000Y-68200000I-300000J0D01*
G01*
X118900000Y-68200000D02*
G75*
G02*
X119500000Y-68200000I300000J0D01*
G01*
D16*
%TO.C,K6*%
X77050000Y-90650000D02*
X77050000Y-91000000D01*
X77050000Y-90650000D02*
X83950000Y-90650000D01*
X77050000Y-101350000D02*
X77050000Y-101000000D01*
X77050000Y-101350000D02*
X83950000Y-101350000D01*
X83950000Y-90650000D02*
X83950000Y-91000000D01*
X83950000Y-101350000D02*
X83950000Y-101000000D01*
D10*
X75500000Y-92200000D02*
G75*
G02*
X74900000Y-92200000I-300000J0D01*
G01*
X74900000Y-92200000D02*
G75*
G02*
X75500000Y-92200000I300000J0D01*
G01*
D16*
%TO.C,C10*%
X172140000Y-109107836D02*
X172140000Y-108892164D01*
X172860000Y-109107836D02*
X172860000Y-108892164D01*
%TO.C,K10*%
X143050000Y-66650000D02*
X143050000Y-67000000D01*
X143050000Y-66650000D02*
X149950000Y-66650000D01*
X143050000Y-77350000D02*
X143050000Y-77000000D01*
X143050000Y-77350000D02*
X149950000Y-77350000D01*
X149950000Y-66650000D02*
X149950000Y-67000000D01*
X149950000Y-77350000D02*
X149950000Y-77000000D01*
D10*
X141500000Y-68200000D02*
G75*
G02*
X140900000Y-68200000I-300000J0D01*
G01*
X140900000Y-68200000D02*
G75*
G02*
X141500000Y-68200000I300000J0D01*
G01*
D16*
%TO.C,D2*%
X153090000Y-120940000D02*
X154910000Y-120940000D01*
X153090000Y-120990000D02*
X153090000Y-120940000D01*
X153090000Y-124060000D02*
X153090000Y-124010000D01*
X154910000Y-120940000D02*
X154910000Y-120990000D01*
X154910000Y-124010000D02*
X154910000Y-124060000D01*
X154910000Y-124060000D02*
X153090000Y-124060000D01*
X152550000Y-120990000D02*
X152310000Y-120660000D01*
X152790000Y-120660000D01*
X152550000Y-120990000D01*
G36*
X152550000Y-120990000D02*
G01*
X152310000Y-120660000D01*
X152790000Y-120660000D01*
X152550000Y-120990000D01*
G37*
%TO.C,K4*%
X77050000Y-66650000D02*
X77050000Y-67000000D01*
X77050000Y-66650000D02*
X83950000Y-66650000D01*
X77050000Y-77350000D02*
X77050000Y-77000000D01*
X77050000Y-77350000D02*
X83950000Y-77350000D01*
X83950000Y-66650000D02*
X83950000Y-67000000D01*
X83950000Y-77350000D02*
X83950000Y-77000000D01*
D10*
X75500000Y-68200000D02*
G75*
G02*
X74900000Y-68200000I-300000J0D01*
G01*
X74900000Y-68200000D02*
G75*
G02*
X75500000Y-68200000I300000J0D01*
G01*
D16*
%TO.C,R13*%
X77265000Y-111727064D02*
X77265000Y-111272936D01*
X78735000Y-111727064D02*
X78735000Y-111272936D01*
%TO.C,K15*%
X66550000Y-40750000D02*
X66550000Y-41100000D01*
X66550000Y-51450000D02*
X66550000Y-51100000D01*
X73450000Y-40750000D02*
X66550000Y-40750000D01*
X73450000Y-40750000D02*
X73450000Y-41100000D01*
X73450000Y-51450000D02*
X66550000Y-51450000D01*
X73450000Y-51450000D02*
X73450000Y-51100000D01*
D10*
X75600000Y-49900000D02*
G75*
G02*
X75000000Y-49900000I-300000J0D01*
G01*
X75000000Y-49900000D02*
G75*
G02*
X75600000Y-49900000I300000J0D01*
G01*
D16*
%TO.C,U1*%
X156390000Y-108390000D02*
X156840000Y-108390000D01*
X156390000Y-108840000D02*
X156390000Y-108390000D01*
X156390000Y-115610000D02*
X156390000Y-115160000D01*
X156840000Y-115610000D02*
X156390000Y-115610000D01*
X163160000Y-108390000D02*
X163610000Y-108390000D01*
X163610000Y-108390000D02*
X163610000Y-108840000D01*
X163610000Y-115160000D02*
X163610000Y-115610000D01*
X163610000Y-115610000D02*
X163160000Y-115610000D01*
X155750000Y-108840000D02*
X155410000Y-108370000D01*
X156090000Y-108370000D01*
X155750000Y-108840000D01*
G36*
X155750000Y-108840000D02*
G01*
X155410000Y-108370000D01*
X156090000Y-108370000D01*
X155750000Y-108840000D01*
G37*
%TO.C,R16*%
X99265000Y-111727064D02*
X99265000Y-111272936D01*
X100735000Y-111727064D02*
X100735000Y-111272936D01*
%TO.C,C9*%
X166892164Y-118140000D02*
X167107836Y-118140000D01*
X166892164Y-118860000D02*
X167107836Y-118860000D01*
%TO.C,R15*%
X113265000Y-111727064D02*
X113265000Y-111272936D01*
X114735000Y-111727064D02*
X114735000Y-111272936D01*
%TO.C,K5*%
X77050000Y-78650000D02*
X77050000Y-79000000D01*
X77050000Y-78650000D02*
X83950000Y-78650000D01*
X77050000Y-89350000D02*
X77050000Y-89000000D01*
X77050000Y-89350000D02*
X83950000Y-89350000D01*
X83950000Y-78650000D02*
X83950000Y-79000000D01*
X83950000Y-89350000D02*
X83950000Y-89000000D01*
D10*
X75500000Y-80200000D02*
G75*
G02*
X74900000Y-80200000I-300000J0D01*
G01*
X74900000Y-80200000D02*
G75*
G02*
X75500000Y-80200000I300000J0D01*
G01*
D16*
%TO.C,R2*%
X149846359Y-121620000D02*
X150153641Y-121620000D01*
X149846359Y-122380000D02*
X150153641Y-122380000D01*
%TO.C,K18*%
X124550000Y-52450000D02*
X124550000Y-52800000D01*
X124550000Y-52450000D02*
X131450000Y-52450000D01*
X124550000Y-63150000D02*
X124550000Y-62800000D01*
X124550000Y-63150000D02*
X131450000Y-63150000D01*
X131450000Y-52450000D02*
X131450000Y-52800000D01*
X131450000Y-63150000D02*
X131450000Y-62800000D01*
D10*
X123000000Y-54000000D02*
G75*
G02*
X122400000Y-54000000I-300000J0D01*
G01*
X122400000Y-54000000D02*
G75*
G02*
X123000000Y-54000000I300000J0D01*
G01*
D16*
%TO.C,K13*%
X99050000Y-66650000D02*
X99050000Y-67000000D01*
X99050000Y-66650000D02*
X105950000Y-66650000D01*
X99050000Y-77350000D02*
X99050000Y-77000000D01*
X99050000Y-77350000D02*
X105950000Y-77350000D01*
X105950000Y-66650000D02*
X105950000Y-67000000D01*
X105950000Y-77350000D02*
X105950000Y-77000000D01*
D10*
X97500000Y-68200000D02*
G75*
G02*
X96900000Y-68200000I-300000J0D01*
G01*
X96900000Y-68200000D02*
G75*
G02*
X97500000Y-68200000I300000J0D01*
G01*
D16*
%TO.C,K3*%
X55050000Y-90650000D02*
X55050000Y-91000000D01*
X55050000Y-90650000D02*
X61950000Y-90650000D01*
X55050000Y-101350000D02*
X55050000Y-101000000D01*
X55050000Y-101350000D02*
X61950000Y-101350000D01*
X61950000Y-90650000D02*
X61950000Y-91000000D01*
X61950000Y-101350000D02*
X61950000Y-101000000D01*
D10*
X53500000Y-92200000D02*
G75*
G02*
X52900000Y-92200000I-300000J0D01*
G01*
X52900000Y-92200000D02*
G75*
G02*
X53500000Y-92200000I300000J0D01*
G01*
D16*
%TO.C,R11*%
X147272936Y-110765000D02*
X147727064Y-110765000D01*
X147272936Y-112235000D02*
X147727064Y-112235000D01*
%TO.C,R5*%
X133265000Y-112227064D02*
X133265000Y-111772936D01*
X134735000Y-112227064D02*
X134735000Y-111772936D01*
%TO.C,R12*%
X71265000Y-111727064D02*
X71265000Y-111272936D01*
X72735000Y-111727064D02*
X72735000Y-111272936D01*
%TO.C,J7*%
X76500000Y-115000000D02*
X91500000Y-115000000D01*
%TO.C,K14*%
X99050000Y-78650000D02*
X99050000Y-79000000D01*
X99050000Y-89350000D02*
X99050000Y-89000000D01*
X105950000Y-78650000D02*
X99050000Y-78650000D01*
X105950000Y-78650000D02*
X105950000Y-79000000D01*
X105950000Y-89350000D02*
X99050000Y-89350000D01*
X105950000Y-89350000D02*
X105950000Y-89000000D01*
D10*
X108100000Y-87800000D02*
G75*
G02*
X107500000Y-87800000I-300000J0D01*
G01*
X107500000Y-87800000D02*
G75*
G02*
X108100000Y-87800000I300000J0D01*
G01*
D16*
%TO.C,K17*%
X124550000Y-40750000D02*
X124550000Y-41100000D01*
X124550000Y-40750000D02*
X131450000Y-40750000D01*
X124550000Y-51450000D02*
X124550000Y-51100000D01*
X124550000Y-51450000D02*
X131450000Y-51450000D01*
X131450000Y-40750000D02*
X131450000Y-41100000D01*
X131450000Y-51450000D02*
X131450000Y-51100000D01*
D10*
X123000000Y-42300000D02*
G75*
G02*
X122400000Y-42300000I-300000J0D01*
G01*
X122400000Y-42300000D02*
G75*
G02*
X123000000Y-42300000I300000J0D01*
G01*
D16*
%TO.C,J6*%
X56500000Y-115000000D02*
X71500000Y-115000000D01*
%TO.C,C12*%
X167740000Y-81607836D02*
X167740000Y-81392164D01*
X168460000Y-81607836D02*
X168460000Y-81392164D01*
%TO.C,K2*%
X55050000Y-78650000D02*
X55050000Y-79000000D01*
X55050000Y-78650000D02*
X61950000Y-78650000D01*
X55050000Y-89350000D02*
X55050000Y-89000000D01*
X55050000Y-89350000D02*
X61950000Y-89350000D01*
X61950000Y-78650000D02*
X61950000Y-79000000D01*
X61950000Y-89350000D02*
X61950000Y-89000000D01*
D10*
X53500000Y-80200000D02*
G75*
G02*
X52900000Y-80200000I-300000J0D01*
G01*
X52900000Y-80200000D02*
G75*
G02*
X53500000Y-80200000I300000J0D01*
G01*
D16*
%TO.C,C4*%
X174490000Y-65140580D02*
X174490000Y-64859420D01*
X175510000Y-65140580D02*
X175510000Y-64859420D01*
%TO.C,R14*%
X109265000Y-111727064D02*
X109265000Y-111272936D01*
X110735000Y-111727064D02*
X110735000Y-111272936D01*
%TO.C,K8*%
X121050000Y-78650000D02*
X121050000Y-79000000D01*
X121050000Y-78650000D02*
X127950000Y-78650000D01*
X121050000Y-89350000D02*
X121050000Y-89000000D01*
X121050000Y-89350000D02*
X127950000Y-89350000D01*
X127950000Y-78650000D02*
X127950000Y-79000000D01*
X127950000Y-89350000D02*
X127950000Y-89000000D01*
D10*
X119500000Y-80200000D02*
G75*
G02*
X118900000Y-80200000I-300000J0D01*
G01*
X118900000Y-80200000D02*
G75*
G02*
X119500000Y-80200000I300000J0D01*
G01*
D16*
%TO.C,U2*%
X155940000Y-56940000D02*
X160060000Y-56940000D01*
X155940000Y-56995000D02*
X155940000Y-56940000D01*
X155940000Y-67060000D02*
X155940000Y-67005000D01*
X160060000Y-56940000D02*
X160060000Y-56995000D01*
X160060000Y-67005000D02*
X160060000Y-67060000D01*
X160060000Y-67060000D02*
X155940000Y-67060000D01*
X155400000Y-56990000D02*
X155160000Y-56660000D01*
X155640000Y-56660000D01*
X155400000Y-56990000D01*
G36*
X155400000Y-56990000D02*
G01*
X155160000Y-56660000D01*
X155640000Y-56660000D01*
X155400000Y-56990000D01*
G37*
%TO.C,R3*%
X168846359Y-104620000D02*
X169153641Y-104620000D01*
X168846359Y-105380000D02*
X169153641Y-105380000D01*
%TO.C,U3*%
X155940000Y-72940000D02*
X160060000Y-72940000D01*
X155940000Y-72995000D02*
X155940000Y-72940000D01*
X155940000Y-83060000D02*
X155940000Y-83005000D01*
X160060000Y-72940000D02*
X160060000Y-72995000D01*
X160060000Y-83005000D02*
X160060000Y-83060000D01*
X160060000Y-83060000D02*
X155940000Y-83060000D01*
X155400000Y-72990000D02*
X155160000Y-72660000D01*
X155640000Y-72660000D01*
X155400000Y-72990000D01*
G36*
X155400000Y-72990000D02*
G01*
X155160000Y-72660000D01*
X155640000Y-72660000D01*
X155400000Y-72990000D01*
G37*
%TO.C,C2*%
X173265000Y-59261252D02*
X173265000Y-58738748D01*
X174735000Y-59261252D02*
X174735000Y-58738748D01*
%TD*%
%LPC*%
D17*
%TO.C,K9*%
X120750000Y-92200000D03*
D18*
X121000000Y-95400000D03*
X121000000Y-97600000D03*
X121000000Y-99800000D03*
X128000000Y-99800000D03*
X128000000Y-97600000D03*
X128000000Y-95400000D03*
D17*
X128250000Y-92200000D03*
%TD*%
D19*
%TO.C,C6*%
X168100000Y-74480000D03*
X168100000Y-73520000D03*
%TD*%
%TO.C,C11*%
X168100000Y-65980000D03*
X168100000Y-65020000D03*
%TD*%
D20*
%TO.C,R9*%
X168087500Y-47500000D03*
X169912500Y-47500000D03*
%TD*%
D17*
%TO.C,K12*%
X142750000Y-92200000D03*
D18*
X143000000Y-95400000D03*
X143000000Y-97600000D03*
X143000000Y-99800000D03*
X150000000Y-99800000D03*
X150000000Y-97600000D03*
X150000000Y-95400000D03*
D17*
X150250000Y-92200000D03*
%TD*%
D21*
%TO.C,U5*%
X167862500Y-52050000D03*
X167862500Y-53000000D03*
X167862500Y-53950000D03*
X170137500Y-53950000D03*
X170137500Y-52050000D03*
%TD*%
D22*
%TO.C,U4*%
X155525000Y-87555000D03*
X155525000Y-88825000D03*
X155525000Y-90095000D03*
X155525000Y-91365000D03*
X155525000Y-92635000D03*
X155525000Y-93905000D03*
X155525000Y-95175000D03*
X155525000Y-96445000D03*
X160475000Y-96445000D03*
X160475000Y-95175000D03*
X160475000Y-93905000D03*
X160475000Y-92635000D03*
X160475000Y-91365000D03*
X160475000Y-90095000D03*
X160475000Y-88825000D03*
X160475000Y-87555000D03*
%TD*%
D19*
%TO.C,C7*%
X168100000Y-88480000D03*
X168100000Y-87520000D03*
%TD*%
D17*
%TO.C,K1*%
X54750000Y-68200000D03*
D18*
X55000000Y-71400000D03*
X55000000Y-73600000D03*
X55000000Y-75800000D03*
X62000000Y-75800000D03*
X62000000Y-73600000D03*
X62000000Y-71400000D03*
D17*
X62250000Y-68200000D03*
%TD*%
D23*
%TO.C,C1*%
X174000000Y-53950000D03*
X174000000Y-52050000D03*
%TD*%
D24*
%TO.C,C3*%
X169000000Y-59775000D03*
X169000000Y-58225000D03*
%TD*%
D19*
%TO.C,C5*%
X166900000Y-58480000D03*
X166900000Y-57520000D03*
%TD*%
D25*
%TO.C,R4*%
X168490000Y-102000000D03*
X169510000Y-102000000D03*
%TD*%
D17*
%TO.C,K11*%
X142750000Y-80200000D03*
D18*
X143000000Y-83400000D03*
X143000000Y-85600000D03*
X143000000Y-87800000D03*
X150000000Y-87800000D03*
X150000000Y-85600000D03*
X150000000Y-83400000D03*
D17*
X150250000Y-80200000D03*
%TD*%
D26*
%TO.C,J8*%
X164000000Y-45000000D03*
D27*
X164000000Y-46270000D03*
X164000000Y-47540000D03*
X164000000Y-48810000D03*
X164000000Y-50080000D03*
%TD*%
D28*
%TO.C,J9*%
X104000000Y-117300000D03*
D29*
X109080000Y-122380000D03*
D28*
X106540000Y-117300000D03*
D29*
X98920000Y-122380000D03*
%TD*%
D30*
%TO.C,C8*%
X155420000Y-118500000D03*
X156380000Y-118500000D03*
%TD*%
D17*
%TO.C,K16*%
X73750000Y-61500000D03*
D18*
X73500000Y-58300000D03*
X73500000Y-56100000D03*
X73500000Y-53900000D03*
X66500000Y-53900000D03*
X66500000Y-56100000D03*
X66500000Y-58300000D03*
D17*
X66250000Y-61500000D03*
%TD*%
D25*
%TO.C,R10*%
X154490000Y-49200000D03*
X155510000Y-49200000D03*
%TD*%
D31*
%TO.C,J1*%
X161110000Y-125150000D03*
X166890000Y-125150000D03*
D32*
X160750000Y-123705000D03*
X161550000Y-123705000D03*
D33*
X162750000Y-123705000D03*
X163750000Y-123705000D03*
X164250000Y-123705000D03*
X165250000Y-123705000D03*
D32*
X166450000Y-123705000D03*
X167250000Y-123705000D03*
X167250000Y-123705000D03*
X166450000Y-123705000D03*
D33*
X165750000Y-123705000D03*
X164750000Y-123705000D03*
X163250000Y-123705000D03*
X162250000Y-123705000D03*
D32*
X161550000Y-123705000D03*
X160750000Y-123705000D03*
D34*
X159680000Y-124620000D03*
D35*
X159680000Y-128800000D03*
D34*
X168320000Y-124620000D03*
D35*
X168320000Y-128800000D03*
%TD*%
D36*
%TO.C,H4*%
X185500000Y-125500000D03*
%TD*%
D30*
%TO.C,C15*%
X168520000Y-108000000D03*
X169480000Y-108000000D03*
%TD*%
D25*
%TO.C,R1*%
X149490000Y-119000000D03*
X150510000Y-119000000D03*
%TD*%
D37*
%TO.C,J2*%
X81540000Y-45000000D03*
X81540000Y-42460000D03*
D38*
X79000000Y-45000000D03*
D39*
X79000000Y-42460000D03*
%TD*%
D40*
%TO.C,D1*%
X154212500Y-53000000D03*
X155787500Y-53000000D03*
%TD*%
D41*
%TO.C,FID3*%
X49000000Y-121000000D03*
%TD*%
D17*
%TO.C,K7*%
X120750000Y-68200000D03*
D18*
X121000000Y-71400000D03*
X121000000Y-73600000D03*
X121000000Y-75800000D03*
X128000000Y-75800000D03*
X128000000Y-73600000D03*
X128000000Y-71400000D03*
D17*
X128250000Y-68200000D03*
%TD*%
D41*
%TO.C,FID1*%
X49000000Y-50000000D03*
%TD*%
D17*
%TO.C,K6*%
X76750000Y-92200000D03*
D18*
X77000000Y-95400000D03*
X77000000Y-97600000D03*
X77000000Y-99800000D03*
X84000000Y-99800000D03*
X84000000Y-97600000D03*
X84000000Y-95400000D03*
D17*
X84250000Y-92200000D03*
%TD*%
D19*
%TO.C,C10*%
X172500000Y-109480000D03*
X172500000Y-108520000D03*
%TD*%
D17*
%TO.C,K10*%
X142750000Y-68200000D03*
D18*
X143000000Y-71400000D03*
X143000000Y-73600000D03*
X143000000Y-75800000D03*
X150000000Y-75800000D03*
X150000000Y-73600000D03*
X150000000Y-71400000D03*
D17*
X150250000Y-68200000D03*
%TD*%
D21*
%TO.C,D2*%
X152862500Y-121550000D03*
X152862500Y-122500000D03*
X152862500Y-123450000D03*
X155137500Y-123450000D03*
X155137500Y-122500000D03*
X155137500Y-121550000D03*
%TD*%
D17*
%TO.C,K4*%
X76750000Y-68200000D03*
D18*
X77000000Y-71400000D03*
X77000000Y-73600000D03*
X77000000Y-75800000D03*
X84000000Y-75800000D03*
X84000000Y-73600000D03*
X84000000Y-71400000D03*
D17*
X84250000Y-68200000D03*
%TD*%
D42*
%TO.C,R13*%
X78000000Y-112412500D03*
X78000000Y-110587500D03*
%TD*%
D17*
%TO.C,K15*%
X73750000Y-49900000D03*
D18*
X73500000Y-46700000D03*
X73500000Y-44500000D03*
X73500000Y-42300000D03*
X66500000Y-42300000D03*
X66500000Y-44500000D03*
X66500000Y-46700000D03*
D17*
X66250000Y-49900000D03*
%TD*%
D36*
%TO.C,H1*%
X44500000Y-44500000D03*
%TD*%
D41*
%TO.C,FID2*%
X169500000Y-42300000D03*
%TD*%
D43*
%TO.C,U1*%
X155837500Y-109250000D03*
X155837500Y-109750000D03*
X155837500Y-110250000D03*
X155837500Y-110750000D03*
X155837500Y-111250000D03*
X155837500Y-111750000D03*
X155837500Y-112250000D03*
X155837500Y-112750000D03*
X155837500Y-113250000D03*
X155837500Y-113750000D03*
X155837500Y-114250000D03*
X155837500Y-114750000D03*
D44*
X157250000Y-116162500D03*
X157750000Y-116162500D03*
X158250000Y-116162500D03*
X158750000Y-116162500D03*
X159250000Y-116162500D03*
X159750000Y-116162500D03*
X160250000Y-116162500D03*
X160750000Y-116162500D03*
X161250000Y-116162500D03*
X161750000Y-116162500D03*
X162250000Y-116162500D03*
X162750000Y-116162500D03*
D43*
X164162500Y-114750000D03*
X164162500Y-114250000D03*
X164162500Y-113750000D03*
X164162500Y-113250000D03*
X164162500Y-112750000D03*
X164162500Y-112250000D03*
X164162500Y-111750000D03*
X164162500Y-111250000D03*
X164162500Y-110750000D03*
X164162500Y-110250000D03*
X164162500Y-109750000D03*
X164162500Y-109250000D03*
D44*
X162750000Y-107837500D03*
X162250000Y-107837500D03*
X161750000Y-107837500D03*
X161250000Y-107837500D03*
X160750000Y-107837500D03*
X160250000Y-107837500D03*
X159750000Y-107837500D03*
X159250000Y-107837500D03*
X158750000Y-107837500D03*
X158250000Y-107837500D03*
X157750000Y-107837500D03*
X157250000Y-107837500D03*
%TD*%
D42*
%TO.C,R16*%
X100000000Y-112412500D03*
X100000000Y-110587500D03*
%TD*%
D30*
%TO.C,C9*%
X166520000Y-118500000D03*
X167480000Y-118500000D03*
%TD*%
D42*
%TO.C,R15*%
X114000000Y-112412500D03*
X114000000Y-110587500D03*
%TD*%
D17*
%TO.C,K5*%
X76750000Y-80200000D03*
D18*
X77000000Y-83400000D03*
X77000000Y-85600000D03*
X77000000Y-87800000D03*
X84000000Y-87800000D03*
X84000000Y-85600000D03*
X84000000Y-83400000D03*
D17*
X84250000Y-80200000D03*
%TD*%
D37*
%TO.C,J5*%
X116460000Y-53000000D03*
X116460000Y-55540000D03*
D45*
X119000000Y-53000000D03*
D39*
X119000000Y-55540000D03*
%TD*%
D25*
%TO.C,R2*%
X149490000Y-122000000D03*
X150510000Y-122000000D03*
%TD*%
D17*
%TO.C,K18*%
X124250000Y-54000000D03*
D18*
X124500000Y-57200000D03*
X124500000Y-59400000D03*
X124500000Y-61600000D03*
X131500000Y-61600000D03*
X131500000Y-59400000D03*
X131500000Y-57200000D03*
D17*
X131750000Y-54000000D03*
%TD*%
%TO.C,K13*%
X98750000Y-68200000D03*
D18*
X99000000Y-71400000D03*
X99000000Y-73600000D03*
X99000000Y-75800000D03*
X106000000Y-75800000D03*
X106000000Y-73600000D03*
X106000000Y-71400000D03*
D17*
X106250000Y-68200000D03*
%TD*%
%TO.C,K3*%
X54750000Y-92200000D03*
D18*
X55000000Y-95400000D03*
X55000000Y-97600000D03*
X55000000Y-99800000D03*
X62000000Y-99800000D03*
X62000000Y-97600000D03*
X62000000Y-95400000D03*
D17*
X62250000Y-92200000D03*
%TD*%
D20*
%TO.C,R11*%
X146587500Y-111500000D03*
X148412500Y-111500000D03*
%TD*%
D36*
%TO.C,H3*%
X44500000Y-125500000D03*
%TD*%
D42*
%TO.C,R5*%
X134000000Y-112912500D03*
X134000000Y-111087500D03*
%TD*%
%TO.C,R12*%
X72000000Y-112412500D03*
X72000000Y-110587500D03*
%TD*%
D28*
%TO.C,J7*%
X84000000Y-117300000D03*
D29*
X89080000Y-122380000D03*
D28*
X86540000Y-117300000D03*
D29*
X78920000Y-122380000D03*
%TD*%
D17*
%TO.C,K14*%
X106250000Y-87800000D03*
D18*
X106000000Y-84600000D03*
X106000000Y-82400000D03*
X106000000Y-80200000D03*
X99000000Y-80200000D03*
X99000000Y-82400000D03*
X99000000Y-84600000D03*
D17*
X98750000Y-87800000D03*
%TD*%
%TO.C,K17*%
X124250000Y-42300000D03*
D18*
X124500000Y-45500000D03*
X124500000Y-47700000D03*
X124500000Y-49900000D03*
X131500000Y-49900000D03*
X131500000Y-47700000D03*
X131500000Y-45500000D03*
D17*
X131750000Y-42300000D03*
%TD*%
D28*
%TO.C,J6*%
X64000000Y-117300000D03*
D29*
X69080000Y-122380000D03*
D28*
X66540000Y-117300000D03*
D29*
X58920000Y-122380000D03*
%TD*%
D19*
%TO.C,C12*%
X168100000Y-81980000D03*
X168100000Y-81020000D03*
%TD*%
D37*
%TO.C,J3*%
X81540000Y-53000000D03*
X81540000Y-50460000D03*
D38*
X79000000Y-53000000D03*
D39*
X79000000Y-50460000D03*
%TD*%
D17*
%TO.C,K2*%
X54750000Y-80200000D03*
D18*
X55000000Y-83400000D03*
X55000000Y-85600000D03*
X55000000Y-87800000D03*
X62000000Y-87800000D03*
X62000000Y-85600000D03*
X62000000Y-83400000D03*
D17*
X62250000Y-80200000D03*
%TD*%
D24*
%TO.C,C4*%
X175000000Y-65775000D03*
X175000000Y-64225000D03*
%TD*%
D42*
%TO.C,R14*%
X110000000Y-112412500D03*
X110000000Y-110587500D03*
%TD*%
D17*
%TO.C,K8*%
X120750000Y-80200000D03*
D18*
X121000000Y-83400000D03*
X121000000Y-85600000D03*
X121000000Y-87800000D03*
X128000000Y-87800000D03*
X128000000Y-85600000D03*
X128000000Y-83400000D03*
D17*
X128250000Y-80200000D03*
%TD*%
D22*
%TO.C,U2*%
X155525000Y-57555000D03*
X155525000Y-58825000D03*
X155525000Y-60095000D03*
X155525000Y-61365000D03*
X155525000Y-62635000D03*
X155525000Y-63905000D03*
X155525000Y-65175000D03*
X155525000Y-66445000D03*
X160475000Y-66445000D03*
X160475000Y-65175000D03*
X160475000Y-63905000D03*
X160475000Y-62635000D03*
X160475000Y-61365000D03*
X160475000Y-60095000D03*
X160475000Y-58825000D03*
X160475000Y-57555000D03*
%TD*%
D37*
%TO.C,J4*%
X116460000Y-45000000D03*
X116460000Y-47540000D03*
D45*
X119000000Y-45000000D03*
D39*
X119000000Y-47540000D03*
%TD*%
D25*
%TO.C,R3*%
X168490000Y-105000000D03*
X169510000Y-105000000D03*
%TD*%
D22*
%TO.C,U3*%
X155525000Y-73555000D03*
X155525000Y-74825000D03*
X155525000Y-76095000D03*
X155525000Y-77365000D03*
X155525000Y-78635000D03*
X155525000Y-79905000D03*
X155525000Y-81175000D03*
X155525000Y-82445000D03*
X160475000Y-82445000D03*
X160475000Y-81175000D03*
X160475000Y-79905000D03*
X160475000Y-78635000D03*
X160475000Y-77365000D03*
X160475000Y-76095000D03*
X160475000Y-74825000D03*
X160475000Y-73555000D03*
%TD*%
D23*
%TO.C,C2*%
X174000000Y-59950000D03*
X174000000Y-58050000D03*
%TD*%
D36*
%TO.C,H2*%
X185500000Y-44500000D03*
%TD*%
%LPD*%
M02*
