%TF.GenerationSoftware,KiCad,Pcbnew,9.0.6*%
%TF.CreationDate,2026-08-31T00:35:32+02:00*%
%TF.ProjectId,relay_board,72656c61-795f-4626-9f61-72642e6b6963,rev?*%
%TF.SameCoordinates,Original*%
%TF.FileFunction,Copper,L3,Inr*%
%TF.FilePolarity,Positive*%
%FSLAX46Y46*%
G04 Gerber Fmt 4.6, Leading zero omitted, Abs format (unit mm)*
G04 Created by KiCad (PCBNEW 9.0.6) date 2026-08-31 00:35:32*
%MOMM*%
%LPD*%
G01*
G04 APERTURE LIST*
G04 Aperture macros list*
%AMRoundRect*
0 Rectangle with rounded corners*
0 $1 Rounding radius*
0 $2 $3 $4 $5 $6 $7 $8 $9 X,Y pos of 4 corners*
0 Add a 4 corners polygon primitive as box body*
4,1,4,$2,$3,$4,$5,$6,$7,$8,$9,$2,$3,0*
0 Add four circle primitives for the rounded corners*
1,1,$1+$1,$2,$3*
1,1,$1+$1,$4,$5*
1,1,$1+$1,$6,$7*
1,1,$1+$1,$8,$9*
0 Add four rect primitives between the rounded corners*
20,1,$1+$1,$2,$3,$4,$5,0*
20,1,$1+$1,$4,$5,$6,$7,0*
20,1,$1+$1,$6,$7,$8,$9,0*
20,1,$1+$1,$8,$9,$2,$3,0*%
G04 Aperture macros list end*
%TA.AperFunction,ComponentPad*%
%ADD10R,1.000000X1.000000*%
%TD*%
%TA.AperFunction,ComponentPad*%
%ADD11C,1.000000*%
%TD*%
%TA.AperFunction,ComponentPad*%
%ADD12O,1.600000X2.500000*%
%TD*%
%TA.AperFunction,ComponentPad*%
%ADD13O,3.500000X7.000000*%
%TD*%
%TA.AperFunction,HeatsinkPad*%
%ADD14O,1.000000X2.100000*%
%TD*%
%TA.AperFunction,HeatsinkPad*%
%ADD15O,1.000000X1.600000*%
%TD*%
%TA.AperFunction,ComponentPad*%
%ADD16RoundRect,0.249999X0.850001X-0.850001X0.850001X0.850001X-0.850001X0.850001X-0.850001X-0.850001X0*%
%TD*%
%TA.AperFunction,ComponentPad*%
%ADD17C,2.200000*%
%TD*%
%TA.AperFunction,ComponentPad*%
%ADD18RoundRect,0.249999X-0.850001X0.850001X-0.850001X-0.850001X0.850001X-0.850001X0.850001X0.850001X0*%
%TD*%
%TA.AperFunction,ViaPad*%
%ADD19C,0.600000*%
%TD*%
%TA.AperFunction,ViaPad*%
%ADD20C,0.400000*%
%TD*%
G04 APERTURE END LIST*
D10*
%TO.N,/+3V3*%
%TO.C,J8*%
X164000000Y-45000000D03*
D11*
%TO.N,/SWDIO*%
X164000000Y-46270000D03*
%TO.N,/SWCLK*%
X164000000Y-47540000D03*
%TO.N,/NRST*%
X164000000Y-48810000D03*
%TO.N,/GND*%
X164000000Y-50080000D03*
%TD*%
D12*
%TO.N,/CH2_NODE*%
%TO.C,J9*%
X104000000Y-117300000D03*
D13*
%TO.N,/AGND*%
X109080000Y-122380000D03*
D12*
X106540000Y-117300000D03*
D13*
X98920000Y-122380000D03*
%TD*%
D14*
%TO.N,/GND*%
%TO.C,J1*%
X159680000Y-124620000D03*
D15*
X159680000Y-128800000D03*
D14*
X168320000Y-124620000D03*
D15*
X168320000Y-128800000D03*
%TD*%
D16*
%TO.N,/DUT_A*%
%TO.C,J2*%
X79000000Y-45000000D03*
D17*
X79000000Y-42460000D03*
%TD*%
D18*
%TO.N,/DUT_D*%
%TO.C,J5*%
X119000000Y-53000000D03*
D17*
X119000000Y-55540000D03*
%TD*%
D12*
%TO.N,/CH1_NODE*%
%TO.C,J7*%
X84000000Y-117300000D03*
D13*
%TO.N,/AGND*%
X89080000Y-122380000D03*
D12*
X86540000Y-117300000D03*
D13*
X78920000Y-122380000D03*
%TD*%
D12*
%TO.N,/RAIL_HI*%
%TO.C,J6*%
X64000000Y-117300000D03*
D13*
%TO.N,/AGND*%
X69080000Y-122380000D03*
D12*
X66540000Y-117300000D03*
D13*
X58920000Y-122380000D03*
%TD*%
D16*
%TO.N,/DUT_B*%
%TO.C,J3*%
X79000000Y-53000000D03*
D17*
X79000000Y-50460000D03*
%TD*%
D18*
%TO.N,/DUT_C*%
%TO.C,J4*%
X119000000Y-45000000D03*
D17*
X119000000Y-47540000D03*
%TD*%
D19*
%TO.N,/+3V3*%
X171397000Y-72753700D03*
X170998000Y-106481000D03*
X170977000Y-108749000D03*
D20*
%TO.N,/+5V*%
X166900000Y-59379999D03*
D19*
X56750000Y-92200000D03*
D20*
X174400000Y-53950000D03*
D19*
X122750000Y-92200000D03*
X166562000Y-52050000D03*
X144750000Y-92200000D03*
X76700000Y-61500000D03*
X144750000Y-68200000D03*
X100750000Y-68200000D03*
X122750000Y-80200000D03*
X169912000Y-48800000D03*
X78750000Y-68200000D03*
D20*
X174350000Y-109480000D03*
D19*
X78750000Y-92200000D03*
D20*
X168100000Y-82880000D03*
D19*
X160475000Y-84044999D03*
X56750000Y-80200000D03*
X56750000Y-68200000D03*
X78750000Y-80200000D03*
X122750000Y-68200000D03*
X121900000Y-54000000D03*
X160475000Y-98044999D03*
X108250000Y-86200000D03*
D20*
X168100000Y-66880000D03*
D19*
X76700000Y-49900000D03*
X160475000Y-68200000D03*
D20*
X168100000Y-75380000D03*
X168100000Y-89380000D03*
D19*
X121900000Y-42300000D03*
X144750000Y-80200000D03*
%TO.N,/AGND*%
X114000000Y-109187500D03*
X78000000Y-109187500D03*
X110000000Y-109187500D03*
X145187500Y-111500000D03*
%TO.N,/BOOT0*%
X159471000Y-106195000D03*
X159472000Y-102625000D03*
%TO.N,/CAL_E*%
X96500000Y-103000000D03*
X133000000Y-103000000D03*
%TO.N,/CAL_F*%
X109500000Y-104500000D03*
X135000000Y-104500000D03*
D20*
%TO.N,/CC2*%
X149300000Y-124500000D03*
X165750000Y-127400000D03*
D19*
%TO.N,/CH1_NODE*%
X79200000Y-112412500D03*
X70700000Y-110587500D03*
%TO.N,/GND*%
X155525000Y-83745000D03*
D20*
X167500000Y-56200000D03*
X155700000Y-66750000D03*
X166400000Y-53000000D03*
X156600000Y-119150000D03*
X162450000Y-117500000D03*
X174350000Y-107140000D03*
D19*
X149600000Y-111500000D03*
X175300000Y-52050000D03*
D20*
X171300000Y-102000000D03*
D19*
X152700000Y-119400000D03*
X155525000Y-98000000D03*
D20*
X157750000Y-106237500D03*
X167250000Y-122300000D03*
X171300000Y-108000000D03*
X167450000Y-74899999D03*
X155787500Y-54400000D03*
X167450000Y-66950000D03*
X162299999Y-109750000D03*
D19*
X152900000Y-124600000D03*
D20*
X167500000Y-86200000D03*
X167500000Y-79700000D03*
X168300000Y-117400000D03*
X154337500Y-112750000D03*
X160750000Y-122300000D03*
X174300000Y-64224999D03*
X170150000Y-58225000D03*
D19*
X175300000Y-58050000D03*
D20*
%TO.N,/GPIO1*%
X164450000Y-55600000D03*
X157000000Y-113750000D03*
%TO.N,/GPIO10*%
X170350000Y-70900000D03*
X160250000Y-119150000D03*
%TO.N,/GPIO11*%
X160950000Y-117900000D03*
X152850000Y-117900000D03*
D19*
%TO.N,/GPIO12*%
X153940000Y-78630000D03*
X161350000Y-114810000D03*
%TO.N,/GPIO14*%
X167143000Y-108479156D03*
X154290000Y-81180000D03*
D20*
%TO.N,/GPIO15*%
X165600000Y-106200000D03*
X165600000Y-89400000D03*
D19*
%TO.N,/GPIO16*%
X165389044Y-112436713D03*
X157575000Y-88734820D03*
D20*
%TO.N,/GPIO17*%
X170900000Y-116550000D03*
X162300000Y-113250000D03*
X172500000Y-90730000D03*
X169050000Y-116550000D03*
%TO.N,/GPIO18*%
X171150000Y-115900000D03*
X171900000Y-92000000D03*
X169250000Y-115900000D03*
X162900000Y-112750000D03*
%TO.N,/GPIO2*%
X154600000Y-113950000D03*
X151700000Y-113950000D03*
%TO.N,/GPIO3*%
X152300000Y-114750000D03*
X154350000Y-114750000D03*
%TO.N,/GPIO4*%
X157150000Y-118600000D03*
X173700000Y-62000000D03*
%TO.N,/GPIO5*%
X173100000Y-63270000D03*
X157750000Y-118600000D03*
D19*
%TO.N,/GPIO6*%
X165757000Y-66779500D03*
X159567000Y-113363000D03*
%TO.N,/GPIO7*%
X165757000Y-70270800D03*
X159286000Y-114192000D03*
X167378000Y-114573000D03*
X163672000Y-117178000D03*
%TO.N,/GPIO8*%
X161607000Y-111708000D03*
X160544000Y-114595000D03*
X161481000Y-112912000D03*
X165757000Y-74745100D03*
D20*
%TO.N,/GPIO9*%
X169800000Y-72500000D03*
X159300000Y-118500000D03*
%TO.N,/K10_COIL*%
X159000000Y-76095000D03*
X150250000Y-70600000D03*
%TO.N,/K11_COIL*%
X150250000Y-79300000D03*
X159000000Y-77365000D03*
%TO.N,/K12_COIL*%
X150250000Y-89400000D03*
X158450000Y-84600000D03*
D19*
%TO.N,/K13_COIL*%
X106250000Y-69900000D03*
D20*
X161500000Y-79905000D03*
%TO.N,/K14_COIL*%
X162000000Y-81175000D03*
D19*
X98750000Y-90200000D03*
D20*
%TO.N,/K15_COIL*%
X164000000Y-87555000D03*
D19*
X64599999Y-107800000D03*
D20*
%TO.N,/K16_COIL*%
X163200000Y-88825000D03*
D19*
X65400000Y-106900000D03*
D20*
%TO.N,/K17_COIL*%
X132600000Y-42300000D03*
X178100000Y-90095000D03*
%TO.N,/K18_COIL*%
X133199999Y-41650000D03*
X178650000Y-91365000D03*
%TO.N,/K1_COIL*%
X158000000Y-57555000D03*
X151000000Y-66150000D03*
X62250000Y-66150000D03*
%TO.N,/K2_COIL*%
X60500000Y-65599999D03*
X157450000Y-58825000D03*
X150400000Y-65599999D03*
%TO.N,/K3_COIL*%
X162300000Y-60095000D03*
X59800000Y-65050000D03*
X151000000Y-65050000D03*
%TO.N,/K4_COIL*%
X161900000Y-61365000D03*
D19*
X84250000Y-69150000D03*
D20*
%TO.N,/K5_COIL*%
X161400000Y-86000000D03*
X163300000Y-86000000D03*
X85900000Y-86000000D03*
X159300000Y-86000000D03*
X163600000Y-62635000D03*
X156200000Y-86000000D03*
D19*
%TO.N,/K6_COIL*%
X84250000Y-91200000D03*
D20*
X162650000Y-63905000D03*
%TO.N,/K7_COIL*%
X128250000Y-67400000D03*
X158600000Y-67400000D03*
%TO.N,/K8_COIL*%
X157800000Y-73555000D03*
X128250000Y-78450000D03*
%TO.N,/K9_COIL*%
X156950000Y-77900000D03*
X156950000Y-74825000D03*
X156950000Y-81100000D03*
X128250000Y-88850000D03*
%TO.N,/LED_A*%
X121100000Y-51100000D03*
X151150000Y-53000000D03*
X89500000Y-51100000D03*
X156837500Y-105900000D03*
X89500000Y-105900000D03*
X122700000Y-51100000D03*
%TO.N,/NRST*%
X176750000Y-103600000D03*
X165550000Y-48810000D03*
D19*
%TO.N,/RAIL_HI*%
X144800000Y-75800000D03*
X122800000Y-75800000D03*
X100800000Y-75800000D03*
X87000000Y-75800000D03*
X56800000Y-75800000D03*
X78800000Y-75800000D03*
%TO.N,/RAIL_LINK*%
X56800000Y-99800000D03*
X122800000Y-99800000D03*
X78800000Y-99800000D03*
X144800000Y-99800000D03*
%TO.N,/RAIL_LO*%
X78800000Y-87800000D03*
X56800000Y-87800000D03*
X144800000Y-87800000D03*
X122800000Y-87800000D03*
X111000000Y-87800000D03*
X104200000Y-87800000D03*
%TO.N,/SWCLK*%
X167063000Y-50801000D03*
X167849000Y-96650500D03*
X161664000Y-105978000D03*
X161911000Y-97162800D03*
D20*
%TO.N,/SWDIO*%
X165350000Y-110050000D03*
D19*
%TO.N,/TD*%
X133000000Y-63000000D03*
X123000000Y-63000000D03*
%TO.N,/USB_DM*%
X152027000Y-126200000D03*
X159866000Y-111363000D03*
D20*
%TO.N,/USB_DM_CON*%
X164250000Y-125750000D03*
X163250000Y-125750000D03*
X153500000Y-123900000D03*
%TO.N,/USB_DP*%
X154600000Y-121550000D03*
D19*
X161672000Y-110505000D03*
D20*
%TO.N,/USB_DP_CON*%
X163750000Y-124950000D03*
X164750000Y-124950000D03*
D19*
%TO.N,/VBUS*%
X168087500Y-46950000D03*
X156400000Y-123000000D03*
D20*
X166450000Y-122500000D03*
X161550000Y-122500000D03*
%TD*%
%TA.AperFunction,Conductor*%
%TO.N,/GND*%
G36*
X78441221Y-41019685D02*
G01*
X78486976Y-41072489D01*
X78496920Y-41141647D01*
X78467895Y-41205203D01*
X78430477Y-41234485D01*
X78292180Y-41304951D01*
X78120213Y-41429890D01*
X77969890Y-41580213D01*
X77844951Y-41752179D01*
X77753178Y-41932295D01*
X77705203Y-41983091D01*
X77642693Y-42000000D01*
X42000000Y-42000000D01*
X42000000Y-128000000D01*
X151500000Y-128000000D01*
X151500000Y-127340691D01*
X165299500Y-127340691D01*
X165299500Y-127459309D01*
X165330201Y-127573886D01*
X165389511Y-127676613D01*
X165473387Y-127760489D01*
X165576114Y-127819799D01*
X165690691Y-127850500D01*
X165690694Y-127850500D01*
X165809306Y-127850500D01*
X165809309Y-127850500D01*
X165923886Y-127819799D01*
X166026613Y-127760489D01*
X166110489Y-127676613D01*
X166169799Y-127573886D01*
X166200500Y-127459309D01*
X166200500Y-127340691D01*
X166169799Y-127226114D01*
X166110489Y-127123387D01*
X166026613Y-127039511D01*
X165923886Y-126980201D01*
X165809309Y-126949500D01*
X165690691Y-126949500D01*
X165576114Y-126980201D01*
X165576112Y-126980201D01*
X165576112Y-126980202D01*
X165473387Y-127039511D01*
X165473384Y-127039513D01*
X165389513Y-127123384D01*
X165389511Y-127123387D01*
X165330201Y-127226114D01*
X165299500Y-127340691D01*
X151500000Y-127340691D01*
X151500000Y-126746172D01*
X151519685Y-126679133D01*
X151572489Y-126633378D01*
X151641647Y-126623434D01*
X151686001Y-126638785D01*
X151688982Y-126640506D01*
X151688985Y-126640509D01*
X151814515Y-126712984D01*
X151954525Y-126750500D01*
X151954528Y-126750500D01*
X152099472Y-126750500D01*
X152099475Y-126750500D01*
X152239485Y-126712984D01*
X152365015Y-126640509D01*
X152467509Y-126538015D01*
X152539984Y-126412485D01*
X152577500Y-126272475D01*
X152577500Y-126127525D01*
X152539984Y-125987515D01*
X152530433Y-125970973D01*
X152467511Y-125861988D01*
X152467506Y-125861982D01*
X152365017Y-125759493D01*
X152365011Y-125759488D01*
X152239488Y-125687017D01*
X152239489Y-125687017D01*
X152228006Y-125683940D01*
X152099475Y-125649500D01*
X151954525Y-125649500D01*
X151825993Y-125683940D01*
X151814511Y-125687017D01*
X151686000Y-125761214D01*
X151618100Y-125777687D01*
X151552073Y-125754835D01*
X151508882Y-125699913D01*
X151500000Y-125653827D01*
X151500000Y-125074234D01*
X160534500Y-125074234D01*
X160534500Y-125225766D01*
X160553225Y-125295650D01*
X160573719Y-125372136D01*
X160592318Y-125404350D01*
X160649485Y-125503365D01*
X160756635Y-125610515D01*
X160887865Y-125686281D01*
X161034234Y-125725500D01*
X161034236Y-125725500D01*
X161185764Y-125725500D01*
X161185766Y-125725500D01*
X161315676Y-125690691D01*
X162799500Y-125690691D01*
X162799500Y-125809309D01*
X162830201Y-125923886D01*
X162889511Y-126026613D01*
X162973387Y-126110489D01*
X163076114Y-126169799D01*
X163190691Y-126200500D01*
X163190694Y-126200500D01*
X163309306Y-126200500D01*
X163309309Y-126200500D01*
X163423886Y-126169799D01*
X163526613Y-126110489D01*
X163610489Y-126026613D01*
X163642613Y-125970972D01*
X163693180Y-125922757D01*
X163761787Y-125909535D01*
X163826652Y-125935503D01*
X163857386Y-125970972D01*
X163889511Y-126026613D01*
X163973387Y-126110489D01*
X164076114Y-126169799D01*
X164190691Y-126200500D01*
X164190694Y-126200500D01*
X164309306Y-126200500D01*
X164309309Y-126200500D01*
X164423886Y-126169799D01*
X164526613Y-126110489D01*
X164610489Y-126026613D01*
X164669799Y-125923886D01*
X164700500Y-125809309D01*
X164700500Y-125690691D01*
X164669799Y-125576114D01*
X164669797Y-125576111D01*
X164669796Y-125576106D01*
X164668073Y-125571945D01*
X164660609Y-125502476D01*
X164691887Y-125439998D01*
X164751979Y-125404350D01*
X164782637Y-125400500D01*
X164809306Y-125400500D01*
X164809309Y-125400500D01*
X164923886Y-125369799D01*
X165026613Y-125310489D01*
X165110489Y-125226613D01*
X165169799Y-125123886D01*
X165183103Y-125074234D01*
X166314500Y-125074234D01*
X166314500Y-125225766D01*
X166333225Y-125295650D01*
X166353719Y-125372136D01*
X166372318Y-125404350D01*
X166429485Y-125503365D01*
X166536635Y-125610515D01*
X166667865Y-125686281D01*
X166814234Y-125725500D01*
X166814236Y-125725500D01*
X166965764Y-125725500D01*
X166965766Y-125725500D01*
X167112135Y-125686281D01*
X167243365Y-125610515D01*
X167350515Y-125503365D01*
X167422484Y-125378711D01*
X183649500Y-125378711D01*
X183649500Y-125621288D01*
X183674252Y-125809306D01*
X183681162Y-125861789D01*
X183697801Y-125923886D01*
X183743947Y-126096104D01*
X183817001Y-126272472D01*
X183836776Y-126320212D01*
X183958064Y-126530289D01*
X183958066Y-126530292D01*
X183958067Y-126530293D01*
X184105733Y-126722736D01*
X184105739Y-126722743D01*
X184277256Y-126894260D01*
X184277262Y-126894265D01*
X184469711Y-127041936D01*
X184679788Y-127163224D01*
X184903900Y-127256054D01*
X185138211Y-127318838D01*
X185304204Y-127340691D01*
X185378711Y-127350500D01*
X185378712Y-127350500D01*
X185621289Y-127350500D01*
X185669388Y-127344167D01*
X185861789Y-127318838D01*
X186096100Y-127256054D01*
X186320212Y-127163224D01*
X186530289Y-127041936D01*
X186722738Y-126894265D01*
X186894265Y-126722738D01*
X187041936Y-126530289D01*
X187163224Y-126320212D01*
X187256054Y-126096100D01*
X187318838Y-125861789D01*
X187350500Y-125621288D01*
X187350500Y-125378712D01*
X187318838Y-125138211D01*
X187256054Y-124903900D01*
X187250583Y-124890693D01*
X187209067Y-124790464D01*
X187163224Y-124679788D01*
X187041936Y-124469711D01*
X186894265Y-124277262D01*
X186894260Y-124277256D01*
X186722743Y-124105739D01*
X186722736Y-124105733D01*
X186530293Y-123958067D01*
X186530292Y-123958066D01*
X186530289Y-123958064D01*
X186358661Y-123858974D01*
X186320214Y-123836777D01*
X186320205Y-123836773D01*
X186096104Y-123743947D01*
X185861785Y-123681161D01*
X185621289Y-123649500D01*
X185621288Y-123649500D01*
X185378712Y-123649500D01*
X185378711Y-123649500D01*
X185138214Y-123681161D01*
X184903895Y-123743947D01*
X184679794Y-123836773D01*
X184679785Y-123836777D01*
X184469706Y-123958067D01*
X184277263Y-124105733D01*
X184277256Y-124105739D01*
X184105739Y-124277256D01*
X184105733Y-124277263D01*
X183958067Y-124469706D01*
X183836777Y-124679785D01*
X183836773Y-124679794D01*
X183743947Y-124903895D01*
X183681161Y-125138214D01*
X183649500Y-125378711D01*
X167422484Y-125378711D01*
X167426281Y-125372135D01*
X167465500Y-125225766D01*
X167465500Y-125074234D01*
X167426281Y-124927865D01*
X167350515Y-124796635D01*
X167243365Y-124689485D01*
X167177750Y-124651602D01*
X167112136Y-124613719D01*
X167021788Y-124589511D01*
X166965766Y-124574500D01*
X166814234Y-124574500D01*
X166667863Y-124613719D01*
X166536635Y-124689485D01*
X166536632Y-124689487D01*
X166429487Y-124796632D01*
X166429485Y-124796635D01*
X166353719Y-124927863D01*
X166331896Y-125009309D01*
X166314500Y-125074234D01*
X165183103Y-125074234D01*
X165200500Y-125009309D01*
X165200500Y-124890691D01*
X165169799Y-124776114D01*
X165110489Y-124673387D01*
X165026613Y-124589511D01*
X164923886Y-124530201D01*
X164809309Y-124499500D01*
X164690691Y-124499500D01*
X164576114Y-124530201D01*
X164576112Y-124530201D01*
X164576112Y-124530202D01*
X164473387Y-124589511D01*
X164473384Y-124589513D01*
X164389513Y-124673384D01*
X164389511Y-124673387D01*
X164357387Y-124729027D01*
X164306819Y-124777242D01*
X164238212Y-124790464D01*
X164173347Y-124764496D01*
X164142613Y-124729027D01*
X164119783Y-124689485D01*
X164110489Y-124673387D01*
X164026613Y-124589511D01*
X163923886Y-124530201D01*
X163809309Y-124499500D01*
X163690691Y-124499500D01*
X163576114Y-124530201D01*
X163576112Y-124530201D01*
X163576112Y-124530202D01*
X163473387Y-124589511D01*
X163473384Y-124589513D01*
X163389513Y-124673384D01*
X163389511Y-124673387D01*
X163330201Y-124776114D01*
X163299500Y-124890691D01*
X163299500Y-125009309D01*
X163330201Y-125123886D01*
X163330203Y-125123893D01*
X163331927Y-125128055D01*
X163339391Y-125197524D01*
X163308113Y-125260002D01*
X163248021Y-125295650D01*
X163217363Y-125299500D01*
X163190691Y-125299500D01*
X163076114Y-125330201D01*
X163076112Y-125330201D01*
X163076112Y-125330202D01*
X162973387Y-125389511D01*
X162973384Y-125389513D01*
X162889513Y-125473384D01*
X162889511Y-125473387D01*
X162830206Y-125576106D01*
X162830201Y-125576114D01*
X162799500Y-125690691D01*
X161315676Y-125690691D01*
X161332135Y-125686281D01*
X161463365Y-125610515D01*
X161570515Y-125503365D01*
X161646281Y-125372135D01*
X161685500Y-125225766D01*
X161685500Y-125074234D01*
X161646281Y-124927865D01*
X161570515Y-124796635D01*
X161463365Y-124689485D01*
X161397750Y-124651602D01*
X161332136Y-124613719D01*
X161241788Y-124589511D01*
X161185766Y-124574500D01*
X161034234Y-124574500D01*
X160887863Y-124613719D01*
X160756635Y-124689485D01*
X160756632Y-124689487D01*
X160649487Y-124796632D01*
X160649485Y-124796635D01*
X160573719Y-124927863D01*
X160551896Y-125009309D01*
X160534500Y-125074234D01*
X151500000Y-125074234D01*
X151500000Y-123840691D01*
X153049500Y-123840691D01*
X153049500Y-123959309D01*
X153080201Y-124073886D01*
X153139511Y-124176613D01*
X153223387Y-124260489D01*
X153326114Y-124319799D01*
X153440691Y-124350500D01*
X153440694Y-124350500D01*
X153559306Y-124350500D01*
X153559309Y-124350500D01*
X153673886Y-124319799D01*
X153776613Y-124260489D01*
X153860489Y-124176613D01*
X153919799Y-124073886D01*
X153950500Y-123959309D01*
X153950500Y-123840691D01*
X153919799Y-123726114D01*
X153860489Y-123623387D01*
X153776613Y-123539511D01*
X153673886Y-123480201D01*
X153559309Y-123449500D01*
X153440691Y-123449500D01*
X153326114Y-123480201D01*
X153326112Y-123480201D01*
X153326112Y-123480202D01*
X153223387Y-123539511D01*
X153223384Y-123539513D01*
X153139513Y-123623384D01*
X153139511Y-123623387D01*
X153124435Y-123649500D01*
X153080201Y-123726114D01*
X153049500Y-123840691D01*
X151500000Y-123840691D01*
X151500000Y-122927525D01*
X155849500Y-122927525D01*
X155849500Y-123072475D01*
X155887016Y-123212485D01*
X155887017Y-123212488D01*
X155959488Y-123338011D01*
X155959490Y-123338013D01*
X155959491Y-123338015D01*
X156061985Y-123440509D01*
X156061986Y-123440510D01*
X156061988Y-123440511D01*
X156187511Y-123512982D01*
X156187512Y-123512982D01*
X156187515Y-123512984D01*
X156327525Y-123550500D01*
X156327528Y-123550500D01*
X156472472Y-123550500D01*
X156472475Y-123550500D01*
X156612485Y-123512984D01*
X156738015Y-123440509D01*
X156840509Y-123338015D01*
X156912984Y-123212485D01*
X156950500Y-123072475D01*
X156950500Y-122927525D01*
X156912984Y-122787515D01*
X156840509Y-122661985D01*
X156738015Y-122559491D01*
X156612485Y-122487016D01*
X156472475Y-122449500D01*
X156327525Y-122449500D01*
X156198993Y-122483940D01*
X156187511Y-122487017D01*
X156061988Y-122559488D01*
X156061982Y-122559493D01*
X155959493Y-122661982D01*
X155959488Y-122661988D01*
X155887017Y-122787511D01*
X155887016Y-122787515D01*
X155849500Y-122927525D01*
X151500000Y-122927525D01*
X151500000Y-122440691D01*
X161099500Y-122440691D01*
X161099500Y-122559309D01*
X161130201Y-122673886D01*
X161189511Y-122776613D01*
X161273387Y-122860489D01*
X161376114Y-122919799D01*
X161490691Y-122950500D01*
X161490694Y-122950500D01*
X161609306Y-122950500D01*
X161609309Y-122950500D01*
X161723886Y-122919799D01*
X161826613Y-122860489D01*
X161910489Y-122776613D01*
X161969799Y-122673886D01*
X162000500Y-122559309D01*
X162000500Y-122440691D01*
X165999500Y-122440691D01*
X165999500Y-122559309D01*
X166030201Y-122673886D01*
X166089511Y-122776613D01*
X166173387Y-122860489D01*
X166276114Y-122919799D01*
X166390691Y-122950500D01*
X166390694Y-122950500D01*
X166509306Y-122950500D01*
X166509309Y-122950500D01*
X166623886Y-122919799D01*
X166726613Y-122860489D01*
X166810489Y-122776613D01*
X166869799Y-122673886D01*
X166900500Y-122559309D01*
X166900500Y-122440691D01*
X166869799Y-122326114D01*
X166810489Y-122223387D01*
X166726613Y-122139511D01*
X166623886Y-122080201D01*
X166509309Y-122049500D01*
X166390691Y-122049500D01*
X166276114Y-122080201D01*
X166276112Y-122080201D01*
X166276112Y-122080202D01*
X166173387Y-122139511D01*
X166173384Y-122139513D01*
X166089513Y-122223384D01*
X166089511Y-122223387D01*
X166030201Y-122326114D01*
X165999500Y-122440691D01*
X162000500Y-122440691D01*
X161969799Y-122326114D01*
X161910489Y-122223387D01*
X161826613Y-122139511D01*
X161723886Y-122080201D01*
X161609309Y-122049500D01*
X161490691Y-122049500D01*
X161376114Y-122080201D01*
X161376112Y-122080201D01*
X161376112Y-122080202D01*
X161273387Y-122139511D01*
X161273384Y-122139513D01*
X161189513Y-122223384D01*
X161189511Y-122223387D01*
X161130201Y-122326114D01*
X161099500Y-122440691D01*
X151500000Y-122440691D01*
X151500000Y-121490691D01*
X154149500Y-121490691D01*
X154149500Y-121609309D01*
X154180201Y-121723886D01*
X154239511Y-121826613D01*
X154323387Y-121910489D01*
X154426114Y-121969799D01*
X154540691Y-122000500D01*
X154540694Y-122000500D01*
X154659306Y-122000500D01*
X154659309Y-122000500D01*
X154773886Y-121969799D01*
X154876613Y-121910489D01*
X154960489Y-121826613D01*
X155019799Y-121723886D01*
X155050500Y-121609309D01*
X155050500Y-121490691D01*
X155019799Y-121376114D01*
X154960489Y-121273387D01*
X154876613Y-121189511D01*
X154773886Y-121130201D01*
X154659309Y-121099500D01*
X154540691Y-121099500D01*
X154426114Y-121130201D01*
X154426112Y-121130201D01*
X154426112Y-121130202D01*
X154323387Y-121189511D01*
X154323384Y-121189513D01*
X154239513Y-121273384D01*
X154239511Y-121273387D01*
X154180201Y-121376114D01*
X154149500Y-121490691D01*
X151500000Y-121490691D01*
X151500000Y-119090691D01*
X159799500Y-119090691D01*
X159799500Y-119209309D01*
X159830201Y-119323886D01*
X159889511Y-119426613D01*
X159973387Y-119510489D01*
X160076114Y-119569799D01*
X160190691Y-119600500D01*
X160190694Y-119600500D01*
X160309306Y-119600500D01*
X160309309Y-119600500D01*
X160423886Y-119569799D01*
X160526613Y-119510489D01*
X160610489Y-119426613D01*
X160669799Y-119323886D01*
X160700500Y-119209309D01*
X160700500Y-119090691D01*
X160669799Y-118976114D01*
X160610489Y-118873387D01*
X160526613Y-118789511D01*
X160423886Y-118730201D01*
X160309309Y-118699500D01*
X160190691Y-118699500D01*
X160076114Y-118730201D01*
X160076112Y-118730201D01*
X160076112Y-118730202D01*
X159973387Y-118789511D01*
X159973384Y-118789513D01*
X159892321Y-118870576D01*
X159892319Y-118870578D01*
X159889511Y-118873387D01*
X159864702Y-118916356D01*
X159864661Y-118916425D01*
X159830202Y-118976111D01*
X159830202Y-118976112D01*
X159830201Y-118976114D01*
X159799500Y-119090691D01*
X151500000Y-119090691D01*
X151500000Y-118540691D01*
X156699500Y-118540691D01*
X156699500Y-118659309D01*
X156730201Y-118773886D01*
X156789511Y-118876613D01*
X156873387Y-118960489D01*
X156976114Y-119019799D01*
X157090691Y-119050500D01*
X157090694Y-119050500D01*
X157209306Y-119050500D01*
X157209309Y-119050500D01*
X157323886Y-119019799D01*
X157387999Y-118982782D01*
X157455898Y-118966309D01*
X157511999Y-118982782D01*
X157576114Y-119019799D01*
X157690691Y-119050500D01*
X157690694Y-119050500D01*
X157809306Y-119050500D01*
X157809309Y-119050500D01*
X157923886Y-119019799D01*
X158026613Y-118960489D01*
X158110489Y-118876613D01*
X158169799Y-118773886D01*
X158200500Y-118659309D01*
X158200500Y-118540691D01*
X158173705Y-118440691D01*
X158849500Y-118440691D01*
X158849500Y-118559309D01*
X158880201Y-118673886D01*
X158939511Y-118776613D01*
X159023387Y-118860489D01*
X159126114Y-118919799D01*
X159240691Y-118950500D01*
X159240694Y-118950500D01*
X159359306Y-118950500D01*
X159359309Y-118950500D01*
X159473886Y-118919799D01*
X159576613Y-118860489D01*
X159660489Y-118776613D01*
X159719799Y-118673886D01*
X159750500Y-118559309D01*
X159750500Y-118440691D01*
X159719799Y-118326114D01*
X159660489Y-118223387D01*
X159576613Y-118139511D01*
X159473886Y-118080201D01*
X159359309Y-118049500D01*
X159240691Y-118049500D01*
X159126114Y-118080201D01*
X159126112Y-118080201D01*
X159126112Y-118080202D01*
X159023387Y-118139511D01*
X159023384Y-118139513D01*
X158939513Y-118223384D01*
X158939511Y-118223387D01*
X158918091Y-118260488D01*
X158880201Y-118326114D01*
X158849500Y-118440691D01*
X158173705Y-118440691D01*
X158169799Y-118426114D01*
X158110489Y-118323387D01*
X158026613Y-118239511D01*
X157923886Y-118180201D01*
X157809309Y-118149500D01*
X157690691Y-118149500D01*
X157589508Y-118176612D01*
X157576110Y-118180202D01*
X157512000Y-118217217D01*
X157444100Y-118233690D01*
X157388000Y-118217217D01*
X157323889Y-118180202D01*
X157323890Y-118180202D01*
X157310492Y-118176612D01*
X157209309Y-118149500D01*
X157090691Y-118149500D01*
X156976114Y-118180201D01*
X156976112Y-118180201D01*
X156976112Y-118180202D01*
X156873387Y-118239511D01*
X156873384Y-118239513D01*
X156789513Y-118323384D01*
X156789511Y-118323387D01*
X156730201Y-118426114D01*
X156699500Y-118540691D01*
X151500000Y-118540691D01*
X151500000Y-117840691D01*
X152399500Y-117840691D01*
X152399500Y-117959309D01*
X152430201Y-118073886D01*
X152489511Y-118176613D01*
X152573387Y-118260489D01*
X152676114Y-118319799D01*
X152790691Y-118350500D01*
X152790694Y-118350500D01*
X152909306Y-118350500D01*
X152909309Y-118350500D01*
X153023886Y-118319799D01*
X153126613Y-118260489D01*
X153210489Y-118176613D01*
X153269799Y-118073886D01*
X153300500Y-117959309D01*
X153300500Y-117840691D01*
X160499500Y-117840691D01*
X160499500Y-117959309D01*
X160530201Y-118073886D01*
X160589511Y-118176613D01*
X160673387Y-118260489D01*
X160776114Y-118319799D01*
X160890691Y-118350500D01*
X160890694Y-118350500D01*
X161009306Y-118350500D01*
X161009309Y-118350500D01*
X161123886Y-118319799D01*
X161226613Y-118260489D01*
X161310489Y-118176613D01*
X161369799Y-118073886D01*
X161400500Y-117959309D01*
X161400500Y-117840691D01*
X161369799Y-117726114D01*
X161310489Y-117623387D01*
X161226613Y-117539511D01*
X161123886Y-117480201D01*
X161009309Y-117449500D01*
X160890691Y-117449500D01*
X160776114Y-117480201D01*
X160776112Y-117480201D01*
X160776112Y-117480202D01*
X160673387Y-117539511D01*
X160673384Y-117539513D01*
X160589513Y-117623384D01*
X160589511Y-117623387D01*
X160530201Y-117726114D01*
X160499500Y-117840691D01*
X153300500Y-117840691D01*
X153269799Y-117726114D01*
X153210489Y-117623387D01*
X153126613Y-117539511D01*
X153023886Y-117480201D01*
X152909309Y-117449500D01*
X152790691Y-117449500D01*
X152676114Y-117480201D01*
X152676112Y-117480201D01*
X152676112Y-117480202D01*
X152573387Y-117539511D01*
X152573384Y-117539513D01*
X152489513Y-117623384D01*
X152489511Y-117623387D01*
X152430201Y-117726114D01*
X152399500Y-117840691D01*
X151500000Y-117840691D01*
X151500000Y-117105525D01*
X163121500Y-117105525D01*
X163121500Y-117250475D01*
X163159016Y-117390485D01*
X163159017Y-117390488D01*
X163231488Y-117516011D01*
X163231490Y-117516013D01*
X163231491Y-117516015D01*
X163333985Y-117618509D01*
X163333986Y-117618510D01*
X163333988Y-117618511D01*
X163459511Y-117690982D01*
X163459512Y-117690982D01*
X163459515Y-117690984D01*
X163599525Y-117728500D01*
X163599528Y-117728500D01*
X163744472Y-117728500D01*
X163744475Y-117728500D01*
X163884485Y-117690984D01*
X164010015Y-117618509D01*
X164112509Y-117516015D01*
X164184984Y-117390485D01*
X164222500Y-117250475D01*
X164222500Y-117105525D01*
X164184984Y-116965515D01*
X164112509Y-116839985D01*
X164010015Y-116737491D01*
X164010013Y-116737490D01*
X164010011Y-116737488D01*
X163884488Y-116665017D01*
X163884489Y-116665017D01*
X163873006Y-116661940D01*
X163744475Y-116627500D01*
X163599525Y-116627500D01*
X163470993Y-116661940D01*
X163459511Y-116665017D01*
X163333988Y-116737488D01*
X163333982Y-116737493D01*
X163231493Y-116839982D01*
X163231488Y-116839988D01*
X163159017Y-116965511D01*
X163159016Y-116965515D01*
X163121500Y-117105525D01*
X151500000Y-117105525D01*
X151500000Y-116490691D01*
X168599500Y-116490691D01*
X168599500Y-116609309D01*
X168630201Y-116723886D01*
X168689511Y-116826613D01*
X168773387Y-116910489D01*
X168876114Y-116969799D01*
X168990691Y-117000500D01*
X168990694Y-117000500D01*
X169109306Y-117000500D01*
X169109309Y-117000500D01*
X169223886Y-116969799D01*
X169326613Y-116910489D01*
X169410489Y-116826613D01*
X169469799Y-116723886D01*
X169500500Y-116609309D01*
X169500500Y-116490691D01*
X170449500Y-116490691D01*
X170449500Y-116609309D01*
X170480201Y-116723886D01*
X170539511Y-116826613D01*
X170623387Y-116910489D01*
X170726114Y-116969799D01*
X170840691Y-117000500D01*
X170840694Y-117000500D01*
X170959306Y-117000500D01*
X170959309Y-117000500D01*
X171073886Y-116969799D01*
X171176613Y-116910489D01*
X171260489Y-116826613D01*
X171319799Y-116723886D01*
X171350500Y-116609309D01*
X171350500Y-116490691D01*
X171331904Y-116421290D01*
X171333567Y-116351443D01*
X171372729Y-116293580D01*
X171389673Y-116281816D01*
X171426613Y-116260489D01*
X171510489Y-116176613D01*
X171569799Y-116073886D01*
X171600500Y-115959309D01*
X171600500Y-115840691D01*
X171569799Y-115726114D01*
X171510489Y-115623387D01*
X171426613Y-115539511D01*
X171323886Y-115480201D01*
X171209309Y-115449500D01*
X171090691Y-115449500D01*
X170976114Y-115480201D01*
X170976112Y-115480201D01*
X170976112Y-115480202D01*
X170873387Y-115539511D01*
X170873384Y-115539513D01*
X170789513Y-115623384D01*
X170789511Y-115623387D01*
X170730201Y-115726114D01*
X170699500Y-115840691D01*
X170699500Y-115840693D01*
X170699500Y-115959308D01*
X170718095Y-116028707D01*
X170716432Y-116098557D01*
X170677269Y-116156419D01*
X170660321Y-116168186D01*
X170623393Y-116189506D01*
X170623384Y-116189513D01*
X170539513Y-116273384D01*
X170539511Y-116273387D01*
X170480201Y-116376114D01*
X170449500Y-116490691D01*
X169500500Y-116490691D01*
X169474910Y-116395188D01*
X169474665Y-116394206D01*
X169476061Y-116360321D01*
X169476868Y-116326444D01*
X169477495Y-116325516D01*
X169477542Y-116324396D01*
X169497033Y-116296648D01*
X169516030Y-116268582D01*
X169517435Y-116267606D01*
X169517705Y-116267223D01*
X169518391Y-116266943D01*
X169520299Y-116265618D01*
X169520162Y-116265439D01*
X169526606Y-116260492D01*
X169526613Y-116260489D01*
X169610489Y-116176613D01*
X169669799Y-116073886D01*
X169700500Y-115959309D01*
X169700500Y-115840691D01*
X169669799Y-115726114D01*
X169610489Y-115623387D01*
X169526613Y-115539511D01*
X169423886Y-115480201D01*
X169309309Y-115449500D01*
X169190691Y-115449500D01*
X169076114Y-115480201D01*
X169076112Y-115480201D01*
X169076112Y-115480202D01*
X168973387Y-115539511D01*
X168973384Y-115539513D01*
X168889513Y-115623384D01*
X168889511Y-115623387D01*
X168830201Y-115726114D01*
X168799500Y-115840691D01*
X168799500Y-115840693D01*
X168799500Y-115959308D01*
X168824794Y-116053707D01*
X168823131Y-116123557D01*
X168783968Y-116181419D01*
X168779699Y-116184385D01*
X168779836Y-116184563D01*
X168773384Y-116189513D01*
X168689513Y-116273384D01*
X168689511Y-116273387D01*
X168630201Y-116376114D01*
X168599500Y-116490691D01*
X151500000Y-116490691D01*
X151500000Y-114523372D01*
X151502688Y-114514215D01*
X151501405Y-114504760D01*
X151512372Y-114481234D01*
X151519685Y-114456333D01*
X151526895Y-114450084D01*
X151530929Y-114441434D01*
X151552877Y-114427571D01*
X151572489Y-114410578D01*
X151583506Y-114408226D01*
X151590002Y-114404124D01*
X151609417Y-114402696D01*
X151624976Y-114399376D01*
X151636844Y-114399469D01*
X151640691Y-114400500D01*
X151759309Y-114400500D01*
X151759552Y-114400434D01*
X151768339Y-114400504D01*
X151801375Y-114410487D01*
X151834402Y-114420185D01*
X151834733Y-114420567D01*
X151835221Y-114420715D01*
X151857623Y-114446983D01*
X151880157Y-114472989D01*
X151880229Y-114473491D01*
X151880559Y-114473878D01*
X151885194Y-114508022D01*
X151890101Y-114542147D01*
X151889917Y-114542815D01*
X151889958Y-114543112D01*
X151889662Y-114543746D01*
X151881927Y-114571945D01*
X151880203Y-114576106D01*
X151880201Y-114576114D01*
X151849500Y-114690691D01*
X151849500Y-114809309D01*
X151880201Y-114923886D01*
X151939511Y-115026613D01*
X152023387Y-115110489D01*
X152126114Y-115169799D01*
X152240691Y-115200500D01*
X152240694Y-115200500D01*
X152359306Y-115200500D01*
X152359309Y-115200500D01*
X152473886Y-115169799D01*
X152576613Y-115110489D01*
X152660489Y-115026613D01*
X152719799Y-114923886D01*
X152750500Y-114809309D01*
X152750500Y-114690691D01*
X153899500Y-114690691D01*
X153899500Y-114809309D01*
X153930201Y-114923886D01*
X153989511Y-115026613D01*
X154073387Y-115110489D01*
X154176114Y-115169799D01*
X154290691Y-115200500D01*
X154290694Y-115200500D01*
X154409306Y-115200500D01*
X154409309Y-115200500D01*
X154523886Y-115169799D01*
X154626613Y-115110489D01*
X154710489Y-115026613D01*
X154769799Y-114923886D01*
X154800500Y-114809309D01*
X154800500Y-114690691D01*
X154769799Y-114576114D01*
X154743483Y-114530535D01*
X154727010Y-114462636D01*
X154749862Y-114396608D01*
X154788867Y-114361149D01*
X154876613Y-114310489D01*
X154960489Y-114226613D01*
X155019799Y-114123886D01*
X155050500Y-114009309D01*
X155050500Y-113890691D01*
X155019799Y-113776114D01*
X154970480Y-113690691D01*
X156549500Y-113690691D01*
X156549500Y-113809309D01*
X156580201Y-113923886D01*
X156639511Y-114026613D01*
X156723387Y-114110489D01*
X156826114Y-114169799D01*
X156940691Y-114200500D01*
X156940694Y-114200500D01*
X157059306Y-114200500D01*
X157059309Y-114200500D01*
X157173886Y-114169799D01*
X157260962Y-114119525D01*
X158735500Y-114119525D01*
X158735500Y-114264475D01*
X158771647Y-114399376D01*
X158773017Y-114404488D01*
X158845488Y-114530011D01*
X158845490Y-114530013D01*
X158845491Y-114530015D01*
X158947985Y-114632509D01*
X158947986Y-114632510D01*
X158947988Y-114632511D01*
X159073511Y-114704982D01*
X159073512Y-114704982D01*
X159073515Y-114704984D01*
X159213525Y-114742500D01*
X159213528Y-114742500D01*
X159358472Y-114742500D01*
X159358475Y-114742500D01*
X159498485Y-114704984D01*
X159624015Y-114632509D01*
X159726509Y-114530015D01*
X159762113Y-114468346D01*
X159812680Y-114420131D01*
X159881287Y-114406908D01*
X159946152Y-114432876D01*
X159986680Y-114489791D01*
X159993500Y-114530347D01*
X159993500Y-114667475D01*
X160025121Y-114785485D01*
X160031017Y-114807488D01*
X160103488Y-114933011D01*
X160103490Y-114933013D01*
X160103491Y-114933015D01*
X160205985Y-115035509D01*
X160205986Y-115035510D01*
X160205988Y-115035511D01*
X160331511Y-115107982D01*
X160331512Y-115107982D01*
X160331515Y-115107984D01*
X160471525Y-115145500D01*
X160471528Y-115145500D01*
X160616472Y-115145500D01*
X160616475Y-115145500D01*
X160756485Y-115107984D01*
X160756494Y-115107978D01*
X160761370Y-115105960D01*
X160830839Y-115098488D01*
X160893319Y-115129761D01*
X160907202Y-115145032D01*
X160909490Y-115148014D01*
X160909491Y-115148015D01*
X161011985Y-115250509D01*
X161011986Y-115250510D01*
X161011988Y-115250511D01*
X161137511Y-115322982D01*
X161137512Y-115322982D01*
X161137515Y-115322984D01*
X161277525Y-115360500D01*
X161277528Y-115360500D01*
X161422472Y-115360500D01*
X161422475Y-115360500D01*
X161562485Y-115322984D01*
X161688015Y-115250509D01*
X161790509Y-115148015D01*
X161862984Y-115022485D01*
X161900500Y-114882475D01*
X161900500Y-114737525D01*
X161862984Y-114597515D01*
X161862982Y-114597511D01*
X161838092Y-114554400D01*
X161838091Y-114554399D01*
X161831017Y-114542147D01*
X161806987Y-114500525D01*
X166827500Y-114500525D01*
X166827500Y-114645475D01*
X166843446Y-114704984D01*
X166865017Y-114785488D01*
X166937488Y-114911011D01*
X166937490Y-114911013D01*
X166937491Y-114911015D01*
X167039985Y-115013509D01*
X167039986Y-115013510D01*
X167039988Y-115013511D01*
X167165511Y-115085982D01*
X167165512Y-115085982D01*
X167165515Y-115085984D01*
X167305525Y-115123500D01*
X167305528Y-115123500D01*
X167450472Y-115123500D01*
X167450475Y-115123500D01*
X167590485Y-115085984D01*
X167716015Y-115013509D01*
X167818509Y-114911015D01*
X167890984Y-114785485D01*
X167928500Y-114645475D01*
X167928500Y-114500525D01*
X167890984Y-114360515D01*
X167862101Y-114310489D01*
X167818511Y-114234988D01*
X167818506Y-114234982D01*
X167716017Y-114132493D01*
X167716011Y-114132488D01*
X167590488Y-114060017D01*
X167590489Y-114060017D01*
X167579006Y-114056940D01*
X167450475Y-114022500D01*
X167305525Y-114022500D01*
X167176993Y-114056940D01*
X167165511Y-114060017D01*
X167039988Y-114132488D01*
X167039982Y-114132493D01*
X166937493Y-114234982D01*
X166937488Y-114234988D01*
X166865017Y-114360511D01*
X166865016Y-114360515D01*
X166827500Y-114500525D01*
X161806987Y-114500525D01*
X161790509Y-114471985D01*
X161688015Y-114369491D01*
X161688013Y-114369490D01*
X161688011Y-114369488D01*
X161562488Y-114297017D01*
X161562489Y-114297017D01*
X161551006Y-114293940D01*
X161422475Y-114259500D01*
X161277525Y-114259500D01*
X161179108Y-114285870D01*
X161137510Y-114297017D01*
X161132618Y-114299044D01*
X161063148Y-114306509D01*
X161000671Y-114275230D01*
X160986796Y-114259966D01*
X160984507Y-114256983D01*
X160882017Y-114154493D01*
X160882011Y-114154488D01*
X160756488Y-114082017D01*
X160756489Y-114082017D01*
X160745006Y-114078940D01*
X160616475Y-114044500D01*
X160471525Y-114044500D01*
X160342993Y-114078940D01*
X160331511Y-114082017D01*
X160205988Y-114154488D01*
X160205982Y-114154493D01*
X160103493Y-114256982D01*
X160103491Y-114256985D01*
X160076699Y-114303391D01*
X160067887Y-114318653D01*
X160017319Y-114366868D01*
X159948712Y-114380090D01*
X159883848Y-114354122D01*
X159843320Y-114297208D01*
X159836500Y-114256652D01*
X159836500Y-114119527D01*
X159836500Y-114119525D01*
X159798984Y-113979515D01*
X159798981Y-113979510D01*
X159796972Y-113972011D01*
X159798635Y-113902161D01*
X159837797Y-113844299D01*
X159854738Y-113832535D01*
X159905015Y-113803509D01*
X160007509Y-113701015D01*
X160079984Y-113575485D01*
X160117500Y-113435475D01*
X160117500Y-113290525D01*
X160079984Y-113150515D01*
X160064957Y-113124488D01*
X160007511Y-113024988D01*
X160007506Y-113024982D01*
X159905017Y-112922493D01*
X159905011Y-112922488D01*
X159779488Y-112850017D01*
X159779489Y-112850017D01*
X159768006Y-112846940D01*
X159740333Y-112839525D01*
X160930500Y-112839525D01*
X160930500Y-112984475D01*
X160964266Y-113110489D01*
X160968017Y-113124488D01*
X161040488Y-113250011D01*
X161040490Y-113250013D01*
X161040491Y-113250015D01*
X161142985Y-113352509D01*
X161142986Y-113352510D01*
X161142988Y-113352511D01*
X161268511Y-113424982D01*
X161268512Y-113424982D01*
X161268515Y-113424984D01*
X161408525Y-113462500D01*
X161408528Y-113462500D01*
X161553472Y-113462500D01*
X161553475Y-113462500D01*
X161693485Y-113424984D01*
X161726609Y-113405859D01*
X161794508Y-113389386D01*
X161860535Y-113412237D01*
X161895996Y-113451244D01*
X161939511Y-113526613D01*
X162023387Y-113610489D01*
X162126114Y-113669799D01*
X162240691Y-113700500D01*
X162240694Y-113700500D01*
X162359306Y-113700500D01*
X162359309Y-113700500D01*
X162473886Y-113669799D01*
X162576613Y-113610489D01*
X162660489Y-113526613D01*
X162719799Y-113423886D01*
X162750500Y-113309309D01*
X162750500Y-113309299D01*
X162750631Y-113308311D01*
X162750975Y-113307533D01*
X162752603Y-113301458D01*
X162753550Y-113301711D01*
X162778900Y-113244415D01*
X162837225Y-113205946D01*
X162873570Y-113200500D01*
X162959306Y-113200500D01*
X162959309Y-113200500D01*
X163073886Y-113169799D01*
X163176613Y-113110489D01*
X163260489Y-113026613D01*
X163319799Y-112923886D01*
X163350500Y-112809309D01*
X163350500Y-112690691D01*
X163319799Y-112576114D01*
X163260489Y-112473387D01*
X163176613Y-112389511D01*
X163132839Y-112364238D01*
X164838544Y-112364238D01*
X164838544Y-112509188D01*
X164856477Y-112576114D01*
X164876061Y-112649201D01*
X164948532Y-112774724D01*
X164948534Y-112774726D01*
X164948535Y-112774728D01*
X165051029Y-112877222D01*
X165051030Y-112877223D01*
X165051032Y-112877224D01*
X165176555Y-112949695D01*
X165176556Y-112949695D01*
X165176559Y-112949697D01*
X165316569Y-112987213D01*
X165316572Y-112987213D01*
X165461516Y-112987213D01*
X165461519Y-112987213D01*
X165601529Y-112949697D01*
X165727059Y-112877222D01*
X165829553Y-112774728D01*
X165902028Y-112649198D01*
X165939544Y-112509188D01*
X165939544Y-112364238D01*
X165902028Y-112224228D01*
X165858311Y-112148509D01*
X165829555Y-112098701D01*
X165829550Y-112098695D01*
X165727061Y-111996206D01*
X165727055Y-111996201D01*
X165601532Y-111923730D01*
X165601533Y-111923730D01*
X165563354Y-111913500D01*
X165461519Y-111886213D01*
X165316569Y-111886213D01*
X165214734Y-111913500D01*
X165176555Y-111923730D01*
X165051032Y-111996201D01*
X165051026Y-111996206D01*
X164948537Y-112098695D01*
X164948532Y-112098701D01*
X164876061Y-112224224D01*
X164876060Y-112224228D01*
X164838544Y-112364238D01*
X163132839Y-112364238D01*
X163073886Y-112330201D01*
X162959309Y-112299500D01*
X162840691Y-112299500D01*
X162726114Y-112330201D01*
X162726112Y-112330201D01*
X162726112Y-112330202D01*
X162623387Y-112389511D01*
X162623384Y-112389513D01*
X162539513Y-112473384D01*
X162539511Y-112473387D01*
X162480201Y-112576114D01*
X162449500Y-112690691D01*
X162449500Y-112690692D01*
X162449369Y-112691689D01*
X162449024Y-112692466D01*
X162447397Y-112698542D01*
X162446449Y-112698288D01*
X162438144Y-112717059D01*
X162430057Y-112743599D01*
X162424205Y-112748565D01*
X162421100Y-112755585D01*
X162397937Y-112770862D01*
X162376789Y-112788813D01*
X162367842Y-112790711D01*
X162362775Y-112794054D01*
X162342825Y-112798411D01*
X162334661Y-112799500D01*
X162240691Y-112799500D01*
X162147535Y-112824461D01*
X162139582Y-112825522D01*
X162112662Y-112821371D01*
X162085430Y-112820723D01*
X162078636Y-112816125D01*
X162070529Y-112814875D01*
X162050124Y-112796827D01*
X162027568Y-112781560D01*
X162023128Y-112772948D01*
X162018194Y-112768584D01*
X162014937Y-112757058D01*
X162003413Y-112734705D01*
X161993984Y-112699515D01*
X161993422Y-112698542D01*
X161921511Y-112573988D01*
X161921506Y-112573982D01*
X161819017Y-112471493D01*
X161819015Y-112471491D01*
X161782064Y-112450157D01*
X161733850Y-112399590D01*
X161720628Y-112330983D01*
X161746596Y-112266118D01*
X161803511Y-112225591D01*
X161811948Y-112223003D01*
X161819485Y-112220984D01*
X161819488Y-112220982D01*
X161819489Y-112220982D01*
X161908067Y-112169841D01*
X161945015Y-112148509D01*
X162047509Y-112046015D01*
X162119984Y-111920485D01*
X162157500Y-111780475D01*
X162157500Y-111635525D01*
X162119984Y-111495515D01*
X162047509Y-111369985D01*
X161945015Y-111267491D01*
X161945013Y-111267490D01*
X161945011Y-111267488D01*
X161884671Y-111232651D01*
X161836455Y-111182084D01*
X161823233Y-111113476D01*
X161849201Y-111048612D01*
X161884671Y-111017877D01*
X161913291Y-111001352D01*
X162010015Y-110945509D01*
X162112509Y-110843015D01*
X162184984Y-110717485D01*
X162222500Y-110577475D01*
X162222500Y-110432525D01*
X162184984Y-110292515D01*
X162145361Y-110223887D01*
X162112511Y-110166988D01*
X162112506Y-110166982D01*
X162010017Y-110064493D01*
X162010011Y-110064488D01*
X161884488Y-109992017D01*
X161884489Y-109992017D01*
X161879541Y-109990691D01*
X164899500Y-109990691D01*
X164899500Y-110109309D01*
X164930201Y-110223886D01*
X164989511Y-110326613D01*
X165073387Y-110410489D01*
X165176114Y-110469799D01*
X165290691Y-110500500D01*
X165290694Y-110500500D01*
X165409306Y-110500500D01*
X165409309Y-110500500D01*
X165523886Y-110469799D01*
X165626613Y-110410489D01*
X165710489Y-110326613D01*
X165769799Y-110223886D01*
X165800500Y-110109309D01*
X165800500Y-109990691D01*
X165769799Y-109876114D01*
X165710489Y-109773387D01*
X165626613Y-109689511D01*
X165523886Y-109630201D01*
X165409309Y-109599500D01*
X165290691Y-109599500D01*
X165176114Y-109630201D01*
X165176112Y-109630201D01*
X165176112Y-109630202D01*
X165073387Y-109689511D01*
X165073384Y-109689513D01*
X164989513Y-109773384D01*
X164989511Y-109773387D01*
X164930201Y-109876114D01*
X164899500Y-109990691D01*
X161879541Y-109990691D01*
X161873006Y-109988940D01*
X161744475Y-109954500D01*
X161599525Y-109954500D01*
X161470993Y-109988940D01*
X161459511Y-109992017D01*
X161333988Y-110064488D01*
X161333982Y-110064493D01*
X161231493Y-110166982D01*
X161231488Y-110166988D01*
X161159017Y-110292511D01*
X161159016Y-110292515D01*
X161121500Y-110432525D01*
X161121500Y-110577475D01*
X161159016Y-110717485D01*
X161159017Y-110717488D01*
X161231488Y-110843011D01*
X161231490Y-110843013D01*
X161231491Y-110843015D01*
X161333985Y-110945509D01*
X161394328Y-110980348D01*
X161442544Y-111030915D01*
X161455767Y-111099522D01*
X161429799Y-111164387D01*
X161394329Y-111195121D01*
X161268991Y-111267486D01*
X161268982Y-111267493D01*
X161166493Y-111369982D01*
X161166488Y-111369988D01*
X161094017Y-111495511D01*
X161094016Y-111495515D01*
X161056500Y-111635525D01*
X161056500Y-111780475D01*
X161094016Y-111920485D01*
X161094017Y-111920488D01*
X161166488Y-112046011D01*
X161166490Y-112046013D01*
X161166491Y-112046015D01*
X161268985Y-112148509D01*
X161305933Y-112169841D01*
X161354149Y-112220408D01*
X161367371Y-112289015D01*
X161341403Y-112353880D01*
X161284489Y-112394408D01*
X161276032Y-112397001D01*
X161268517Y-112399014D01*
X161268511Y-112399017D01*
X161142988Y-112471488D01*
X161142982Y-112471493D01*
X161040493Y-112573982D01*
X161040488Y-112573988D01*
X160968017Y-112699511D01*
X160968016Y-112699515D01*
X160930500Y-112839525D01*
X159740333Y-112839525D01*
X159639475Y-112812500D01*
X159494525Y-112812500D01*
X159365993Y-112846940D01*
X159354511Y-112850017D01*
X159228988Y-112922488D01*
X159228982Y-112922493D01*
X159126493Y-113024982D01*
X159126488Y-113024988D01*
X159054017Y-113150511D01*
X159054016Y-113150515D01*
X159016500Y-113290525D01*
X159016500Y-113435475D01*
X159054016Y-113575485D01*
X159054017Y-113575486D01*
X159056027Y-113582988D01*
X159054364Y-113652838D01*
X159015202Y-113710701D01*
X158998255Y-113722467D01*
X158947985Y-113751491D01*
X158947982Y-113751493D01*
X158845493Y-113853982D01*
X158845488Y-113853988D01*
X158773017Y-113979511D01*
X158773016Y-113979515D01*
X158735500Y-114119525D01*
X157260962Y-114119525D01*
X157276613Y-114110489D01*
X157360489Y-114026613D01*
X157419799Y-113923886D01*
X157450500Y-113809309D01*
X157450500Y-113690691D01*
X157419799Y-113576114D01*
X157360489Y-113473387D01*
X157276613Y-113389511D01*
X157173886Y-113330201D01*
X157059309Y-113299500D01*
X156940691Y-113299500D01*
X156826114Y-113330201D01*
X156826112Y-113330201D01*
X156826112Y-113330202D01*
X156723387Y-113389511D01*
X156723384Y-113389513D01*
X156639513Y-113473384D01*
X156639511Y-113473387D01*
X156606709Y-113530202D01*
X156580201Y-113576114D01*
X156549500Y-113690691D01*
X154970480Y-113690691D01*
X154960489Y-113673387D01*
X154876613Y-113589511D01*
X154773886Y-113530201D01*
X154659309Y-113499500D01*
X154540691Y-113499500D01*
X154426114Y-113530201D01*
X154426112Y-113530201D01*
X154426112Y-113530202D01*
X154323387Y-113589511D01*
X154323384Y-113589513D01*
X154239513Y-113673384D01*
X154239511Y-113673387D01*
X154180201Y-113776114D01*
X154149500Y-113890691D01*
X154149500Y-114009309D01*
X154180201Y-114123886D01*
X154197871Y-114154491D01*
X154206516Y-114169464D01*
X154222989Y-114237364D01*
X154200137Y-114303391D01*
X154161130Y-114338852D01*
X154073387Y-114389511D01*
X154073384Y-114389513D01*
X153989513Y-114473384D01*
X153989511Y-114473387D01*
X153930206Y-114576106D01*
X153930201Y-114576114D01*
X153899500Y-114690691D01*
X152750500Y-114690691D01*
X152719799Y-114576114D01*
X152660489Y-114473387D01*
X152576613Y-114389511D01*
X152473886Y-114330201D01*
X152359309Y-114299500D01*
X152240691Y-114299500D01*
X152232637Y-114299500D01*
X152165598Y-114279815D01*
X152119843Y-114227011D01*
X152109899Y-114157853D01*
X152118073Y-114128055D01*
X152119796Y-114123893D01*
X152119798Y-114123887D01*
X152119799Y-114123886D01*
X152150500Y-114009309D01*
X152150500Y-113890691D01*
X152119799Y-113776114D01*
X152060489Y-113673387D01*
X151976613Y-113589511D01*
X151873886Y-113530201D01*
X151759309Y-113499500D01*
X151640691Y-113499500D01*
X151640688Y-113499500D01*
X151640179Y-113499567D01*
X151639749Y-113499500D01*
X151632564Y-113499500D01*
X151632564Y-113498379D01*
X151571144Y-113488798D01*
X151518891Y-113442415D01*
X151500000Y-113376627D01*
X151500000Y-111290525D01*
X159315500Y-111290525D01*
X159315500Y-111435475D01*
X159331587Y-111495511D01*
X159353017Y-111575488D01*
X159425488Y-111701011D01*
X159425490Y-111701013D01*
X159425491Y-111701015D01*
X159527985Y-111803509D01*
X159527986Y-111803510D01*
X159527988Y-111803511D01*
X159653511Y-111875982D01*
X159653512Y-111875982D01*
X159653515Y-111875984D01*
X159793525Y-111913500D01*
X159793528Y-111913500D01*
X159938472Y-111913500D01*
X159938475Y-111913500D01*
X160078485Y-111875984D01*
X160204015Y-111803509D01*
X160306509Y-111701015D01*
X160378984Y-111575485D01*
X160416500Y-111435475D01*
X160416500Y-111290525D01*
X160378984Y-111150515D01*
X160357599Y-111113476D01*
X160306511Y-111024988D01*
X160306506Y-111024982D01*
X160204017Y-110922493D01*
X160204011Y-110922488D01*
X160078488Y-110850017D01*
X160078489Y-110850017D01*
X160067006Y-110846940D01*
X159938475Y-110812500D01*
X159793525Y-110812500D01*
X159664993Y-110846940D01*
X159653511Y-110850017D01*
X159527988Y-110922488D01*
X159527982Y-110922493D01*
X159425493Y-111024982D01*
X159425488Y-111024988D01*
X159353017Y-111150511D01*
X159353016Y-111150515D01*
X159315500Y-111290525D01*
X151500000Y-111290525D01*
X151500000Y-109420691D01*
X173899500Y-109420691D01*
X173899500Y-109539309D01*
X173930201Y-109653886D01*
X173989511Y-109756613D01*
X174073387Y-109840489D01*
X174176114Y-109899799D01*
X174290691Y-109930500D01*
X174290694Y-109930500D01*
X174409306Y-109930500D01*
X174409309Y-109930500D01*
X174523886Y-109899799D01*
X174626613Y-109840489D01*
X174710489Y-109756613D01*
X174769799Y-109653886D01*
X174800500Y-109539309D01*
X174800500Y-109420691D01*
X174769799Y-109306114D01*
X174710489Y-109203387D01*
X174626613Y-109119511D01*
X174523886Y-109060201D01*
X174409309Y-109029500D01*
X174290691Y-109029500D01*
X174176114Y-109060201D01*
X174176112Y-109060201D01*
X174176112Y-109060202D01*
X174073387Y-109119511D01*
X174073384Y-109119513D01*
X173989513Y-109203384D01*
X173989511Y-109203387D01*
X173934020Y-109299500D01*
X173930201Y-109306114D01*
X173899500Y-109420691D01*
X151500000Y-109420691D01*
X151500000Y-108406681D01*
X166592500Y-108406681D01*
X166592500Y-108551631D01*
X166625966Y-108676525D01*
X166630017Y-108691644D01*
X166702488Y-108817167D01*
X166702490Y-108817169D01*
X166702491Y-108817171D01*
X166804985Y-108919665D01*
X166804986Y-108919666D01*
X166804988Y-108919667D01*
X166930511Y-108992138D01*
X166930512Y-108992138D01*
X166930515Y-108992140D01*
X167070525Y-109029656D01*
X167070528Y-109029656D01*
X167215472Y-109029656D01*
X167215475Y-109029656D01*
X167355485Y-108992140D01*
X167481015Y-108919665D01*
X167583509Y-108817171D01*
X167655984Y-108691641D01*
X167660034Y-108676525D01*
X170426500Y-108676525D01*
X170426500Y-108821475D01*
X170452811Y-108919667D01*
X170464017Y-108961488D01*
X170536488Y-109087011D01*
X170536490Y-109087013D01*
X170536491Y-109087015D01*
X170638985Y-109189509D01*
X170638986Y-109189510D01*
X170638988Y-109189511D01*
X170764511Y-109261982D01*
X170764512Y-109261982D01*
X170764515Y-109261984D01*
X170904525Y-109299500D01*
X170904528Y-109299500D01*
X171049472Y-109299500D01*
X171049475Y-109299500D01*
X171189485Y-109261984D01*
X171315015Y-109189509D01*
X171417509Y-109087015D01*
X171489984Y-108961485D01*
X171527500Y-108821475D01*
X171527500Y-108676525D01*
X171489984Y-108536515D01*
X171417509Y-108410985D01*
X171315015Y-108308491D01*
X171315013Y-108308490D01*
X171315011Y-108308488D01*
X171189488Y-108236017D01*
X171189489Y-108236017D01*
X171178006Y-108232940D01*
X171049475Y-108198500D01*
X170904525Y-108198500D01*
X170775993Y-108232940D01*
X170764511Y-108236017D01*
X170638988Y-108308488D01*
X170638982Y-108308493D01*
X170536493Y-108410982D01*
X170536488Y-108410988D01*
X170464017Y-108536511D01*
X170464016Y-108536515D01*
X170426500Y-108676525D01*
X167660034Y-108676525D01*
X167693500Y-108551631D01*
X167693500Y-108406681D01*
X167655984Y-108266671D01*
X167638285Y-108236016D01*
X167583511Y-108141144D01*
X167583506Y-108141138D01*
X167481017Y-108038649D01*
X167481011Y-108038644D01*
X167355488Y-107966173D01*
X167355489Y-107966173D01*
X167344006Y-107963096D01*
X167215475Y-107928656D01*
X167070525Y-107928656D01*
X166941993Y-107963096D01*
X166930511Y-107966173D01*
X166804988Y-108038644D01*
X166804982Y-108038649D01*
X166702493Y-108141138D01*
X166702488Y-108141144D01*
X166630017Y-108266667D01*
X166630016Y-108266671D01*
X166592500Y-108406681D01*
X151500000Y-108406681D01*
X151500000Y-105840691D01*
X156387000Y-105840691D01*
X156387000Y-105959309D01*
X156417701Y-106073886D01*
X156477011Y-106176613D01*
X156560887Y-106260489D01*
X156663614Y-106319799D01*
X156778191Y-106350500D01*
X156778194Y-106350500D01*
X156896806Y-106350500D01*
X156896809Y-106350500D01*
X157011386Y-106319799D01*
X157114113Y-106260489D01*
X157197989Y-106176613D01*
X157229217Y-106122525D01*
X158920500Y-106122525D01*
X158920500Y-106267475D01*
X158958016Y-106407485D01*
X158958017Y-106407488D01*
X159030488Y-106533011D01*
X159030490Y-106533013D01*
X159030491Y-106533015D01*
X159132985Y-106635509D01*
X159132986Y-106635510D01*
X159132988Y-106635511D01*
X159258511Y-106707982D01*
X159258512Y-106707982D01*
X159258515Y-106707984D01*
X159398525Y-106745500D01*
X159398528Y-106745500D01*
X159543472Y-106745500D01*
X159543475Y-106745500D01*
X159683485Y-106707984D01*
X159809015Y-106635509D01*
X159911509Y-106533015D01*
X159983984Y-106407485D01*
X160021500Y-106267475D01*
X160021500Y-106122525D01*
X159983984Y-105982515D01*
X159939534Y-105905525D01*
X161113500Y-105905525D01*
X161113500Y-106050475D01*
X161138289Y-106142988D01*
X161151017Y-106190488D01*
X161223488Y-106316011D01*
X161223490Y-106316013D01*
X161223491Y-106316015D01*
X161325985Y-106418509D01*
X161325986Y-106418510D01*
X161325988Y-106418511D01*
X161451511Y-106490982D01*
X161451512Y-106490982D01*
X161451515Y-106490984D01*
X161591525Y-106528500D01*
X161591528Y-106528500D01*
X161736472Y-106528500D01*
X161736475Y-106528500D01*
X161876485Y-106490984D01*
X162002015Y-106418509D01*
X162104509Y-106316015D01*
X162176984Y-106190485D01*
X162190326Y-106140691D01*
X165149500Y-106140691D01*
X165149500Y-106259309D01*
X165180201Y-106373886D01*
X165239511Y-106476613D01*
X165323387Y-106560489D01*
X165426114Y-106619799D01*
X165540691Y-106650500D01*
X165540694Y-106650500D01*
X165659306Y-106650500D01*
X165659309Y-106650500D01*
X165773886Y-106619799D01*
X165876613Y-106560489D01*
X165960489Y-106476613D01*
X165999800Y-106408525D01*
X170447500Y-106408525D01*
X170447500Y-106553475D01*
X170469482Y-106635511D01*
X170485017Y-106693488D01*
X170557488Y-106819011D01*
X170557490Y-106819013D01*
X170557491Y-106819015D01*
X170659985Y-106921509D01*
X170659986Y-106921510D01*
X170659988Y-106921511D01*
X170785511Y-106993982D01*
X170785512Y-106993982D01*
X170785515Y-106993984D01*
X170925525Y-107031500D01*
X170925528Y-107031500D01*
X171070472Y-107031500D01*
X171070475Y-107031500D01*
X171210485Y-106993984D01*
X171336015Y-106921509D01*
X171438509Y-106819015D01*
X171510984Y-106693485D01*
X171548500Y-106553475D01*
X171548500Y-106408525D01*
X171510984Y-106268515D01*
X171506348Y-106260486D01*
X171438511Y-106142988D01*
X171438506Y-106142982D01*
X171336017Y-106040493D01*
X171336011Y-106040488D01*
X171210488Y-105968017D01*
X171210489Y-105968017D01*
X171177979Y-105959306D01*
X171070475Y-105930500D01*
X170925525Y-105930500D01*
X170818021Y-105959306D01*
X170785511Y-105968017D01*
X170659988Y-106040488D01*
X170659982Y-106040493D01*
X170557493Y-106142982D01*
X170557488Y-106142988D01*
X170485017Y-106268511D01*
X170485016Y-106268515D01*
X170447500Y-106408525D01*
X165999800Y-106408525D01*
X166019799Y-106373886D01*
X166050500Y-106259309D01*
X166050500Y-106140691D01*
X166019799Y-106026114D01*
X165960489Y-105923387D01*
X165876613Y-105839511D01*
X165773886Y-105780201D01*
X165659309Y-105749500D01*
X165540691Y-105749500D01*
X165426114Y-105780201D01*
X165426112Y-105780201D01*
X165426112Y-105780202D01*
X165323387Y-105839511D01*
X165323384Y-105839513D01*
X165239513Y-105923384D01*
X165239511Y-105923387D01*
X165180201Y-106026114D01*
X165149500Y-106140691D01*
X162190326Y-106140691D01*
X162214500Y-106050475D01*
X162214500Y-105905525D01*
X162176984Y-105765515D01*
X162170620Y-105754493D01*
X162104511Y-105639988D01*
X162104506Y-105639982D01*
X162002017Y-105537493D01*
X162002011Y-105537488D01*
X161876488Y-105465017D01*
X161876489Y-105465017D01*
X161865006Y-105461940D01*
X161736475Y-105427500D01*
X161591525Y-105427500D01*
X161462993Y-105461940D01*
X161451511Y-105465017D01*
X161325988Y-105537488D01*
X161325982Y-105537493D01*
X161223493Y-105639982D01*
X161223488Y-105639988D01*
X161151017Y-105765511D01*
X161151016Y-105765515D01*
X161113500Y-105905525D01*
X159939534Y-105905525D01*
X159911509Y-105856985D01*
X159809015Y-105754491D01*
X159809013Y-105754490D01*
X159809011Y-105754488D01*
X159683488Y-105682017D01*
X159683489Y-105682017D01*
X159672006Y-105678940D01*
X159543475Y-105644500D01*
X159398525Y-105644500D01*
X159269993Y-105678940D01*
X159258511Y-105682017D01*
X159132988Y-105754488D01*
X159132982Y-105754493D01*
X159030493Y-105856982D01*
X159030488Y-105856988D01*
X158958017Y-105982511D01*
X158958016Y-105982515D01*
X158920500Y-106122525D01*
X157229217Y-106122525D01*
X157257299Y-106073886D01*
X157288000Y-105959309D01*
X157288000Y-105840691D01*
X157257299Y-105726114D01*
X157197989Y-105623387D01*
X157114113Y-105539511D01*
X157011386Y-105480201D01*
X156896809Y-105449500D01*
X156778191Y-105449500D01*
X156663614Y-105480201D01*
X156663612Y-105480201D01*
X156663612Y-105480202D01*
X156560887Y-105539511D01*
X156560884Y-105539513D01*
X156477013Y-105623384D01*
X156477011Y-105623387D01*
X156417701Y-105726114D01*
X156387000Y-105840691D01*
X151500000Y-105840691D01*
X151500000Y-103540691D01*
X176299500Y-103540691D01*
X176299500Y-103659309D01*
X176330201Y-103773886D01*
X176389511Y-103876613D01*
X176473387Y-103960489D01*
X176576114Y-104019799D01*
X176690691Y-104050500D01*
X176690694Y-104050500D01*
X176809306Y-104050500D01*
X176809309Y-104050500D01*
X176923886Y-104019799D01*
X177026613Y-103960489D01*
X177110489Y-103876613D01*
X177169799Y-103773886D01*
X177200500Y-103659309D01*
X177200500Y-103540691D01*
X177169799Y-103426114D01*
X177110489Y-103323387D01*
X177026613Y-103239511D01*
X176923886Y-103180201D01*
X176809309Y-103149500D01*
X176690691Y-103149500D01*
X176576114Y-103180201D01*
X176576112Y-103180201D01*
X176576112Y-103180202D01*
X176473387Y-103239511D01*
X176473384Y-103239513D01*
X176389513Y-103323384D01*
X176389511Y-103323387D01*
X176330201Y-103426114D01*
X176299500Y-103540691D01*
X151500000Y-103540691D01*
X151500000Y-102552525D01*
X158921500Y-102552525D01*
X158921500Y-102697475D01*
X158959016Y-102837485D01*
X158959017Y-102837488D01*
X159031488Y-102963011D01*
X159031490Y-102963013D01*
X159031491Y-102963015D01*
X159133985Y-103065509D01*
X159133986Y-103065510D01*
X159133988Y-103065511D01*
X159259511Y-103137982D01*
X159259512Y-103137982D01*
X159259515Y-103137984D01*
X159399525Y-103175500D01*
X159399528Y-103175500D01*
X159544472Y-103175500D01*
X159544475Y-103175500D01*
X159684485Y-103137984D01*
X159810015Y-103065509D01*
X159912509Y-102963015D01*
X159984984Y-102837485D01*
X160022500Y-102697475D01*
X160022500Y-102552525D01*
X159984984Y-102412515D01*
X159912509Y-102286985D01*
X159810015Y-102184491D01*
X159810013Y-102184490D01*
X159810011Y-102184488D01*
X159684488Y-102112017D01*
X159684489Y-102112017D01*
X159673006Y-102108940D01*
X159544475Y-102074500D01*
X159399525Y-102074500D01*
X159270993Y-102108940D01*
X159259511Y-102112017D01*
X159133988Y-102184488D01*
X159133982Y-102184493D01*
X159031493Y-102286982D01*
X159031488Y-102286988D01*
X158959017Y-102412511D01*
X158959016Y-102412515D01*
X158921500Y-102552525D01*
X151500000Y-102552525D01*
X151500000Y-97972524D01*
X159924500Y-97972524D01*
X159924500Y-98117474D01*
X159962016Y-98257484D01*
X159962017Y-98257487D01*
X160034488Y-98383010D01*
X160034490Y-98383012D01*
X160034491Y-98383014D01*
X160136985Y-98485508D01*
X160136986Y-98485509D01*
X160136988Y-98485510D01*
X160262511Y-98557981D01*
X160262512Y-98557981D01*
X160262515Y-98557983D01*
X160402525Y-98595499D01*
X160402528Y-98595499D01*
X160547472Y-98595499D01*
X160547475Y-98595499D01*
X160687485Y-98557983D01*
X160813015Y-98485508D01*
X160915509Y-98383014D01*
X160987984Y-98257484D01*
X161025500Y-98117474D01*
X161025500Y-97972524D01*
X160987984Y-97832514D01*
X160915509Y-97706984D01*
X160813015Y-97604490D01*
X160813013Y-97604489D01*
X160813011Y-97604487D01*
X160687488Y-97532016D01*
X160687489Y-97532016D01*
X160676006Y-97528939D01*
X160547475Y-97494499D01*
X160402525Y-97494499D01*
X160273993Y-97528939D01*
X160262511Y-97532016D01*
X160136988Y-97604487D01*
X160136982Y-97604492D01*
X160034493Y-97706981D01*
X160034488Y-97706987D01*
X159962017Y-97832510D01*
X159962016Y-97832514D01*
X159924500Y-97972524D01*
X151500000Y-97972524D01*
X151500000Y-97090325D01*
X161360500Y-97090325D01*
X161360500Y-97235275D01*
X161398016Y-97375285D01*
X161398017Y-97375288D01*
X161470488Y-97500811D01*
X161470490Y-97500813D01*
X161470491Y-97500815D01*
X161572985Y-97603309D01*
X161572986Y-97603310D01*
X161572988Y-97603311D01*
X161698511Y-97675782D01*
X161698512Y-97675782D01*
X161698515Y-97675784D01*
X161838525Y-97713300D01*
X161838528Y-97713300D01*
X161983472Y-97713300D01*
X161983475Y-97713300D01*
X162123485Y-97675784D01*
X162249015Y-97603309D01*
X162351509Y-97500815D01*
X162423984Y-97375285D01*
X162461500Y-97235275D01*
X162461500Y-97090325D01*
X162423984Y-96950315D01*
X162351509Y-96824785D01*
X162249015Y-96722291D01*
X162123485Y-96649816D01*
X161983475Y-96612300D01*
X161838525Y-96612300D01*
X161709993Y-96646740D01*
X161698511Y-96649817D01*
X161572988Y-96722288D01*
X161572982Y-96722293D01*
X161470493Y-96824782D01*
X161470488Y-96824788D01*
X161398017Y-96950311D01*
X161398016Y-96950315D01*
X161360500Y-97090325D01*
X151500000Y-97090325D01*
X151500000Y-96578025D01*
X167298500Y-96578025D01*
X167298500Y-96722975D01*
X167325781Y-96824788D01*
X167336017Y-96862988D01*
X167408488Y-96988511D01*
X167408490Y-96988513D01*
X167408491Y-96988515D01*
X167510985Y-97091009D01*
X167510986Y-97091010D01*
X167510988Y-97091011D01*
X167636511Y-97163482D01*
X167636512Y-97163482D01*
X167636515Y-97163484D01*
X167776525Y-97201000D01*
X167776528Y-97201000D01*
X167921472Y-97201000D01*
X167921475Y-97201000D01*
X168061485Y-97163484D01*
X168187015Y-97091009D01*
X168289509Y-96988515D01*
X168361984Y-96862985D01*
X168399500Y-96722975D01*
X168399500Y-96578025D01*
X168361984Y-96438015D01*
X168289509Y-96312485D01*
X168187015Y-96209991D01*
X168187013Y-96209990D01*
X168187011Y-96209988D01*
X168061488Y-96137517D01*
X168061489Y-96137517D01*
X168050006Y-96134440D01*
X167921475Y-96100000D01*
X167776525Y-96100000D01*
X167647993Y-96134440D01*
X167636511Y-96137517D01*
X167510988Y-96209988D01*
X167510982Y-96209993D01*
X167408493Y-96312482D01*
X167408488Y-96312488D01*
X167336017Y-96438011D01*
X167336016Y-96438015D01*
X167298500Y-96578025D01*
X151500000Y-96578025D01*
X151500000Y-91940691D01*
X171449500Y-91940691D01*
X171449500Y-92059309D01*
X171480201Y-92173886D01*
X171539511Y-92276613D01*
X171623387Y-92360489D01*
X171726114Y-92419799D01*
X171840691Y-92450500D01*
X171840694Y-92450500D01*
X171959306Y-92450500D01*
X171959309Y-92450500D01*
X172073886Y-92419799D01*
X172176613Y-92360489D01*
X172260489Y-92276613D01*
X172319799Y-92173886D01*
X172350500Y-92059309D01*
X172350500Y-91940691D01*
X172319799Y-91826114D01*
X172260489Y-91723387D01*
X172176613Y-91639511D01*
X172073886Y-91580201D01*
X171959309Y-91549500D01*
X171840691Y-91549500D01*
X171726114Y-91580201D01*
X171726112Y-91580201D01*
X171726112Y-91580202D01*
X171623387Y-91639511D01*
X171623384Y-91639513D01*
X171539513Y-91723384D01*
X171539511Y-91723387D01*
X171480201Y-91826114D01*
X171449500Y-91940691D01*
X151500000Y-91940691D01*
X151500000Y-91305691D01*
X178199500Y-91305691D01*
X178199500Y-91424309D01*
X178230201Y-91538886D01*
X178289511Y-91641613D01*
X178373387Y-91725489D01*
X178476114Y-91784799D01*
X178590691Y-91815500D01*
X178590694Y-91815500D01*
X178709306Y-91815500D01*
X178709309Y-91815500D01*
X178823886Y-91784799D01*
X178926613Y-91725489D01*
X179010489Y-91641613D01*
X179069799Y-91538886D01*
X179100500Y-91424309D01*
X179100500Y-91305691D01*
X179069799Y-91191114D01*
X179010489Y-91088387D01*
X178926613Y-91004511D01*
X178823886Y-90945201D01*
X178709309Y-90914500D01*
X178590691Y-90914500D01*
X178476114Y-90945201D01*
X178476112Y-90945201D01*
X178476112Y-90945202D01*
X178373387Y-91004511D01*
X178373384Y-91004513D01*
X178289513Y-91088384D01*
X178289511Y-91088387D01*
X178230201Y-91191114D01*
X178199500Y-91305691D01*
X151500000Y-91305691D01*
X151500000Y-90670691D01*
X172049500Y-90670691D01*
X172049500Y-90789309D01*
X172080201Y-90903886D01*
X172139511Y-91006613D01*
X172223387Y-91090489D01*
X172326114Y-91149799D01*
X172440691Y-91180500D01*
X172440694Y-91180500D01*
X172559306Y-91180500D01*
X172559309Y-91180500D01*
X172673886Y-91149799D01*
X172776613Y-91090489D01*
X172860489Y-91006613D01*
X172919799Y-90903886D01*
X172950500Y-90789309D01*
X172950500Y-90670691D01*
X172919799Y-90556114D01*
X172860489Y-90453387D01*
X172776613Y-90369511D01*
X172673886Y-90310201D01*
X172559309Y-90279500D01*
X172440691Y-90279500D01*
X172326114Y-90310201D01*
X172326112Y-90310201D01*
X172326112Y-90310202D01*
X172223387Y-90369511D01*
X172223384Y-90369513D01*
X172139513Y-90453384D01*
X172139511Y-90453387D01*
X172080201Y-90556114D01*
X172049500Y-90670691D01*
X151500000Y-90670691D01*
X151500000Y-90035691D01*
X177649500Y-90035691D01*
X177649500Y-90154309D01*
X177680201Y-90268886D01*
X177739511Y-90371613D01*
X177823387Y-90455489D01*
X177926114Y-90514799D01*
X178040691Y-90545500D01*
X178040694Y-90545500D01*
X178159306Y-90545500D01*
X178159309Y-90545500D01*
X178273886Y-90514799D01*
X178376613Y-90455489D01*
X178460489Y-90371613D01*
X178519799Y-90268886D01*
X178550500Y-90154309D01*
X178550500Y-90035691D01*
X178519799Y-89921114D01*
X178460489Y-89818387D01*
X178376613Y-89734511D01*
X178273886Y-89675201D01*
X178159309Y-89644500D01*
X178040691Y-89644500D01*
X177926114Y-89675201D01*
X177926112Y-89675201D01*
X177926112Y-89675202D01*
X177823387Y-89734511D01*
X177823384Y-89734513D01*
X177739513Y-89818384D01*
X177739511Y-89818387D01*
X177680201Y-89921114D01*
X177649500Y-90035691D01*
X151500000Y-90035691D01*
X151500000Y-89340691D01*
X165149500Y-89340691D01*
X165149500Y-89459309D01*
X165180201Y-89573886D01*
X165239511Y-89676613D01*
X165323387Y-89760489D01*
X165426114Y-89819799D01*
X165540691Y-89850500D01*
X165540694Y-89850500D01*
X165659306Y-89850500D01*
X165659309Y-89850500D01*
X165773886Y-89819799D01*
X165876613Y-89760489D01*
X165960489Y-89676613D01*
X166019799Y-89573886D01*
X166050500Y-89459309D01*
X166050500Y-89340691D01*
X166045141Y-89320691D01*
X167649500Y-89320691D01*
X167649500Y-89439309D01*
X167680201Y-89553886D01*
X167739511Y-89656613D01*
X167823387Y-89740489D01*
X167926114Y-89799799D01*
X168040691Y-89830500D01*
X168040694Y-89830500D01*
X168159306Y-89830500D01*
X168159309Y-89830500D01*
X168273886Y-89799799D01*
X168376613Y-89740489D01*
X168460489Y-89656613D01*
X168519799Y-89553886D01*
X168550500Y-89439309D01*
X168550500Y-89320691D01*
X168519799Y-89206114D01*
X168460489Y-89103387D01*
X168376613Y-89019511D01*
X168273886Y-88960201D01*
X168159309Y-88929500D01*
X168040691Y-88929500D01*
X167926114Y-88960201D01*
X167926112Y-88960201D01*
X167926112Y-88960202D01*
X167823387Y-89019511D01*
X167823384Y-89019513D01*
X167739513Y-89103384D01*
X167739511Y-89103387D01*
X167692110Y-89185488D01*
X167680201Y-89206114D01*
X167649500Y-89320691D01*
X166045141Y-89320691D01*
X166019799Y-89226114D01*
X165960489Y-89123387D01*
X165876613Y-89039511D01*
X165773886Y-88980201D01*
X165659309Y-88949500D01*
X165540691Y-88949500D01*
X165426114Y-88980201D01*
X165426112Y-88980201D01*
X165426112Y-88980202D01*
X165323387Y-89039511D01*
X165323384Y-89039513D01*
X165239513Y-89123384D01*
X165239511Y-89123387D01*
X165180201Y-89226114D01*
X165149500Y-89340691D01*
X151500000Y-89340691D01*
X151500000Y-88662345D01*
X157024500Y-88662345D01*
X157024500Y-88807295D01*
X157057245Y-88929500D01*
X157062017Y-88947308D01*
X157134488Y-89072831D01*
X157134490Y-89072833D01*
X157134491Y-89072835D01*
X157236985Y-89175329D01*
X157236986Y-89175330D01*
X157236988Y-89175331D01*
X157362511Y-89247802D01*
X157362512Y-89247802D01*
X157362515Y-89247804D01*
X157502525Y-89285320D01*
X157502528Y-89285320D01*
X157647472Y-89285320D01*
X157647475Y-89285320D01*
X157787485Y-89247804D01*
X157913015Y-89175329D01*
X158015509Y-89072835D01*
X158087984Y-88947305D01*
X158125500Y-88807295D01*
X158125500Y-88765691D01*
X162749500Y-88765691D01*
X162749500Y-88884309D01*
X162780201Y-88998886D01*
X162839511Y-89101613D01*
X162923387Y-89185489D01*
X163026114Y-89244799D01*
X163140691Y-89275500D01*
X163140694Y-89275500D01*
X163259306Y-89275500D01*
X163259309Y-89275500D01*
X163373886Y-89244799D01*
X163476613Y-89185489D01*
X163560489Y-89101613D01*
X163619799Y-88998886D01*
X163650500Y-88884309D01*
X163650500Y-88765691D01*
X163619799Y-88651114D01*
X163560489Y-88548387D01*
X163476613Y-88464511D01*
X163373886Y-88405201D01*
X163259309Y-88374500D01*
X163140691Y-88374500D01*
X163026114Y-88405201D01*
X163026112Y-88405201D01*
X163026112Y-88405202D01*
X162923387Y-88464511D01*
X162923384Y-88464513D01*
X162839513Y-88548384D01*
X162839511Y-88548387D01*
X162780201Y-88651114D01*
X162749500Y-88765691D01*
X158125500Y-88765691D01*
X158125500Y-88662345D01*
X158087984Y-88522335D01*
X158054600Y-88464513D01*
X158015511Y-88396808D01*
X158015506Y-88396802D01*
X157913017Y-88294313D01*
X157913011Y-88294308D01*
X157787488Y-88221837D01*
X157787489Y-88221837D01*
X157776006Y-88218760D01*
X157647475Y-88184320D01*
X157502525Y-88184320D01*
X157373993Y-88218760D01*
X157362511Y-88221837D01*
X157236988Y-88294308D01*
X157236982Y-88294313D01*
X157134493Y-88396802D01*
X157134488Y-88396808D01*
X157062017Y-88522331D01*
X157062016Y-88522335D01*
X157024500Y-88662345D01*
X151500000Y-88662345D01*
X151500000Y-87495691D01*
X163549500Y-87495691D01*
X163549500Y-87614309D01*
X163580201Y-87728886D01*
X163639511Y-87831613D01*
X163723387Y-87915489D01*
X163826114Y-87974799D01*
X163940691Y-88005500D01*
X163940694Y-88005500D01*
X164059306Y-88005500D01*
X164059309Y-88005500D01*
X164173886Y-87974799D01*
X164276613Y-87915489D01*
X164360489Y-87831613D01*
X164419799Y-87728886D01*
X164450500Y-87614309D01*
X164450500Y-87495691D01*
X164419799Y-87381114D01*
X164360489Y-87278387D01*
X164276613Y-87194511D01*
X164173886Y-87135201D01*
X164059309Y-87104500D01*
X163940691Y-87104500D01*
X163826114Y-87135201D01*
X163826112Y-87135201D01*
X163826112Y-87135202D01*
X163723387Y-87194511D01*
X163723384Y-87194513D01*
X163639513Y-87278384D01*
X163639511Y-87278387D01*
X163580201Y-87381114D01*
X163549500Y-87495691D01*
X151500000Y-87495691D01*
X151500000Y-85940691D01*
X155749500Y-85940691D01*
X155749500Y-86059309D01*
X155780201Y-86173886D01*
X155839511Y-86276613D01*
X155923387Y-86360489D01*
X156026114Y-86419799D01*
X156140691Y-86450500D01*
X156140694Y-86450500D01*
X156259306Y-86450500D01*
X156259309Y-86450500D01*
X156373886Y-86419799D01*
X156476613Y-86360489D01*
X156560489Y-86276613D01*
X156619799Y-86173886D01*
X156650500Y-86059309D01*
X156650500Y-85940691D01*
X158849500Y-85940691D01*
X158849500Y-86059309D01*
X158880201Y-86173886D01*
X158939511Y-86276613D01*
X159023387Y-86360489D01*
X159126114Y-86419799D01*
X159240691Y-86450500D01*
X159240694Y-86450500D01*
X159359306Y-86450500D01*
X159359309Y-86450500D01*
X159473886Y-86419799D01*
X159576613Y-86360489D01*
X159660489Y-86276613D01*
X159719799Y-86173886D01*
X159750500Y-86059309D01*
X159750500Y-85940691D01*
X160949500Y-85940691D01*
X160949500Y-86059309D01*
X160980201Y-86173886D01*
X161039511Y-86276613D01*
X161123387Y-86360489D01*
X161226114Y-86419799D01*
X161340691Y-86450500D01*
X161340694Y-86450500D01*
X161459306Y-86450500D01*
X161459309Y-86450500D01*
X161573886Y-86419799D01*
X161676613Y-86360489D01*
X161760489Y-86276613D01*
X161819799Y-86173886D01*
X161850500Y-86059309D01*
X161850500Y-85940691D01*
X162849500Y-85940691D01*
X162849500Y-86059309D01*
X162880201Y-86173886D01*
X162939511Y-86276613D01*
X163023387Y-86360489D01*
X163126114Y-86419799D01*
X163240691Y-86450500D01*
X163240694Y-86450500D01*
X163359306Y-86450500D01*
X163359309Y-86450500D01*
X163473886Y-86419799D01*
X163576613Y-86360489D01*
X163660489Y-86276613D01*
X163719799Y-86173886D01*
X163750500Y-86059309D01*
X163750500Y-85940691D01*
X163719799Y-85826114D01*
X163660489Y-85723387D01*
X163576613Y-85639511D01*
X163473886Y-85580201D01*
X163359309Y-85549500D01*
X163240691Y-85549500D01*
X163126114Y-85580201D01*
X163126112Y-85580201D01*
X163126112Y-85580202D01*
X163023387Y-85639511D01*
X163023384Y-85639513D01*
X162939513Y-85723384D01*
X162939511Y-85723387D01*
X162880201Y-85826114D01*
X162849500Y-85940691D01*
X161850500Y-85940691D01*
X161819799Y-85826114D01*
X161760489Y-85723387D01*
X161676613Y-85639511D01*
X161573886Y-85580201D01*
X161459309Y-85549500D01*
X161340691Y-85549500D01*
X161226114Y-85580201D01*
X161226112Y-85580201D01*
X161226112Y-85580202D01*
X161123387Y-85639511D01*
X161123384Y-85639513D01*
X161039513Y-85723384D01*
X161039511Y-85723387D01*
X160980201Y-85826114D01*
X160949500Y-85940691D01*
X159750500Y-85940691D01*
X159719799Y-85826114D01*
X159660489Y-85723387D01*
X159576613Y-85639511D01*
X159473886Y-85580201D01*
X159359309Y-85549500D01*
X159240691Y-85549500D01*
X159126114Y-85580201D01*
X159126112Y-85580201D01*
X159126112Y-85580202D01*
X159023387Y-85639511D01*
X159023384Y-85639513D01*
X158939513Y-85723384D01*
X158939511Y-85723387D01*
X158880201Y-85826114D01*
X158849500Y-85940691D01*
X156650500Y-85940691D01*
X156619799Y-85826114D01*
X156560489Y-85723387D01*
X156476613Y-85639511D01*
X156373886Y-85580201D01*
X156259309Y-85549500D01*
X156140691Y-85549500D01*
X156026114Y-85580201D01*
X156026112Y-85580201D01*
X156026112Y-85580202D01*
X155923387Y-85639511D01*
X155923384Y-85639513D01*
X155839513Y-85723384D01*
X155839511Y-85723387D01*
X155780201Y-85826114D01*
X155749500Y-85940691D01*
X151500000Y-85940691D01*
X151500000Y-84540691D01*
X157999500Y-84540691D01*
X157999500Y-84659309D01*
X158030201Y-84773886D01*
X158089511Y-84876613D01*
X158173387Y-84960489D01*
X158276114Y-85019799D01*
X158390691Y-85050500D01*
X158390694Y-85050500D01*
X158509306Y-85050500D01*
X158509309Y-85050500D01*
X158623886Y-85019799D01*
X158726613Y-84960489D01*
X158810489Y-84876613D01*
X158869799Y-84773886D01*
X158900500Y-84659309D01*
X158900500Y-84540691D01*
X158869799Y-84426114D01*
X158810489Y-84323387D01*
X158726613Y-84239511D01*
X158623886Y-84180201D01*
X158509309Y-84149500D01*
X158390691Y-84149500D01*
X158276114Y-84180201D01*
X158276112Y-84180201D01*
X158276112Y-84180202D01*
X158173387Y-84239511D01*
X158173384Y-84239513D01*
X158089513Y-84323384D01*
X158089511Y-84323387D01*
X158030201Y-84426114D01*
X157999500Y-84540691D01*
X151500000Y-84540691D01*
X151500000Y-83972524D01*
X159924500Y-83972524D01*
X159924500Y-84117474D01*
X159957200Y-84239511D01*
X159962017Y-84257487D01*
X160034488Y-84383010D01*
X160034490Y-84383012D01*
X160034491Y-84383014D01*
X160136985Y-84485508D01*
X160136986Y-84485509D01*
X160136988Y-84485510D01*
X160262511Y-84557981D01*
X160262512Y-84557981D01*
X160262515Y-84557983D01*
X160402525Y-84595499D01*
X160402528Y-84595499D01*
X160547472Y-84595499D01*
X160547475Y-84595499D01*
X160687485Y-84557983D01*
X160813015Y-84485508D01*
X160915509Y-84383014D01*
X160987984Y-84257484D01*
X161025500Y-84117474D01*
X161025500Y-83972524D01*
X160987984Y-83832514D01*
X160915509Y-83706984D01*
X160813015Y-83604490D01*
X160813013Y-83604489D01*
X160813011Y-83604487D01*
X160687488Y-83532016D01*
X160687489Y-83532016D01*
X160676006Y-83528939D01*
X160547475Y-83494499D01*
X160402525Y-83494499D01*
X160273993Y-83528939D01*
X160262511Y-83532016D01*
X160136988Y-83604487D01*
X160136982Y-83604492D01*
X160034493Y-83706981D01*
X160034488Y-83706987D01*
X159962017Y-83832510D01*
X159962016Y-83832514D01*
X159924500Y-83972524D01*
X151500000Y-83972524D01*
X151500000Y-82820691D01*
X167649500Y-82820691D01*
X167649500Y-82939309D01*
X167680201Y-83053886D01*
X167739511Y-83156613D01*
X167823387Y-83240489D01*
X167926114Y-83299799D01*
X168040691Y-83330500D01*
X168040694Y-83330500D01*
X168159306Y-83330500D01*
X168159309Y-83330500D01*
X168273886Y-83299799D01*
X168376613Y-83240489D01*
X168460489Y-83156613D01*
X168519799Y-83053886D01*
X168550500Y-82939309D01*
X168550500Y-82820691D01*
X168519799Y-82706114D01*
X168460489Y-82603387D01*
X168376613Y-82519511D01*
X168273886Y-82460201D01*
X168159309Y-82429500D01*
X168040691Y-82429500D01*
X167926114Y-82460201D01*
X167926112Y-82460201D01*
X167926112Y-82460202D01*
X167823387Y-82519511D01*
X167823384Y-82519513D01*
X167739513Y-82603384D01*
X167739511Y-82603387D01*
X167680201Y-82706114D01*
X167649500Y-82820691D01*
X151500000Y-82820691D01*
X151500000Y-81107525D01*
X153739500Y-81107525D01*
X153739500Y-81252475D01*
X153765334Y-81348886D01*
X153777017Y-81392488D01*
X153849488Y-81518011D01*
X153849490Y-81518013D01*
X153849491Y-81518015D01*
X153951985Y-81620509D01*
X153951986Y-81620510D01*
X153951988Y-81620511D01*
X154077511Y-81692982D01*
X154077512Y-81692982D01*
X154077515Y-81692984D01*
X154217525Y-81730500D01*
X154217528Y-81730500D01*
X154362472Y-81730500D01*
X154362475Y-81730500D01*
X154502485Y-81692984D01*
X154628015Y-81620509D01*
X154730509Y-81518015D01*
X154802984Y-81392485D01*
X154840500Y-81252475D01*
X154840500Y-81107525D01*
X154822592Y-81040691D01*
X156499500Y-81040691D01*
X156499500Y-81159309D01*
X156530201Y-81273886D01*
X156589511Y-81376613D01*
X156673387Y-81460489D01*
X156776114Y-81519799D01*
X156890691Y-81550500D01*
X156890694Y-81550500D01*
X157009306Y-81550500D01*
X157009309Y-81550500D01*
X157123886Y-81519799D01*
X157226613Y-81460489D01*
X157310489Y-81376613D01*
X157369799Y-81273886D01*
X157400500Y-81159309D01*
X157400500Y-81115691D01*
X161549500Y-81115691D01*
X161549500Y-81234309D01*
X161580201Y-81348886D01*
X161639511Y-81451613D01*
X161723387Y-81535489D01*
X161826114Y-81594799D01*
X161940691Y-81625500D01*
X161940694Y-81625500D01*
X162059306Y-81625500D01*
X162059309Y-81625500D01*
X162173886Y-81594799D01*
X162276613Y-81535489D01*
X162360489Y-81451613D01*
X162419799Y-81348886D01*
X162450500Y-81234309D01*
X162450500Y-81115691D01*
X162419799Y-81001114D01*
X162360489Y-80898387D01*
X162276613Y-80814511D01*
X162173886Y-80755201D01*
X162059309Y-80724500D01*
X161940691Y-80724500D01*
X161826114Y-80755201D01*
X161826112Y-80755201D01*
X161826112Y-80755202D01*
X161723387Y-80814511D01*
X161723384Y-80814513D01*
X161639513Y-80898384D01*
X161639511Y-80898387D01*
X161599600Y-80967515D01*
X161580201Y-81001114D01*
X161549500Y-81115691D01*
X157400500Y-81115691D01*
X157400500Y-81040691D01*
X157369799Y-80926114D01*
X157310489Y-80823387D01*
X157226613Y-80739511D01*
X157123886Y-80680201D01*
X157009309Y-80649500D01*
X156890691Y-80649500D01*
X156776114Y-80680201D01*
X156776112Y-80680201D01*
X156776112Y-80680202D01*
X156673387Y-80739511D01*
X156673384Y-80739513D01*
X156589513Y-80823384D01*
X156589511Y-80823387D01*
X156530201Y-80926114D01*
X156499500Y-81040691D01*
X154822592Y-81040691D01*
X154802984Y-80967515D01*
X154730509Y-80841985D01*
X154628015Y-80739491D01*
X154628013Y-80739490D01*
X154628011Y-80739488D01*
X154502488Y-80667017D01*
X154502489Y-80667017D01*
X154491006Y-80663940D01*
X154362475Y-80629500D01*
X154217525Y-80629500D01*
X154088993Y-80663940D01*
X154077511Y-80667017D01*
X153951988Y-80739488D01*
X153951982Y-80739493D01*
X153849493Y-80841982D01*
X153849488Y-80841988D01*
X153777017Y-80967511D01*
X153777016Y-80967515D01*
X153739500Y-81107525D01*
X151500000Y-81107525D01*
X151500000Y-79845691D01*
X161049500Y-79845691D01*
X161049500Y-79964309D01*
X161080201Y-80078886D01*
X161139511Y-80181613D01*
X161223387Y-80265489D01*
X161326114Y-80324799D01*
X161440691Y-80355500D01*
X161440694Y-80355500D01*
X161559306Y-80355500D01*
X161559309Y-80355500D01*
X161673886Y-80324799D01*
X161776613Y-80265489D01*
X161860489Y-80181613D01*
X161919799Y-80078886D01*
X161950500Y-79964309D01*
X161950500Y-79845691D01*
X161919799Y-79731114D01*
X161860489Y-79628387D01*
X161776613Y-79544511D01*
X161673886Y-79485201D01*
X161559309Y-79454500D01*
X161440691Y-79454500D01*
X161326114Y-79485201D01*
X161326112Y-79485201D01*
X161326112Y-79485202D01*
X161223387Y-79544511D01*
X161223384Y-79544513D01*
X161139513Y-79628384D01*
X161139511Y-79628387D01*
X161080201Y-79731114D01*
X161049500Y-79845691D01*
X151500000Y-79845691D01*
X151500000Y-78557525D01*
X153389500Y-78557525D01*
X153389500Y-78702475D01*
X153427016Y-78842485D01*
X153427017Y-78842488D01*
X153499488Y-78968011D01*
X153499490Y-78968013D01*
X153499491Y-78968015D01*
X153601985Y-79070509D01*
X153601986Y-79070510D01*
X153601988Y-79070511D01*
X153727511Y-79142982D01*
X153727512Y-79142982D01*
X153727515Y-79142984D01*
X153867525Y-79180500D01*
X153867528Y-79180500D01*
X154012472Y-79180500D01*
X154012475Y-79180500D01*
X154152485Y-79142984D01*
X154278015Y-79070509D01*
X154380509Y-78968015D01*
X154452984Y-78842485D01*
X154490500Y-78702475D01*
X154490500Y-78557525D01*
X154452984Y-78417515D01*
X154396567Y-78319799D01*
X154380511Y-78291988D01*
X154380506Y-78291982D01*
X154278017Y-78189493D01*
X154278011Y-78189488D01*
X154152488Y-78117017D01*
X154152489Y-78117017D01*
X154141006Y-78113940D01*
X154012475Y-78079500D01*
X153867525Y-78079500D01*
X153738993Y-78113940D01*
X153727511Y-78117017D01*
X153601988Y-78189488D01*
X153601982Y-78189493D01*
X153499493Y-78291982D01*
X153499488Y-78291988D01*
X153427017Y-78417511D01*
X153427016Y-78417515D01*
X153389500Y-78557525D01*
X151500000Y-78557525D01*
X151500000Y-77840691D01*
X156499500Y-77840691D01*
X156499500Y-77959309D01*
X156530201Y-78073886D01*
X156589511Y-78176613D01*
X156673387Y-78260489D01*
X156776114Y-78319799D01*
X156890691Y-78350500D01*
X156890694Y-78350500D01*
X157009306Y-78350500D01*
X157009309Y-78350500D01*
X157123886Y-78319799D01*
X157226613Y-78260489D01*
X157310489Y-78176613D01*
X157369799Y-78073886D01*
X157400500Y-77959309D01*
X157400500Y-77840691D01*
X157369799Y-77726114D01*
X157310489Y-77623387D01*
X157226613Y-77539511D01*
X157123886Y-77480201D01*
X157009309Y-77449500D01*
X156890691Y-77449500D01*
X156776114Y-77480201D01*
X156776112Y-77480201D01*
X156776112Y-77480202D01*
X156673387Y-77539511D01*
X156673384Y-77539513D01*
X156589513Y-77623384D01*
X156589511Y-77623387D01*
X156530564Y-77725486D01*
X156530201Y-77726114D01*
X156499500Y-77840691D01*
X151500000Y-77840691D01*
X151500000Y-77305691D01*
X158549500Y-77305691D01*
X158549500Y-77424309D01*
X158580201Y-77538886D01*
X158639511Y-77641613D01*
X158723387Y-77725489D01*
X158826114Y-77784799D01*
X158940691Y-77815500D01*
X158940694Y-77815500D01*
X159059306Y-77815500D01*
X159059309Y-77815500D01*
X159173886Y-77784799D01*
X159276613Y-77725489D01*
X159360489Y-77641613D01*
X159419799Y-77538886D01*
X159450500Y-77424309D01*
X159450500Y-77305691D01*
X159419799Y-77191114D01*
X159360489Y-77088387D01*
X159276613Y-77004511D01*
X159173886Y-76945201D01*
X159059309Y-76914500D01*
X158940691Y-76914500D01*
X158826114Y-76945201D01*
X158826112Y-76945201D01*
X158826112Y-76945202D01*
X158723387Y-77004511D01*
X158723384Y-77004513D01*
X158639513Y-77088384D01*
X158639511Y-77088387D01*
X158580201Y-77191114D01*
X158549500Y-77305691D01*
X151500000Y-77305691D01*
X151500000Y-76035691D01*
X158549500Y-76035691D01*
X158549500Y-76154309D01*
X158580201Y-76268886D01*
X158639511Y-76371613D01*
X158723387Y-76455489D01*
X158826114Y-76514799D01*
X158940691Y-76545500D01*
X158940694Y-76545500D01*
X159059306Y-76545500D01*
X159059309Y-76545500D01*
X159173886Y-76514799D01*
X159276613Y-76455489D01*
X159360489Y-76371613D01*
X159419799Y-76268886D01*
X159450500Y-76154309D01*
X159450500Y-76035691D01*
X159419799Y-75921114D01*
X159360489Y-75818387D01*
X159276613Y-75734511D01*
X159173886Y-75675201D01*
X159059309Y-75644500D01*
X158940691Y-75644500D01*
X158826114Y-75675201D01*
X158826112Y-75675201D01*
X158826112Y-75675202D01*
X158723387Y-75734511D01*
X158723384Y-75734513D01*
X158639513Y-75818384D01*
X158639511Y-75818387D01*
X158580201Y-75921114D01*
X158549500Y-76035691D01*
X151500000Y-76035691D01*
X151500000Y-75320691D01*
X167649500Y-75320691D01*
X167649500Y-75439309D01*
X167680201Y-75553886D01*
X167739511Y-75656613D01*
X167823387Y-75740489D01*
X167926114Y-75799799D01*
X168040691Y-75830500D01*
X168040694Y-75830500D01*
X168159306Y-75830500D01*
X168159309Y-75830500D01*
X168273886Y-75799799D01*
X168376613Y-75740489D01*
X168460489Y-75656613D01*
X168519799Y-75553886D01*
X168550500Y-75439309D01*
X168550500Y-75320691D01*
X168519799Y-75206114D01*
X168460489Y-75103387D01*
X168376613Y-75019511D01*
X168273886Y-74960201D01*
X168159309Y-74929500D01*
X168040691Y-74929500D01*
X167926114Y-74960201D01*
X167926112Y-74960201D01*
X167926112Y-74960202D01*
X167823387Y-75019511D01*
X167823384Y-75019513D01*
X167739513Y-75103384D01*
X167739511Y-75103387D01*
X167692039Y-75185611D01*
X167680201Y-75206114D01*
X167649500Y-75320691D01*
X151500000Y-75320691D01*
X151500000Y-74765691D01*
X156499500Y-74765691D01*
X156499500Y-74884309D01*
X156530201Y-74998886D01*
X156589511Y-75101613D01*
X156673387Y-75185489D01*
X156776114Y-75244799D01*
X156890691Y-75275500D01*
X156890694Y-75275500D01*
X157009306Y-75275500D01*
X157009309Y-75275500D01*
X157123886Y-75244799D01*
X157226613Y-75185489D01*
X157310489Y-75101613D01*
X157369799Y-74998886D01*
X157400500Y-74884309D01*
X157400500Y-74765691D01*
X157375563Y-74672625D01*
X165206500Y-74672625D01*
X165206500Y-74817575D01*
X165224381Y-74884306D01*
X165244017Y-74957588D01*
X165316488Y-75083111D01*
X165316490Y-75083113D01*
X165316491Y-75083115D01*
X165418985Y-75185609D01*
X165418986Y-75185610D01*
X165418988Y-75185611D01*
X165544511Y-75258082D01*
X165544512Y-75258082D01*
X165544515Y-75258084D01*
X165684525Y-75295600D01*
X165684528Y-75295600D01*
X165829472Y-75295600D01*
X165829475Y-75295600D01*
X165969485Y-75258084D01*
X166095015Y-75185609D01*
X166197509Y-75083115D01*
X166269984Y-74957585D01*
X166307500Y-74817575D01*
X166307500Y-74672625D01*
X166269984Y-74532615D01*
X166197509Y-74407085D01*
X166095015Y-74304591D01*
X166095013Y-74304590D01*
X166095011Y-74304588D01*
X165969488Y-74232117D01*
X165969489Y-74232117D01*
X165958006Y-74229040D01*
X165829475Y-74194600D01*
X165684525Y-74194600D01*
X165555993Y-74229040D01*
X165544511Y-74232117D01*
X165418988Y-74304588D01*
X165418982Y-74304593D01*
X165316493Y-74407082D01*
X165316488Y-74407088D01*
X165244017Y-74532611D01*
X165244016Y-74532615D01*
X165206500Y-74672625D01*
X157375563Y-74672625D01*
X157369799Y-74651114D01*
X157310489Y-74548387D01*
X157226613Y-74464511D01*
X157123886Y-74405201D01*
X157009309Y-74374500D01*
X156890691Y-74374500D01*
X156776114Y-74405201D01*
X156776112Y-74405201D01*
X156776112Y-74405202D01*
X156673387Y-74464511D01*
X156673384Y-74464513D01*
X156589513Y-74548384D01*
X156589511Y-74548387D01*
X156530201Y-74651114D01*
X156499500Y-74765691D01*
X151500000Y-74765691D01*
X151500000Y-73495691D01*
X157349500Y-73495691D01*
X157349500Y-73614309D01*
X157380201Y-73728886D01*
X157439511Y-73831613D01*
X157523387Y-73915489D01*
X157626114Y-73974799D01*
X157740691Y-74005500D01*
X157740694Y-74005500D01*
X157859306Y-74005500D01*
X157859309Y-74005500D01*
X157973886Y-73974799D01*
X158076613Y-73915489D01*
X158160489Y-73831613D01*
X158219799Y-73728886D01*
X158250500Y-73614309D01*
X158250500Y-73495691D01*
X158219799Y-73381114D01*
X158160489Y-73278387D01*
X158076613Y-73194511D01*
X157973886Y-73135201D01*
X157859309Y-73104500D01*
X157740691Y-73104500D01*
X157626114Y-73135201D01*
X157626112Y-73135201D01*
X157626112Y-73135202D01*
X157523387Y-73194511D01*
X157523384Y-73194513D01*
X157439513Y-73278384D01*
X157439511Y-73278387D01*
X157380201Y-73381114D01*
X157349500Y-73495691D01*
X151500000Y-73495691D01*
X151500000Y-72440691D01*
X169349500Y-72440691D01*
X169349500Y-72559309D01*
X169380201Y-72673886D01*
X169439511Y-72776613D01*
X169523387Y-72860489D01*
X169626114Y-72919799D01*
X169740691Y-72950500D01*
X169740694Y-72950500D01*
X169859306Y-72950500D01*
X169859309Y-72950500D01*
X169973886Y-72919799D01*
X170076613Y-72860489D01*
X170160489Y-72776613D01*
X170215562Y-72681225D01*
X170846500Y-72681225D01*
X170846500Y-72826175D01*
X170871587Y-72919799D01*
X170884017Y-72966188D01*
X170956488Y-73091711D01*
X170956490Y-73091713D01*
X170956491Y-73091715D01*
X171058985Y-73194209D01*
X171058986Y-73194210D01*
X171058988Y-73194211D01*
X171184511Y-73266682D01*
X171184512Y-73266682D01*
X171184515Y-73266684D01*
X171324525Y-73304200D01*
X171324528Y-73304200D01*
X171469472Y-73304200D01*
X171469475Y-73304200D01*
X171609485Y-73266684D01*
X171735015Y-73194209D01*
X171837509Y-73091715D01*
X171909984Y-72966185D01*
X171947500Y-72826175D01*
X171947500Y-72681225D01*
X171909984Y-72541215D01*
X171851947Y-72440693D01*
X171837511Y-72415688D01*
X171837506Y-72415682D01*
X171735017Y-72313193D01*
X171735011Y-72313188D01*
X171609488Y-72240717D01*
X171609489Y-72240717D01*
X171598006Y-72237640D01*
X171469475Y-72203200D01*
X171324525Y-72203200D01*
X171195993Y-72237640D01*
X171184511Y-72240717D01*
X171058988Y-72313188D01*
X171058982Y-72313193D01*
X170956493Y-72415682D01*
X170956488Y-72415688D01*
X170884017Y-72541211D01*
X170884016Y-72541215D01*
X170846500Y-72681225D01*
X170215562Y-72681225D01*
X170219799Y-72673886D01*
X170250500Y-72559309D01*
X170250500Y-72440691D01*
X170219799Y-72326114D01*
X170160489Y-72223387D01*
X170076613Y-72139511D01*
X169973886Y-72080201D01*
X169859309Y-72049500D01*
X169740691Y-72049500D01*
X169626114Y-72080201D01*
X169626112Y-72080201D01*
X169626112Y-72080202D01*
X169523387Y-72139511D01*
X169523384Y-72139513D01*
X169439513Y-72223384D01*
X169439511Y-72223387D01*
X169380201Y-72326114D01*
X169349500Y-72440691D01*
X151500000Y-72440691D01*
X151500000Y-70840691D01*
X169899500Y-70840691D01*
X169899500Y-70959309D01*
X169930201Y-71073886D01*
X169989511Y-71176613D01*
X170073387Y-71260489D01*
X170176114Y-71319799D01*
X170290691Y-71350500D01*
X170290694Y-71350500D01*
X170409306Y-71350500D01*
X170409309Y-71350500D01*
X170523886Y-71319799D01*
X170626613Y-71260489D01*
X170710489Y-71176613D01*
X170769799Y-71073886D01*
X170800500Y-70959309D01*
X170800500Y-70840691D01*
X170769799Y-70726114D01*
X170710489Y-70623387D01*
X170626613Y-70539511D01*
X170523886Y-70480201D01*
X170409309Y-70449500D01*
X170290691Y-70449500D01*
X170176114Y-70480201D01*
X170176112Y-70480201D01*
X170176112Y-70480202D01*
X170073387Y-70539511D01*
X170073384Y-70539513D01*
X169989513Y-70623384D01*
X169989511Y-70623387D01*
X169930743Y-70725176D01*
X169930201Y-70726114D01*
X169899500Y-70840691D01*
X151500000Y-70840691D01*
X151500000Y-70198325D01*
X165206500Y-70198325D01*
X165206500Y-70343275D01*
X165243190Y-70480201D01*
X165244017Y-70483288D01*
X165316488Y-70608811D01*
X165316490Y-70608813D01*
X165316491Y-70608815D01*
X165418985Y-70711309D01*
X165418986Y-70711310D01*
X165418988Y-70711311D01*
X165544511Y-70783782D01*
X165544512Y-70783782D01*
X165544515Y-70783784D01*
X165684525Y-70821300D01*
X165684528Y-70821300D01*
X165829472Y-70821300D01*
X165829475Y-70821300D01*
X165969485Y-70783784D01*
X166095015Y-70711309D01*
X166197509Y-70608815D01*
X166269984Y-70483285D01*
X166307500Y-70343275D01*
X166307500Y-70198325D01*
X166269984Y-70058315D01*
X166197509Y-69932785D01*
X166095015Y-69830291D01*
X166095013Y-69830290D01*
X166095011Y-69830288D01*
X165969488Y-69757817D01*
X165969489Y-69757817D01*
X165958006Y-69754740D01*
X165829475Y-69720300D01*
X165684525Y-69720300D01*
X165555993Y-69754740D01*
X165544511Y-69757817D01*
X165418988Y-69830288D01*
X165418982Y-69830293D01*
X165316493Y-69932782D01*
X165316488Y-69932788D01*
X165244017Y-70058311D01*
X165244016Y-70058315D01*
X165206500Y-70198325D01*
X151500000Y-70198325D01*
X151500000Y-68127525D01*
X159924500Y-68127525D01*
X159924500Y-68272475D01*
X159962016Y-68412485D01*
X159962017Y-68412488D01*
X160034488Y-68538011D01*
X160034490Y-68538013D01*
X160034491Y-68538015D01*
X160136985Y-68640509D01*
X160136986Y-68640510D01*
X160136988Y-68640511D01*
X160262511Y-68712982D01*
X160262512Y-68712982D01*
X160262515Y-68712984D01*
X160402525Y-68750500D01*
X160402528Y-68750500D01*
X160547472Y-68750500D01*
X160547475Y-68750500D01*
X160687485Y-68712984D01*
X160813015Y-68640509D01*
X160915509Y-68538015D01*
X160987984Y-68412485D01*
X161025500Y-68272475D01*
X161025500Y-68127525D01*
X160987984Y-67987515D01*
X160915509Y-67861985D01*
X160813015Y-67759491D01*
X160813013Y-67759490D01*
X160813011Y-67759488D01*
X160687488Y-67687017D01*
X160687489Y-67687017D01*
X160648668Y-67676615D01*
X160547475Y-67649500D01*
X160402525Y-67649500D01*
X160301332Y-67676615D01*
X160262511Y-67687017D01*
X160136988Y-67759488D01*
X160136982Y-67759493D01*
X160034493Y-67861982D01*
X160034488Y-67861988D01*
X159962017Y-67987511D01*
X159962016Y-67987515D01*
X159924500Y-68127525D01*
X151500000Y-68127525D01*
X151500000Y-67340691D01*
X158149500Y-67340691D01*
X158149500Y-67459309D01*
X158180201Y-67573886D01*
X158239511Y-67676613D01*
X158323387Y-67760489D01*
X158426114Y-67819799D01*
X158540691Y-67850500D01*
X158540694Y-67850500D01*
X158659306Y-67850500D01*
X158659309Y-67850500D01*
X158773886Y-67819799D01*
X158876613Y-67760489D01*
X158960489Y-67676613D01*
X159019799Y-67573886D01*
X159050500Y-67459309D01*
X159050500Y-67340691D01*
X159019799Y-67226114D01*
X158960489Y-67123387D01*
X158876613Y-67039511D01*
X158773886Y-66980201D01*
X158659309Y-66949500D01*
X158540691Y-66949500D01*
X158426114Y-66980201D01*
X158426112Y-66980201D01*
X158426112Y-66980202D01*
X158323387Y-67039511D01*
X158323384Y-67039513D01*
X158239513Y-67123384D01*
X158239511Y-67123387D01*
X158183725Y-67220011D01*
X158180201Y-67226114D01*
X158149500Y-67340691D01*
X151500000Y-67340691D01*
X151500000Y-66707025D01*
X165206500Y-66707025D01*
X165206500Y-66851975D01*
X165240859Y-66980202D01*
X165244017Y-66991988D01*
X165316488Y-67117511D01*
X165316490Y-67117513D01*
X165316491Y-67117515D01*
X165418985Y-67220009D01*
X165418986Y-67220010D01*
X165418988Y-67220011D01*
X165544511Y-67292482D01*
X165544512Y-67292482D01*
X165544515Y-67292484D01*
X165684525Y-67330000D01*
X165684528Y-67330000D01*
X165829472Y-67330000D01*
X165829475Y-67330000D01*
X165969485Y-67292484D01*
X166095015Y-67220009D01*
X166197509Y-67117515D01*
X166269984Y-66991985D01*
X166307500Y-66851975D01*
X166307500Y-66820691D01*
X167649500Y-66820691D01*
X167649500Y-66939309D01*
X167680201Y-67053886D01*
X167739511Y-67156613D01*
X167823387Y-67240489D01*
X167926114Y-67299799D01*
X168040691Y-67330500D01*
X168040694Y-67330500D01*
X168159306Y-67330500D01*
X168159309Y-67330500D01*
X168273886Y-67299799D01*
X168376613Y-67240489D01*
X168460489Y-67156613D01*
X168519799Y-67053886D01*
X168550500Y-66939309D01*
X168550500Y-66820691D01*
X168519799Y-66706114D01*
X168460489Y-66603387D01*
X168376613Y-66519511D01*
X168273886Y-66460201D01*
X168159309Y-66429500D01*
X168040691Y-66429500D01*
X167926114Y-66460201D01*
X167926112Y-66460201D01*
X167926112Y-66460202D01*
X167823387Y-66519511D01*
X167823384Y-66519513D01*
X167739513Y-66603384D01*
X167739511Y-66603387D01*
X167680201Y-66706114D01*
X167649500Y-66820691D01*
X166307500Y-66820691D01*
X166307500Y-66707025D01*
X166269984Y-66567015D01*
X166242557Y-66519511D01*
X166197511Y-66441488D01*
X166197506Y-66441482D01*
X166095017Y-66338993D01*
X166095011Y-66338988D01*
X165969488Y-66266517D01*
X165969489Y-66266517D01*
X165958006Y-66263440D01*
X165829475Y-66229000D01*
X165684525Y-66229000D01*
X165555993Y-66263440D01*
X165544511Y-66266517D01*
X165418988Y-66338988D01*
X165418982Y-66338993D01*
X165316493Y-66441482D01*
X165316488Y-66441488D01*
X165244017Y-66567011D01*
X165244016Y-66567015D01*
X165206500Y-66707025D01*
X151500000Y-66707025D01*
X151500000Y-63845691D01*
X162199500Y-63845691D01*
X162199500Y-63964309D01*
X162230201Y-64078886D01*
X162289511Y-64181613D01*
X162373387Y-64265489D01*
X162476114Y-64324799D01*
X162590691Y-64355500D01*
X162590694Y-64355500D01*
X162709306Y-64355500D01*
X162709309Y-64355500D01*
X162823886Y-64324799D01*
X162926613Y-64265489D01*
X163010489Y-64181613D01*
X163069799Y-64078886D01*
X163100500Y-63964309D01*
X163100500Y-63845691D01*
X163069799Y-63731114D01*
X163010489Y-63628387D01*
X162926613Y-63544511D01*
X162823886Y-63485201D01*
X162709309Y-63454500D01*
X162590691Y-63454500D01*
X162476114Y-63485201D01*
X162476112Y-63485201D01*
X162476112Y-63485202D01*
X162373387Y-63544511D01*
X162373384Y-63544513D01*
X162289513Y-63628384D01*
X162289511Y-63628387D01*
X162230201Y-63731114D01*
X162199500Y-63845691D01*
X151500000Y-63845691D01*
X151500000Y-63210691D01*
X172649500Y-63210691D01*
X172649500Y-63329309D01*
X172680201Y-63443886D01*
X172739511Y-63546613D01*
X172823387Y-63630489D01*
X172926114Y-63689799D01*
X173040691Y-63720500D01*
X173040694Y-63720500D01*
X173159306Y-63720500D01*
X173159309Y-63720500D01*
X173273886Y-63689799D01*
X173376613Y-63630489D01*
X173460489Y-63546613D01*
X173519799Y-63443886D01*
X173550500Y-63329309D01*
X173550500Y-63210691D01*
X173519799Y-63096114D01*
X173460489Y-62993387D01*
X173376613Y-62909511D01*
X173273886Y-62850201D01*
X173159309Y-62819500D01*
X173040691Y-62819500D01*
X172926114Y-62850201D01*
X172926112Y-62850201D01*
X172926112Y-62850202D01*
X172823387Y-62909511D01*
X172823384Y-62909513D01*
X172739513Y-62993384D01*
X172739511Y-62993387D01*
X172680201Y-63096114D01*
X172649500Y-63210691D01*
X151500000Y-63210691D01*
X151500000Y-62575691D01*
X163149500Y-62575691D01*
X163149500Y-62694309D01*
X163180201Y-62808886D01*
X163239511Y-62911613D01*
X163323387Y-62995489D01*
X163426114Y-63054799D01*
X163540691Y-63085500D01*
X163540694Y-63085500D01*
X163659306Y-63085500D01*
X163659309Y-63085500D01*
X163773886Y-63054799D01*
X163876613Y-62995489D01*
X163960489Y-62911613D01*
X164019799Y-62808886D01*
X164050500Y-62694309D01*
X164050500Y-62575691D01*
X164019799Y-62461114D01*
X163960489Y-62358387D01*
X163876613Y-62274511D01*
X163773886Y-62215201D01*
X163659309Y-62184500D01*
X163540691Y-62184500D01*
X163426114Y-62215201D01*
X163426112Y-62215201D01*
X163426112Y-62215202D01*
X163323387Y-62274511D01*
X163323384Y-62274513D01*
X163239513Y-62358384D01*
X163239511Y-62358387D01*
X163180201Y-62461114D01*
X163149500Y-62575691D01*
X151500000Y-62575691D01*
X151500000Y-61940691D01*
X173249500Y-61940691D01*
X173249500Y-62059309D01*
X173280201Y-62173886D01*
X173339511Y-62276613D01*
X173423387Y-62360489D01*
X173526114Y-62419799D01*
X173640691Y-62450500D01*
X173640694Y-62450500D01*
X173759306Y-62450500D01*
X173759309Y-62450500D01*
X173873886Y-62419799D01*
X173976613Y-62360489D01*
X174060489Y-62276613D01*
X174119799Y-62173886D01*
X174150500Y-62059309D01*
X174150500Y-61940691D01*
X174119799Y-61826114D01*
X174060489Y-61723387D01*
X173976613Y-61639511D01*
X173873886Y-61580201D01*
X173759309Y-61549500D01*
X173640691Y-61549500D01*
X173526114Y-61580201D01*
X173526112Y-61580201D01*
X173526112Y-61580202D01*
X173423387Y-61639511D01*
X173423384Y-61639513D01*
X173339513Y-61723384D01*
X173339511Y-61723387D01*
X173280201Y-61826114D01*
X173249500Y-61940691D01*
X151500000Y-61940691D01*
X151500000Y-61305691D01*
X161449500Y-61305691D01*
X161449500Y-61424309D01*
X161480201Y-61538886D01*
X161539511Y-61641613D01*
X161623387Y-61725489D01*
X161726114Y-61784799D01*
X161840691Y-61815500D01*
X161840694Y-61815500D01*
X161959306Y-61815500D01*
X161959309Y-61815500D01*
X162073886Y-61784799D01*
X162176613Y-61725489D01*
X162260489Y-61641613D01*
X162319799Y-61538886D01*
X162350500Y-61424309D01*
X162350500Y-61305691D01*
X162319799Y-61191114D01*
X162260489Y-61088387D01*
X162176613Y-61004511D01*
X162073886Y-60945201D01*
X161959309Y-60914500D01*
X161840691Y-60914500D01*
X161726114Y-60945201D01*
X161726112Y-60945201D01*
X161726112Y-60945202D01*
X161623387Y-61004511D01*
X161623384Y-61004513D01*
X161539513Y-61088384D01*
X161539511Y-61088387D01*
X161480201Y-61191114D01*
X161449500Y-61305691D01*
X151500000Y-61305691D01*
X151500000Y-60035691D01*
X161849500Y-60035691D01*
X161849500Y-60154309D01*
X161880201Y-60268886D01*
X161939511Y-60371613D01*
X162023387Y-60455489D01*
X162126114Y-60514799D01*
X162240691Y-60545500D01*
X162240694Y-60545500D01*
X162359306Y-60545500D01*
X162359309Y-60545500D01*
X162473886Y-60514799D01*
X162576613Y-60455489D01*
X162660489Y-60371613D01*
X162719799Y-60268886D01*
X162750500Y-60154309D01*
X162750500Y-60035691D01*
X162719799Y-59921114D01*
X162660489Y-59818387D01*
X162576613Y-59734511D01*
X162473886Y-59675201D01*
X162359309Y-59644500D01*
X162240691Y-59644500D01*
X162126114Y-59675201D01*
X162126112Y-59675201D01*
X162126112Y-59675202D01*
X162023387Y-59734511D01*
X162023384Y-59734513D01*
X161939513Y-59818384D01*
X161939511Y-59818387D01*
X161880201Y-59921114D01*
X161849500Y-60035691D01*
X151500000Y-60035691D01*
X151500000Y-59320690D01*
X166449500Y-59320690D01*
X166449500Y-59439308D01*
X166480201Y-59553885D01*
X166539511Y-59656612D01*
X166623387Y-59740488D01*
X166726114Y-59799798D01*
X166840691Y-59830499D01*
X166840694Y-59830499D01*
X166959306Y-59830499D01*
X166959309Y-59830499D01*
X167073886Y-59799798D01*
X167176613Y-59740488D01*
X167260489Y-59656612D01*
X167319799Y-59553885D01*
X167350500Y-59439308D01*
X167350500Y-59320690D01*
X167319799Y-59206113D01*
X167260489Y-59103386D01*
X167176613Y-59019510D01*
X167073886Y-58960200D01*
X166959309Y-58929499D01*
X166840691Y-58929499D01*
X166726114Y-58960200D01*
X166726112Y-58960200D01*
X166726112Y-58960201D01*
X166623387Y-59019510D01*
X166623384Y-59019512D01*
X166539513Y-59103383D01*
X166539511Y-59103386D01*
X166480201Y-59206113D01*
X166449500Y-59320690D01*
X151500000Y-59320690D01*
X151500000Y-58765691D01*
X156999500Y-58765691D01*
X156999500Y-58884309D01*
X157030201Y-58998886D01*
X157089511Y-59101613D01*
X157173387Y-59185489D01*
X157276114Y-59244799D01*
X157390691Y-59275500D01*
X157390694Y-59275500D01*
X157509306Y-59275500D01*
X157509309Y-59275500D01*
X157623886Y-59244799D01*
X157726613Y-59185489D01*
X157810489Y-59101613D01*
X157869799Y-58998886D01*
X157900500Y-58884309D01*
X157900500Y-58765691D01*
X157869799Y-58651114D01*
X157810489Y-58548387D01*
X157726613Y-58464511D01*
X157623886Y-58405201D01*
X157509309Y-58374500D01*
X157390691Y-58374500D01*
X157276114Y-58405201D01*
X157276112Y-58405201D01*
X157276112Y-58405202D01*
X157173387Y-58464511D01*
X157173384Y-58464513D01*
X157089513Y-58548384D01*
X157089511Y-58548387D01*
X157030201Y-58651114D01*
X156999500Y-58765691D01*
X151500000Y-58765691D01*
X151500000Y-57495691D01*
X157549500Y-57495691D01*
X157549500Y-57614309D01*
X157580201Y-57728886D01*
X157639511Y-57831613D01*
X157723387Y-57915489D01*
X157826114Y-57974799D01*
X157940691Y-58005500D01*
X157940694Y-58005500D01*
X158059306Y-58005500D01*
X158059309Y-58005500D01*
X158173886Y-57974799D01*
X158276613Y-57915489D01*
X158360489Y-57831613D01*
X158419799Y-57728886D01*
X158450500Y-57614309D01*
X158450500Y-57495691D01*
X158419799Y-57381114D01*
X158360489Y-57278387D01*
X158276613Y-57194511D01*
X158173886Y-57135201D01*
X158059309Y-57104500D01*
X157940691Y-57104500D01*
X157826114Y-57135201D01*
X157826112Y-57135201D01*
X157826112Y-57135202D01*
X157723387Y-57194511D01*
X157723384Y-57194513D01*
X157639513Y-57278384D01*
X157639511Y-57278387D01*
X157580201Y-57381114D01*
X157549500Y-57495691D01*
X151500000Y-57495691D01*
X151500000Y-55540691D01*
X163999500Y-55540691D01*
X163999500Y-55659309D01*
X164030201Y-55773886D01*
X164089511Y-55876613D01*
X164173387Y-55960489D01*
X164276114Y-56019799D01*
X164390691Y-56050500D01*
X164390694Y-56050500D01*
X164509306Y-56050500D01*
X164509309Y-56050500D01*
X164623886Y-56019799D01*
X164726613Y-55960489D01*
X164810489Y-55876613D01*
X164869799Y-55773886D01*
X164900500Y-55659309D01*
X164900500Y-55540691D01*
X164869799Y-55426114D01*
X164810489Y-55323387D01*
X164726613Y-55239511D01*
X164623886Y-55180201D01*
X164509309Y-55149500D01*
X164390691Y-55149500D01*
X164276114Y-55180201D01*
X164276112Y-55180201D01*
X164276112Y-55180202D01*
X164173387Y-55239511D01*
X164173384Y-55239513D01*
X164089513Y-55323384D01*
X164089511Y-55323387D01*
X164030201Y-55426114D01*
X163999500Y-55540691D01*
X151500000Y-55540691D01*
X151500000Y-53890691D01*
X173949500Y-53890691D01*
X173949500Y-54009309D01*
X173980201Y-54123886D01*
X174039511Y-54226613D01*
X174123387Y-54310489D01*
X174226114Y-54369799D01*
X174340691Y-54400500D01*
X174340694Y-54400500D01*
X174459306Y-54400500D01*
X174459309Y-54400500D01*
X174573886Y-54369799D01*
X174676613Y-54310489D01*
X174760489Y-54226613D01*
X174819799Y-54123886D01*
X174850500Y-54009309D01*
X174850500Y-53890691D01*
X174819799Y-53776114D01*
X174760489Y-53673387D01*
X174676613Y-53589511D01*
X174573886Y-53530201D01*
X174459309Y-53499500D01*
X174340691Y-53499500D01*
X174226114Y-53530201D01*
X174226112Y-53530201D01*
X174226112Y-53530202D01*
X174123387Y-53589511D01*
X174123384Y-53589513D01*
X174039513Y-53673384D01*
X174039511Y-53673387D01*
X173980201Y-53776114D01*
X173949500Y-53890691D01*
X151500000Y-53890691D01*
X151500000Y-53328006D01*
X151516612Y-53266006D01*
X151569799Y-53173886D01*
X151600500Y-53059309D01*
X151600500Y-52940691D01*
X151569799Y-52826114D01*
X151569797Y-52826110D01*
X151516613Y-52733993D01*
X151500000Y-52671993D01*
X151500000Y-51977525D01*
X166011500Y-51977525D01*
X166011500Y-52122475D01*
X166049016Y-52262485D01*
X166049017Y-52262488D01*
X166121488Y-52388011D01*
X166121490Y-52388013D01*
X166121491Y-52388015D01*
X166223985Y-52490509D01*
X166223986Y-52490510D01*
X166223988Y-52490511D01*
X166349511Y-52562982D01*
X166349512Y-52562982D01*
X166349515Y-52562984D01*
X166489525Y-52600500D01*
X166489528Y-52600500D01*
X166634472Y-52600500D01*
X166634475Y-52600500D01*
X166774485Y-52562984D01*
X166900015Y-52490509D01*
X167002509Y-52388015D01*
X167074984Y-52262485D01*
X167112500Y-52122475D01*
X167112500Y-51977525D01*
X167074984Y-51837515D01*
X167002509Y-51711985D01*
X166900015Y-51609491D01*
X166774485Y-51537016D01*
X166720636Y-51522587D01*
X166720631Y-51522585D01*
X166658388Y-51505907D01*
X166634475Y-51499500D01*
X166489525Y-51499500D01*
X166360993Y-51533940D01*
X166349511Y-51537017D01*
X166223988Y-51609488D01*
X166223982Y-51609493D01*
X166121493Y-51711982D01*
X166121488Y-51711988D01*
X166049017Y-51837511D01*
X166049016Y-51837515D01*
X166011500Y-51977525D01*
X151500000Y-51977525D01*
X151500000Y-50728525D01*
X166512500Y-50728525D01*
X166512500Y-50873475D01*
X166550016Y-51013485D01*
X166550017Y-51013488D01*
X166622488Y-51139011D01*
X166622490Y-51139013D01*
X166622491Y-51139015D01*
X166724985Y-51241509D01*
X166850515Y-51313984D01*
X166990525Y-51351500D01*
X166990528Y-51351500D01*
X167135472Y-51351500D01*
X167135475Y-51351500D01*
X167275485Y-51313984D01*
X167401015Y-51241509D01*
X167503509Y-51139015D01*
X167575984Y-51013485D01*
X167613500Y-50873475D01*
X167613500Y-50728525D01*
X167575984Y-50588515D01*
X167503509Y-50462985D01*
X167401015Y-50360491D01*
X167401013Y-50360490D01*
X167401011Y-50360488D01*
X167275488Y-50288017D01*
X167275489Y-50288017D01*
X167264006Y-50284940D01*
X167135475Y-50250500D01*
X166990525Y-50250500D01*
X166861993Y-50284940D01*
X166850511Y-50288017D01*
X166724988Y-50360488D01*
X166724982Y-50360493D01*
X166622493Y-50462982D01*
X166622488Y-50462988D01*
X166550017Y-50588511D01*
X166550016Y-50588515D01*
X166512500Y-50728525D01*
X151500000Y-50728525D01*
X151500000Y-46343920D01*
X163249499Y-46343920D01*
X163278340Y-46488907D01*
X163278343Y-46488917D01*
X163334912Y-46625488D01*
X163334919Y-46625501D01*
X163417048Y-46748415D01*
X163417051Y-46748419D01*
X163485951Y-46817319D01*
X163519436Y-46878642D01*
X163514452Y-46948334D01*
X163485951Y-46992681D01*
X163417051Y-47061580D01*
X163417048Y-47061584D01*
X163334919Y-47184498D01*
X163334912Y-47184511D01*
X163278343Y-47321082D01*
X163278340Y-47321092D01*
X163249500Y-47466079D01*
X163249500Y-47466082D01*
X163249500Y-47613918D01*
X163249500Y-47613920D01*
X163249499Y-47613920D01*
X163278340Y-47758907D01*
X163278343Y-47758917D01*
X163334912Y-47895488D01*
X163334919Y-47895501D01*
X163417048Y-48018415D01*
X163417051Y-48018419D01*
X163485951Y-48087319D01*
X163519436Y-48148642D01*
X163514452Y-48218334D01*
X163485951Y-48262681D01*
X163417051Y-48331580D01*
X163417048Y-48331584D01*
X163334919Y-48454498D01*
X163334912Y-48454511D01*
X163278343Y-48591082D01*
X163278340Y-48591092D01*
X163249500Y-48736079D01*
X163249500Y-48736082D01*
X163249500Y-48883918D01*
X163249500Y-48883920D01*
X163249499Y-48883920D01*
X163278340Y-49028907D01*
X163278343Y-49028917D01*
X163334912Y-49165488D01*
X163334919Y-49165501D01*
X163417048Y-49288415D01*
X163417051Y-49288419D01*
X163521580Y-49392948D01*
X163521584Y-49392951D01*
X163644498Y-49475080D01*
X163644511Y-49475087D01*
X163781082Y-49531656D01*
X163781087Y-49531658D01*
X163781091Y-49531658D01*
X163781092Y-49531659D01*
X163926079Y-49560500D01*
X163926082Y-49560500D01*
X164073920Y-49560500D01*
X164171462Y-49541096D01*
X164218913Y-49531658D01*
X164355495Y-49475084D01*
X164478416Y-49392951D01*
X164582951Y-49288416D01*
X164665084Y-49165495D01*
X164721658Y-49028913D01*
X164750500Y-48883918D01*
X164750500Y-48750691D01*
X165099500Y-48750691D01*
X165099500Y-48869309D01*
X165130201Y-48983886D01*
X165189511Y-49086613D01*
X165273387Y-49170489D01*
X165376114Y-49229799D01*
X165490691Y-49260500D01*
X165490694Y-49260500D01*
X165609306Y-49260500D01*
X165609309Y-49260500D01*
X165723886Y-49229799D01*
X165826613Y-49170489D01*
X165910489Y-49086613D01*
X165969799Y-48983886D01*
X166000500Y-48869309D01*
X166000500Y-48750691D01*
X165994293Y-48727525D01*
X169361500Y-48727525D01*
X169361500Y-48872475D01*
X169364567Y-48883920D01*
X169399017Y-49012488D01*
X169471488Y-49138011D01*
X169471490Y-49138013D01*
X169471491Y-49138015D01*
X169573985Y-49240509D01*
X169573986Y-49240510D01*
X169573988Y-49240511D01*
X169699511Y-49312982D01*
X169699512Y-49312982D01*
X169699515Y-49312984D01*
X169839525Y-49350500D01*
X169839528Y-49350500D01*
X169984472Y-49350500D01*
X169984475Y-49350500D01*
X170124485Y-49312984D01*
X170250015Y-49240509D01*
X170352509Y-49138015D01*
X170424984Y-49012485D01*
X170462500Y-48872475D01*
X170462500Y-48727525D01*
X170424984Y-48587515D01*
X170393731Y-48533384D01*
X170352511Y-48461988D01*
X170352506Y-48461982D01*
X170250017Y-48359493D01*
X170250011Y-48359488D01*
X170124488Y-48287017D01*
X170124489Y-48287017D01*
X170113006Y-48283940D01*
X169984475Y-48249500D01*
X169839525Y-48249500D01*
X169710993Y-48283940D01*
X169699511Y-48287017D01*
X169573988Y-48359488D01*
X169573982Y-48359493D01*
X169471493Y-48461982D01*
X169471488Y-48461988D01*
X169399017Y-48587511D01*
X169394583Y-48604055D01*
X169361500Y-48727525D01*
X165994293Y-48727525D01*
X165969799Y-48636114D01*
X165910489Y-48533387D01*
X165826613Y-48449511D01*
X165723886Y-48390201D01*
X165609309Y-48359500D01*
X165490691Y-48359500D01*
X165376114Y-48390201D01*
X165376112Y-48390201D01*
X165376112Y-48390202D01*
X165273387Y-48449511D01*
X165273384Y-48449513D01*
X165189513Y-48533384D01*
X165189511Y-48533387D01*
X165156198Y-48591087D01*
X165130201Y-48636114D01*
X165099500Y-48750691D01*
X164750500Y-48750691D01*
X164750500Y-48736082D01*
X164750500Y-48736079D01*
X164721659Y-48591092D01*
X164721658Y-48591091D01*
X164721658Y-48591087D01*
X164721656Y-48591082D01*
X164665087Y-48454511D01*
X164665080Y-48454498D01*
X164582951Y-48331584D01*
X164582948Y-48331580D01*
X164514049Y-48262681D01*
X164480564Y-48201358D01*
X164485548Y-48131666D01*
X164514049Y-48087319D01*
X164582948Y-48018419D01*
X164582951Y-48018416D01*
X164665084Y-47895495D01*
X164721658Y-47758913D01*
X164750500Y-47613918D01*
X164750500Y-47466082D01*
X164750500Y-47466079D01*
X164721659Y-47321092D01*
X164721658Y-47321091D01*
X164721658Y-47321087D01*
X164707958Y-47288011D01*
X164665087Y-47184511D01*
X164665080Y-47184498D01*
X164582951Y-47061584D01*
X164582948Y-47061580D01*
X164514049Y-46992681D01*
X164509710Y-46984735D01*
X164502463Y-46979310D01*
X164493228Y-46954550D01*
X164480564Y-46931358D01*
X164481209Y-46922328D01*
X164478046Y-46913846D01*
X164483662Y-46888025D01*
X164484413Y-46877525D01*
X167537000Y-46877525D01*
X167537000Y-47022475D01*
X167574516Y-47162485D01*
X167574517Y-47162488D01*
X167646988Y-47288011D01*
X167646990Y-47288013D01*
X167646991Y-47288015D01*
X167749485Y-47390509D01*
X167749486Y-47390510D01*
X167749488Y-47390511D01*
X167875011Y-47462982D01*
X167875012Y-47462982D01*
X167875015Y-47462984D01*
X168015025Y-47500500D01*
X168015028Y-47500500D01*
X168159972Y-47500500D01*
X168159975Y-47500500D01*
X168299985Y-47462984D01*
X168425515Y-47390509D01*
X168528009Y-47288015D01*
X168600484Y-47162485D01*
X168638000Y-47022475D01*
X168638000Y-46877525D01*
X168600484Y-46737515D01*
X168535812Y-46625501D01*
X168528011Y-46611988D01*
X168528006Y-46611982D01*
X168425517Y-46509493D01*
X168425511Y-46509488D01*
X168299988Y-46437017D01*
X168299989Y-46437017D01*
X168288506Y-46433940D01*
X168159975Y-46399500D01*
X168015025Y-46399500D01*
X167886493Y-46433940D01*
X167875011Y-46437017D01*
X167749488Y-46509488D01*
X167749482Y-46509493D01*
X167646993Y-46611982D01*
X167646988Y-46611988D01*
X167574517Y-46737511D01*
X167574516Y-46737515D01*
X167537000Y-46877525D01*
X164484413Y-46877525D01*
X164485548Y-46861666D01*
X164491366Y-46852612D01*
X164492898Y-46845573D01*
X164514049Y-46817319D01*
X164549651Y-46781717D01*
X164582948Y-46748419D01*
X164582951Y-46748416D01*
X164665084Y-46625495D01*
X164721658Y-46488913D01*
X164750500Y-46343918D01*
X164750500Y-46196082D01*
X164750500Y-46196079D01*
X164721659Y-46051092D01*
X164721658Y-46051091D01*
X164721658Y-46051087D01*
X164717866Y-46041932D01*
X164665087Y-45914511D01*
X164665079Y-45914496D01*
X164630715Y-45863068D01*
X164609836Y-45796391D01*
X164628320Y-45729010D01*
X164664924Y-45691075D01*
X164680601Y-45680601D01*
X164735966Y-45597740D01*
X164750500Y-45524674D01*
X164750500Y-44475326D01*
X164750500Y-44475323D01*
X164735966Y-44402261D01*
X164735966Y-44402260D01*
X164720231Y-44378711D01*
X183649500Y-44378711D01*
X183649500Y-44621288D01*
X183681161Y-44861785D01*
X183743947Y-45096104D01*
X183836773Y-45320205D01*
X183836776Y-45320212D01*
X183958064Y-45530289D01*
X183958066Y-45530292D01*
X183958067Y-45530293D01*
X184105733Y-45722736D01*
X184105739Y-45722743D01*
X184277256Y-45894260D01*
X184277263Y-45894266D01*
X184303630Y-45914498D01*
X184469711Y-46041936D01*
X184679788Y-46163224D01*
X184903900Y-46256054D01*
X185138211Y-46318838D01*
X185318586Y-46342584D01*
X185378711Y-46350500D01*
X185378712Y-46350500D01*
X185621289Y-46350500D01*
X185671284Y-46343918D01*
X185861789Y-46318838D01*
X186096100Y-46256054D01*
X186320212Y-46163224D01*
X186530289Y-46041936D01*
X186722738Y-45894265D01*
X186894265Y-45722738D01*
X187041936Y-45530289D01*
X187163224Y-45320212D01*
X187256054Y-45096100D01*
X187318838Y-44861789D01*
X187350500Y-44621288D01*
X187350500Y-44378712D01*
X187318838Y-44138211D01*
X187256054Y-43903900D01*
X187163224Y-43679788D01*
X187041936Y-43469711D01*
X186894265Y-43277262D01*
X186894260Y-43277256D01*
X186722743Y-43105739D01*
X186722736Y-43105733D01*
X186530293Y-42958067D01*
X186530292Y-42958066D01*
X186530289Y-42958064D01*
X186320212Y-42836776D01*
X186320205Y-42836773D01*
X186096104Y-42743947D01*
X185861785Y-42681161D01*
X185621289Y-42649500D01*
X185621288Y-42649500D01*
X185378712Y-42649500D01*
X185378711Y-42649500D01*
X185138214Y-42681161D01*
X184903895Y-42743947D01*
X184679794Y-42836773D01*
X184679785Y-42836777D01*
X184469706Y-42958067D01*
X184277263Y-43105733D01*
X184277256Y-43105739D01*
X184105739Y-43277256D01*
X184105733Y-43277263D01*
X183958067Y-43469706D01*
X183836777Y-43679785D01*
X183836773Y-43679794D01*
X183743947Y-43903895D01*
X183681161Y-44138214D01*
X183649500Y-44378711D01*
X164720231Y-44378711D01*
X164680601Y-44319399D01*
X164597740Y-44264034D01*
X164597739Y-44264033D01*
X164597735Y-44264032D01*
X164524677Y-44249500D01*
X164524674Y-44249500D01*
X163475326Y-44249500D01*
X163475323Y-44249500D01*
X163402264Y-44264032D01*
X163402260Y-44264033D01*
X163319399Y-44319399D01*
X163264033Y-44402260D01*
X163264032Y-44402264D01*
X163249500Y-44475321D01*
X163249500Y-45524678D01*
X163264032Y-45597735D01*
X163264033Y-45597739D01*
X163264034Y-45597740D01*
X163319399Y-45680601D01*
X163335074Y-45691074D01*
X163379878Y-45744685D01*
X163388587Y-45814010D01*
X163369285Y-45863067D01*
X163334919Y-45914498D01*
X163334912Y-45914511D01*
X163278343Y-46051082D01*
X163278340Y-46051092D01*
X163249500Y-46196079D01*
X163249500Y-46196082D01*
X163249500Y-46343918D01*
X163249500Y-46343920D01*
X163249499Y-46343920D01*
X151500000Y-46343920D01*
X151500000Y-42000000D01*
X133732429Y-42000000D01*
X133665390Y-41980315D01*
X133619635Y-41927511D01*
X133609691Y-41858353D01*
X133617865Y-41828555D01*
X133619795Y-41823894D01*
X133619796Y-41823888D01*
X133619798Y-41823886D01*
X133650499Y-41709309D01*
X133650499Y-41590691D01*
X133619798Y-41476114D01*
X133560488Y-41373387D01*
X133476612Y-41289511D01*
X133375938Y-41231386D01*
X133327724Y-41180819D01*
X133314502Y-41112212D01*
X133340470Y-41047348D01*
X133397384Y-41006820D01*
X133437940Y-41000000D01*
X188876000Y-41000000D01*
X188943039Y-41019685D01*
X188988794Y-41072489D01*
X189000000Y-41124000D01*
X189000000Y-128876000D01*
X188980315Y-128943039D01*
X188927511Y-128988794D01*
X188876000Y-129000000D01*
X41124000Y-129000000D01*
X41056961Y-128980315D01*
X41011206Y-128927511D01*
X41000000Y-128876000D01*
X41000000Y-41124000D01*
X41019685Y-41056961D01*
X41072489Y-41011206D01*
X41124000Y-41000000D01*
X78374182Y-41000000D01*
X78441221Y-41019685D01*
G37*
%TD.AperFunction*%
%TD*%
M02*
