%TF.GenerationSoftware,KiCad,Pcbnew,9.0.6*%
%TF.CreationDate,2026-08-31T00:35:32+02:00*%
%TF.ProjectId,relay_board,72656c61-795f-4626-9f61-72642e6b6963,rev?*%
%TF.SameCoordinates,Original*%
%TF.FileFunction,Soldermask,Top*%
%TF.FilePolarity,Negative*%
%FSLAX46Y46*%
G04 Gerber Fmt 4.6, Leading zero omitted, Abs format (unit mm)*
G04 Created by KiCad (PCBNEW 9.0.6) date 2026-08-31 00:35:32*
%MOMM*%
%LPD*%
G01*
G04 APERTURE LIST*
G04 Aperture macros list*
%AMRoundRect*
0 Rectangle with rounded corners*
0 $1 Rounding radius*
0 $2 $3 $4 $5 $6 $7 $8 $9 X,Y pos of 4 corners*
0 Add a 4 corners polygon primitive as box body*
4,1,4,$2,$3,$4,$5,$6,$7,$8,$9,$2,$3,0*
0 Add four circle primitives for the rounded corners*
1,1,$1+$1,$2,$3*
1,1,$1+$1,$4,$5*
1,1,$1+$1,$6,$7*
1,1,$1+$1,$8,$9*
0 Add four rect primitives between the rounded corners*
20,1,$1+$1,$2,$3,$4,$5,0*
20,1,$1+$1,$4,$5,$6,$7,0*
20,1,$1+$1,$6,$7,$8,$9,0*
20,1,$1+$1,$8,$9,$2,$3,0*%
G04 Aperture macros list end*
%ADD10R,2.100000X1.600000*%
%ADD11R,1.800000X0.800000*%
%ADD12RoundRect,0.140000X0.170000X-0.140000X0.170000X0.140000X-0.170000X0.140000X-0.170000X-0.140000X0*%
%ADD13RoundRect,0.250000X-0.262500X-0.450000X0.262500X-0.450000X0.262500X0.450000X-0.262500X0.450000X0*%
%ADD14RoundRect,0.150000X-0.512500X-0.150000X0.512500X-0.150000X0.512500X0.150000X-0.512500X0.150000X0*%
%ADD15RoundRect,0.150000X-0.825000X-0.150000X0.825000X-0.150000X0.825000X0.150000X-0.825000X0.150000X0*%
%ADD16RoundRect,0.250000X0.475000X-0.250000X0.475000X0.250000X-0.475000X0.250000X-0.475000X-0.250000X0*%
%ADD17RoundRect,0.225000X0.250000X-0.225000X0.250000X0.225000X-0.250000X0.225000X-0.250000X-0.225000X0*%
%ADD18RoundRect,0.135000X-0.135000X-0.185000X0.135000X-0.185000X0.135000X0.185000X-0.135000X0.185000X0*%
%ADD19R,1.000000X1.000000*%
%ADD20C,1.000000*%
%ADD21O,1.600000X2.500000*%
%ADD22O,3.500000X7.000000*%
%ADD23RoundRect,0.140000X-0.140000X-0.170000X0.140000X-0.170000X0.140000X0.170000X-0.140000X0.170000X0*%
%ADD24C,0.650000*%
%ADD25R,0.600000X1.450000*%
%ADD26R,0.300000X1.450000*%
%ADD27O,1.000000X2.100000*%
%ADD28O,1.000000X1.600000*%
%ADD29C,3.200000*%
%ADD30C,1.100000*%
%ADD31RoundRect,0.249999X0.850001X-0.850001X0.850001X0.850001X-0.850001X0.850001X-0.850001X-0.850001X0*%
%ADD32C,2.200000*%
%ADD33RoundRect,0.218750X-0.218750X-0.256250X0.218750X-0.256250X0.218750X0.256250X-0.218750X0.256250X0*%
%ADD34C,2.000000*%
%ADD35RoundRect,0.250000X0.450000X-0.262500X0.450000X0.262500X-0.450000X0.262500X-0.450000X-0.262500X0*%
%ADD36RoundRect,0.075000X-0.662500X-0.075000X0.662500X-0.075000X0.662500X0.075000X-0.662500X0.075000X0*%
%ADD37RoundRect,0.075000X-0.075000X-0.662500X0.075000X-0.662500X0.075000X0.662500X-0.075000X0.662500X0*%
%ADD38RoundRect,0.249999X-0.850001X0.850001X-0.850001X-0.850001X0.850001X-0.850001X0.850001X0.850001X0*%
G04 APERTURE END LIST*
D10*
%TO.C,K9*%
X120750000Y-92200000D03*
D11*
X121000000Y-95400000D03*
X121000000Y-97600000D03*
X121000000Y-99800000D03*
X128000000Y-99800000D03*
X128000000Y-97600000D03*
X128000000Y-95400000D03*
D10*
X128250000Y-92200000D03*
%TD*%
D12*
%TO.C,C6*%
X168100000Y-74480000D03*
X168100000Y-73520000D03*
%TD*%
%TO.C,C11*%
X168100000Y-65980000D03*
X168100000Y-65020000D03*
%TD*%
D13*
%TO.C,R9*%
X168087500Y-47500000D03*
X169912500Y-47500000D03*
%TD*%
D10*
%TO.C,K12*%
X142750000Y-92200000D03*
D11*
X143000000Y-95400000D03*
X143000000Y-97600000D03*
X143000000Y-99800000D03*
X150000000Y-99800000D03*
X150000000Y-97600000D03*
X150000000Y-95400000D03*
D10*
X150250000Y-92200000D03*
%TD*%
D14*
%TO.C,U5*%
X167862500Y-52050000D03*
X167862500Y-53000000D03*
X167862500Y-53950000D03*
X170137500Y-53950000D03*
X170137500Y-52050000D03*
%TD*%
D15*
%TO.C,U4*%
X155525000Y-87555000D03*
X155525000Y-88825000D03*
X155525000Y-90095000D03*
X155525000Y-91365000D03*
X155525000Y-92635000D03*
X155525000Y-93905000D03*
X155525000Y-95175000D03*
X155525000Y-96445000D03*
X160475000Y-96445000D03*
X160475000Y-95175000D03*
X160475000Y-93905000D03*
X160475000Y-92635000D03*
X160475000Y-91365000D03*
X160475000Y-90095000D03*
X160475000Y-88825000D03*
X160475000Y-87555000D03*
%TD*%
D12*
%TO.C,C7*%
X168100000Y-88480000D03*
X168100000Y-87520000D03*
%TD*%
D10*
%TO.C,K1*%
X54750000Y-68200000D03*
D11*
X55000000Y-71400000D03*
X55000000Y-73600000D03*
X55000000Y-75800000D03*
X62000000Y-75800000D03*
X62000000Y-73600000D03*
X62000000Y-71400000D03*
D10*
X62250000Y-68200000D03*
%TD*%
D16*
%TO.C,C1*%
X174000000Y-53950000D03*
X174000000Y-52050000D03*
%TD*%
D17*
%TO.C,C3*%
X169000000Y-59775000D03*
X169000000Y-58225000D03*
%TD*%
D12*
%TO.C,C5*%
X166900000Y-58480000D03*
X166900000Y-57520000D03*
%TD*%
D18*
%TO.C,R4*%
X168490000Y-102000000D03*
X169510000Y-102000000D03*
%TD*%
D10*
%TO.C,K11*%
X142750000Y-80200000D03*
D11*
X143000000Y-83400000D03*
X143000000Y-85600000D03*
X143000000Y-87800000D03*
X150000000Y-87800000D03*
X150000000Y-85600000D03*
X150000000Y-83400000D03*
D10*
X150250000Y-80200000D03*
%TD*%
D19*
%TO.C,J8*%
X164000000Y-45000000D03*
D20*
X164000000Y-46270000D03*
X164000000Y-47540000D03*
X164000000Y-48810000D03*
X164000000Y-50080000D03*
%TD*%
D21*
%TO.C,J9*%
X104000000Y-117300000D03*
D22*
X109080000Y-122380000D03*
D21*
X106540000Y-117300000D03*
D22*
X98920000Y-122380000D03*
%TD*%
D23*
%TO.C,C8*%
X155420000Y-118500000D03*
X156380000Y-118500000D03*
%TD*%
D10*
%TO.C,K16*%
X73750000Y-61500000D03*
D11*
X73500000Y-58300000D03*
X73500000Y-56100000D03*
X73500000Y-53900000D03*
X66500000Y-53900000D03*
X66500000Y-56100000D03*
X66500000Y-58300000D03*
D10*
X66250000Y-61500000D03*
%TD*%
D18*
%TO.C,R10*%
X154490000Y-49200000D03*
X155510000Y-49200000D03*
%TD*%
D24*
%TO.C,J1*%
X161110000Y-125150000D03*
X166890000Y-125150000D03*
D25*
X160750000Y-123705000D03*
X161550000Y-123705000D03*
D26*
X162750000Y-123705000D03*
X163750000Y-123705000D03*
X164250000Y-123705000D03*
X165250000Y-123705000D03*
D25*
X166450000Y-123705000D03*
X167250000Y-123705000D03*
X167250000Y-123705000D03*
X166450000Y-123705000D03*
D26*
X165750000Y-123705000D03*
X164750000Y-123705000D03*
X163250000Y-123705000D03*
X162250000Y-123705000D03*
D25*
X161550000Y-123705000D03*
X160750000Y-123705000D03*
D27*
X159680000Y-124620000D03*
D28*
X159680000Y-128800000D03*
D27*
X168320000Y-124620000D03*
D28*
X168320000Y-128800000D03*
%TD*%
D29*
%TO.C,H4*%
X185500000Y-125500000D03*
%TD*%
D23*
%TO.C,C15*%
X168520000Y-108000000D03*
X169480000Y-108000000D03*
%TD*%
D18*
%TO.C,R1*%
X149490000Y-119000000D03*
X150510000Y-119000000D03*
%TD*%
D30*
%TO.C,J2*%
X81540000Y-45000000D03*
X81540000Y-42460000D03*
D31*
X79000000Y-45000000D03*
D32*
X79000000Y-42460000D03*
%TD*%
D33*
%TO.C,D1*%
X154212500Y-53000000D03*
X155787500Y-53000000D03*
%TD*%
D34*
%TO.C,FID3*%
X49000000Y-121000000D03*
%TD*%
D10*
%TO.C,K7*%
X120750000Y-68200000D03*
D11*
X121000000Y-71400000D03*
X121000000Y-73600000D03*
X121000000Y-75800000D03*
X128000000Y-75800000D03*
X128000000Y-73600000D03*
X128000000Y-71400000D03*
D10*
X128250000Y-68200000D03*
%TD*%
D34*
%TO.C,FID1*%
X49000000Y-50000000D03*
%TD*%
D10*
%TO.C,K6*%
X76750000Y-92200000D03*
D11*
X77000000Y-95400000D03*
X77000000Y-97600000D03*
X77000000Y-99800000D03*
X84000000Y-99800000D03*
X84000000Y-97600000D03*
X84000000Y-95400000D03*
D10*
X84250000Y-92200000D03*
%TD*%
D12*
%TO.C,C10*%
X172500000Y-109480000D03*
X172500000Y-108520000D03*
%TD*%
D10*
%TO.C,K10*%
X142750000Y-68200000D03*
D11*
X143000000Y-71400000D03*
X143000000Y-73600000D03*
X143000000Y-75800000D03*
X150000000Y-75800000D03*
X150000000Y-73600000D03*
X150000000Y-71400000D03*
D10*
X150250000Y-68200000D03*
%TD*%
D14*
%TO.C,D2*%
X152862500Y-121550000D03*
X152862500Y-122500000D03*
X152862500Y-123450000D03*
X155137500Y-123450000D03*
X155137500Y-122500000D03*
X155137500Y-121550000D03*
%TD*%
D10*
%TO.C,K4*%
X76750000Y-68200000D03*
D11*
X77000000Y-71400000D03*
X77000000Y-73600000D03*
X77000000Y-75800000D03*
X84000000Y-75800000D03*
X84000000Y-73600000D03*
X84000000Y-71400000D03*
D10*
X84250000Y-68200000D03*
%TD*%
D35*
%TO.C,R13*%
X78000000Y-112412500D03*
X78000000Y-110587500D03*
%TD*%
D10*
%TO.C,K15*%
X73750000Y-49900000D03*
D11*
X73500000Y-46700000D03*
X73500000Y-44500000D03*
X73500000Y-42300000D03*
X66500000Y-42300000D03*
X66500000Y-44500000D03*
X66500000Y-46700000D03*
D10*
X66250000Y-49900000D03*
%TD*%
D29*
%TO.C,H1*%
X44500000Y-44500000D03*
%TD*%
D34*
%TO.C,FID2*%
X169500000Y-42300000D03*
%TD*%
D36*
%TO.C,U1*%
X155837500Y-109250000D03*
X155837500Y-109750000D03*
X155837500Y-110250000D03*
X155837500Y-110750000D03*
X155837500Y-111250000D03*
X155837500Y-111750000D03*
X155837500Y-112250000D03*
X155837500Y-112750000D03*
X155837500Y-113250000D03*
X155837500Y-113750000D03*
X155837500Y-114250000D03*
X155837500Y-114750000D03*
D37*
X157250000Y-116162500D03*
X157750000Y-116162500D03*
X158250000Y-116162500D03*
X158750000Y-116162500D03*
X159250000Y-116162500D03*
X159750000Y-116162500D03*
X160250000Y-116162500D03*
X160750000Y-116162500D03*
X161250000Y-116162500D03*
X161750000Y-116162500D03*
X162250000Y-116162500D03*
X162750000Y-116162500D03*
D36*
X164162500Y-114750000D03*
X164162500Y-114250000D03*
X164162500Y-113750000D03*
X164162500Y-113250000D03*
X164162500Y-112750000D03*
X164162500Y-112250000D03*
X164162500Y-111750000D03*
X164162500Y-111250000D03*
X164162500Y-110750000D03*
X164162500Y-110250000D03*
X164162500Y-109750000D03*
X164162500Y-109250000D03*
D37*
X162750000Y-107837500D03*
X162250000Y-107837500D03*
X161750000Y-107837500D03*
X161250000Y-107837500D03*
X160750000Y-107837500D03*
X160250000Y-107837500D03*
X159750000Y-107837500D03*
X159250000Y-107837500D03*
X158750000Y-107837500D03*
X158250000Y-107837500D03*
X157750000Y-107837500D03*
X157250000Y-107837500D03*
%TD*%
D35*
%TO.C,R16*%
X100000000Y-112412500D03*
X100000000Y-110587500D03*
%TD*%
D23*
%TO.C,C9*%
X166520000Y-118500000D03*
X167480000Y-118500000D03*
%TD*%
D35*
%TO.C,R15*%
X114000000Y-112412500D03*
X114000000Y-110587500D03*
%TD*%
D10*
%TO.C,K5*%
X76750000Y-80200000D03*
D11*
X77000000Y-83400000D03*
X77000000Y-85600000D03*
X77000000Y-87800000D03*
X84000000Y-87800000D03*
X84000000Y-85600000D03*
X84000000Y-83400000D03*
D10*
X84250000Y-80200000D03*
%TD*%
D30*
%TO.C,J5*%
X116460000Y-53000000D03*
X116460000Y-55540000D03*
D38*
X119000000Y-53000000D03*
D32*
X119000000Y-55540000D03*
%TD*%
D18*
%TO.C,R2*%
X149490000Y-122000000D03*
X150510000Y-122000000D03*
%TD*%
D10*
%TO.C,K18*%
X124250000Y-54000000D03*
D11*
X124500000Y-57200000D03*
X124500000Y-59400000D03*
X124500000Y-61600000D03*
X131500000Y-61600000D03*
X131500000Y-59400000D03*
X131500000Y-57200000D03*
D10*
X131750000Y-54000000D03*
%TD*%
%TO.C,K13*%
X98750000Y-68200000D03*
D11*
X99000000Y-71400000D03*
X99000000Y-73600000D03*
X99000000Y-75800000D03*
X106000000Y-75800000D03*
X106000000Y-73600000D03*
X106000000Y-71400000D03*
D10*
X106250000Y-68200000D03*
%TD*%
%TO.C,K3*%
X54750000Y-92200000D03*
D11*
X55000000Y-95400000D03*
X55000000Y-97600000D03*
X55000000Y-99800000D03*
X62000000Y-99800000D03*
X62000000Y-97600000D03*
X62000000Y-95400000D03*
D10*
X62250000Y-92200000D03*
%TD*%
D13*
%TO.C,R11*%
X146587500Y-111500000D03*
X148412500Y-111500000D03*
%TD*%
D29*
%TO.C,H3*%
X44500000Y-125500000D03*
%TD*%
D35*
%TO.C,R5*%
X134000000Y-112912500D03*
X134000000Y-111087500D03*
%TD*%
%TO.C,R12*%
X72000000Y-112412500D03*
X72000000Y-110587500D03*
%TD*%
D21*
%TO.C,J7*%
X84000000Y-117300000D03*
D22*
X89080000Y-122380000D03*
D21*
X86540000Y-117300000D03*
D22*
X78920000Y-122380000D03*
%TD*%
D10*
%TO.C,K14*%
X106250000Y-87800000D03*
D11*
X106000000Y-84600000D03*
X106000000Y-82400000D03*
X106000000Y-80200000D03*
X99000000Y-80200000D03*
X99000000Y-82400000D03*
X99000000Y-84600000D03*
D10*
X98750000Y-87800000D03*
%TD*%
%TO.C,K17*%
X124250000Y-42300000D03*
D11*
X124500000Y-45500000D03*
X124500000Y-47700000D03*
X124500000Y-49900000D03*
X131500000Y-49900000D03*
X131500000Y-47700000D03*
X131500000Y-45500000D03*
D10*
X131750000Y-42300000D03*
%TD*%
D21*
%TO.C,J6*%
X64000000Y-117300000D03*
D22*
X69080000Y-122380000D03*
D21*
X66540000Y-117300000D03*
D22*
X58920000Y-122380000D03*
%TD*%
D12*
%TO.C,C12*%
X168100000Y-81980000D03*
X168100000Y-81020000D03*
%TD*%
D30*
%TO.C,J3*%
X81540000Y-53000000D03*
X81540000Y-50460000D03*
D31*
X79000000Y-53000000D03*
D32*
X79000000Y-50460000D03*
%TD*%
D10*
%TO.C,K2*%
X54750000Y-80200000D03*
D11*
X55000000Y-83400000D03*
X55000000Y-85600000D03*
X55000000Y-87800000D03*
X62000000Y-87800000D03*
X62000000Y-85600000D03*
X62000000Y-83400000D03*
D10*
X62250000Y-80200000D03*
%TD*%
D17*
%TO.C,C4*%
X175000000Y-65775000D03*
X175000000Y-64225000D03*
%TD*%
D35*
%TO.C,R14*%
X110000000Y-112412500D03*
X110000000Y-110587500D03*
%TD*%
D10*
%TO.C,K8*%
X120750000Y-80200000D03*
D11*
X121000000Y-83400000D03*
X121000000Y-85600000D03*
X121000000Y-87800000D03*
X128000000Y-87800000D03*
X128000000Y-85600000D03*
X128000000Y-83400000D03*
D10*
X128250000Y-80200000D03*
%TD*%
D15*
%TO.C,U2*%
X155525000Y-57555000D03*
X155525000Y-58825000D03*
X155525000Y-60095000D03*
X155525000Y-61365000D03*
X155525000Y-62635000D03*
X155525000Y-63905000D03*
X155525000Y-65175000D03*
X155525000Y-66445000D03*
X160475000Y-66445000D03*
X160475000Y-65175000D03*
X160475000Y-63905000D03*
X160475000Y-62635000D03*
X160475000Y-61365000D03*
X160475000Y-60095000D03*
X160475000Y-58825000D03*
X160475000Y-57555000D03*
%TD*%
D30*
%TO.C,J4*%
X116460000Y-45000000D03*
X116460000Y-47540000D03*
D38*
X119000000Y-45000000D03*
D32*
X119000000Y-47540000D03*
%TD*%
D18*
%TO.C,R3*%
X168490000Y-105000000D03*
X169510000Y-105000000D03*
%TD*%
D15*
%TO.C,U3*%
X155525000Y-73555000D03*
X155525000Y-74825000D03*
X155525000Y-76095000D03*
X155525000Y-77365000D03*
X155525000Y-78635000D03*
X155525000Y-79905000D03*
X155525000Y-81175000D03*
X155525000Y-82445000D03*
X160475000Y-82445000D03*
X160475000Y-81175000D03*
X160475000Y-79905000D03*
X160475000Y-78635000D03*
X160475000Y-77365000D03*
X160475000Y-76095000D03*
X160475000Y-74825000D03*
X160475000Y-73555000D03*
%TD*%
D16*
%TO.C,C2*%
X174000000Y-59950000D03*
X174000000Y-58050000D03*
%TD*%
D29*
%TO.C,H2*%
X185500000Y-44500000D03*
%TD*%
M02*
