%TF.GenerationSoftware,KiCad,Pcbnew,9.0.6*%
%TF.CreationDate,2026-08-31T00:35:33+02:00*%
%TF.ProjectId,relay_board,72656c61-795f-4626-9f61-72642e6b6963,rev?*%
%TF.SameCoordinates,Original*%
%TF.FileFunction,Drillmap*%
%TF.FilePolarity,Positive*%
%FSLAX45Y45*%
G04 Gerber Fmt 4.5, Leading zero omitted, Abs format (unit mm)*
G04 Created by KiCad (PCBNEW 9.0.6) date 2026-08-31 00:35:33*
%MOMM*%
%LPD*%
G01*
G04 APERTURE LIST*
%ADD10C,0.150000*%
%ADD11C,0.200000*%
%ADD12C,0.100000*%
%ADD13C,0.110000*%
%ADD14C,0.201000*%
G04 APERTURE END LIST*
D10*
X4000000Y-4000000D02*
X19000000Y-4000000D01*
X19000000Y-4000000D02*
X19000000Y-13000000D01*
X15650000Y-13140000D02*
X15650000Y-13000000D01*
X17150000Y-13000000D02*
X17150000Y-13140000D01*
X17150000Y-13140000D02*
X15650000Y-13140000D01*
X15650000Y-13000000D02*
X4000000Y-13000000D01*
X19000000Y-13000000D02*
X17150000Y-13000000D01*
X4000000Y-13000000D02*
X4000000Y-4000000D01*
D11*
D12*
X5967500Y-6492500D02*
X5992500Y-6517500D01*
X5992500Y-6492500D02*
X5967500Y-6517500D01*
X6037500Y-6547500D02*
X6062500Y-6572500D01*
X6062500Y-6547500D02*
X6037500Y-6572500D01*
X6212500Y-6602500D02*
X6237500Y-6627500D01*
X6237500Y-6602500D02*
X6212500Y-6627500D01*
X8577500Y-8587500D02*
X8602500Y-8612500D01*
X8602500Y-8587500D02*
X8577500Y-8612500D01*
X8937500Y-5097500D02*
X8962500Y-5122500D01*
X8962500Y-5097500D02*
X8937500Y-5122500D01*
X8937500Y-10577500D02*
X8962500Y-10602500D01*
X8962500Y-10577500D02*
X8937500Y-10602500D01*
X12097500Y-5097500D02*
X12122500Y-5122500D01*
X12122500Y-5097500D02*
X12097500Y-5122500D01*
X12257500Y-5097500D02*
X12282500Y-5122500D01*
X12282500Y-5097500D02*
X12257500Y-5122500D01*
X12812500Y-6727500D02*
X12837500Y-6752500D01*
X12837500Y-6727500D02*
X12812500Y-6752500D01*
X12812500Y-7832500D02*
X12837500Y-7857500D01*
X12837500Y-7832500D02*
X12812500Y-7857500D01*
X12812500Y-8872500D02*
X12837500Y-8897500D01*
X12837500Y-8872500D02*
X12812500Y-8897500D01*
X13247500Y-4217500D02*
X13272500Y-4242500D01*
X13272500Y-4217500D02*
X13247500Y-4242500D01*
X13307500Y-4152500D02*
X13332500Y-4177500D01*
X13332500Y-4152500D02*
X13307500Y-4177500D01*
X14917500Y-12437500D02*
X14942500Y-12462500D01*
X14942500Y-12437500D02*
X14917500Y-12462500D01*
X15012500Y-7047500D02*
X15037500Y-7072500D01*
X15037500Y-7047500D02*
X15012500Y-7072500D01*
X15012500Y-7917500D02*
X15037500Y-7942500D01*
X15037500Y-7917500D02*
X15012500Y-7942500D01*
X15012500Y-8927500D02*
X15037500Y-8952500D01*
X15037500Y-8927500D02*
X15012500Y-8952500D01*
X15027500Y-6547500D02*
X15052500Y-6572500D01*
X15052500Y-6547500D02*
X15027500Y-6572500D01*
X15087500Y-6492500D02*
X15112500Y-6517500D01*
X15112500Y-6492500D02*
X15087500Y-6517500D01*
X15087500Y-6602500D02*
X15112500Y-6627500D01*
X15112500Y-6602500D02*
X15087500Y-6627500D01*
X15102500Y-5287500D02*
X15127500Y-5312500D01*
X15127500Y-5287500D02*
X15102500Y-5312500D01*
X15157500Y-11382500D02*
X15182500Y-11407500D01*
X15182500Y-11382500D02*
X15157500Y-11407500D01*
X15217500Y-11462500D02*
X15242500Y-11487500D01*
X15242500Y-11462500D02*
X15217500Y-11487500D01*
X15272500Y-11777500D02*
X15297500Y-11802500D01*
X15297500Y-11777500D02*
X15272500Y-11802500D01*
X15337500Y-12377500D02*
X15362500Y-12402500D01*
X15362500Y-12377500D02*
X15337500Y-12402500D01*
X15421250Y-11262500D02*
X15446250Y-11287500D01*
X15446250Y-11262500D02*
X15421250Y-11287500D01*
X15422500Y-11462500D02*
X15447500Y-11487500D01*
X15447500Y-11462500D02*
X15422500Y-11487500D01*
X15447500Y-11382500D02*
X15472500Y-11407500D01*
X15472500Y-11382500D02*
X15447500Y-11407500D01*
X15447500Y-12142500D02*
X15472500Y-12167500D01*
X15472500Y-12142500D02*
X15447500Y-12167500D01*
X15557500Y-6662500D02*
X15582500Y-6687500D01*
X15582500Y-6662500D02*
X15557500Y-6687500D01*
X15566250Y-5427500D02*
X15591250Y-5452500D01*
X15591250Y-5427500D02*
X15566250Y-5452500D01*
X15607500Y-8587500D02*
X15632500Y-8612500D01*
X15632500Y-8587500D02*
X15607500Y-8612500D01*
X15647500Y-11902500D02*
X15672500Y-11927500D01*
X15672500Y-11902500D02*
X15647500Y-11927500D01*
X15671250Y-10577500D02*
X15696250Y-10602500D01*
X15696250Y-10577500D02*
X15671250Y-10602500D01*
X15682500Y-7470000D02*
X15707500Y-7495000D01*
X15707500Y-7470000D02*
X15682500Y-7495000D01*
X15682500Y-7777500D02*
X15707500Y-7802500D01*
X15707500Y-7777500D02*
X15682500Y-7802500D01*
X15682500Y-8097500D02*
X15707500Y-8122500D01*
X15707500Y-8097500D02*
X15682500Y-8122500D01*
X15687500Y-11362500D02*
X15712500Y-11387500D01*
X15712500Y-11362500D02*
X15687500Y-11387500D01*
X15702500Y-11847500D02*
X15727500Y-11872500D01*
X15727500Y-11847500D02*
X15702500Y-11872500D01*
X15732500Y-5870000D02*
X15757500Y-5895000D01*
X15757500Y-5870000D02*
X15732500Y-5895000D01*
X15762500Y-10611250D02*
X15787500Y-10636250D01*
X15787500Y-10611250D02*
X15762500Y-10636250D01*
X15762500Y-11847500D02*
X15787500Y-11872500D01*
X15787500Y-11847500D02*
X15762500Y-11872500D01*
X15767500Y-7343000D02*
X15792500Y-7368000D01*
X15792500Y-7343000D02*
X15767500Y-7368000D01*
X15787500Y-5743000D02*
X15812500Y-5768000D01*
X15812500Y-5743000D02*
X15787500Y-5768000D01*
X15832500Y-8447500D02*
X15857500Y-8472500D01*
X15857500Y-8447500D02*
X15832500Y-8472500D01*
X15847500Y-6727500D02*
X15872500Y-6752500D01*
X15872500Y-6727500D02*
X15847500Y-6752500D01*
X15887500Y-7597000D02*
X15912500Y-7622000D01*
X15912500Y-7597000D02*
X15887500Y-7622000D01*
X15887500Y-7724000D02*
X15912500Y-7749000D01*
X15912500Y-7724000D02*
X15887500Y-7749000D01*
X15917500Y-8587500D02*
X15942500Y-8612500D01*
X15942500Y-8587500D02*
X15917500Y-8612500D01*
X15917500Y-11837500D02*
X15942500Y-11862500D01*
X15942500Y-11837500D02*
X15917500Y-11862500D01*
X16012500Y-11902500D02*
X16037500Y-11927500D01*
X16037500Y-11902500D02*
X16012500Y-11927500D01*
X16062500Y-12217500D02*
X16087500Y-12242500D01*
X16087500Y-12217500D02*
X16062500Y-12242500D01*
X16082500Y-11777500D02*
X16107500Y-11802500D01*
X16107500Y-11777500D02*
X16082500Y-11802500D01*
X16127500Y-8587500D02*
X16152500Y-8612500D01*
X16152500Y-8587500D02*
X16127500Y-8612500D01*
X16137500Y-7978000D02*
X16162500Y-8003000D01*
X16162500Y-7978000D02*
X16137500Y-8003000D01*
X16142500Y-12237500D02*
X16167500Y-12262500D01*
X16167500Y-12237500D02*
X16142500Y-12262500D01*
X16177500Y-6124000D02*
X16202500Y-6149000D01*
X16202500Y-6124000D02*
X16177500Y-6149000D01*
X16187500Y-8105000D02*
X16212500Y-8130000D01*
X16212500Y-8105000D02*
X16187500Y-8130000D01*
X16217500Y-10962500D02*
X16242500Y-10987500D01*
X16242500Y-10962500D02*
X16217500Y-10987500D01*
X16217500Y-5997000D02*
X16242500Y-6022000D01*
X16242500Y-5997000D02*
X16217500Y-6022000D01*
X16217500Y-11312500D02*
X16242500Y-11337500D01*
X16242500Y-11312500D02*
X16217500Y-11337500D01*
X16232500Y-11737500D02*
X16257500Y-11762500D01*
X16257500Y-11737500D02*
X16232500Y-11762500D01*
X16252500Y-6378000D02*
X16277500Y-6403000D01*
X16277500Y-6378000D02*
X16252500Y-6403000D01*
X16277500Y-11262500D02*
X16302500Y-11287500D01*
X16302500Y-11262500D02*
X16277500Y-11287500D01*
X16307500Y-8870000D02*
X16332500Y-8895000D01*
X16332500Y-8870000D02*
X16307500Y-8895000D01*
X16312500Y-12562500D02*
X16337500Y-12587500D01*
X16337500Y-12562500D02*
X16312500Y-12587500D01*
X16317500Y-8587500D02*
X16342500Y-8612500D01*
X16342500Y-8587500D02*
X16317500Y-8612500D01*
X16347500Y-6251000D02*
X16372500Y-6276000D01*
X16372500Y-6251000D02*
X16347500Y-6276000D01*
X16362500Y-12482500D02*
X16387500Y-12507500D01*
X16387500Y-12482500D02*
X16362500Y-12507500D01*
X16387500Y-8743000D02*
X16412500Y-8768000D01*
X16412500Y-8743000D02*
X16387500Y-8768000D01*
X16412500Y-12562500D02*
X16437500Y-12587500D01*
X16437500Y-12562500D02*
X16412500Y-12587500D01*
X16432500Y-5547500D02*
X16457500Y-5572500D01*
X16457500Y-5547500D02*
X16432500Y-5572500D01*
X16462500Y-12482500D02*
X16487500Y-12507500D01*
X16487500Y-12482500D02*
X16462500Y-12507500D01*
X16522500Y-10992500D02*
X16547500Y-11017500D01*
X16547500Y-10992500D02*
X16522500Y-11017500D01*
X16542500Y-4868500D02*
X16567500Y-4893500D01*
X16567500Y-4868500D02*
X16542500Y-4893500D01*
X16547500Y-8927500D02*
X16572500Y-8952500D01*
X16572500Y-8927500D02*
X16547500Y-8952500D01*
X16547500Y-10607500D02*
X16572500Y-10632500D01*
X16572500Y-10607500D02*
X16547500Y-10632500D01*
X16562500Y-12727500D02*
X16587500Y-12752500D01*
X16587500Y-12727500D02*
X16562500Y-12752500D01*
X16627500Y-5287500D02*
X16652500Y-5312500D01*
X16652500Y-5287500D02*
X16627500Y-5312500D01*
X16632500Y-12237500D02*
X16657500Y-12262500D01*
X16657500Y-12237500D02*
X16632500Y-12262500D01*
X16677500Y-5925500D02*
X16702500Y-5950500D01*
X16702500Y-5925500D02*
X16677500Y-5950500D01*
X16712500Y-12217500D02*
X16737500Y-12242500D01*
X16737500Y-12217500D02*
X16712500Y-12242500D01*
X16732500Y-6682500D02*
X16757500Y-6707500D01*
X16757500Y-6682500D02*
X16732500Y-6707500D01*
X16732500Y-7477500D02*
X16757500Y-7502500D01*
X16757500Y-7477500D02*
X16732500Y-7502500D01*
X16737500Y-5607500D02*
X16762500Y-5632500D01*
X16762500Y-5607500D02*
X16737500Y-5632500D01*
X16737500Y-7957500D02*
X16762500Y-7982500D01*
X16762500Y-7957500D02*
X16737500Y-7982500D01*
X16737500Y-8607500D02*
X16762500Y-8632500D01*
X16762500Y-8607500D02*
X16737500Y-8632500D01*
X16797500Y-6675500D02*
X16822500Y-6700500D01*
X16822500Y-6675500D02*
X16797500Y-6700500D01*
X16797500Y-7525500D02*
X16822500Y-7550500D01*
X16822500Y-7525500D02*
X16797500Y-7550500D01*
X16797500Y-8275500D02*
X16822500Y-8300500D01*
X16822500Y-8275500D02*
X16797500Y-8300500D01*
X16797500Y-8925500D02*
X16822500Y-8950500D01*
X16822500Y-8925500D02*
X16797500Y-8950500D01*
X16817500Y-11727500D02*
X16842500Y-11752500D01*
X16842500Y-11727500D02*
X16817500Y-11752500D01*
X16892500Y-11642500D02*
X16917500Y-11667500D01*
X16917500Y-11642500D02*
X16892500Y-11667500D01*
X16912500Y-11577500D02*
X16937500Y-11602500D01*
X16937500Y-11577500D02*
X16912500Y-11602500D01*
X16967500Y-7237500D02*
X16992500Y-7262500D01*
X16992500Y-7237500D02*
X16967500Y-7262500D01*
X17002500Y-5810000D02*
X17027500Y-5835000D01*
X17027500Y-5810000D02*
X17002500Y-5835000D01*
X17022500Y-7077500D02*
X17047500Y-7102500D01*
X17047500Y-7077500D02*
X17022500Y-7102500D01*
X17077500Y-11642500D02*
X17102500Y-11667500D01*
X17102500Y-11642500D02*
X17077500Y-11667500D01*
X17102500Y-11577500D02*
X17127500Y-11602500D01*
X17127500Y-11577500D02*
X17102500Y-11602500D01*
X17117500Y-10187500D02*
X17142500Y-10212500D01*
X17142500Y-10187500D02*
X17117500Y-10212500D01*
X17117500Y-10787500D02*
X17142500Y-10812500D01*
X17142500Y-10787500D02*
X17117500Y-10812500D01*
X17177500Y-9187500D02*
X17202500Y-9212500D01*
X17202500Y-9187500D02*
X17177500Y-9212500D01*
X17237500Y-9060500D02*
X17262500Y-9085500D01*
X17262500Y-9060500D02*
X17237500Y-9085500D01*
X17297500Y-6314500D02*
X17322500Y-6339500D01*
X17322500Y-6314500D02*
X17297500Y-6339500D01*
X17357500Y-6187500D02*
X17382500Y-6212500D01*
X17382500Y-6187500D02*
X17357500Y-6212500D01*
X17417500Y-6410000D02*
X17442500Y-6435000D01*
X17442500Y-6410000D02*
X17417500Y-6435000D01*
X17422500Y-10701500D02*
X17447500Y-10726500D01*
X17447500Y-10701500D02*
X17422500Y-10726500D01*
X17422500Y-10935500D02*
X17447500Y-10960500D01*
X17447500Y-10935500D02*
X17422500Y-10960500D01*
X17427500Y-5382500D02*
X17452500Y-5407500D01*
X17452500Y-5382500D02*
X17427500Y-5407500D01*
X17662500Y-10347500D02*
X17687500Y-10372500D01*
X17687500Y-10347500D02*
X17662500Y-10372500D01*
X17797500Y-8997000D02*
X17822500Y-9022000D01*
X17822500Y-8997000D02*
X17797500Y-9022000D01*
X17852500Y-9124000D02*
X17877500Y-9149000D01*
X17877500Y-9124000D02*
X17852500Y-9149000D01*
X5690000Y-6820000D02*
G75*
G02*
X5660000Y-6820000I-15000J0D01*
G01*
X5660000Y-6820000D02*
G75*
G02*
X5690000Y-6820000I15000J0D01*
G01*
X5690000Y-8020000D02*
G75*
G02*
X5660000Y-8020000I-15000J0D01*
G01*
X5660000Y-8020000D02*
G75*
G02*
X5690000Y-8020000I15000J0D01*
G01*
X5690000Y-9220000D02*
G75*
G02*
X5660000Y-9220000I-15000J0D01*
G01*
X5660000Y-9220000D02*
G75*
G02*
X5690000Y-9220000I15000J0D01*
G01*
X5695000Y-7580000D02*
G75*
G02*
X5665000Y-7580000I-15000J0D01*
G01*
X5665000Y-7580000D02*
G75*
G02*
X5695000Y-7580000I15000J0D01*
G01*
X5695000Y-8780000D02*
G75*
G02*
X5665000Y-8780000I-15000J0D01*
G01*
X5665000Y-8780000D02*
G75*
G02*
X5695000Y-8780000I15000J0D01*
G01*
X5695000Y-9980000D02*
G75*
G02*
X5665000Y-9980000I-15000J0D01*
G01*
X5665000Y-9980000D02*
G75*
G02*
X5695000Y-9980000I15000J0D01*
G01*
X6475000Y-10780000D02*
G75*
G02*
X6445000Y-10780000I-15000J0D01*
G01*
X6445000Y-10780000D02*
G75*
G02*
X6475000Y-10780000I15000J0D01*
G01*
X6555000Y-10690000D02*
G75*
G02*
X6525000Y-10690000I-15000J0D01*
G01*
X6525000Y-10690000D02*
G75*
G02*
X6555000Y-10690000I15000J0D01*
G01*
X7085000Y-11058750D02*
G75*
G02*
X7055000Y-11058750I-15000J0D01*
G01*
X7055000Y-11058750D02*
G75*
G02*
X7085000Y-11058750I15000J0D01*
G01*
X7685000Y-4990000D02*
G75*
G02*
X7655000Y-4990000I-15000J0D01*
G01*
X7655000Y-4990000D02*
G75*
G02*
X7685000Y-4990000I15000J0D01*
G01*
X7685000Y-6150000D02*
G75*
G02*
X7655000Y-6150000I-15000J0D01*
G01*
X7655000Y-6150000D02*
G75*
G02*
X7685000Y-6150000I15000J0D01*
G01*
X7815000Y-10918750D02*
G75*
G02*
X7785000Y-10918750I-15000J0D01*
G01*
X7785000Y-10918750D02*
G75*
G02*
X7815000Y-10918750I15000J0D01*
G01*
X7890000Y-6820000D02*
G75*
G02*
X7860000Y-6820000I-15000J0D01*
G01*
X7860000Y-6820000D02*
G75*
G02*
X7890000Y-6820000I15000J0D01*
G01*
X7890000Y-8020000D02*
G75*
G02*
X7860000Y-8020000I-15000J0D01*
G01*
X7860000Y-8020000D02*
G75*
G02*
X7890000Y-8020000I15000J0D01*
G01*
X7890000Y-9220000D02*
G75*
G02*
X7860000Y-9220000I-15000J0D01*
G01*
X7860000Y-9220000D02*
G75*
G02*
X7890000Y-9220000I15000J0D01*
G01*
X7895000Y-7580000D02*
G75*
G02*
X7865000Y-7580000I-15000J0D01*
G01*
X7865000Y-7580000D02*
G75*
G02*
X7895000Y-7580000I15000J0D01*
G01*
X7895000Y-8780000D02*
G75*
G02*
X7865000Y-8780000I-15000J0D01*
G01*
X7865000Y-8780000D02*
G75*
G02*
X7895000Y-8780000I15000J0D01*
G01*
X7895000Y-9980000D02*
G75*
G02*
X7865000Y-9980000I-15000J0D01*
G01*
X7865000Y-9980000D02*
G75*
G02*
X7895000Y-9980000I15000J0D01*
G01*
X7935000Y-11241250D02*
G75*
G02*
X7905000Y-11241250I-15000J0D01*
G01*
X7905000Y-11241250D02*
G75*
G02*
X7935000Y-11241250I15000J0D01*
G01*
X8440000Y-6915000D02*
G75*
G02*
X8410000Y-6915000I-15000J0D01*
G01*
X8410000Y-6915000D02*
G75*
G02*
X8440000Y-6915000I15000J0D01*
G01*
X8440000Y-9120000D02*
G75*
G02*
X8410000Y-9120000I-15000J0D01*
G01*
X8410000Y-9120000D02*
G75*
G02*
X8440000Y-9120000I15000J0D01*
G01*
X8715000Y-7580000D02*
G75*
G02*
X8685000Y-7580000I-15000J0D01*
G01*
X8685000Y-7580000D02*
G75*
G02*
X8715000Y-7580000I15000J0D01*
G01*
X9665000Y-10300000D02*
G75*
G02*
X9635000Y-10300000I-15000J0D01*
G01*
X9635000Y-10300000D02*
G75*
G02*
X9665000Y-10300000I15000J0D01*
G01*
X9890000Y-9020000D02*
G75*
G02*
X9860000Y-9020000I-15000J0D01*
G01*
X9860000Y-9020000D02*
G75*
G02*
X9890000Y-9020000I15000J0D01*
G01*
X10090000Y-6820000D02*
G75*
G02*
X10060000Y-6820000I-15000J0D01*
G01*
X10060000Y-6820000D02*
G75*
G02*
X10090000Y-6820000I15000J0D01*
G01*
X10095000Y-7580000D02*
G75*
G02*
X10065000Y-7580000I-15000J0D01*
G01*
X10065000Y-7580000D02*
G75*
G02*
X10095000Y-7580000I15000J0D01*
G01*
X10435000Y-8780000D02*
G75*
G02*
X10405000Y-8780000I-15000J0D01*
G01*
X10405000Y-8780000D02*
G75*
G02*
X10435000Y-8780000I15000J0D01*
G01*
X10640000Y-6990000D02*
G75*
G02*
X10610000Y-6990000I-15000J0D01*
G01*
X10610000Y-6990000D02*
G75*
G02*
X10640000Y-6990000I15000J0D01*
G01*
X10840000Y-8620000D02*
G75*
G02*
X10810000Y-8620000I-15000J0D01*
G01*
X10810000Y-8620000D02*
G75*
G02*
X10840000Y-8620000I15000J0D01*
G01*
X10965000Y-10450000D02*
G75*
G02*
X10935000Y-10450000I-15000J0D01*
G01*
X10935000Y-10450000D02*
G75*
G02*
X10965000Y-10450000I15000J0D01*
G01*
X11015000Y-10918750D02*
G75*
G02*
X10985000Y-10918750I-15000J0D01*
G01*
X10985000Y-10918750D02*
G75*
G02*
X11015000Y-10918750I15000J0D01*
G01*
X11115000Y-8780000D02*
G75*
G02*
X11085000Y-8780000I-15000J0D01*
G01*
X11085000Y-8780000D02*
G75*
G02*
X11115000Y-8780000I15000J0D01*
G01*
X11415000Y-10918750D02*
G75*
G02*
X11385000Y-10918750I-15000J0D01*
G01*
X11385000Y-10918750D02*
G75*
G02*
X11415000Y-10918750I15000J0D01*
G01*
X12205000Y-4230000D02*
G75*
G02*
X12175000Y-4230000I-15000J0D01*
G01*
X12175000Y-4230000D02*
G75*
G02*
X12205000Y-4230000I15000J0D01*
G01*
X12205000Y-5400000D02*
G75*
G02*
X12175000Y-5400000I-15000J0D01*
G01*
X12175000Y-5400000D02*
G75*
G02*
X12205000Y-5400000I15000J0D01*
G01*
X12290000Y-6820000D02*
G75*
G02*
X12260000Y-6820000I-15000J0D01*
G01*
X12260000Y-6820000D02*
G75*
G02*
X12290000Y-6820000I15000J0D01*
G01*
X12290000Y-8020000D02*
G75*
G02*
X12260000Y-8020000I-15000J0D01*
G01*
X12260000Y-8020000D02*
G75*
G02*
X12290000Y-8020000I15000J0D01*
G01*
X12290000Y-9220000D02*
G75*
G02*
X12260000Y-9220000I-15000J0D01*
G01*
X12260000Y-9220000D02*
G75*
G02*
X12290000Y-9220000I15000J0D01*
G01*
X12295000Y-7580000D02*
G75*
G02*
X12265000Y-7580000I-15000J0D01*
G01*
X12265000Y-7580000D02*
G75*
G02*
X12295000Y-7580000I15000J0D01*
G01*
X12295000Y-8780000D02*
G75*
G02*
X12265000Y-8780000I-15000J0D01*
G01*
X12265000Y-8780000D02*
G75*
G02*
X12295000Y-8780000I15000J0D01*
G01*
X12295000Y-9980000D02*
G75*
G02*
X12265000Y-9980000I-15000J0D01*
G01*
X12265000Y-9980000D02*
G75*
G02*
X12295000Y-9980000I15000J0D01*
G01*
X12315000Y-6300000D02*
G75*
G02*
X12285000Y-6300000I-15000J0D01*
G01*
X12285000Y-6300000D02*
G75*
G02*
X12315000Y-6300000I15000J0D01*
G01*
X13315000Y-6300000D02*
G75*
G02*
X13285000Y-6300000I-15000J0D01*
G01*
X13285000Y-6300000D02*
G75*
G02*
X13315000Y-6300000I15000J0D01*
G01*
X13315000Y-10300000D02*
G75*
G02*
X13285000Y-10300000I-15000J0D01*
G01*
X13285000Y-10300000D02*
G75*
G02*
X13315000Y-10300000I15000J0D01*
G01*
X13515000Y-10450000D02*
G75*
G02*
X13485000Y-10450000I-15000J0D01*
G01*
X13485000Y-10450000D02*
G75*
G02*
X13515000Y-10450000I15000J0D01*
G01*
X14490000Y-6820000D02*
G75*
G02*
X14460000Y-6820000I-15000J0D01*
G01*
X14460000Y-6820000D02*
G75*
G02*
X14490000Y-6820000I15000J0D01*
G01*
X14490000Y-8020000D02*
G75*
G02*
X14460000Y-8020000I-15000J0D01*
G01*
X14460000Y-8020000D02*
G75*
G02*
X14490000Y-8020000I15000J0D01*
G01*
X14490000Y-9220000D02*
G75*
G02*
X14460000Y-9220000I-15000J0D01*
G01*
X14460000Y-9220000D02*
G75*
G02*
X14490000Y-9220000I15000J0D01*
G01*
X14495000Y-7580000D02*
G75*
G02*
X14465000Y-7580000I-15000J0D01*
G01*
X14465000Y-7580000D02*
G75*
G02*
X14495000Y-7580000I15000J0D01*
G01*
X14495000Y-8780000D02*
G75*
G02*
X14465000Y-8780000I-15000J0D01*
G01*
X14465000Y-8780000D02*
G75*
G02*
X14495000Y-8780000I15000J0D01*
G01*
X14495000Y-9980000D02*
G75*
G02*
X14465000Y-9980000I-15000J0D01*
G01*
X14465000Y-9980000D02*
G75*
G02*
X14495000Y-9980000I15000J0D01*
G01*
X14533750Y-11150000D02*
G75*
G02*
X14503750Y-11150000I-15000J0D01*
G01*
X14503750Y-11150000D02*
G75*
G02*
X14533750Y-11150000I15000J0D01*
G01*
X14975000Y-11150000D02*
G75*
G02*
X14945000Y-11150000I-15000J0D01*
G01*
X14945000Y-11150000D02*
G75*
G02*
X14975000Y-11150000I15000J0D01*
G01*
X15217700Y-12620000D02*
G75*
G02*
X15187700Y-12620000I-15000J0D01*
G01*
X15187700Y-12620000D02*
G75*
G02*
X15217700Y-12620000I15000J0D01*
G01*
X15285000Y-11940000D02*
G75*
G02*
X15255000Y-11940000I-15000J0D01*
G01*
X15255000Y-11940000D02*
G75*
G02*
X15285000Y-11940000I15000J0D01*
G01*
X15305000Y-12460000D02*
G75*
G02*
X15275000Y-12460000I-15000J0D01*
G01*
X15275000Y-12460000D02*
G75*
G02*
X15305000Y-12460000I15000J0D01*
G01*
X15409000Y-7863000D02*
G75*
G02*
X15379000Y-7863000I-15000J0D01*
G01*
X15379000Y-7863000D02*
G75*
G02*
X15409000Y-7863000I15000J0D01*
G01*
X15444000Y-8118000D02*
G75*
G02*
X15414000Y-8118000I-15000J0D01*
G01*
X15414000Y-8118000D02*
G75*
G02*
X15444000Y-8118000I15000J0D01*
G01*
X15567500Y-8374500D02*
G75*
G02*
X15537500Y-8374500I-15000J0D01*
G01*
X15537500Y-8374500D02*
G75*
G02*
X15567500Y-8374500I15000J0D01*
G01*
X15567500Y-9800000D02*
G75*
G02*
X15537500Y-9800000I-15000J0D01*
G01*
X15537500Y-9800000D02*
G75*
G02*
X15567500Y-9800000I15000J0D01*
G01*
X15655000Y-12300000D02*
G75*
G02*
X15625000Y-12300000I-15000J0D01*
G01*
X15625000Y-12300000D02*
G75*
G02*
X15655000Y-12300000I15000J0D01*
G01*
X15772500Y-8873482D02*
G75*
G02*
X15742500Y-8873482I-15000J0D01*
G01*
X15742500Y-8873482D02*
G75*
G02*
X15772500Y-8873482I15000J0D01*
G01*
X15943600Y-11419200D02*
G75*
G02*
X15913600Y-11419200I-15000J0D01*
G01*
X15913600Y-11419200D02*
G75*
G02*
X15943600Y-11419200I15000J0D01*
G01*
X15962100Y-10619500D02*
G75*
G02*
X15932100Y-10619500I-15000J0D01*
G01*
X15932100Y-10619500D02*
G75*
G02*
X15962100Y-10619500I15000J0D01*
G01*
X15962200Y-10262500D02*
G75*
G02*
X15932200Y-10262500I-15000J0D01*
G01*
X15932200Y-10262500D02*
G75*
G02*
X15962200Y-10262500I15000J0D01*
G01*
X15971700Y-11336300D02*
G75*
G02*
X15941700Y-11336300I-15000J0D01*
G01*
X15941700Y-11336300D02*
G75*
G02*
X15971700Y-11336300I15000J0D01*
G01*
X16001600Y-11136300D02*
G75*
G02*
X15971600Y-11136300I-15000J0D01*
G01*
X15971600Y-11136300D02*
G75*
G02*
X16001600Y-11136300I15000J0D01*
G01*
X16062500Y-6820000D02*
G75*
G02*
X16032500Y-6820000I-15000J0D01*
G01*
X16032500Y-6820000D02*
G75*
G02*
X16062500Y-6820000I15000J0D01*
G01*
X16062500Y-8404500D02*
G75*
G02*
X16032500Y-8404500I-15000J0D01*
G01*
X16032500Y-8404500D02*
G75*
G02*
X16062500Y-8404500I15000J0D01*
G01*
X16062500Y-9804500D02*
G75*
G02*
X16032500Y-9804500I-15000J0D01*
G01*
X16032500Y-9804500D02*
G75*
G02*
X16062500Y-9804500I15000J0D01*
G01*
X16069400Y-11459500D02*
G75*
G02*
X16039400Y-11459500I-15000J0D01*
G01*
X16039400Y-11459500D02*
G75*
G02*
X16069400Y-11459500I15000J0D01*
G01*
X16150000Y-11481000D02*
G75*
G02*
X16120000Y-11481000I-15000J0D01*
G01*
X16120000Y-11481000D02*
G75*
G02*
X16150000Y-11481000I15000J0D01*
G01*
X16163100Y-11291200D02*
G75*
G02*
X16133100Y-11291200I-15000J0D01*
G01*
X16133100Y-11291200D02*
G75*
G02*
X16163100Y-11291200I15000J0D01*
G01*
X16175700Y-11170800D02*
G75*
G02*
X16145700Y-11170800I-15000J0D01*
G01*
X16145700Y-11170800D02*
G75*
G02*
X16175700Y-11170800I15000J0D01*
G01*
X16181400Y-10597800D02*
G75*
G02*
X16151400Y-10597800I-15000J0D01*
G01*
X16151400Y-10597800D02*
G75*
G02*
X16181400Y-10597800I15000J0D01*
G01*
X16182200Y-11050500D02*
G75*
G02*
X16152200Y-11050500I-15000J0D01*
G01*
X16152200Y-11050500D02*
G75*
G02*
X16182200Y-11050500I15000J0D01*
G01*
X16206100Y-9716280D02*
G75*
G02*
X16176100Y-9716280I-15000J0D01*
G01*
X16176100Y-9716280D02*
G75*
G02*
X16206100Y-9716280I15000J0D01*
G01*
X16382200Y-11717800D02*
G75*
G02*
X16352200Y-11717800I-15000J0D01*
G01*
X16352200Y-11717800D02*
G75*
G02*
X16382200Y-11717800I15000J0D01*
G01*
X16553904Y-11243671D02*
G75*
G02*
X16523904Y-11243671I-15000J0D01*
G01*
X16523904Y-11243671D02*
G75*
G02*
X16553904Y-11243671I15000J0D01*
G01*
X16590700Y-6677950D02*
G75*
G02*
X16560700Y-6677950I-15000J0D01*
G01*
X16560700Y-6677950D02*
G75*
G02*
X16590700Y-6677950I15000J0D01*
G01*
X16590700Y-7027080D02*
G75*
G02*
X16560700Y-7027080I-15000J0D01*
G01*
X16560700Y-7027080D02*
G75*
G02*
X16590700Y-7027080I15000J0D01*
G01*
X16590700Y-7474510D02*
G75*
G02*
X16560700Y-7474510I-15000J0D01*
G01*
X16560700Y-7474510D02*
G75*
G02*
X16590700Y-7474510I15000J0D01*
G01*
X16671200Y-5205000D02*
G75*
G02*
X16641200Y-5205000I-15000J0D01*
G01*
X16641200Y-5205000D02*
G75*
G02*
X16671200Y-5205000I15000J0D01*
G01*
X16721300Y-5080100D02*
G75*
G02*
X16691300Y-5080100I-15000J0D01*
G01*
X16691300Y-5080100D02*
G75*
G02*
X16721300Y-5080100I15000J0D01*
G01*
X16729300Y-10847916D02*
G75*
G02*
X16699300Y-10847916I-15000J0D01*
G01*
X16699300Y-10847916D02*
G75*
G02*
X16729300Y-10847916I15000J0D01*
G01*
X16752800Y-11457300D02*
G75*
G02*
X16722800Y-11457300I-15000J0D01*
G01*
X16722800Y-11457300D02*
G75*
G02*
X16752800Y-11457300I15000J0D01*
G01*
X16799900Y-9665050D02*
G75*
G02*
X16769900Y-9665050I-15000J0D01*
G01*
X16769900Y-9665050D02*
G75*
G02*
X16799900Y-9665050I15000J0D01*
G01*
X16823750Y-4695000D02*
G75*
G02*
X16793750Y-4695000I-15000J0D01*
G01*
X16793750Y-4695000D02*
G75*
G02*
X16823750Y-4695000I15000J0D01*
G01*
X17006200Y-4880000D02*
G75*
G02*
X16976200Y-4880000I-15000J0D01*
G01*
X16976200Y-4880000D02*
G75*
G02*
X17006200Y-4880000I15000J0D01*
G01*
X17112700Y-10874900D02*
G75*
G02*
X17082700Y-10874900I-15000J0D01*
G01*
X17082700Y-10874900D02*
G75*
G02*
X17112700Y-10874900I15000J0D01*
G01*
X17114800Y-10648100D02*
G75*
G02*
X17084800Y-10648100I-15000J0D01*
G01*
X17084800Y-10648100D02*
G75*
G02*
X17114800Y-10648100I15000J0D01*
G01*
X17154700Y-7275370D02*
G75*
G02*
X17124700Y-7275370I-15000J0D01*
G01*
X17124700Y-7275370D02*
G75*
G02*
X17154700Y-7275370I15000J0D01*
G01*
X17545000Y-5205000D02*
G75*
G02*
X17515000Y-5205000I-15000J0D01*
G01*
X17515000Y-5205000D02*
G75*
G02*
X17545000Y-5205000I15000J0D01*
G01*
X17545000Y-5805000D02*
G75*
G02*
X17515000Y-5805000I-15000J0D01*
G01*
X17515000Y-5805000D02*
G75*
G02*
X17545000Y-5805000I15000J0D01*
G01*
X15968000Y-12432000D02*
X15968000Y-12492000D01*
X15938000Y-12462000D02*
X15998000Y-12462000D01*
X15938000Y-12407000D02*
X15938000Y-12517000D01*
X15998000Y-12517000D02*
G75*
G02*
X15938000Y-12517000I-30000J0D01*
G01*
X15998000Y-12517000D02*
X15998000Y-12407000D01*
X15998000Y-12407000D02*
G75*
G03*
X15938000Y-12407000I-30000J0D01*
G01*
X15968000Y-12850000D02*
X15968000Y-12910000D01*
X15938000Y-12880000D02*
X15998000Y-12880000D01*
X15938000Y-12850000D02*
X15938000Y-12910000D01*
X15998000Y-12910000D02*
G75*
G02*
X15938000Y-12910000I-30000J0D01*
G01*
X15998000Y-12910000D02*
X15998000Y-12850000D01*
X15998000Y-12850000D02*
G75*
G03*
X15938000Y-12850000I-30000J0D01*
G01*
X16832000Y-12432000D02*
X16832000Y-12492000D01*
X16802000Y-12462000D02*
X16862000Y-12462000D01*
X16802000Y-12407000D02*
X16802000Y-12517000D01*
X16862000Y-12517000D02*
G75*
G02*
X16802000Y-12517000I-30000J0D01*
G01*
X16862000Y-12517000D02*
X16862000Y-12407000D01*
X16862000Y-12407000D02*
G75*
G03*
X16802000Y-12407000I-30000J0D01*
G01*
X16832000Y-12850000D02*
X16832000Y-12910000D01*
X16802000Y-12880000D02*
X16862000Y-12880000D01*
X16802000Y-12850000D02*
X16802000Y-12910000D01*
X16862000Y-12910000D02*
G75*
G02*
X16802000Y-12910000I-30000J0D01*
G01*
X16862000Y-12910000D02*
X16862000Y-12850000D01*
X16862000Y-12850000D02*
G75*
G03*
X16802000Y-12850000I-30000J0D01*
G01*
X16422981Y-4522981D02*
X16422981Y-4477019D01*
X16377019Y-4477019D01*
X16377019Y-4522981D01*
X16422981Y-4522981D01*
X16422981Y-4649981D02*
X16422981Y-4604019D01*
X16377019Y-4604019D01*
X16377019Y-4649981D01*
X16422981Y-4649981D01*
X16422981Y-4776981D02*
X16422981Y-4731019D01*
X16377019Y-4731019D01*
X16377019Y-4776981D01*
X16422981Y-4776981D01*
X16422981Y-4903981D02*
X16422981Y-4858019D01*
X16377019Y-4858019D01*
X16377019Y-4903981D01*
X16422981Y-4903981D01*
X16422981Y-5030981D02*
X16422981Y-4985019D01*
X16377019Y-4985019D01*
X16377019Y-5030981D01*
X16422981Y-5030981D01*
X6400000Y-11774500D02*
X6444500Y-11730000D01*
X6400000Y-11685500D01*
X6355500Y-11730000D01*
X6400000Y-11774500D01*
X6654000Y-11774500D02*
X6698500Y-11730000D01*
X6654000Y-11685500D01*
X6609500Y-11730000D01*
X6654000Y-11774500D01*
X8400000Y-11774500D02*
X8444500Y-11730000D01*
X8400000Y-11685500D01*
X8355500Y-11730000D01*
X8400000Y-11774500D01*
X8654000Y-11774500D02*
X8698500Y-11730000D01*
X8654000Y-11685500D01*
X8609500Y-11730000D01*
X8654000Y-11774500D01*
X10400000Y-11774500D02*
X10444500Y-11730000D01*
X10400000Y-11685500D01*
X10355500Y-11730000D01*
X10400000Y-11774500D01*
X10654000Y-11774500D02*
X10698500Y-11730000D01*
X10654000Y-11685500D01*
X10609500Y-11730000D01*
X10654000Y-11774500D01*
D13*
X7845000Y-4191000D02*
X7955000Y-4301000D01*
X7955000Y-4191000D02*
X7845000Y-4301000D01*
X7955000Y-4246000D02*
G75*
G02*
X7845000Y-4246000I-55000J0D01*
G01*
X7845000Y-4246000D02*
G75*
G02*
X7955000Y-4246000I55000J0D01*
G01*
X7845000Y-4445000D02*
X7955000Y-4555000D01*
X7955000Y-4445000D02*
X7845000Y-4555000D01*
X7955000Y-4500000D02*
G75*
G02*
X7845000Y-4500000I-55000J0D01*
G01*
X7845000Y-4500000D02*
G75*
G02*
X7955000Y-4500000I55000J0D01*
G01*
X7845000Y-4991000D02*
X7955000Y-5101000D01*
X7955000Y-4991000D02*
X7845000Y-5101000D01*
X7955000Y-5046000D02*
G75*
G02*
X7845000Y-5046000I-55000J0D01*
G01*
X7845000Y-5046000D02*
G75*
G02*
X7955000Y-5046000I55000J0D01*
G01*
X7845000Y-5245000D02*
X7955000Y-5355000D01*
X7955000Y-5245000D02*
X7845000Y-5355000D01*
X7955000Y-5300000D02*
G75*
G02*
X7845000Y-5300000I-55000J0D01*
G01*
X7845000Y-5300000D02*
G75*
G02*
X7955000Y-5300000I55000J0D01*
G01*
X11845000Y-4445000D02*
X11955000Y-4555000D01*
X11955000Y-4445000D02*
X11845000Y-4555000D01*
X11955000Y-4500000D02*
G75*
G02*
X11845000Y-4500000I-55000J0D01*
G01*
X11845000Y-4500000D02*
G75*
G02*
X11955000Y-4500000I55000J0D01*
G01*
X11845000Y-4699000D02*
X11955000Y-4809000D01*
X11955000Y-4699000D02*
X11845000Y-4809000D01*
X11955000Y-4754000D02*
G75*
G02*
X11845000Y-4754000I-55000J0D01*
G01*
X11845000Y-4754000D02*
G75*
G02*
X11955000Y-4754000I55000J0D01*
G01*
X11845000Y-5245000D02*
X11955000Y-5355000D01*
X11955000Y-5245000D02*
X11845000Y-5355000D01*
X11955000Y-5300000D02*
G75*
G02*
X11845000Y-5300000I-55000J0D01*
G01*
X11845000Y-5300000D02*
G75*
G02*
X11955000Y-5300000I55000J0D01*
G01*
X11845000Y-5499000D02*
X11955000Y-5609000D01*
X11955000Y-5499000D02*
X11845000Y-5609000D01*
X11955000Y-5554000D02*
G75*
G02*
X11845000Y-5554000I-55000J0D01*
G01*
X11845000Y-5554000D02*
G75*
G02*
X11955000Y-5554000I55000J0D01*
G01*
D14*
X5791500Y-12137500D02*
X5992500Y-12338500D01*
X5992500Y-12137500D02*
X5791500Y-12338500D01*
X5892000Y-12137500D02*
X5892000Y-12338500D01*
X5791500Y-12238000D02*
X5992500Y-12238000D01*
X6807500Y-12137500D02*
X7008500Y-12338500D01*
X7008500Y-12137500D02*
X6807500Y-12338500D01*
X6908000Y-12137500D02*
X6908000Y-12338500D01*
X6807500Y-12238000D02*
X7008500Y-12238000D01*
X7791500Y-12137500D02*
X7992500Y-12338500D01*
X7992500Y-12137500D02*
X7791500Y-12338500D01*
X7892000Y-12137500D02*
X7892000Y-12338500D01*
X7791500Y-12238000D02*
X7992500Y-12238000D01*
X8807500Y-12137500D02*
X9008500Y-12338500D01*
X9008500Y-12137500D02*
X8807500Y-12338500D01*
X8908000Y-12137500D02*
X8908000Y-12338500D01*
X8807500Y-12238000D02*
X9008500Y-12238000D01*
X9791500Y-12137500D02*
X9992500Y-12338500D01*
X9992500Y-12137500D02*
X9791500Y-12338500D01*
X9892000Y-12137500D02*
X9892000Y-12338500D01*
X9791500Y-12238000D02*
X9992500Y-12238000D01*
X10807500Y-12137500D02*
X11008500Y-12338500D01*
X11008500Y-12137500D02*
X10807500Y-12338500D01*
X10908000Y-12137500D02*
X10908000Y-12338500D01*
X10807500Y-12238000D02*
X11008500Y-12238000D01*
D11*
X4253277Y-13458984D02*
X4253277Y-13258984D01*
X4253277Y-13258984D02*
X4300896Y-13258984D01*
X4300896Y-13258984D02*
X4329467Y-13268508D01*
X4329467Y-13268508D02*
X4348515Y-13287555D01*
X4348515Y-13287555D02*
X4358039Y-13306603D01*
X4358039Y-13306603D02*
X4367563Y-13344698D01*
X4367563Y-13344698D02*
X4367563Y-13373269D01*
X4367563Y-13373269D02*
X4358039Y-13411365D01*
X4358039Y-13411365D02*
X4348515Y-13430412D01*
X4348515Y-13430412D02*
X4329467Y-13449460D01*
X4329467Y-13449460D02*
X4300896Y-13458984D01*
X4300896Y-13458984D02*
X4253277Y-13458984D01*
X4453277Y-13458984D02*
X4453277Y-13325650D01*
X4453277Y-13363746D02*
X4462801Y-13344698D01*
X4462801Y-13344698D02*
X4472324Y-13335174D01*
X4472324Y-13335174D02*
X4491372Y-13325650D01*
X4491372Y-13325650D02*
X4510420Y-13325650D01*
X4577086Y-13458984D02*
X4577086Y-13325650D01*
X4577086Y-13258984D02*
X4567563Y-13268508D01*
X4567563Y-13268508D02*
X4577086Y-13278031D01*
X4577086Y-13278031D02*
X4586610Y-13268508D01*
X4586610Y-13268508D02*
X4577086Y-13258984D01*
X4577086Y-13258984D02*
X4577086Y-13278031D01*
X4700896Y-13458984D02*
X4681848Y-13449460D01*
X4681848Y-13449460D02*
X4672324Y-13430412D01*
X4672324Y-13430412D02*
X4672324Y-13258984D01*
X4805658Y-13458984D02*
X4786610Y-13449460D01*
X4786610Y-13449460D02*
X4777086Y-13430412D01*
X4777086Y-13430412D02*
X4777086Y-13258984D01*
X5034229Y-13458984D02*
X5034229Y-13258984D01*
X5034229Y-13258984D02*
X5100896Y-13401841D01*
X5100896Y-13401841D02*
X5167563Y-13258984D01*
X5167563Y-13258984D02*
X5167563Y-13458984D01*
X5348515Y-13458984D02*
X5348515Y-13354222D01*
X5348515Y-13354222D02*
X5338991Y-13335174D01*
X5338991Y-13335174D02*
X5319944Y-13325650D01*
X5319944Y-13325650D02*
X5281848Y-13325650D01*
X5281848Y-13325650D02*
X5262801Y-13335174D01*
X5348515Y-13449460D02*
X5329467Y-13458984D01*
X5329467Y-13458984D02*
X5281848Y-13458984D01*
X5281848Y-13458984D02*
X5262801Y-13449460D01*
X5262801Y-13449460D02*
X5253277Y-13430412D01*
X5253277Y-13430412D02*
X5253277Y-13411365D01*
X5253277Y-13411365D02*
X5262801Y-13392317D01*
X5262801Y-13392317D02*
X5281848Y-13382793D01*
X5281848Y-13382793D02*
X5329467Y-13382793D01*
X5329467Y-13382793D02*
X5348515Y-13373269D01*
X5443753Y-13325650D02*
X5443753Y-13525650D01*
X5443753Y-13335174D02*
X5462801Y-13325650D01*
X5462801Y-13325650D02*
X5500896Y-13325650D01*
X5500896Y-13325650D02*
X5519944Y-13335174D01*
X5519944Y-13335174D02*
X5529467Y-13344698D01*
X5529467Y-13344698D02*
X5538991Y-13363746D01*
X5538991Y-13363746D02*
X5538991Y-13420888D01*
X5538991Y-13420888D02*
X5529467Y-13439936D01*
X5529467Y-13439936D02*
X5519944Y-13449460D01*
X5519944Y-13449460D02*
X5500896Y-13458984D01*
X5500896Y-13458984D02*
X5462801Y-13458984D01*
X5462801Y-13458984D02*
X5443753Y-13449460D01*
X5624705Y-13439936D02*
X5634229Y-13449460D01*
X5634229Y-13449460D02*
X5624705Y-13458984D01*
X5624705Y-13458984D02*
X5615182Y-13449460D01*
X5615182Y-13449460D02*
X5624705Y-13439936D01*
X5624705Y-13439936D02*
X5624705Y-13458984D01*
X5624705Y-13335174D02*
X5634229Y-13344698D01*
X5634229Y-13344698D02*
X5624705Y-13354222D01*
X5624705Y-13354222D02*
X5615182Y-13344698D01*
X5615182Y-13344698D02*
X5624705Y-13335174D01*
X5624705Y-13335174D02*
X5624705Y-13354222D01*
D12*
X3967500Y-13775000D02*
X3992500Y-13800000D01*
X3992500Y-13775000D02*
X3967500Y-13800000D01*
D11*
X4291372Y-13678984D02*
X4310420Y-13678984D01*
X4310420Y-13678984D02*
X4329467Y-13688508D01*
X4329467Y-13688508D02*
X4338991Y-13698031D01*
X4338991Y-13698031D02*
X4348515Y-13717079D01*
X4348515Y-13717079D02*
X4358039Y-13755174D01*
X4358039Y-13755174D02*
X4358039Y-13802793D01*
X4358039Y-13802793D02*
X4348515Y-13840888D01*
X4348515Y-13840888D02*
X4338991Y-13859936D01*
X4338991Y-13859936D02*
X4329467Y-13869460D01*
X4329467Y-13869460D02*
X4310420Y-13878984D01*
X4310420Y-13878984D02*
X4291372Y-13878984D01*
X4291372Y-13878984D02*
X4272324Y-13869460D01*
X4272324Y-13869460D02*
X4262801Y-13859936D01*
X4262801Y-13859936D02*
X4253277Y-13840888D01*
X4253277Y-13840888D02*
X4243753Y-13802793D01*
X4243753Y-13802793D02*
X4243753Y-13755174D01*
X4243753Y-13755174D02*
X4253277Y-13717079D01*
X4253277Y-13717079D02*
X4262801Y-13698031D01*
X4262801Y-13698031D02*
X4272324Y-13688508D01*
X4272324Y-13688508D02*
X4291372Y-13678984D01*
X4443753Y-13859936D02*
X4453277Y-13869460D01*
X4453277Y-13869460D02*
X4443753Y-13878984D01*
X4443753Y-13878984D02*
X4434229Y-13869460D01*
X4434229Y-13869460D02*
X4443753Y-13859936D01*
X4443753Y-13859936D02*
X4443753Y-13878984D01*
X4529467Y-13698031D02*
X4538991Y-13688508D01*
X4538991Y-13688508D02*
X4558039Y-13678984D01*
X4558039Y-13678984D02*
X4605658Y-13678984D01*
X4605658Y-13678984D02*
X4624705Y-13688508D01*
X4624705Y-13688508D02*
X4634229Y-13698031D01*
X4634229Y-13698031D02*
X4643753Y-13717079D01*
X4643753Y-13717079D02*
X4643753Y-13736127D01*
X4643753Y-13736127D02*
X4634229Y-13764698D01*
X4634229Y-13764698D02*
X4519944Y-13878984D01*
X4519944Y-13878984D02*
X4643753Y-13878984D01*
X4824705Y-13678984D02*
X4729467Y-13678984D01*
X4729467Y-13678984D02*
X4719944Y-13774222D01*
X4719944Y-13774222D02*
X4729467Y-13764698D01*
X4729467Y-13764698D02*
X4748515Y-13755174D01*
X4748515Y-13755174D02*
X4796134Y-13755174D01*
X4796134Y-13755174D02*
X4815182Y-13764698D01*
X4815182Y-13764698D02*
X4824705Y-13774222D01*
X4824705Y-13774222D02*
X4834229Y-13793269D01*
X4834229Y-13793269D02*
X4834229Y-13840888D01*
X4834229Y-13840888D02*
X4824705Y-13859936D01*
X4824705Y-13859936D02*
X4815182Y-13869460D01*
X4815182Y-13869460D02*
X4796134Y-13878984D01*
X4796134Y-13878984D02*
X4748515Y-13878984D01*
X4748515Y-13878984D02*
X4729467Y-13869460D01*
X4729467Y-13869460D02*
X4719944Y-13859936D01*
X4958039Y-13678984D02*
X4977086Y-13678984D01*
X4977086Y-13678984D02*
X4996134Y-13688508D01*
X4996134Y-13688508D02*
X5005658Y-13698031D01*
X5005658Y-13698031D02*
X5015182Y-13717079D01*
X5015182Y-13717079D02*
X5024705Y-13755174D01*
X5024705Y-13755174D02*
X5024705Y-13802793D01*
X5024705Y-13802793D02*
X5015182Y-13840888D01*
X5015182Y-13840888D02*
X5005658Y-13859936D01*
X5005658Y-13859936D02*
X4996134Y-13869460D01*
X4996134Y-13869460D02*
X4977086Y-13878984D01*
X4977086Y-13878984D02*
X4958039Y-13878984D01*
X4958039Y-13878984D02*
X4938991Y-13869460D01*
X4938991Y-13869460D02*
X4929467Y-13859936D01*
X4929467Y-13859936D02*
X4919944Y-13840888D01*
X4919944Y-13840888D02*
X4910420Y-13802793D01*
X4910420Y-13802793D02*
X4910420Y-13755174D01*
X4910420Y-13755174D02*
X4919944Y-13717079D01*
X4919944Y-13717079D02*
X4929467Y-13698031D01*
X4929467Y-13698031D02*
X4938991Y-13688508D01*
X4938991Y-13688508D02*
X4958039Y-13678984D01*
X5110420Y-13878984D02*
X5110420Y-13745650D01*
X5110420Y-13764698D02*
X5119944Y-13755174D01*
X5119944Y-13755174D02*
X5138991Y-13745650D01*
X5138991Y-13745650D02*
X5167563Y-13745650D01*
X5167563Y-13745650D02*
X5186610Y-13755174D01*
X5186610Y-13755174D02*
X5196134Y-13774222D01*
X5196134Y-13774222D02*
X5196134Y-13878984D01*
X5196134Y-13774222D02*
X5205658Y-13755174D01*
X5205658Y-13755174D02*
X5224705Y-13745650D01*
X5224705Y-13745650D02*
X5253277Y-13745650D01*
X5253277Y-13745650D02*
X5272325Y-13755174D01*
X5272325Y-13755174D02*
X5281848Y-13774222D01*
X5281848Y-13774222D02*
X5281848Y-13878984D01*
X5377086Y-13878984D02*
X5377086Y-13745650D01*
X5377086Y-13764698D02*
X5386610Y-13755174D01*
X5386610Y-13755174D02*
X5405658Y-13745650D01*
X5405658Y-13745650D02*
X5434229Y-13745650D01*
X5434229Y-13745650D02*
X5453277Y-13755174D01*
X5453277Y-13755174D02*
X5462801Y-13774222D01*
X5462801Y-13774222D02*
X5462801Y-13878984D01*
X5462801Y-13774222D02*
X5472325Y-13755174D01*
X5472325Y-13755174D02*
X5491372Y-13745650D01*
X5491372Y-13745650D02*
X5519944Y-13745650D01*
X5519944Y-13745650D02*
X5538991Y-13755174D01*
X5538991Y-13755174D02*
X5548515Y-13774222D01*
X5548515Y-13774222D02*
X5548515Y-13878984D01*
X5938991Y-13669460D02*
X5767563Y-13926603D01*
X6196134Y-13678984D02*
X6215182Y-13678984D01*
X6215182Y-13678984D02*
X6234229Y-13688508D01*
X6234229Y-13688508D02*
X6243753Y-13698031D01*
X6243753Y-13698031D02*
X6253277Y-13717079D01*
X6253277Y-13717079D02*
X6262801Y-13755174D01*
X6262801Y-13755174D02*
X6262801Y-13802793D01*
X6262801Y-13802793D02*
X6253277Y-13840888D01*
X6253277Y-13840888D02*
X6243753Y-13859936D01*
X6243753Y-13859936D02*
X6234229Y-13869460D01*
X6234229Y-13869460D02*
X6215182Y-13878984D01*
X6215182Y-13878984D02*
X6196134Y-13878984D01*
X6196134Y-13878984D02*
X6177086Y-13869460D01*
X6177086Y-13869460D02*
X6167563Y-13859936D01*
X6167563Y-13859936D02*
X6158039Y-13840888D01*
X6158039Y-13840888D02*
X6148515Y-13802793D01*
X6148515Y-13802793D02*
X6148515Y-13755174D01*
X6148515Y-13755174D02*
X6158039Y-13717079D01*
X6158039Y-13717079D02*
X6167563Y-13698031D01*
X6167563Y-13698031D02*
X6177086Y-13688508D01*
X6177086Y-13688508D02*
X6196134Y-13678984D01*
X6348515Y-13859936D02*
X6358039Y-13869460D01*
X6358039Y-13869460D02*
X6348515Y-13878984D01*
X6348515Y-13878984D02*
X6338991Y-13869460D01*
X6338991Y-13869460D02*
X6348515Y-13859936D01*
X6348515Y-13859936D02*
X6348515Y-13878984D01*
X6481848Y-13678984D02*
X6500896Y-13678984D01*
X6500896Y-13678984D02*
X6519944Y-13688508D01*
X6519944Y-13688508D02*
X6529467Y-13698031D01*
X6529467Y-13698031D02*
X6538991Y-13717079D01*
X6538991Y-13717079D02*
X6548515Y-13755174D01*
X6548515Y-13755174D02*
X6548515Y-13802793D01*
X6548515Y-13802793D02*
X6538991Y-13840888D01*
X6538991Y-13840888D02*
X6529467Y-13859936D01*
X6529467Y-13859936D02*
X6519944Y-13869460D01*
X6519944Y-13869460D02*
X6500896Y-13878984D01*
X6500896Y-13878984D02*
X6481848Y-13878984D01*
X6481848Y-13878984D02*
X6462801Y-13869460D01*
X6462801Y-13869460D02*
X6453277Y-13859936D01*
X6453277Y-13859936D02*
X6443753Y-13840888D01*
X6443753Y-13840888D02*
X6434229Y-13802793D01*
X6434229Y-13802793D02*
X6434229Y-13755174D01*
X6434229Y-13755174D02*
X6443753Y-13717079D01*
X6443753Y-13717079D02*
X6453277Y-13698031D01*
X6453277Y-13698031D02*
X6462801Y-13688508D01*
X6462801Y-13688508D02*
X6481848Y-13678984D01*
X6672325Y-13678984D02*
X6691372Y-13678984D01*
X6691372Y-13678984D02*
X6710420Y-13688508D01*
X6710420Y-13688508D02*
X6719944Y-13698031D01*
X6719944Y-13698031D02*
X6729467Y-13717079D01*
X6729467Y-13717079D02*
X6738991Y-13755174D01*
X6738991Y-13755174D02*
X6738991Y-13802793D01*
X6738991Y-13802793D02*
X6729467Y-13840888D01*
X6729467Y-13840888D02*
X6719944Y-13859936D01*
X6719944Y-13859936D02*
X6710420Y-13869460D01*
X6710420Y-13869460D02*
X6691372Y-13878984D01*
X6691372Y-13878984D02*
X6672325Y-13878984D01*
X6672325Y-13878984D02*
X6653277Y-13869460D01*
X6653277Y-13869460D02*
X6643753Y-13859936D01*
X6643753Y-13859936D02*
X6634229Y-13840888D01*
X6634229Y-13840888D02*
X6624706Y-13802793D01*
X6624706Y-13802793D02*
X6624706Y-13755174D01*
X6624706Y-13755174D02*
X6634229Y-13717079D01*
X6634229Y-13717079D02*
X6643753Y-13698031D01*
X6643753Y-13698031D02*
X6653277Y-13688508D01*
X6653277Y-13688508D02*
X6672325Y-13678984D01*
X6834229Y-13878984D02*
X6872325Y-13878984D01*
X6872325Y-13878984D02*
X6891372Y-13869460D01*
X6891372Y-13869460D02*
X6900896Y-13859936D01*
X6900896Y-13859936D02*
X6919944Y-13831365D01*
X6919944Y-13831365D02*
X6929467Y-13793269D01*
X6929467Y-13793269D02*
X6929467Y-13717079D01*
X6929467Y-13717079D02*
X6919944Y-13698031D01*
X6919944Y-13698031D02*
X6910420Y-13688508D01*
X6910420Y-13688508D02*
X6891372Y-13678984D01*
X6891372Y-13678984D02*
X6853277Y-13678984D01*
X6853277Y-13678984D02*
X6834229Y-13688508D01*
X6834229Y-13688508D02*
X6824706Y-13698031D01*
X6824706Y-13698031D02*
X6815182Y-13717079D01*
X6815182Y-13717079D02*
X6815182Y-13764698D01*
X6815182Y-13764698D02*
X6824706Y-13783746D01*
X6824706Y-13783746D02*
X6834229Y-13793269D01*
X6834229Y-13793269D02*
X6853277Y-13802793D01*
X6853277Y-13802793D02*
X6891372Y-13802793D01*
X6891372Y-13802793D02*
X6910420Y-13793269D01*
X6910420Y-13793269D02*
X6919944Y-13783746D01*
X6919944Y-13783746D02*
X6929467Y-13764698D01*
X7043753Y-13764698D02*
X7024706Y-13755174D01*
X7024706Y-13755174D02*
X7015182Y-13745650D01*
X7015182Y-13745650D02*
X7005658Y-13726603D01*
X7005658Y-13726603D02*
X7005658Y-13717079D01*
X7005658Y-13717079D02*
X7015182Y-13698031D01*
X7015182Y-13698031D02*
X7024706Y-13688508D01*
X7024706Y-13688508D02*
X7043753Y-13678984D01*
X7043753Y-13678984D02*
X7081848Y-13678984D01*
X7081848Y-13678984D02*
X7100896Y-13688508D01*
X7100896Y-13688508D02*
X7110420Y-13698031D01*
X7110420Y-13698031D02*
X7119944Y-13717079D01*
X7119944Y-13717079D02*
X7119944Y-13726603D01*
X7119944Y-13726603D02*
X7110420Y-13745650D01*
X7110420Y-13745650D02*
X7100896Y-13755174D01*
X7100896Y-13755174D02*
X7081848Y-13764698D01*
X7081848Y-13764698D02*
X7043753Y-13764698D01*
X7043753Y-13764698D02*
X7024706Y-13774222D01*
X7024706Y-13774222D02*
X7015182Y-13783746D01*
X7015182Y-13783746D02*
X7005658Y-13802793D01*
X7005658Y-13802793D02*
X7005658Y-13840888D01*
X7005658Y-13840888D02*
X7015182Y-13859936D01*
X7015182Y-13859936D02*
X7024706Y-13869460D01*
X7024706Y-13869460D02*
X7043753Y-13878984D01*
X7043753Y-13878984D02*
X7081848Y-13878984D01*
X7081848Y-13878984D02*
X7100896Y-13869460D01*
X7100896Y-13869460D02*
X7110420Y-13859936D01*
X7110420Y-13859936D02*
X7119944Y-13840888D01*
X7119944Y-13840888D02*
X7119944Y-13802793D01*
X7119944Y-13802793D02*
X7110420Y-13783746D01*
X7110420Y-13783746D02*
X7100896Y-13774222D01*
X7100896Y-13774222D02*
X7081848Y-13764698D01*
X7196134Y-13678984D02*
X7196134Y-13717079D01*
X7272325Y-13678984D02*
X7272325Y-13717079D01*
X7567563Y-13955174D02*
X7558039Y-13945650D01*
X7558039Y-13945650D02*
X7538991Y-13917079D01*
X7538991Y-13917079D02*
X7529468Y-13898031D01*
X7529468Y-13898031D02*
X7519944Y-13869460D01*
X7519944Y-13869460D02*
X7510420Y-13821841D01*
X7510420Y-13821841D02*
X7510420Y-13783746D01*
X7510420Y-13783746D02*
X7519944Y-13736127D01*
X7519944Y-13736127D02*
X7529468Y-13707555D01*
X7529468Y-13707555D02*
X7538991Y-13688508D01*
X7538991Y-13688508D02*
X7558039Y-13659936D01*
X7558039Y-13659936D02*
X7567563Y-13650412D01*
X7748515Y-13878984D02*
X7634229Y-13878984D01*
X7691372Y-13878984D02*
X7691372Y-13678984D01*
X7691372Y-13678984D02*
X7672325Y-13707555D01*
X7672325Y-13707555D02*
X7653277Y-13726603D01*
X7653277Y-13726603D02*
X7634229Y-13736127D01*
X7938991Y-13878984D02*
X7824706Y-13878984D01*
X7881848Y-13878984D02*
X7881848Y-13678984D01*
X7881848Y-13678984D02*
X7862801Y-13707555D01*
X7862801Y-13707555D02*
X7843753Y-13726603D01*
X7843753Y-13726603D02*
X7824706Y-13736127D01*
X8015182Y-13698031D02*
X8024706Y-13688508D01*
X8024706Y-13688508D02*
X8043753Y-13678984D01*
X8043753Y-13678984D02*
X8091372Y-13678984D01*
X8091372Y-13678984D02*
X8110420Y-13688508D01*
X8110420Y-13688508D02*
X8119944Y-13698031D01*
X8119944Y-13698031D02*
X8129468Y-13717079D01*
X8129468Y-13717079D02*
X8129468Y-13736127D01*
X8129468Y-13736127D02*
X8119944Y-13764698D01*
X8119944Y-13764698D02*
X8005658Y-13878984D01*
X8005658Y-13878984D02*
X8129468Y-13878984D01*
X8367563Y-13878984D02*
X8367563Y-13678984D01*
X8453277Y-13878984D02*
X8453277Y-13774222D01*
X8453277Y-13774222D02*
X8443753Y-13755174D01*
X8443753Y-13755174D02*
X8424706Y-13745650D01*
X8424706Y-13745650D02*
X8396134Y-13745650D01*
X8396134Y-13745650D02*
X8377087Y-13755174D01*
X8377087Y-13755174D02*
X8367563Y-13764698D01*
X8577087Y-13878984D02*
X8558039Y-13869460D01*
X8558039Y-13869460D02*
X8548515Y-13859936D01*
X8548515Y-13859936D02*
X8538992Y-13840888D01*
X8538992Y-13840888D02*
X8538992Y-13783746D01*
X8538992Y-13783746D02*
X8548515Y-13764698D01*
X8548515Y-13764698D02*
X8558039Y-13755174D01*
X8558039Y-13755174D02*
X8577087Y-13745650D01*
X8577087Y-13745650D02*
X8605658Y-13745650D01*
X8605658Y-13745650D02*
X8624706Y-13755174D01*
X8624706Y-13755174D02*
X8634230Y-13764698D01*
X8634230Y-13764698D02*
X8643753Y-13783746D01*
X8643753Y-13783746D02*
X8643753Y-13840888D01*
X8643753Y-13840888D02*
X8634230Y-13859936D01*
X8634230Y-13859936D02*
X8624706Y-13869460D01*
X8624706Y-13869460D02*
X8605658Y-13878984D01*
X8605658Y-13878984D02*
X8577087Y-13878984D01*
X8758039Y-13878984D02*
X8738992Y-13869460D01*
X8738992Y-13869460D02*
X8729468Y-13850412D01*
X8729468Y-13850412D02*
X8729468Y-13678984D01*
X8910420Y-13869460D02*
X8891373Y-13878984D01*
X8891373Y-13878984D02*
X8853277Y-13878984D01*
X8853277Y-13878984D02*
X8834230Y-13869460D01*
X8834230Y-13869460D02*
X8824706Y-13850412D01*
X8824706Y-13850412D02*
X8824706Y-13774222D01*
X8824706Y-13774222D02*
X8834230Y-13755174D01*
X8834230Y-13755174D02*
X8853277Y-13745650D01*
X8853277Y-13745650D02*
X8891373Y-13745650D01*
X8891373Y-13745650D02*
X8910420Y-13755174D01*
X8910420Y-13755174D02*
X8919944Y-13774222D01*
X8919944Y-13774222D02*
X8919944Y-13793269D01*
X8919944Y-13793269D02*
X8824706Y-13812317D01*
X8996134Y-13869460D02*
X9015182Y-13878984D01*
X9015182Y-13878984D02*
X9053277Y-13878984D01*
X9053277Y-13878984D02*
X9072325Y-13869460D01*
X9072325Y-13869460D02*
X9081849Y-13850412D01*
X9081849Y-13850412D02*
X9081849Y-13840888D01*
X9081849Y-13840888D02*
X9072325Y-13821841D01*
X9072325Y-13821841D02*
X9053277Y-13812317D01*
X9053277Y-13812317D02*
X9024706Y-13812317D01*
X9024706Y-13812317D02*
X9005658Y-13802793D01*
X9005658Y-13802793D02*
X8996134Y-13783746D01*
X8996134Y-13783746D02*
X8996134Y-13774222D01*
X8996134Y-13774222D02*
X9005658Y-13755174D01*
X9005658Y-13755174D02*
X9024706Y-13745650D01*
X9024706Y-13745650D02*
X9053277Y-13745650D01*
X9053277Y-13745650D02*
X9072325Y-13755174D01*
X9148515Y-13955174D02*
X9158039Y-13945650D01*
X9158039Y-13945650D02*
X9177087Y-13917079D01*
X9177087Y-13917079D02*
X9186611Y-13898031D01*
X9186611Y-13898031D02*
X9196134Y-13869460D01*
X9196134Y-13869460D02*
X9205658Y-13821841D01*
X9205658Y-13821841D02*
X9205658Y-13783746D01*
X9205658Y-13783746D02*
X9196134Y-13736127D01*
X9196134Y-13736127D02*
X9186611Y-13707555D01*
X9186611Y-13707555D02*
X9177087Y-13688508D01*
X9177087Y-13688508D02*
X9158039Y-13659936D01*
X9158039Y-13659936D02*
X9148515Y-13650412D01*
D12*
X3992500Y-14051500D02*
G75*
G02*
X3962500Y-14051500I-15000J0D01*
G01*
X3962500Y-14051500D02*
G75*
G02*
X3992500Y-14051500I15000J0D01*
G01*
D11*
X4291372Y-13942984D02*
X4310420Y-13942984D01*
X4310420Y-13942984D02*
X4329467Y-13952508D01*
X4329467Y-13952508D02*
X4338991Y-13962031D01*
X4338991Y-13962031D02*
X4348515Y-13981079D01*
X4348515Y-13981079D02*
X4358039Y-14019174D01*
X4358039Y-14019174D02*
X4358039Y-14066793D01*
X4358039Y-14066793D02*
X4348515Y-14104888D01*
X4348515Y-14104888D02*
X4338991Y-14123936D01*
X4338991Y-14123936D02*
X4329467Y-14133460D01*
X4329467Y-14133460D02*
X4310420Y-14142984D01*
X4310420Y-14142984D02*
X4291372Y-14142984D01*
X4291372Y-14142984D02*
X4272324Y-14133460D01*
X4272324Y-14133460D02*
X4262801Y-14123936D01*
X4262801Y-14123936D02*
X4253277Y-14104888D01*
X4253277Y-14104888D02*
X4243753Y-14066793D01*
X4243753Y-14066793D02*
X4243753Y-14019174D01*
X4243753Y-14019174D02*
X4253277Y-13981079D01*
X4253277Y-13981079D02*
X4262801Y-13962031D01*
X4262801Y-13962031D02*
X4272324Y-13952508D01*
X4272324Y-13952508D02*
X4291372Y-13942984D01*
X4443753Y-14123936D02*
X4453277Y-14133460D01*
X4453277Y-14133460D02*
X4443753Y-14142984D01*
X4443753Y-14142984D02*
X4434229Y-14133460D01*
X4434229Y-14133460D02*
X4443753Y-14123936D01*
X4443753Y-14123936D02*
X4443753Y-14142984D01*
X4519944Y-13942984D02*
X4643753Y-13942984D01*
X4643753Y-13942984D02*
X4577086Y-14019174D01*
X4577086Y-14019174D02*
X4605658Y-14019174D01*
X4605658Y-14019174D02*
X4624705Y-14028698D01*
X4624705Y-14028698D02*
X4634229Y-14038222D01*
X4634229Y-14038222D02*
X4643753Y-14057269D01*
X4643753Y-14057269D02*
X4643753Y-14104888D01*
X4643753Y-14104888D02*
X4634229Y-14123936D01*
X4634229Y-14123936D02*
X4624705Y-14133460D01*
X4624705Y-14133460D02*
X4605658Y-14142984D01*
X4605658Y-14142984D02*
X4548515Y-14142984D01*
X4548515Y-14142984D02*
X4529467Y-14133460D01*
X4529467Y-14133460D02*
X4519944Y-14123936D01*
X4767563Y-13942984D02*
X4786610Y-13942984D01*
X4786610Y-13942984D02*
X4805658Y-13952508D01*
X4805658Y-13952508D02*
X4815182Y-13962031D01*
X4815182Y-13962031D02*
X4824705Y-13981079D01*
X4824705Y-13981079D02*
X4834229Y-14019174D01*
X4834229Y-14019174D02*
X4834229Y-14066793D01*
X4834229Y-14066793D02*
X4824705Y-14104888D01*
X4824705Y-14104888D02*
X4815182Y-14123936D01*
X4815182Y-14123936D02*
X4805658Y-14133460D01*
X4805658Y-14133460D02*
X4786610Y-14142984D01*
X4786610Y-14142984D02*
X4767563Y-14142984D01*
X4767563Y-14142984D02*
X4748515Y-14133460D01*
X4748515Y-14133460D02*
X4738991Y-14123936D01*
X4738991Y-14123936D02*
X4729467Y-14104888D01*
X4729467Y-14104888D02*
X4719944Y-14066793D01*
X4719944Y-14066793D02*
X4719944Y-14019174D01*
X4719944Y-14019174D02*
X4729467Y-13981079D01*
X4729467Y-13981079D02*
X4738991Y-13962031D01*
X4738991Y-13962031D02*
X4748515Y-13952508D01*
X4748515Y-13952508D02*
X4767563Y-13942984D01*
X4958039Y-13942984D02*
X4977086Y-13942984D01*
X4977086Y-13942984D02*
X4996134Y-13952508D01*
X4996134Y-13952508D02*
X5005658Y-13962031D01*
X5005658Y-13962031D02*
X5015182Y-13981079D01*
X5015182Y-13981079D02*
X5024705Y-14019174D01*
X5024705Y-14019174D02*
X5024705Y-14066793D01*
X5024705Y-14066793D02*
X5015182Y-14104888D01*
X5015182Y-14104888D02*
X5005658Y-14123936D01*
X5005658Y-14123936D02*
X4996134Y-14133460D01*
X4996134Y-14133460D02*
X4977086Y-14142984D01*
X4977086Y-14142984D02*
X4958039Y-14142984D01*
X4958039Y-14142984D02*
X4938991Y-14133460D01*
X4938991Y-14133460D02*
X4929467Y-14123936D01*
X4929467Y-14123936D02*
X4919944Y-14104888D01*
X4919944Y-14104888D02*
X4910420Y-14066793D01*
X4910420Y-14066793D02*
X4910420Y-14019174D01*
X4910420Y-14019174D02*
X4919944Y-13981079D01*
X4919944Y-13981079D02*
X4929467Y-13962031D01*
X4929467Y-13962031D02*
X4938991Y-13952508D01*
X4938991Y-13952508D02*
X4958039Y-13942984D01*
X5110420Y-14142984D02*
X5110420Y-14009650D01*
X5110420Y-14028698D02*
X5119944Y-14019174D01*
X5119944Y-14019174D02*
X5138991Y-14009650D01*
X5138991Y-14009650D02*
X5167563Y-14009650D01*
X5167563Y-14009650D02*
X5186610Y-14019174D01*
X5186610Y-14019174D02*
X5196134Y-14038222D01*
X5196134Y-14038222D02*
X5196134Y-14142984D01*
X5196134Y-14038222D02*
X5205658Y-14019174D01*
X5205658Y-14019174D02*
X5224705Y-14009650D01*
X5224705Y-14009650D02*
X5253277Y-14009650D01*
X5253277Y-14009650D02*
X5272325Y-14019174D01*
X5272325Y-14019174D02*
X5281848Y-14038222D01*
X5281848Y-14038222D02*
X5281848Y-14142984D01*
X5377086Y-14142984D02*
X5377086Y-14009650D01*
X5377086Y-14028698D02*
X5386610Y-14019174D01*
X5386610Y-14019174D02*
X5405658Y-14009650D01*
X5405658Y-14009650D02*
X5434229Y-14009650D01*
X5434229Y-14009650D02*
X5453277Y-14019174D01*
X5453277Y-14019174D02*
X5462801Y-14038222D01*
X5462801Y-14038222D02*
X5462801Y-14142984D01*
X5462801Y-14038222D02*
X5472325Y-14019174D01*
X5472325Y-14019174D02*
X5491372Y-14009650D01*
X5491372Y-14009650D02*
X5519944Y-14009650D01*
X5519944Y-14009650D02*
X5538991Y-14019174D01*
X5538991Y-14019174D02*
X5548515Y-14038222D01*
X5548515Y-14038222D02*
X5548515Y-14142984D01*
X5938991Y-13933460D02*
X5767563Y-14190603D01*
X6196134Y-13942984D02*
X6215182Y-13942984D01*
X6215182Y-13942984D02*
X6234229Y-13952508D01*
X6234229Y-13952508D02*
X6243753Y-13962031D01*
X6243753Y-13962031D02*
X6253277Y-13981079D01*
X6253277Y-13981079D02*
X6262801Y-14019174D01*
X6262801Y-14019174D02*
X6262801Y-14066793D01*
X6262801Y-14066793D02*
X6253277Y-14104888D01*
X6253277Y-14104888D02*
X6243753Y-14123936D01*
X6243753Y-14123936D02*
X6234229Y-14133460D01*
X6234229Y-14133460D02*
X6215182Y-14142984D01*
X6215182Y-14142984D02*
X6196134Y-14142984D01*
X6196134Y-14142984D02*
X6177086Y-14133460D01*
X6177086Y-14133460D02*
X6167563Y-14123936D01*
X6167563Y-14123936D02*
X6158039Y-14104888D01*
X6158039Y-14104888D02*
X6148515Y-14066793D01*
X6148515Y-14066793D02*
X6148515Y-14019174D01*
X6148515Y-14019174D02*
X6158039Y-13981079D01*
X6158039Y-13981079D02*
X6167563Y-13962031D01*
X6167563Y-13962031D02*
X6177086Y-13952508D01*
X6177086Y-13952508D02*
X6196134Y-13942984D01*
X6348515Y-14123936D02*
X6358039Y-14133460D01*
X6358039Y-14133460D02*
X6348515Y-14142984D01*
X6348515Y-14142984D02*
X6338991Y-14133460D01*
X6338991Y-14133460D02*
X6348515Y-14123936D01*
X6348515Y-14123936D02*
X6348515Y-14142984D01*
X6481848Y-13942984D02*
X6500896Y-13942984D01*
X6500896Y-13942984D02*
X6519944Y-13952508D01*
X6519944Y-13952508D02*
X6529467Y-13962031D01*
X6529467Y-13962031D02*
X6538991Y-13981079D01*
X6538991Y-13981079D02*
X6548515Y-14019174D01*
X6548515Y-14019174D02*
X6548515Y-14066793D01*
X6548515Y-14066793D02*
X6538991Y-14104888D01*
X6538991Y-14104888D02*
X6529467Y-14123936D01*
X6529467Y-14123936D02*
X6519944Y-14133460D01*
X6519944Y-14133460D02*
X6500896Y-14142984D01*
X6500896Y-14142984D02*
X6481848Y-14142984D01*
X6481848Y-14142984D02*
X6462801Y-14133460D01*
X6462801Y-14133460D02*
X6453277Y-14123936D01*
X6453277Y-14123936D02*
X6443753Y-14104888D01*
X6443753Y-14104888D02*
X6434229Y-14066793D01*
X6434229Y-14066793D02*
X6434229Y-14019174D01*
X6434229Y-14019174D02*
X6443753Y-13981079D01*
X6443753Y-13981079D02*
X6453277Y-13962031D01*
X6453277Y-13962031D02*
X6462801Y-13952508D01*
X6462801Y-13952508D02*
X6481848Y-13942984D01*
X6738991Y-14142984D02*
X6624706Y-14142984D01*
X6681848Y-14142984D02*
X6681848Y-13942984D01*
X6681848Y-13942984D02*
X6662801Y-13971555D01*
X6662801Y-13971555D02*
X6643753Y-13990603D01*
X6643753Y-13990603D02*
X6624706Y-14000127D01*
X6929467Y-14142984D02*
X6815182Y-14142984D01*
X6872325Y-14142984D02*
X6872325Y-13942984D01*
X6872325Y-13942984D02*
X6853277Y-13971555D01*
X6853277Y-13971555D02*
X6834229Y-13990603D01*
X6834229Y-13990603D02*
X6815182Y-14000127D01*
X7043753Y-14028698D02*
X7024706Y-14019174D01*
X7024706Y-14019174D02*
X7015182Y-14009650D01*
X7015182Y-14009650D02*
X7005658Y-13990603D01*
X7005658Y-13990603D02*
X7005658Y-13981079D01*
X7005658Y-13981079D02*
X7015182Y-13962031D01*
X7015182Y-13962031D02*
X7024706Y-13952508D01*
X7024706Y-13952508D02*
X7043753Y-13942984D01*
X7043753Y-13942984D02*
X7081848Y-13942984D01*
X7081848Y-13942984D02*
X7100896Y-13952508D01*
X7100896Y-13952508D02*
X7110420Y-13962031D01*
X7110420Y-13962031D02*
X7119944Y-13981079D01*
X7119944Y-13981079D02*
X7119944Y-13990603D01*
X7119944Y-13990603D02*
X7110420Y-14009650D01*
X7110420Y-14009650D02*
X7100896Y-14019174D01*
X7100896Y-14019174D02*
X7081848Y-14028698D01*
X7081848Y-14028698D02*
X7043753Y-14028698D01*
X7043753Y-14028698D02*
X7024706Y-14038222D01*
X7024706Y-14038222D02*
X7015182Y-14047746D01*
X7015182Y-14047746D02*
X7005658Y-14066793D01*
X7005658Y-14066793D02*
X7005658Y-14104888D01*
X7005658Y-14104888D02*
X7015182Y-14123936D01*
X7015182Y-14123936D02*
X7024706Y-14133460D01*
X7024706Y-14133460D02*
X7043753Y-14142984D01*
X7043753Y-14142984D02*
X7081848Y-14142984D01*
X7081848Y-14142984D02*
X7100896Y-14133460D01*
X7100896Y-14133460D02*
X7110420Y-14123936D01*
X7110420Y-14123936D02*
X7119944Y-14104888D01*
X7119944Y-14104888D02*
X7119944Y-14066793D01*
X7119944Y-14066793D02*
X7110420Y-14047746D01*
X7110420Y-14047746D02*
X7100896Y-14038222D01*
X7100896Y-14038222D02*
X7081848Y-14028698D01*
X7196134Y-13942984D02*
X7196134Y-13981079D01*
X7272325Y-13942984D02*
X7272325Y-13981079D01*
X7567563Y-14219174D02*
X7558039Y-14209650D01*
X7558039Y-14209650D02*
X7538991Y-14181079D01*
X7538991Y-14181079D02*
X7529468Y-14162031D01*
X7529468Y-14162031D02*
X7519944Y-14133460D01*
X7519944Y-14133460D02*
X7510420Y-14085841D01*
X7510420Y-14085841D02*
X7510420Y-14047746D01*
X7510420Y-14047746D02*
X7519944Y-14000127D01*
X7519944Y-14000127D02*
X7529468Y-13971555D01*
X7529468Y-13971555D02*
X7538991Y-13952508D01*
X7538991Y-13952508D02*
X7558039Y-13923936D01*
X7558039Y-13923936D02*
X7567563Y-13914412D01*
X7653277Y-14142984D02*
X7691372Y-14142984D01*
X7691372Y-14142984D02*
X7710420Y-14133460D01*
X7710420Y-14133460D02*
X7719944Y-14123936D01*
X7719944Y-14123936D02*
X7738991Y-14095365D01*
X7738991Y-14095365D02*
X7748515Y-14057269D01*
X7748515Y-14057269D02*
X7748515Y-13981079D01*
X7748515Y-13981079D02*
X7738991Y-13962031D01*
X7738991Y-13962031D02*
X7729468Y-13952508D01*
X7729468Y-13952508D02*
X7710420Y-13942984D01*
X7710420Y-13942984D02*
X7672325Y-13942984D01*
X7672325Y-13942984D02*
X7653277Y-13952508D01*
X7653277Y-13952508D02*
X7643753Y-13962031D01*
X7643753Y-13962031D02*
X7634229Y-13981079D01*
X7634229Y-13981079D02*
X7634229Y-14028698D01*
X7634229Y-14028698D02*
X7643753Y-14047746D01*
X7643753Y-14047746D02*
X7653277Y-14057269D01*
X7653277Y-14057269D02*
X7672325Y-14066793D01*
X7672325Y-14066793D02*
X7710420Y-14066793D01*
X7710420Y-14066793D02*
X7729468Y-14057269D01*
X7729468Y-14057269D02*
X7738991Y-14047746D01*
X7738991Y-14047746D02*
X7748515Y-14028698D01*
X7919944Y-14009650D02*
X7919944Y-14142984D01*
X7872325Y-13933460D02*
X7824706Y-14076317D01*
X7824706Y-14076317D02*
X7948515Y-14076317D01*
X8177087Y-14142984D02*
X8177087Y-13942984D01*
X8262801Y-14142984D02*
X8262801Y-14038222D01*
X8262801Y-14038222D02*
X8253277Y-14019174D01*
X8253277Y-14019174D02*
X8234230Y-14009650D01*
X8234230Y-14009650D02*
X8205658Y-14009650D01*
X8205658Y-14009650D02*
X8186610Y-14019174D01*
X8186610Y-14019174D02*
X8177087Y-14028698D01*
X8386610Y-14142984D02*
X8367563Y-14133460D01*
X8367563Y-14133460D02*
X8358039Y-14123936D01*
X8358039Y-14123936D02*
X8348515Y-14104888D01*
X8348515Y-14104888D02*
X8348515Y-14047746D01*
X8348515Y-14047746D02*
X8358039Y-14028698D01*
X8358039Y-14028698D02*
X8367563Y-14019174D01*
X8367563Y-14019174D02*
X8386610Y-14009650D01*
X8386610Y-14009650D02*
X8415182Y-14009650D01*
X8415182Y-14009650D02*
X8434230Y-14019174D01*
X8434230Y-14019174D02*
X8443753Y-14028698D01*
X8443753Y-14028698D02*
X8453277Y-14047746D01*
X8453277Y-14047746D02*
X8453277Y-14104888D01*
X8453277Y-14104888D02*
X8443753Y-14123936D01*
X8443753Y-14123936D02*
X8434230Y-14133460D01*
X8434230Y-14133460D02*
X8415182Y-14142984D01*
X8415182Y-14142984D02*
X8386610Y-14142984D01*
X8567563Y-14142984D02*
X8548515Y-14133460D01*
X8548515Y-14133460D02*
X8538992Y-14114412D01*
X8538992Y-14114412D02*
X8538992Y-13942984D01*
X8719944Y-14133460D02*
X8700896Y-14142984D01*
X8700896Y-14142984D02*
X8662801Y-14142984D01*
X8662801Y-14142984D02*
X8643753Y-14133460D01*
X8643753Y-14133460D02*
X8634230Y-14114412D01*
X8634230Y-14114412D02*
X8634230Y-14038222D01*
X8634230Y-14038222D02*
X8643753Y-14019174D01*
X8643753Y-14019174D02*
X8662801Y-14009650D01*
X8662801Y-14009650D02*
X8700896Y-14009650D01*
X8700896Y-14009650D02*
X8719944Y-14019174D01*
X8719944Y-14019174D02*
X8729468Y-14038222D01*
X8729468Y-14038222D02*
X8729468Y-14057269D01*
X8729468Y-14057269D02*
X8634230Y-14076317D01*
X8805658Y-14133460D02*
X8824706Y-14142984D01*
X8824706Y-14142984D02*
X8862801Y-14142984D01*
X8862801Y-14142984D02*
X8881849Y-14133460D01*
X8881849Y-14133460D02*
X8891373Y-14114412D01*
X8891373Y-14114412D02*
X8891373Y-14104888D01*
X8891373Y-14104888D02*
X8881849Y-14085841D01*
X8881849Y-14085841D02*
X8862801Y-14076317D01*
X8862801Y-14076317D02*
X8834230Y-14076317D01*
X8834230Y-14076317D02*
X8815182Y-14066793D01*
X8815182Y-14066793D02*
X8805658Y-14047746D01*
X8805658Y-14047746D02*
X8805658Y-14038222D01*
X8805658Y-14038222D02*
X8815182Y-14019174D01*
X8815182Y-14019174D02*
X8834230Y-14009650D01*
X8834230Y-14009650D02*
X8862801Y-14009650D01*
X8862801Y-14009650D02*
X8881849Y-14019174D01*
X8958039Y-14219174D02*
X8967563Y-14209650D01*
X8967563Y-14209650D02*
X8986611Y-14181079D01*
X8986611Y-14181079D02*
X8996134Y-14162031D01*
X8996134Y-14162031D02*
X9005658Y-14133460D01*
X9005658Y-14133460D02*
X9015182Y-14085841D01*
X9015182Y-14085841D02*
X9015182Y-14047746D01*
X9015182Y-14047746D02*
X9005658Y-14000127D01*
X9005658Y-14000127D02*
X8996134Y-13971555D01*
X8996134Y-13971555D02*
X8986611Y-13952508D01*
X8986611Y-13952508D02*
X8967563Y-13923936D01*
X8967563Y-13923936D02*
X8958039Y-13914412D01*
D12*
X3962500Y-14285500D02*
X3962500Y-14345500D01*
X3932500Y-14315500D02*
X3992500Y-14315500D01*
D11*
X4291372Y-14206984D02*
X4310420Y-14206984D01*
X4310420Y-14206984D02*
X4329467Y-14216508D01*
X4329467Y-14216508D02*
X4338991Y-14226031D01*
X4338991Y-14226031D02*
X4348515Y-14245079D01*
X4348515Y-14245079D02*
X4358039Y-14283174D01*
X4358039Y-14283174D02*
X4358039Y-14330793D01*
X4358039Y-14330793D02*
X4348515Y-14368888D01*
X4348515Y-14368888D02*
X4338991Y-14387936D01*
X4338991Y-14387936D02*
X4329467Y-14397460D01*
X4329467Y-14397460D02*
X4310420Y-14406984D01*
X4310420Y-14406984D02*
X4291372Y-14406984D01*
X4291372Y-14406984D02*
X4272324Y-14397460D01*
X4272324Y-14397460D02*
X4262801Y-14387936D01*
X4262801Y-14387936D02*
X4253277Y-14368888D01*
X4253277Y-14368888D02*
X4243753Y-14330793D01*
X4243753Y-14330793D02*
X4243753Y-14283174D01*
X4243753Y-14283174D02*
X4253277Y-14245079D01*
X4253277Y-14245079D02*
X4262801Y-14226031D01*
X4262801Y-14226031D02*
X4272324Y-14216508D01*
X4272324Y-14216508D02*
X4291372Y-14206984D01*
X4443753Y-14387936D02*
X4453277Y-14397460D01*
X4453277Y-14397460D02*
X4443753Y-14406984D01*
X4443753Y-14406984D02*
X4434229Y-14397460D01*
X4434229Y-14397460D02*
X4443753Y-14387936D01*
X4443753Y-14387936D02*
X4443753Y-14406984D01*
X4624705Y-14206984D02*
X4586610Y-14206984D01*
X4586610Y-14206984D02*
X4567563Y-14216508D01*
X4567563Y-14216508D02*
X4558039Y-14226031D01*
X4558039Y-14226031D02*
X4538991Y-14254603D01*
X4538991Y-14254603D02*
X4529467Y-14292698D01*
X4529467Y-14292698D02*
X4529467Y-14368888D01*
X4529467Y-14368888D02*
X4538991Y-14387936D01*
X4538991Y-14387936D02*
X4548515Y-14397460D01*
X4548515Y-14397460D02*
X4567563Y-14406984D01*
X4567563Y-14406984D02*
X4605658Y-14406984D01*
X4605658Y-14406984D02*
X4624705Y-14397460D01*
X4624705Y-14397460D02*
X4634229Y-14387936D01*
X4634229Y-14387936D02*
X4643753Y-14368888D01*
X4643753Y-14368888D02*
X4643753Y-14321269D01*
X4643753Y-14321269D02*
X4634229Y-14302222D01*
X4634229Y-14302222D02*
X4624705Y-14292698D01*
X4624705Y-14292698D02*
X4605658Y-14283174D01*
X4605658Y-14283174D02*
X4567563Y-14283174D01*
X4567563Y-14283174D02*
X4548515Y-14292698D01*
X4548515Y-14292698D02*
X4538991Y-14302222D01*
X4538991Y-14302222D02*
X4529467Y-14321269D01*
X4767563Y-14206984D02*
X4786610Y-14206984D01*
X4786610Y-14206984D02*
X4805658Y-14216508D01*
X4805658Y-14216508D02*
X4815182Y-14226031D01*
X4815182Y-14226031D02*
X4824705Y-14245079D01*
X4824705Y-14245079D02*
X4834229Y-14283174D01*
X4834229Y-14283174D02*
X4834229Y-14330793D01*
X4834229Y-14330793D02*
X4824705Y-14368888D01*
X4824705Y-14368888D02*
X4815182Y-14387936D01*
X4815182Y-14387936D02*
X4805658Y-14397460D01*
X4805658Y-14397460D02*
X4786610Y-14406984D01*
X4786610Y-14406984D02*
X4767563Y-14406984D01*
X4767563Y-14406984D02*
X4748515Y-14397460D01*
X4748515Y-14397460D02*
X4738991Y-14387936D01*
X4738991Y-14387936D02*
X4729467Y-14368888D01*
X4729467Y-14368888D02*
X4719944Y-14330793D01*
X4719944Y-14330793D02*
X4719944Y-14283174D01*
X4719944Y-14283174D02*
X4729467Y-14245079D01*
X4729467Y-14245079D02*
X4738991Y-14226031D01*
X4738991Y-14226031D02*
X4748515Y-14216508D01*
X4748515Y-14216508D02*
X4767563Y-14206984D01*
X4958039Y-14206984D02*
X4977086Y-14206984D01*
X4977086Y-14206984D02*
X4996134Y-14216508D01*
X4996134Y-14216508D02*
X5005658Y-14226031D01*
X5005658Y-14226031D02*
X5015182Y-14245079D01*
X5015182Y-14245079D02*
X5024705Y-14283174D01*
X5024705Y-14283174D02*
X5024705Y-14330793D01*
X5024705Y-14330793D02*
X5015182Y-14368888D01*
X5015182Y-14368888D02*
X5005658Y-14387936D01*
X5005658Y-14387936D02*
X4996134Y-14397460D01*
X4996134Y-14397460D02*
X4977086Y-14406984D01*
X4977086Y-14406984D02*
X4958039Y-14406984D01*
X4958039Y-14406984D02*
X4938991Y-14397460D01*
X4938991Y-14397460D02*
X4929467Y-14387936D01*
X4929467Y-14387936D02*
X4919944Y-14368888D01*
X4919944Y-14368888D02*
X4910420Y-14330793D01*
X4910420Y-14330793D02*
X4910420Y-14283174D01*
X4910420Y-14283174D02*
X4919944Y-14245079D01*
X4919944Y-14245079D02*
X4929467Y-14226031D01*
X4929467Y-14226031D02*
X4938991Y-14216508D01*
X4938991Y-14216508D02*
X4958039Y-14206984D01*
X5110420Y-14406984D02*
X5110420Y-14273650D01*
X5110420Y-14292698D02*
X5119944Y-14283174D01*
X5119944Y-14283174D02*
X5138991Y-14273650D01*
X5138991Y-14273650D02*
X5167563Y-14273650D01*
X5167563Y-14273650D02*
X5186610Y-14283174D01*
X5186610Y-14283174D02*
X5196134Y-14302222D01*
X5196134Y-14302222D02*
X5196134Y-14406984D01*
X5196134Y-14302222D02*
X5205658Y-14283174D01*
X5205658Y-14283174D02*
X5224705Y-14273650D01*
X5224705Y-14273650D02*
X5253277Y-14273650D01*
X5253277Y-14273650D02*
X5272325Y-14283174D01*
X5272325Y-14283174D02*
X5281848Y-14302222D01*
X5281848Y-14302222D02*
X5281848Y-14406984D01*
X5377086Y-14406984D02*
X5377086Y-14273650D01*
X5377086Y-14292698D02*
X5386610Y-14283174D01*
X5386610Y-14283174D02*
X5405658Y-14273650D01*
X5405658Y-14273650D02*
X5434229Y-14273650D01*
X5434229Y-14273650D02*
X5453277Y-14283174D01*
X5453277Y-14283174D02*
X5462801Y-14302222D01*
X5462801Y-14302222D02*
X5462801Y-14406984D01*
X5462801Y-14302222D02*
X5472325Y-14283174D01*
X5472325Y-14283174D02*
X5491372Y-14273650D01*
X5491372Y-14273650D02*
X5519944Y-14273650D01*
X5519944Y-14273650D02*
X5538991Y-14283174D01*
X5538991Y-14283174D02*
X5548515Y-14302222D01*
X5548515Y-14302222D02*
X5548515Y-14406984D01*
X5938991Y-14197460D02*
X5767563Y-14454603D01*
X6196134Y-14206984D02*
X6215182Y-14206984D01*
X6215182Y-14206984D02*
X6234229Y-14216508D01*
X6234229Y-14216508D02*
X6243753Y-14226031D01*
X6243753Y-14226031D02*
X6253277Y-14245079D01*
X6253277Y-14245079D02*
X6262801Y-14283174D01*
X6262801Y-14283174D02*
X6262801Y-14330793D01*
X6262801Y-14330793D02*
X6253277Y-14368888D01*
X6253277Y-14368888D02*
X6243753Y-14387936D01*
X6243753Y-14387936D02*
X6234229Y-14397460D01*
X6234229Y-14397460D02*
X6215182Y-14406984D01*
X6215182Y-14406984D02*
X6196134Y-14406984D01*
X6196134Y-14406984D02*
X6177086Y-14397460D01*
X6177086Y-14397460D02*
X6167563Y-14387936D01*
X6167563Y-14387936D02*
X6158039Y-14368888D01*
X6158039Y-14368888D02*
X6148515Y-14330793D01*
X6148515Y-14330793D02*
X6148515Y-14283174D01*
X6148515Y-14283174D02*
X6158039Y-14245079D01*
X6158039Y-14245079D02*
X6167563Y-14226031D01*
X6167563Y-14226031D02*
X6177086Y-14216508D01*
X6177086Y-14216508D02*
X6196134Y-14206984D01*
X6348515Y-14387936D02*
X6358039Y-14397460D01*
X6358039Y-14397460D02*
X6348515Y-14406984D01*
X6348515Y-14406984D02*
X6338991Y-14397460D01*
X6338991Y-14397460D02*
X6348515Y-14387936D01*
X6348515Y-14387936D02*
X6348515Y-14406984D01*
X6481848Y-14206984D02*
X6500896Y-14206984D01*
X6500896Y-14206984D02*
X6519944Y-14216508D01*
X6519944Y-14216508D02*
X6529467Y-14226031D01*
X6529467Y-14226031D02*
X6538991Y-14245079D01*
X6538991Y-14245079D02*
X6548515Y-14283174D01*
X6548515Y-14283174D02*
X6548515Y-14330793D01*
X6548515Y-14330793D02*
X6538991Y-14368888D01*
X6538991Y-14368888D02*
X6529467Y-14387936D01*
X6529467Y-14387936D02*
X6519944Y-14397460D01*
X6519944Y-14397460D02*
X6500896Y-14406984D01*
X6500896Y-14406984D02*
X6481848Y-14406984D01*
X6481848Y-14406984D02*
X6462801Y-14397460D01*
X6462801Y-14397460D02*
X6453277Y-14387936D01*
X6453277Y-14387936D02*
X6443753Y-14368888D01*
X6443753Y-14368888D02*
X6434229Y-14330793D01*
X6434229Y-14330793D02*
X6434229Y-14283174D01*
X6434229Y-14283174D02*
X6443753Y-14245079D01*
X6443753Y-14245079D02*
X6453277Y-14226031D01*
X6453277Y-14226031D02*
X6462801Y-14216508D01*
X6462801Y-14216508D02*
X6481848Y-14206984D01*
X6624706Y-14226031D02*
X6634229Y-14216508D01*
X6634229Y-14216508D02*
X6653277Y-14206984D01*
X6653277Y-14206984D02*
X6700896Y-14206984D01*
X6700896Y-14206984D02*
X6719944Y-14216508D01*
X6719944Y-14216508D02*
X6729467Y-14226031D01*
X6729467Y-14226031D02*
X6738991Y-14245079D01*
X6738991Y-14245079D02*
X6738991Y-14264127D01*
X6738991Y-14264127D02*
X6729467Y-14292698D01*
X6729467Y-14292698D02*
X6615182Y-14406984D01*
X6615182Y-14406984D02*
X6738991Y-14406984D01*
X6805658Y-14206984D02*
X6929467Y-14206984D01*
X6929467Y-14206984D02*
X6862801Y-14283174D01*
X6862801Y-14283174D02*
X6891372Y-14283174D01*
X6891372Y-14283174D02*
X6910420Y-14292698D01*
X6910420Y-14292698D02*
X6919944Y-14302222D01*
X6919944Y-14302222D02*
X6929467Y-14321269D01*
X6929467Y-14321269D02*
X6929467Y-14368888D01*
X6929467Y-14368888D02*
X6919944Y-14387936D01*
X6919944Y-14387936D02*
X6910420Y-14397460D01*
X6910420Y-14397460D02*
X6891372Y-14406984D01*
X6891372Y-14406984D02*
X6834229Y-14406984D01*
X6834229Y-14406984D02*
X6815182Y-14397460D01*
X6815182Y-14397460D02*
X6805658Y-14387936D01*
X7100896Y-14206984D02*
X7062801Y-14206984D01*
X7062801Y-14206984D02*
X7043753Y-14216508D01*
X7043753Y-14216508D02*
X7034229Y-14226031D01*
X7034229Y-14226031D02*
X7015182Y-14254603D01*
X7015182Y-14254603D02*
X7005658Y-14292698D01*
X7005658Y-14292698D02*
X7005658Y-14368888D01*
X7005658Y-14368888D02*
X7015182Y-14387936D01*
X7015182Y-14387936D02*
X7024706Y-14397460D01*
X7024706Y-14397460D02*
X7043753Y-14406984D01*
X7043753Y-14406984D02*
X7081848Y-14406984D01*
X7081848Y-14406984D02*
X7100896Y-14397460D01*
X7100896Y-14397460D02*
X7110420Y-14387936D01*
X7110420Y-14387936D02*
X7119944Y-14368888D01*
X7119944Y-14368888D02*
X7119944Y-14321269D01*
X7119944Y-14321269D02*
X7110420Y-14302222D01*
X7110420Y-14302222D02*
X7100896Y-14292698D01*
X7100896Y-14292698D02*
X7081848Y-14283174D01*
X7081848Y-14283174D02*
X7043753Y-14283174D01*
X7043753Y-14283174D02*
X7024706Y-14292698D01*
X7024706Y-14292698D02*
X7015182Y-14302222D01*
X7015182Y-14302222D02*
X7005658Y-14321269D01*
X7196134Y-14206984D02*
X7196134Y-14245079D01*
X7272325Y-14206984D02*
X7272325Y-14245079D01*
X7567563Y-14483174D02*
X7558039Y-14473650D01*
X7558039Y-14473650D02*
X7538991Y-14445079D01*
X7538991Y-14445079D02*
X7529468Y-14426031D01*
X7529468Y-14426031D02*
X7519944Y-14397460D01*
X7519944Y-14397460D02*
X7510420Y-14349841D01*
X7510420Y-14349841D02*
X7510420Y-14311746D01*
X7510420Y-14311746D02*
X7519944Y-14264127D01*
X7519944Y-14264127D02*
X7529468Y-14235555D01*
X7529468Y-14235555D02*
X7538991Y-14216508D01*
X7538991Y-14216508D02*
X7558039Y-14187936D01*
X7558039Y-14187936D02*
X7567563Y-14178412D01*
X7681848Y-14206984D02*
X7700896Y-14206984D01*
X7700896Y-14206984D02*
X7719944Y-14216508D01*
X7719944Y-14216508D02*
X7729468Y-14226031D01*
X7729468Y-14226031D02*
X7738991Y-14245079D01*
X7738991Y-14245079D02*
X7748515Y-14283174D01*
X7748515Y-14283174D02*
X7748515Y-14330793D01*
X7748515Y-14330793D02*
X7738991Y-14368888D01*
X7738991Y-14368888D02*
X7729468Y-14387936D01*
X7729468Y-14387936D02*
X7719944Y-14397460D01*
X7719944Y-14397460D02*
X7700896Y-14406984D01*
X7700896Y-14406984D02*
X7681848Y-14406984D01*
X7681848Y-14406984D02*
X7662801Y-14397460D01*
X7662801Y-14397460D02*
X7653277Y-14387936D01*
X7653277Y-14387936D02*
X7643753Y-14368888D01*
X7643753Y-14368888D02*
X7634229Y-14330793D01*
X7634229Y-14330793D02*
X7634229Y-14283174D01*
X7634229Y-14283174D02*
X7643753Y-14245079D01*
X7643753Y-14245079D02*
X7653277Y-14226031D01*
X7653277Y-14226031D02*
X7662801Y-14216508D01*
X7662801Y-14216508D02*
X7681848Y-14206984D01*
X7986610Y-14406984D02*
X7986610Y-14206984D01*
X8072325Y-14406984D02*
X8072325Y-14302222D01*
X8072325Y-14302222D02*
X8062801Y-14283174D01*
X8062801Y-14283174D02*
X8043753Y-14273650D01*
X8043753Y-14273650D02*
X8015182Y-14273650D01*
X8015182Y-14273650D02*
X7996134Y-14283174D01*
X7996134Y-14283174D02*
X7986610Y-14292698D01*
X8196134Y-14406984D02*
X8177087Y-14397460D01*
X8177087Y-14397460D02*
X8167563Y-14387936D01*
X8167563Y-14387936D02*
X8158039Y-14368888D01*
X8158039Y-14368888D02*
X8158039Y-14311746D01*
X8158039Y-14311746D02*
X8167563Y-14292698D01*
X8167563Y-14292698D02*
X8177087Y-14283174D01*
X8177087Y-14283174D02*
X8196134Y-14273650D01*
X8196134Y-14273650D02*
X8224706Y-14273650D01*
X8224706Y-14273650D02*
X8243753Y-14283174D01*
X8243753Y-14283174D02*
X8253277Y-14292698D01*
X8253277Y-14292698D02*
X8262801Y-14311746D01*
X8262801Y-14311746D02*
X8262801Y-14368888D01*
X8262801Y-14368888D02*
X8253277Y-14387936D01*
X8253277Y-14387936D02*
X8243753Y-14397460D01*
X8243753Y-14397460D02*
X8224706Y-14406984D01*
X8224706Y-14406984D02*
X8196134Y-14406984D01*
X8377087Y-14406984D02*
X8358039Y-14397460D01*
X8358039Y-14397460D02*
X8348515Y-14378412D01*
X8348515Y-14378412D02*
X8348515Y-14206984D01*
X8529468Y-14397460D02*
X8510420Y-14406984D01*
X8510420Y-14406984D02*
X8472325Y-14406984D01*
X8472325Y-14406984D02*
X8453277Y-14397460D01*
X8453277Y-14397460D02*
X8443753Y-14378412D01*
X8443753Y-14378412D02*
X8443753Y-14302222D01*
X8443753Y-14302222D02*
X8453277Y-14283174D01*
X8453277Y-14283174D02*
X8472325Y-14273650D01*
X8472325Y-14273650D02*
X8510420Y-14273650D01*
X8510420Y-14273650D02*
X8529468Y-14283174D01*
X8529468Y-14283174D02*
X8538992Y-14302222D01*
X8538992Y-14302222D02*
X8538992Y-14321269D01*
X8538992Y-14321269D02*
X8443753Y-14340317D01*
X8615182Y-14397460D02*
X8634230Y-14406984D01*
X8634230Y-14406984D02*
X8672325Y-14406984D01*
X8672325Y-14406984D02*
X8691373Y-14397460D01*
X8691373Y-14397460D02*
X8700896Y-14378412D01*
X8700896Y-14378412D02*
X8700896Y-14368888D01*
X8700896Y-14368888D02*
X8691373Y-14349841D01*
X8691373Y-14349841D02*
X8672325Y-14340317D01*
X8672325Y-14340317D02*
X8643753Y-14340317D01*
X8643753Y-14340317D02*
X8624706Y-14330793D01*
X8624706Y-14330793D02*
X8615182Y-14311746D01*
X8615182Y-14311746D02*
X8615182Y-14302222D01*
X8615182Y-14302222D02*
X8624706Y-14283174D01*
X8624706Y-14283174D02*
X8643753Y-14273650D01*
X8643753Y-14273650D02*
X8672325Y-14273650D01*
X8672325Y-14273650D02*
X8691373Y-14283174D01*
X8938992Y-14330793D02*
X9091373Y-14330793D01*
X9015182Y-14406984D02*
X9015182Y-14254603D01*
X9424706Y-14273650D02*
X9424706Y-14406984D01*
X9377087Y-14197460D02*
X9329468Y-14340317D01*
X9329468Y-14340317D02*
X9453277Y-14340317D01*
X9672325Y-14397460D02*
X9691373Y-14406984D01*
X9691373Y-14406984D02*
X9729468Y-14406984D01*
X9729468Y-14406984D02*
X9748516Y-14397460D01*
X9748516Y-14397460D02*
X9758039Y-14378412D01*
X9758039Y-14378412D02*
X9758039Y-14368888D01*
X9758039Y-14368888D02*
X9748516Y-14349841D01*
X9748516Y-14349841D02*
X9729468Y-14340317D01*
X9729468Y-14340317D02*
X9700896Y-14340317D01*
X9700896Y-14340317D02*
X9681849Y-14330793D01*
X9681849Y-14330793D02*
X9672325Y-14311746D01*
X9672325Y-14311746D02*
X9672325Y-14302222D01*
X9672325Y-14302222D02*
X9681849Y-14283174D01*
X9681849Y-14283174D02*
X9700896Y-14273650D01*
X9700896Y-14273650D02*
X9729468Y-14273650D01*
X9729468Y-14273650D02*
X9748516Y-14283174D01*
X9872325Y-14406984D02*
X9853277Y-14397460D01*
X9853277Y-14397460D02*
X9843754Y-14378412D01*
X9843754Y-14378412D02*
X9843754Y-14206984D01*
X9977087Y-14406984D02*
X9958039Y-14397460D01*
X9958039Y-14397460D02*
X9948516Y-14387936D01*
X9948516Y-14387936D02*
X9938992Y-14368888D01*
X9938992Y-14368888D02*
X9938992Y-14311746D01*
X9938992Y-14311746D02*
X9948516Y-14292698D01*
X9948516Y-14292698D02*
X9958039Y-14283174D01*
X9958039Y-14283174D02*
X9977087Y-14273650D01*
X9977087Y-14273650D02*
X10005658Y-14273650D01*
X10005658Y-14273650D02*
X10024706Y-14283174D01*
X10024706Y-14283174D02*
X10034230Y-14292698D01*
X10034230Y-14292698D02*
X10043754Y-14311746D01*
X10043754Y-14311746D02*
X10043754Y-14368888D01*
X10043754Y-14368888D02*
X10034230Y-14387936D01*
X10034230Y-14387936D02*
X10024706Y-14397460D01*
X10024706Y-14397460D02*
X10005658Y-14406984D01*
X10005658Y-14406984D02*
X9977087Y-14406984D01*
X10100897Y-14273650D02*
X10177087Y-14273650D01*
X10129468Y-14206984D02*
X10129468Y-14378412D01*
X10129468Y-14378412D02*
X10138992Y-14397460D01*
X10138992Y-14397460D02*
X10158039Y-14406984D01*
X10158039Y-14406984D02*
X10177087Y-14406984D01*
X10234230Y-14397460D02*
X10253277Y-14406984D01*
X10253277Y-14406984D02*
X10291373Y-14406984D01*
X10291373Y-14406984D02*
X10310420Y-14397460D01*
X10310420Y-14397460D02*
X10319944Y-14378412D01*
X10319944Y-14378412D02*
X10319944Y-14368888D01*
X10319944Y-14368888D02*
X10310420Y-14349841D01*
X10310420Y-14349841D02*
X10291373Y-14340317D01*
X10291373Y-14340317D02*
X10262801Y-14340317D01*
X10262801Y-14340317D02*
X10243754Y-14330793D01*
X10243754Y-14330793D02*
X10234230Y-14311746D01*
X10234230Y-14311746D02*
X10234230Y-14302222D01*
X10234230Y-14302222D02*
X10243754Y-14283174D01*
X10243754Y-14283174D02*
X10262801Y-14273650D01*
X10262801Y-14273650D02*
X10291373Y-14273650D01*
X10291373Y-14273650D02*
X10310420Y-14283174D01*
X10386611Y-14483174D02*
X10396135Y-14473650D01*
X10396135Y-14473650D02*
X10415182Y-14445079D01*
X10415182Y-14445079D02*
X10424706Y-14426031D01*
X10424706Y-14426031D02*
X10434230Y-14397460D01*
X10434230Y-14397460D02*
X10443754Y-14349841D01*
X10443754Y-14349841D02*
X10443754Y-14311746D01*
X10443754Y-14311746D02*
X10434230Y-14264127D01*
X10434230Y-14264127D02*
X10424706Y-14235555D01*
X10424706Y-14235555D02*
X10415182Y-14216508D01*
X10415182Y-14216508D02*
X10396135Y-14187936D01*
X10396135Y-14187936D02*
X10386611Y-14178412D01*
D12*
X3982981Y-14602481D02*
X3982981Y-14556519D01*
X3937019Y-14556519D01*
X3937019Y-14602481D01*
X3982981Y-14602481D01*
D11*
X4291372Y-14470984D02*
X4310420Y-14470984D01*
X4310420Y-14470984D02*
X4329467Y-14480508D01*
X4329467Y-14480508D02*
X4338991Y-14490031D01*
X4338991Y-14490031D02*
X4348515Y-14509079D01*
X4348515Y-14509079D02*
X4358039Y-14547174D01*
X4358039Y-14547174D02*
X4358039Y-14594793D01*
X4358039Y-14594793D02*
X4348515Y-14632888D01*
X4348515Y-14632888D02*
X4338991Y-14651936D01*
X4338991Y-14651936D02*
X4329467Y-14661460D01*
X4329467Y-14661460D02*
X4310420Y-14670984D01*
X4310420Y-14670984D02*
X4291372Y-14670984D01*
X4291372Y-14670984D02*
X4272324Y-14661460D01*
X4272324Y-14661460D02*
X4262801Y-14651936D01*
X4262801Y-14651936D02*
X4253277Y-14632888D01*
X4253277Y-14632888D02*
X4243753Y-14594793D01*
X4243753Y-14594793D02*
X4243753Y-14547174D01*
X4243753Y-14547174D02*
X4253277Y-14509079D01*
X4253277Y-14509079D02*
X4262801Y-14490031D01*
X4262801Y-14490031D02*
X4272324Y-14480508D01*
X4272324Y-14480508D02*
X4291372Y-14470984D01*
X4443753Y-14651936D02*
X4453277Y-14661460D01*
X4453277Y-14661460D02*
X4443753Y-14670984D01*
X4443753Y-14670984D02*
X4434229Y-14661460D01*
X4434229Y-14661460D02*
X4443753Y-14651936D01*
X4443753Y-14651936D02*
X4443753Y-14670984D01*
X4624705Y-14470984D02*
X4586610Y-14470984D01*
X4586610Y-14470984D02*
X4567563Y-14480508D01*
X4567563Y-14480508D02*
X4558039Y-14490031D01*
X4558039Y-14490031D02*
X4538991Y-14518603D01*
X4538991Y-14518603D02*
X4529467Y-14556698D01*
X4529467Y-14556698D02*
X4529467Y-14632888D01*
X4529467Y-14632888D02*
X4538991Y-14651936D01*
X4538991Y-14651936D02*
X4548515Y-14661460D01*
X4548515Y-14661460D02*
X4567563Y-14670984D01*
X4567563Y-14670984D02*
X4605658Y-14670984D01*
X4605658Y-14670984D02*
X4624705Y-14661460D01*
X4624705Y-14661460D02*
X4634229Y-14651936D01*
X4634229Y-14651936D02*
X4643753Y-14632888D01*
X4643753Y-14632888D02*
X4643753Y-14585269D01*
X4643753Y-14585269D02*
X4634229Y-14566222D01*
X4634229Y-14566222D02*
X4624705Y-14556698D01*
X4624705Y-14556698D02*
X4605658Y-14547174D01*
X4605658Y-14547174D02*
X4567563Y-14547174D01*
X4567563Y-14547174D02*
X4548515Y-14556698D01*
X4548515Y-14556698D02*
X4538991Y-14566222D01*
X4538991Y-14566222D02*
X4529467Y-14585269D01*
X4824705Y-14470984D02*
X4729467Y-14470984D01*
X4729467Y-14470984D02*
X4719944Y-14566222D01*
X4719944Y-14566222D02*
X4729467Y-14556698D01*
X4729467Y-14556698D02*
X4748515Y-14547174D01*
X4748515Y-14547174D02*
X4796134Y-14547174D01*
X4796134Y-14547174D02*
X4815182Y-14556698D01*
X4815182Y-14556698D02*
X4824705Y-14566222D01*
X4824705Y-14566222D02*
X4834229Y-14585269D01*
X4834229Y-14585269D02*
X4834229Y-14632888D01*
X4834229Y-14632888D02*
X4824705Y-14651936D01*
X4824705Y-14651936D02*
X4815182Y-14661460D01*
X4815182Y-14661460D02*
X4796134Y-14670984D01*
X4796134Y-14670984D02*
X4748515Y-14670984D01*
X4748515Y-14670984D02*
X4729467Y-14661460D01*
X4729467Y-14661460D02*
X4719944Y-14651936D01*
X4958039Y-14470984D02*
X4977086Y-14470984D01*
X4977086Y-14470984D02*
X4996134Y-14480508D01*
X4996134Y-14480508D02*
X5005658Y-14490031D01*
X5005658Y-14490031D02*
X5015182Y-14509079D01*
X5015182Y-14509079D02*
X5024705Y-14547174D01*
X5024705Y-14547174D02*
X5024705Y-14594793D01*
X5024705Y-14594793D02*
X5015182Y-14632888D01*
X5015182Y-14632888D02*
X5005658Y-14651936D01*
X5005658Y-14651936D02*
X4996134Y-14661460D01*
X4996134Y-14661460D02*
X4977086Y-14670984D01*
X4977086Y-14670984D02*
X4958039Y-14670984D01*
X4958039Y-14670984D02*
X4938991Y-14661460D01*
X4938991Y-14661460D02*
X4929467Y-14651936D01*
X4929467Y-14651936D02*
X4919944Y-14632888D01*
X4919944Y-14632888D02*
X4910420Y-14594793D01*
X4910420Y-14594793D02*
X4910420Y-14547174D01*
X4910420Y-14547174D02*
X4919944Y-14509079D01*
X4919944Y-14509079D02*
X4929467Y-14490031D01*
X4929467Y-14490031D02*
X4938991Y-14480508D01*
X4938991Y-14480508D02*
X4958039Y-14470984D01*
X5110420Y-14670984D02*
X5110420Y-14537650D01*
X5110420Y-14556698D02*
X5119944Y-14547174D01*
X5119944Y-14547174D02*
X5138991Y-14537650D01*
X5138991Y-14537650D02*
X5167563Y-14537650D01*
X5167563Y-14537650D02*
X5186610Y-14547174D01*
X5186610Y-14547174D02*
X5196134Y-14566222D01*
X5196134Y-14566222D02*
X5196134Y-14670984D01*
X5196134Y-14566222D02*
X5205658Y-14547174D01*
X5205658Y-14547174D02*
X5224705Y-14537650D01*
X5224705Y-14537650D02*
X5253277Y-14537650D01*
X5253277Y-14537650D02*
X5272325Y-14547174D01*
X5272325Y-14547174D02*
X5281848Y-14566222D01*
X5281848Y-14566222D02*
X5281848Y-14670984D01*
X5377086Y-14670984D02*
X5377086Y-14537650D01*
X5377086Y-14556698D02*
X5386610Y-14547174D01*
X5386610Y-14547174D02*
X5405658Y-14537650D01*
X5405658Y-14537650D02*
X5434229Y-14537650D01*
X5434229Y-14537650D02*
X5453277Y-14547174D01*
X5453277Y-14547174D02*
X5462801Y-14566222D01*
X5462801Y-14566222D02*
X5462801Y-14670984D01*
X5462801Y-14566222D02*
X5472325Y-14547174D01*
X5472325Y-14547174D02*
X5491372Y-14537650D01*
X5491372Y-14537650D02*
X5519944Y-14537650D01*
X5519944Y-14537650D02*
X5538991Y-14547174D01*
X5538991Y-14547174D02*
X5548515Y-14566222D01*
X5548515Y-14566222D02*
X5548515Y-14670984D01*
X5938991Y-14461460D02*
X5767563Y-14718603D01*
X6196134Y-14470984D02*
X6215182Y-14470984D01*
X6215182Y-14470984D02*
X6234229Y-14480508D01*
X6234229Y-14480508D02*
X6243753Y-14490031D01*
X6243753Y-14490031D02*
X6253277Y-14509079D01*
X6253277Y-14509079D02*
X6262801Y-14547174D01*
X6262801Y-14547174D02*
X6262801Y-14594793D01*
X6262801Y-14594793D02*
X6253277Y-14632888D01*
X6253277Y-14632888D02*
X6243753Y-14651936D01*
X6243753Y-14651936D02*
X6234229Y-14661460D01*
X6234229Y-14661460D02*
X6215182Y-14670984D01*
X6215182Y-14670984D02*
X6196134Y-14670984D01*
X6196134Y-14670984D02*
X6177086Y-14661460D01*
X6177086Y-14661460D02*
X6167563Y-14651936D01*
X6167563Y-14651936D02*
X6158039Y-14632888D01*
X6158039Y-14632888D02*
X6148515Y-14594793D01*
X6148515Y-14594793D02*
X6148515Y-14547174D01*
X6148515Y-14547174D02*
X6158039Y-14509079D01*
X6158039Y-14509079D02*
X6167563Y-14490031D01*
X6167563Y-14490031D02*
X6177086Y-14480508D01*
X6177086Y-14480508D02*
X6196134Y-14470984D01*
X6348515Y-14651936D02*
X6358039Y-14661460D01*
X6358039Y-14661460D02*
X6348515Y-14670984D01*
X6348515Y-14670984D02*
X6338991Y-14661460D01*
X6338991Y-14661460D02*
X6348515Y-14651936D01*
X6348515Y-14651936D02*
X6348515Y-14670984D01*
X6481848Y-14470984D02*
X6500896Y-14470984D01*
X6500896Y-14470984D02*
X6519944Y-14480508D01*
X6519944Y-14480508D02*
X6529467Y-14490031D01*
X6529467Y-14490031D02*
X6538991Y-14509079D01*
X6538991Y-14509079D02*
X6548515Y-14547174D01*
X6548515Y-14547174D02*
X6548515Y-14594793D01*
X6548515Y-14594793D02*
X6538991Y-14632888D01*
X6538991Y-14632888D02*
X6529467Y-14651936D01*
X6529467Y-14651936D02*
X6519944Y-14661460D01*
X6519944Y-14661460D02*
X6500896Y-14670984D01*
X6500896Y-14670984D02*
X6481848Y-14670984D01*
X6481848Y-14670984D02*
X6462801Y-14661460D01*
X6462801Y-14661460D02*
X6453277Y-14651936D01*
X6453277Y-14651936D02*
X6443753Y-14632888D01*
X6443753Y-14632888D02*
X6434229Y-14594793D01*
X6434229Y-14594793D02*
X6434229Y-14547174D01*
X6434229Y-14547174D02*
X6443753Y-14509079D01*
X6443753Y-14509079D02*
X6453277Y-14490031D01*
X6453277Y-14490031D02*
X6462801Y-14480508D01*
X6462801Y-14480508D02*
X6481848Y-14470984D01*
X6624706Y-14490031D02*
X6634229Y-14480508D01*
X6634229Y-14480508D02*
X6653277Y-14470984D01*
X6653277Y-14470984D02*
X6700896Y-14470984D01*
X6700896Y-14470984D02*
X6719944Y-14480508D01*
X6719944Y-14480508D02*
X6729467Y-14490031D01*
X6729467Y-14490031D02*
X6738991Y-14509079D01*
X6738991Y-14509079D02*
X6738991Y-14528127D01*
X6738991Y-14528127D02*
X6729467Y-14556698D01*
X6729467Y-14556698D02*
X6615182Y-14670984D01*
X6615182Y-14670984D02*
X6738991Y-14670984D01*
X6919944Y-14470984D02*
X6824706Y-14470984D01*
X6824706Y-14470984D02*
X6815182Y-14566222D01*
X6815182Y-14566222D02*
X6824706Y-14556698D01*
X6824706Y-14556698D02*
X6843753Y-14547174D01*
X6843753Y-14547174D02*
X6891372Y-14547174D01*
X6891372Y-14547174D02*
X6910420Y-14556698D01*
X6910420Y-14556698D02*
X6919944Y-14566222D01*
X6919944Y-14566222D02*
X6929467Y-14585269D01*
X6929467Y-14585269D02*
X6929467Y-14632888D01*
X6929467Y-14632888D02*
X6919944Y-14651936D01*
X6919944Y-14651936D02*
X6910420Y-14661460D01*
X6910420Y-14661460D02*
X6891372Y-14670984D01*
X6891372Y-14670984D02*
X6843753Y-14670984D01*
X6843753Y-14670984D02*
X6824706Y-14661460D01*
X6824706Y-14661460D02*
X6815182Y-14651936D01*
X7100896Y-14470984D02*
X7062801Y-14470984D01*
X7062801Y-14470984D02*
X7043753Y-14480508D01*
X7043753Y-14480508D02*
X7034229Y-14490031D01*
X7034229Y-14490031D02*
X7015182Y-14518603D01*
X7015182Y-14518603D02*
X7005658Y-14556698D01*
X7005658Y-14556698D02*
X7005658Y-14632888D01*
X7005658Y-14632888D02*
X7015182Y-14651936D01*
X7015182Y-14651936D02*
X7024706Y-14661460D01*
X7024706Y-14661460D02*
X7043753Y-14670984D01*
X7043753Y-14670984D02*
X7081848Y-14670984D01*
X7081848Y-14670984D02*
X7100896Y-14661460D01*
X7100896Y-14661460D02*
X7110420Y-14651936D01*
X7110420Y-14651936D02*
X7119944Y-14632888D01*
X7119944Y-14632888D02*
X7119944Y-14585269D01*
X7119944Y-14585269D02*
X7110420Y-14566222D01*
X7110420Y-14566222D02*
X7100896Y-14556698D01*
X7100896Y-14556698D02*
X7081848Y-14547174D01*
X7081848Y-14547174D02*
X7043753Y-14547174D01*
X7043753Y-14547174D02*
X7024706Y-14556698D01*
X7024706Y-14556698D02*
X7015182Y-14566222D01*
X7015182Y-14566222D02*
X7005658Y-14585269D01*
X7196134Y-14470984D02*
X7196134Y-14509079D01*
X7272325Y-14470984D02*
X7272325Y-14509079D01*
X7567563Y-14747174D02*
X7558039Y-14737650D01*
X7558039Y-14737650D02*
X7538991Y-14709079D01*
X7538991Y-14709079D02*
X7529468Y-14690031D01*
X7529468Y-14690031D02*
X7519944Y-14661460D01*
X7519944Y-14661460D02*
X7510420Y-14613841D01*
X7510420Y-14613841D02*
X7510420Y-14575746D01*
X7510420Y-14575746D02*
X7519944Y-14528127D01*
X7519944Y-14528127D02*
X7529468Y-14499555D01*
X7529468Y-14499555D02*
X7538991Y-14480508D01*
X7538991Y-14480508D02*
X7558039Y-14451936D01*
X7558039Y-14451936D02*
X7567563Y-14442412D01*
X7738991Y-14470984D02*
X7643753Y-14470984D01*
X7643753Y-14470984D02*
X7634229Y-14566222D01*
X7634229Y-14566222D02*
X7643753Y-14556698D01*
X7643753Y-14556698D02*
X7662801Y-14547174D01*
X7662801Y-14547174D02*
X7710420Y-14547174D01*
X7710420Y-14547174D02*
X7729468Y-14556698D01*
X7729468Y-14556698D02*
X7738991Y-14566222D01*
X7738991Y-14566222D02*
X7748515Y-14585269D01*
X7748515Y-14585269D02*
X7748515Y-14632888D01*
X7748515Y-14632888D02*
X7738991Y-14651936D01*
X7738991Y-14651936D02*
X7729468Y-14661460D01*
X7729468Y-14661460D02*
X7710420Y-14670984D01*
X7710420Y-14670984D02*
X7662801Y-14670984D01*
X7662801Y-14670984D02*
X7643753Y-14661460D01*
X7643753Y-14661460D02*
X7634229Y-14651936D01*
X7986610Y-14670984D02*
X7986610Y-14470984D01*
X8072325Y-14670984D02*
X8072325Y-14566222D01*
X8072325Y-14566222D02*
X8062801Y-14547174D01*
X8062801Y-14547174D02*
X8043753Y-14537650D01*
X8043753Y-14537650D02*
X8015182Y-14537650D01*
X8015182Y-14537650D02*
X7996134Y-14547174D01*
X7996134Y-14547174D02*
X7986610Y-14556698D01*
X8196134Y-14670984D02*
X8177087Y-14661460D01*
X8177087Y-14661460D02*
X8167563Y-14651936D01*
X8167563Y-14651936D02*
X8158039Y-14632888D01*
X8158039Y-14632888D02*
X8158039Y-14575746D01*
X8158039Y-14575746D02*
X8167563Y-14556698D01*
X8167563Y-14556698D02*
X8177087Y-14547174D01*
X8177087Y-14547174D02*
X8196134Y-14537650D01*
X8196134Y-14537650D02*
X8224706Y-14537650D01*
X8224706Y-14537650D02*
X8243753Y-14547174D01*
X8243753Y-14547174D02*
X8253277Y-14556698D01*
X8253277Y-14556698D02*
X8262801Y-14575746D01*
X8262801Y-14575746D02*
X8262801Y-14632888D01*
X8262801Y-14632888D02*
X8253277Y-14651936D01*
X8253277Y-14651936D02*
X8243753Y-14661460D01*
X8243753Y-14661460D02*
X8224706Y-14670984D01*
X8224706Y-14670984D02*
X8196134Y-14670984D01*
X8377087Y-14670984D02*
X8358039Y-14661460D01*
X8358039Y-14661460D02*
X8348515Y-14642412D01*
X8348515Y-14642412D02*
X8348515Y-14470984D01*
X8529468Y-14661460D02*
X8510420Y-14670984D01*
X8510420Y-14670984D02*
X8472325Y-14670984D01*
X8472325Y-14670984D02*
X8453277Y-14661460D01*
X8453277Y-14661460D02*
X8443753Y-14642412D01*
X8443753Y-14642412D02*
X8443753Y-14566222D01*
X8443753Y-14566222D02*
X8453277Y-14547174D01*
X8453277Y-14547174D02*
X8472325Y-14537650D01*
X8472325Y-14537650D02*
X8510420Y-14537650D01*
X8510420Y-14537650D02*
X8529468Y-14547174D01*
X8529468Y-14547174D02*
X8538992Y-14566222D01*
X8538992Y-14566222D02*
X8538992Y-14585269D01*
X8538992Y-14585269D02*
X8443753Y-14604317D01*
X8615182Y-14661460D02*
X8634230Y-14670984D01*
X8634230Y-14670984D02*
X8672325Y-14670984D01*
X8672325Y-14670984D02*
X8691373Y-14661460D01*
X8691373Y-14661460D02*
X8700896Y-14642412D01*
X8700896Y-14642412D02*
X8700896Y-14632888D01*
X8700896Y-14632888D02*
X8691373Y-14613841D01*
X8691373Y-14613841D02*
X8672325Y-14604317D01*
X8672325Y-14604317D02*
X8643753Y-14604317D01*
X8643753Y-14604317D02*
X8624706Y-14594793D01*
X8624706Y-14594793D02*
X8615182Y-14575746D01*
X8615182Y-14575746D02*
X8615182Y-14566222D01*
X8615182Y-14566222D02*
X8624706Y-14547174D01*
X8624706Y-14547174D02*
X8643753Y-14537650D01*
X8643753Y-14537650D02*
X8672325Y-14537650D01*
X8672325Y-14537650D02*
X8691373Y-14547174D01*
X8767563Y-14747174D02*
X8777087Y-14737650D01*
X8777087Y-14737650D02*
X8796134Y-14709079D01*
X8796134Y-14709079D02*
X8805658Y-14690031D01*
X8805658Y-14690031D02*
X8815182Y-14661460D01*
X8815182Y-14661460D02*
X8824706Y-14613841D01*
X8824706Y-14613841D02*
X8824706Y-14575746D01*
X8824706Y-14575746D02*
X8815182Y-14528127D01*
X8815182Y-14528127D02*
X8805658Y-14499555D01*
X8805658Y-14499555D02*
X8796134Y-14480508D01*
X8796134Y-14480508D02*
X8777087Y-14451936D01*
X8777087Y-14451936D02*
X8767563Y-14442412D01*
D12*
X3948000Y-14888000D02*
X3992500Y-14843500D01*
X3948000Y-14799000D01*
X3903500Y-14843500D01*
X3948000Y-14888000D01*
D11*
X4291372Y-14734984D02*
X4310420Y-14734984D01*
X4310420Y-14734984D02*
X4329467Y-14744508D01*
X4329467Y-14744508D02*
X4338991Y-14754031D01*
X4338991Y-14754031D02*
X4348515Y-14773079D01*
X4348515Y-14773079D02*
X4358039Y-14811174D01*
X4358039Y-14811174D02*
X4358039Y-14858793D01*
X4358039Y-14858793D02*
X4348515Y-14896888D01*
X4348515Y-14896888D02*
X4338991Y-14915936D01*
X4338991Y-14915936D02*
X4329467Y-14925460D01*
X4329467Y-14925460D02*
X4310420Y-14934984D01*
X4310420Y-14934984D02*
X4291372Y-14934984D01*
X4291372Y-14934984D02*
X4272324Y-14925460D01*
X4272324Y-14925460D02*
X4262801Y-14915936D01*
X4262801Y-14915936D02*
X4253277Y-14896888D01*
X4253277Y-14896888D02*
X4243753Y-14858793D01*
X4243753Y-14858793D02*
X4243753Y-14811174D01*
X4243753Y-14811174D02*
X4253277Y-14773079D01*
X4253277Y-14773079D02*
X4262801Y-14754031D01*
X4262801Y-14754031D02*
X4272324Y-14744508D01*
X4272324Y-14744508D02*
X4291372Y-14734984D01*
X4443753Y-14915936D02*
X4453277Y-14925460D01*
X4453277Y-14925460D02*
X4443753Y-14934984D01*
X4443753Y-14934984D02*
X4434229Y-14925460D01*
X4434229Y-14925460D02*
X4443753Y-14915936D01*
X4443753Y-14915936D02*
X4443753Y-14934984D01*
X4567563Y-14820698D02*
X4548515Y-14811174D01*
X4548515Y-14811174D02*
X4538991Y-14801650D01*
X4538991Y-14801650D02*
X4529467Y-14782603D01*
X4529467Y-14782603D02*
X4529467Y-14773079D01*
X4529467Y-14773079D02*
X4538991Y-14754031D01*
X4538991Y-14754031D02*
X4548515Y-14744508D01*
X4548515Y-14744508D02*
X4567563Y-14734984D01*
X4567563Y-14734984D02*
X4605658Y-14734984D01*
X4605658Y-14734984D02*
X4624705Y-14744508D01*
X4624705Y-14744508D02*
X4634229Y-14754031D01*
X4634229Y-14754031D02*
X4643753Y-14773079D01*
X4643753Y-14773079D02*
X4643753Y-14782603D01*
X4643753Y-14782603D02*
X4634229Y-14801650D01*
X4634229Y-14801650D02*
X4624705Y-14811174D01*
X4624705Y-14811174D02*
X4605658Y-14820698D01*
X4605658Y-14820698D02*
X4567563Y-14820698D01*
X4567563Y-14820698D02*
X4548515Y-14830222D01*
X4548515Y-14830222D02*
X4538991Y-14839746D01*
X4538991Y-14839746D02*
X4529467Y-14858793D01*
X4529467Y-14858793D02*
X4529467Y-14896888D01*
X4529467Y-14896888D02*
X4538991Y-14915936D01*
X4538991Y-14915936D02*
X4548515Y-14925460D01*
X4548515Y-14925460D02*
X4567563Y-14934984D01*
X4567563Y-14934984D02*
X4605658Y-14934984D01*
X4605658Y-14934984D02*
X4624705Y-14925460D01*
X4624705Y-14925460D02*
X4634229Y-14915936D01*
X4634229Y-14915936D02*
X4643753Y-14896888D01*
X4643753Y-14896888D02*
X4643753Y-14858793D01*
X4643753Y-14858793D02*
X4634229Y-14839746D01*
X4634229Y-14839746D02*
X4624705Y-14830222D01*
X4624705Y-14830222D02*
X4605658Y-14820698D01*
X4738991Y-14934984D02*
X4777086Y-14934984D01*
X4777086Y-14934984D02*
X4796134Y-14925460D01*
X4796134Y-14925460D02*
X4805658Y-14915936D01*
X4805658Y-14915936D02*
X4824705Y-14887365D01*
X4824705Y-14887365D02*
X4834229Y-14849269D01*
X4834229Y-14849269D02*
X4834229Y-14773079D01*
X4834229Y-14773079D02*
X4824705Y-14754031D01*
X4824705Y-14754031D02*
X4815182Y-14744508D01*
X4815182Y-14744508D02*
X4796134Y-14734984D01*
X4796134Y-14734984D02*
X4758039Y-14734984D01*
X4758039Y-14734984D02*
X4738991Y-14744508D01*
X4738991Y-14744508D02*
X4729467Y-14754031D01*
X4729467Y-14754031D02*
X4719944Y-14773079D01*
X4719944Y-14773079D02*
X4719944Y-14820698D01*
X4719944Y-14820698D02*
X4729467Y-14839746D01*
X4729467Y-14839746D02*
X4738991Y-14849269D01*
X4738991Y-14849269D02*
X4758039Y-14858793D01*
X4758039Y-14858793D02*
X4796134Y-14858793D01*
X4796134Y-14858793D02*
X4815182Y-14849269D01*
X4815182Y-14849269D02*
X4824705Y-14839746D01*
X4824705Y-14839746D02*
X4834229Y-14820698D01*
X4958039Y-14734984D02*
X4977086Y-14734984D01*
X4977086Y-14734984D02*
X4996134Y-14744508D01*
X4996134Y-14744508D02*
X5005658Y-14754031D01*
X5005658Y-14754031D02*
X5015182Y-14773079D01*
X5015182Y-14773079D02*
X5024705Y-14811174D01*
X5024705Y-14811174D02*
X5024705Y-14858793D01*
X5024705Y-14858793D02*
X5015182Y-14896888D01*
X5015182Y-14896888D02*
X5005658Y-14915936D01*
X5005658Y-14915936D02*
X4996134Y-14925460D01*
X4996134Y-14925460D02*
X4977086Y-14934984D01*
X4977086Y-14934984D02*
X4958039Y-14934984D01*
X4958039Y-14934984D02*
X4938991Y-14925460D01*
X4938991Y-14925460D02*
X4929467Y-14915936D01*
X4929467Y-14915936D02*
X4919944Y-14896888D01*
X4919944Y-14896888D02*
X4910420Y-14858793D01*
X4910420Y-14858793D02*
X4910420Y-14811174D01*
X4910420Y-14811174D02*
X4919944Y-14773079D01*
X4919944Y-14773079D02*
X4929467Y-14754031D01*
X4929467Y-14754031D02*
X4938991Y-14744508D01*
X4938991Y-14744508D02*
X4958039Y-14734984D01*
X5110420Y-14934984D02*
X5110420Y-14801650D01*
X5110420Y-14820698D02*
X5119944Y-14811174D01*
X5119944Y-14811174D02*
X5138991Y-14801650D01*
X5138991Y-14801650D02*
X5167563Y-14801650D01*
X5167563Y-14801650D02*
X5186610Y-14811174D01*
X5186610Y-14811174D02*
X5196134Y-14830222D01*
X5196134Y-14830222D02*
X5196134Y-14934984D01*
X5196134Y-14830222D02*
X5205658Y-14811174D01*
X5205658Y-14811174D02*
X5224705Y-14801650D01*
X5224705Y-14801650D02*
X5253277Y-14801650D01*
X5253277Y-14801650D02*
X5272325Y-14811174D01*
X5272325Y-14811174D02*
X5281848Y-14830222D01*
X5281848Y-14830222D02*
X5281848Y-14934984D01*
X5377086Y-14934984D02*
X5377086Y-14801650D01*
X5377086Y-14820698D02*
X5386610Y-14811174D01*
X5386610Y-14811174D02*
X5405658Y-14801650D01*
X5405658Y-14801650D02*
X5434229Y-14801650D01*
X5434229Y-14801650D02*
X5453277Y-14811174D01*
X5453277Y-14811174D02*
X5462801Y-14830222D01*
X5462801Y-14830222D02*
X5462801Y-14934984D01*
X5462801Y-14830222D02*
X5472325Y-14811174D01*
X5472325Y-14811174D02*
X5491372Y-14801650D01*
X5491372Y-14801650D02*
X5519944Y-14801650D01*
X5519944Y-14801650D02*
X5538991Y-14811174D01*
X5538991Y-14811174D02*
X5548515Y-14830222D01*
X5548515Y-14830222D02*
X5548515Y-14934984D01*
X5938991Y-14725460D02*
X5767563Y-14982603D01*
X6196134Y-14734984D02*
X6215182Y-14734984D01*
X6215182Y-14734984D02*
X6234229Y-14744508D01*
X6234229Y-14744508D02*
X6243753Y-14754031D01*
X6243753Y-14754031D02*
X6253277Y-14773079D01*
X6253277Y-14773079D02*
X6262801Y-14811174D01*
X6262801Y-14811174D02*
X6262801Y-14858793D01*
X6262801Y-14858793D02*
X6253277Y-14896888D01*
X6253277Y-14896888D02*
X6243753Y-14915936D01*
X6243753Y-14915936D02*
X6234229Y-14925460D01*
X6234229Y-14925460D02*
X6215182Y-14934984D01*
X6215182Y-14934984D02*
X6196134Y-14934984D01*
X6196134Y-14934984D02*
X6177086Y-14925460D01*
X6177086Y-14925460D02*
X6167563Y-14915936D01*
X6167563Y-14915936D02*
X6158039Y-14896888D01*
X6158039Y-14896888D02*
X6148515Y-14858793D01*
X6148515Y-14858793D02*
X6148515Y-14811174D01*
X6148515Y-14811174D02*
X6158039Y-14773079D01*
X6158039Y-14773079D02*
X6167563Y-14754031D01*
X6167563Y-14754031D02*
X6177086Y-14744508D01*
X6177086Y-14744508D02*
X6196134Y-14734984D01*
X6348515Y-14915936D02*
X6358039Y-14925460D01*
X6358039Y-14925460D02*
X6348515Y-14934984D01*
X6348515Y-14934984D02*
X6338991Y-14925460D01*
X6338991Y-14925460D02*
X6348515Y-14915936D01*
X6348515Y-14915936D02*
X6348515Y-14934984D01*
X6481848Y-14734984D02*
X6500896Y-14734984D01*
X6500896Y-14734984D02*
X6519944Y-14744508D01*
X6519944Y-14744508D02*
X6529467Y-14754031D01*
X6529467Y-14754031D02*
X6538991Y-14773079D01*
X6538991Y-14773079D02*
X6548515Y-14811174D01*
X6548515Y-14811174D02*
X6548515Y-14858793D01*
X6548515Y-14858793D02*
X6538991Y-14896888D01*
X6538991Y-14896888D02*
X6529467Y-14915936D01*
X6529467Y-14915936D02*
X6519944Y-14925460D01*
X6519944Y-14925460D02*
X6500896Y-14934984D01*
X6500896Y-14934984D02*
X6481848Y-14934984D01*
X6481848Y-14934984D02*
X6462801Y-14925460D01*
X6462801Y-14925460D02*
X6453277Y-14915936D01*
X6453277Y-14915936D02*
X6443753Y-14896888D01*
X6443753Y-14896888D02*
X6434229Y-14858793D01*
X6434229Y-14858793D02*
X6434229Y-14811174D01*
X6434229Y-14811174D02*
X6443753Y-14773079D01*
X6443753Y-14773079D02*
X6453277Y-14754031D01*
X6453277Y-14754031D02*
X6462801Y-14744508D01*
X6462801Y-14744508D02*
X6481848Y-14734984D01*
X6615182Y-14734984D02*
X6738991Y-14734984D01*
X6738991Y-14734984D02*
X6672325Y-14811174D01*
X6672325Y-14811174D02*
X6700896Y-14811174D01*
X6700896Y-14811174D02*
X6719944Y-14820698D01*
X6719944Y-14820698D02*
X6729467Y-14830222D01*
X6729467Y-14830222D02*
X6738991Y-14849269D01*
X6738991Y-14849269D02*
X6738991Y-14896888D01*
X6738991Y-14896888D02*
X6729467Y-14915936D01*
X6729467Y-14915936D02*
X6719944Y-14925460D01*
X6719944Y-14925460D02*
X6700896Y-14934984D01*
X6700896Y-14934984D02*
X6643753Y-14934984D01*
X6643753Y-14934984D02*
X6624706Y-14925460D01*
X6624706Y-14925460D02*
X6615182Y-14915936D01*
X6919944Y-14734984D02*
X6824706Y-14734984D01*
X6824706Y-14734984D02*
X6815182Y-14830222D01*
X6815182Y-14830222D02*
X6824706Y-14820698D01*
X6824706Y-14820698D02*
X6843753Y-14811174D01*
X6843753Y-14811174D02*
X6891372Y-14811174D01*
X6891372Y-14811174D02*
X6910420Y-14820698D01*
X6910420Y-14820698D02*
X6919944Y-14830222D01*
X6919944Y-14830222D02*
X6929467Y-14849269D01*
X6929467Y-14849269D02*
X6929467Y-14896888D01*
X6929467Y-14896888D02*
X6919944Y-14915936D01*
X6919944Y-14915936D02*
X6910420Y-14925460D01*
X6910420Y-14925460D02*
X6891372Y-14934984D01*
X6891372Y-14934984D02*
X6843753Y-14934984D01*
X6843753Y-14934984D02*
X6824706Y-14925460D01*
X6824706Y-14925460D02*
X6815182Y-14915936D01*
X7053277Y-14734984D02*
X7072325Y-14734984D01*
X7072325Y-14734984D02*
X7091372Y-14744508D01*
X7091372Y-14744508D02*
X7100896Y-14754031D01*
X7100896Y-14754031D02*
X7110420Y-14773079D01*
X7110420Y-14773079D02*
X7119944Y-14811174D01*
X7119944Y-14811174D02*
X7119944Y-14858793D01*
X7119944Y-14858793D02*
X7110420Y-14896888D01*
X7110420Y-14896888D02*
X7100896Y-14915936D01*
X7100896Y-14915936D02*
X7091372Y-14925460D01*
X7091372Y-14925460D02*
X7072325Y-14934984D01*
X7072325Y-14934984D02*
X7053277Y-14934984D01*
X7053277Y-14934984D02*
X7034229Y-14925460D01*
X7034229Y-14925460D02*
X7024706Y-14915936D01*
X7024706Y-14915936D02*
X7015182Y-14896888D01*
X7015182Y-14896888D02*
X7005658Y-14858793D01*
X7005658Y-14858793D02*
X7005658Y-14811174D01*
X7005658Y-14811174D02*
X7015182Y-14773079D01*
X7015182Y-14773079D02*
X7024706Y-14754031D01*
X7024706Y-14754031D02*
X7034229Y-14744508D01*
X7034229Y-14744508D02*
X7053277Y-14734984D01*
X7196134Y-14734984D02*
X7196134Y-14773079D01*
X7272325Y-14734984D02*
X7272325Y-14773079D01*
X7567563Y-15011174D02*
X7558039Y-15001650D01*
X7558039Y-15001650D02*
X7538991Y-14973079D01*
X7538991Y-14973079D02*
X7529468Y-14954031D01*
X7529468Y-14954031D02*
X7519944Y-14925460D01*
X7519944Y-14925460D02*
X7510420Y-14877841D01*
X7510420Y-14877841D02*
X7510420Y-14839746D01*
X7510420Y-14839746D02*
X7519944Y-14792127D01*
X7519944Y-14792127D02*
X7529468Y-14763555D01*
X7529468Y-14763555D02*
X7538991Y-14744508D01*
X7538991Y-14744508D02*
X7558039Y-14715936D01*
X7558039Y-14715936D02*
X7567563Y-14706412D01*
X7729468Y-14734984D02*
X7691372Y-14734984D01*
X7691372Y-14734984D02*
X7672325Y-14744508D01*
X7672325Y-14744508D02*
X7662801Y-14754031D01*
X7662801Y-14754031D02*
X7643753Y-14782603D01*
X7643753Y-14782603D02*
X7634229Y-14820698D01*
X7634229Y-14820698D02*
X7634229Y-14896888D01*
X7634229Y-14896888D02*
X7643753Y-14915936D01*
X7643753Y-14915936D02*
X7653277Y-14925460D01*
X7653277Y-14925460D02*
X7672325Y-14934984D01*
X7672325Y-14934984D02*
X7710420Y-14934984D01*
X7710420Y-14934984D02*
X7729468Y-14925460D01*
X7729468Y-14925460D02*
X7738991Y-14915936D01*
X7738991Y-14915936D02*
X7748515Y-14896888D01*
X7748515Y-14896888D02*
X7748515Y-14849269D01*
X7748515Y-14849269D02*
X7738991Y-14830222D01*
X7738991Y-14830222D02*
X7729468Y-14820698D01*
X7729468Y-14820698D02*
X7710420Y-14811174D01*
X7710420Y-14811174D02*
X7672325Y-14811174D01*
X7672325Y-14811174D02*
X7653277Y-14820698D01*
X7653277Y-14820698D02*
X7643753Y-14830222D01*
X7643753Y-14830222D02*
X7634229Y-14849269D01*
X7986610Y-14934984D02*
X7986610Y-14734984D01*
X8072325Y-14934984D02*
X8072325Y-14830222D01*
X8072325Y-14830222D02*
X8062801Y-14811174D01*
X8062801Y-14811174D02*
X8043753Y-14801650D01*
X8043753Y-14801650D02*
X8015182Y-14801650D01*
X8015182Y-14801650D02*
X7996134Y-14811174D01*
X7996134Y-14811174D02*
X7986610Y-14820698D01*
X8196134Y-14934984D02*
X8177087Y-14925460D01*
X8177087Y-14925460D02*
X8167563Y-14915936D01*
X8167563Y-14915936D02*
X8158039Y-14896888D01*
X8158039Y-14896888D02*
X8158039Y-14839746D01*
X8158039Y-14839746D02*
X8167563Y-14820698D01*
X8167563Y-14820698D02*
X8177087Y-14811174D01*
X8177087Y-14811174D02*
X8196134Y-14801650D01*
X8196134Y-14801650D02*
X8224706Y-14801650D01*
X8224706Y-14801650D02*
X8243753Y-14811174D01*
X8243753Y-14811174D02*
X8253277Y-14820698D01*
X8253277Y-14820698D02*
X8262801Y-14839746D01*
X8262801Y-14839746D02*
X8262801Y-14896888D01*
X8262801Y-14896888D02*
X8253277Y-14915936D01*
X8253277Y-14915936D02*
X8243753Y-14925460D01*
X8243753Y-14925460D02*
X8224706Y-14934984D01*
X8224706Y-14934984D02*
X8196134Y-14934984D01*
X8377087Y-14934984D02*
X8358039Y-14925460D01*
X8358039Y-14925460D02*
X8348515Y-14906412D01*
X8348515Y-14906412D02*
X8348515Y-14734984D01*
X8529468Y-14925460D02*
X8510420Y-14934984D01*
X8510420Y-14934984D02*
X8472325Y-14934984D01*
X8472325Y-14934984D02*
X8453277Y-14925460D01*
X8453277Y-14925460D02*
X8443753Y-14906412D01*
X8443753Y-14906412D02*
X8443753Y-14830222D01*
X8443753Y-14830222D02*
X8453277Y-14811174D01*
X8453277Y-14811174D02*
X8472325Y-14801650D01*
X8472325Y-14801650D02*
X8510420Y-14801650D01*
X8510420Y-14801650D02*
X8529468Y-14811174D01*
X8529468Y-14811174D02*
X8538992Y-14830222D01*
X8538992Y-14830222D02*
X8538992Y-14849269D01*
X8538992Y-14849269D02*
X8443753Y-14868317D01*
X8615182Y-14925460D02*
X8634230Y-14934984D01*
X8634230Y-14934984D02*
X8672325Y-14934984D01*
X8672325Y-14934984D02*
X8691373Y-14925460D01*
X8691373Y-14925460D02*
X8700896Y-14906412D01*
X8700896Y-14906412D02*
X8700896Y-14896888D01*
X8700896Y-14896888D02*
X8691373Y-14877841D01*
X8691373Y-14877841D02*
X8672325Y-14868317D01*
X8672325Y-14868317D02*
X8643753Y-14868317D01*
X8643753Y-14868317D02*
X8624706Y-14858793D01*
X8624706Y-14858793D02*
X8615182Y-14839746D01*
X8615182Y-14839746D02*
X8615182Y-14830222D01*
X8615182Y-14830222D02*
X8624706Y-14811174D01*
X8624706Y-14811174D02*
X8643753Y-14801650D01*
X8643753Y-14801650D02*
X8672325Y-14801650D01*
X8672325Y-14801650D02*
X8691373Y-14811174D01*
X8767563Y-15011174D02*
X8777087Y-15001650D01*
X8777087Y-15001650D02*
X8796134Y-14973079D01*
X8796134Y-14973079D02*
X8805658Y-14954031D01*
X8805658Y-14954031D02*
X8815182Y-14925460D01*
X8815182Y-14925460D02*
X8824706Y-14877841D01*
X8824706Y-14877841D02*
X8824706Y-14839746D01*
X8824706Y-14839746D02*
X8815182Y-14792127D01*
X8815182Y-14792127D02*
X8805658Y-14763555D01*
X8805658Y-14763555D02*
X8796134Y-14744508D01*
X8796134Y-14744508D02*
X8777087Y-14715936D01*
X8777087Y-14715936D02*
X8767563Y-14706412D01*
D13*
X3882500Y-15052500D02*
X3992500Y-15162500D01*
X3992500Y-15052500D02*
X3882500Y-15162500D01*
X3992500Y-15107500D02*
G75*
G02*
X3882500Y-15107500I-55000J0D01*
G01*
X3882500Y-15107500D02*
G75*
G02*
X3992500Y-15107500I55000J0D01*
G01*
D11*
X4358039Y-15198984D02*
X4243753Y-15198984D01*
X4300896Y-15198984D02*
X4300896Y-14998984D01*
X4300896Y-14998984D02*
X4281848Y-15027555D01*
X4281848Y-15027555D02*
X4262801Y-15046603D01*
X4262801Y-15046603D02*
X4243753Y-15056127D01*
X4443753Y-15179936D02*
X4453277Y-15189460D01*
X4453277Y-15189460D02*
X4443753Y-15198984D01*
X4443753Y-15198984D02*
X4434229Y-15189460D01*
X4434229Y-15189460D02*
X4443753Y-15179936D01*
X4443753Y-15179936D02*
X4443753Y-15198984D01*
X4643753Y-15198984D02*
X4529467Y-15198984D01*
X4586610Y-15198984D02*
X4586610Y-14998984D01*
X4586610Y-14998984D02*
X4567563Y-15027555D01*
X4567563Y-15027555D02*
X4548515Y-15046603D01*
X4548515Y-15046603D02*
X4529467Y-15056127D01*
X4767563Y-14998984D02*
X4786610Y-14998984D01*
X4786610Y-14998984D02*
X4805658Y-15008508D01*
X4805658Y-15008508D02*
X4815182Y-15018031D01*
X4815182Y-15018031D02*
X4824705Y-15037079D01*
X4824705Y-15037079D02*
X4834229Y-15075174D01*
X4834229Y-15075174D02*
X4834229Y-15122793D01*
X4834229Y-15122793D02*
X4824705Y-15160888D01*
X4824705Y-15160888D02*
X4815182Y-15179936D01*
X4815182Y-15179936D02*
X4805658Y-15189460D01*
X4805658Y-15189460D02*
X4786610Y-15198984D01*
X4786610Y-15198984D02*
X4767563Y-15198984D01*
X4767563Y-15198984D02*
X4748515Y-15189460D01*
X4748515Y-15189460D02*
X4738991Y-15179936D01*
X4738991Y-15179936D02*
X4729467Y-15160888D01*
X4729467Y-15160888D02*
X4719944Y-15122793D01*
X4719944Y-15122793D02*
X4719944Y-15075174D01*
X4719944Y-15075174D02*
X4729467Y-15037079D01*
X4729467Y-15037079D02*
X4738991Y-15018031D01*
X4738991Y-15018031D02*
X4748515Y-15008508D01*
X4748515Y-15008508D02*
X4767563Y-14998984D01*
X4958039Y-14998984D02*
X4977086Y-14998984D01*
X4977086Y-14998984D02*
X4996134Y-15008508D01*
X4996134Y-15008508D02*
X5005658Y-15018031D01*
X5005658Y-15018031D02*
X5015182Y-15037079D01*
X5015182Y-15037079D02*
X5024705Y-15075174D01*
X5024705Y-15075174D02*
X5024705Y-15122793D01*
X5024705Y-15122793D02*
X5015182Y-15160888D01*
X5015182Y-15160888D02*
X5005658Y-15179936D01*
X5005658Y-15179936D02*
X4996134Y-15189460D01*
X4996134Y-15189460D02*
X4977086Y-15198984D01*
X4977086Y-15198984D02*
X4958039Y-15198984D01*
X4958039Y-15198984D02*
X4938991Y-15189460D01*
X4938991Y-15189460D02*
X4929467Y-15179936D01*
X4929467Y-15179936D02*
X4919944Y-15160888D01*
X4919944Y-15160888D02*
X4910420Y-15122793D01*
X4910420Y-15122793D02*
X4910420Y-15075174D01*
X4910420Y-15075174D02*
X4919944Y-15037079D01*
X4919944Y-15037079D02*
X4929467Y-15018031D01*
X4929467Y-15018031D02*
X4938991Y-15008508D01*
X4938991Y-15008508D02*
X4958039Y-14998984D01*
X5110420Y-15198984D02*
X5110420Y-15065650D01*
X5110420Y-15084698D02*
X5119944Y-15075174D01*
X5119944Y-15075174D02*
X5138991Y-15065650D01*
X5138991Y-15065650D02*
X5167563Y-15065650D01*
X5167563Y-15065650D02*
X5186610Y-15075174D01*
X5186610Y-15075174D02*
X5196134Y-15094222D01*
X5196134Y-15094222D02*
X5196134Y-15198984D01*
X5196134Y-15094222D02*
X5205658Y-15075174D01*
X5205658Y-15075174D02*
X5224705Y-15065650D01*
X5224705Y-15065650D02*
X5253277Y-15065650D01*
X5253277Y-15065650D02*
X5272325Y-15075174D01*
X5272325Y-15075174D02*
X5281848Y-15094222D01*
X5281848Y-15094222D02*
X5281848Y-15198984D01*
X5377086Y-15198984D02*
X5377086Y-15065650D01*
X5377086Y-15084698D02*
X5386610Y-15075174D01*
X5386610Y-15075174D02*
X5405658Y-15065650D01*
X5405658Y-15065650D02*
X5434229Y-15065650D01*
X5434229Y-15065650D02*
X5453277Y-15075174D01*
X5453277Y-15075174D02*
X5462801Y-15094222D01*
X5462801Y-15094222D02*
X5462801Y-15198984D01*
X5462801Y-15094222D02*
X5472325Y-15075174D01*
X5472325Y-15075174D02*
X5491372Y-15065650D01*
X5491372Y-15065650D02*
X5519944Y-15065650D01*
X5519944Y-15065650D02*
X5538991Y-15075174D01*
X5538991Y-15075174D02*
X5548515Y-15094222D01*
X5548515Y-15094222D02*
X5548515Y-15198984D01*
X5938991Y-14989460D02*
X5767563Y-15246603D01*
X6196134Y-14998984D02*
X6215182Y-14998984D01*
X6215182Y-14998984D02*
X6234229Y-15008508D01*
X6234229Y-15008508D02*
X6243753Y-15018031D01*
X6243753Y-15018031D02*
X6253277Y-15037079D01*
X6253277Y-15037079D02*
X6262801Y-15075174D01*
X6262801Y-15075174D02*
X6262801Y-15122793D01*
X6262801Y-15122793D02*
X6253277Y-15160888D01*
X6253277Y-15160888D02*
X6243753Y-15179936D01*
X6243753Y-15179936D02*
X6234229Y-15189460D01*
X6234229Y-15189460D02*
X6215182Y-15198984D01*
X6215182Y-15198984D02*
X6196134Y-15198984D01*
X6196134Y-15198984D02*
X6177086Y-15189460D01*
X6177086Y-15189460D02*
X6167563Y-15179936D01*
X6167563Y-15179936D02*
X6158039Y-15160888D01*
X6158039Y-15160888D02*
X6148515Y-15122793D01*
X6148515Y-15122793D02*
X6148515Y-15075174D01*
X6148515Y-15075174D02*
X6158039Y-15037079D01*
X6158039Y-15037079D02*
X6167563Y-15018031D01*
X6167563Y-15018031D02*
X6177086Y-15008508D01*
X6177086Y-15008508D02*
X6196134Y-14998984D01*
X6348515Y-15179936D02*
X6358039Y-15189460D01*
X6358039Y-15189460D02*
X6348515Y-15198984D01*
X6348515Y-15198984D02*
X6338991Y-15189460D01*
X6338991Y-15189460D02*
X6348515Y-15179936D01*
X6348515Y-15179936D02*
X6348515Y-15198984D01*
X6481848Y-14998984D02*
X6500896Y-14998984D01*
X6500896Y-14998984D02*
X6519944Y-15008508D01*
X6519944Y-15008508D02*
X6529467Y-15018031D01*
X6529467Y-15018031D02*
X6538991Y-15037079D01*
X6538991Y-15037079D02*
X6548515Y-15075174D01*
X6548515Y-15075174D02*
X6548515Y-15122793D01*
X6548515Y-15122793D02*
X6538991Y-15160888D01*
X6538991Y-15160888D02*
X6529467Y-15179936D01*
X6529467Y-15179936D02*
X6519944Y-15189460D01*
X6519944Y-15189460D02*
X6500896Y-15198984D01*
X6500896Y-15198984D02*
X6481848Y-15198984D01*
X6481848Y-15198984D02*
X6462801Y-15189460D01*
X6462801Y-15189460D02*
X6453277Y-15179936D01*
X6453277Y-15179936D02*
X6443753Y-15160888D01*
X6443753Y-15160888D02*
X6434229Y-15122793D01*
X6434229Y-15122793D02*
X6434229Y-15075174D01*
X6434229Y-15075174D02*
X6443753Y-15037079D01*
X6443753Y-15037079D02*
X6453277Y-15018031D01*
X6453277Y-15018031D02*
X6462801Y-15008508D01*
X6462801Y-15008508D02*
X6481848Y-14998984D01*
X6719944Y-15065650D02*
X6719944Y-15198984D01*
X6672325Y-14989460D02*
X6624706Y-15132317D01*
X6624706Y-15132317D02*
X6748515Y-15132317D01*
X6805658Y-14998984D02*
X6929467Y-14998984D01*
X6929467Y-14998984D02*
X6862801Y-15075174D01*
X6862801Y-15075174D02*
X6891372Y-15075174D01*
X6891372Y-15075174D02*
X6910420Y-15084698D01*
X6910420Y-15084698D02*
X6919944Y-15094222D01*
X6919944Y-15094222D02*
X6929467Y-15113269D01*
X6929467Y-15113269D02*
X6929467Y-15160888D01*
X6929467Y-15160888D02*
X6919944Y-15179936D01*
X6919944Y-15179936D02*
X6910420Y-15189460D01*
X6910420Y-15189460D02*
X6891372Y-15198984D01*
X6891372Y-15198984D02*
X6834229Y-15198984D01*
X6834229Y-15198984D02*
X6815182Y-15189460D01*
X6815182Y-15189460D02*
X6805658Y-15179936D01*
X6996134Y-14998984D02*
X7119944Y-14998984D01*
X7119944Y-14998984D02*
X7053277Y-15075174D01*
X7053277Y-15075174D02*
X7081848Y-15075174D01*
X7081848Y-15075174D02*
X7100896Y-15084698D01*
X7100896Y-15084698D02*
X7110420Y-15094222D01*
X7110420Y-15094222D02*
X7119944Y-15113269D01*
X7119944Y-15113269D02*
X7119944Y-15160888D01*
X7119944Y-15160888D02*
X7110420Y-15179936D01*
X7110420Y-15179936D02*
X7100896Y-15189460D01*
X7100896Y-15189460D02*
X7081848Y-15198984D01*
X7081848Y-15198984D02*
X7024706Y-15198984D01*
X7024706Y-15198984D02*
X7005658Y-15189460D01*
X7005658Y-15189460D02*
X6996134Y-15179936D01*
X7196134Y-14998984D02*
X7196134Y-15037079D01*
X7272325Y-14998984D02*
X7272325Y-15037079D01*
X7567563Y-15275174D02*
X7558039Y-15265650D01*
X7558039Y-15265650D02*
X7538991Y-15237079D01*
X7538991Y-15237079D02*
X7529468Y-15218031D01*
X7529468Y-15218031D02*
X7519944Y-15189460D01*
X7519944Y-15189460D02*
X7510420Y-15141841D01*
X7510420Y-15141841D02*
X7510420Y-15103746D01*
X7510420Y-15103746D02*
X7519944Y-15056127D01*
X7519944Y-15056127D02*
X7529468Y-15027555D01*
X7529468Y-15027555D02*
X7538991Y-15008508D01*
X7538991Y-15008508D02*
X7558039Y-14979936D01*
X7558039Y-14979936D02*
X7567563Y-14970412D01*
X7672325Y-15084698D02*
X7653277Y-15075174D01*
X7653277Y-15075174D02*
X7643753Y-15065650D01*
X7643753Y-15065650D02*
X7634229Y-15046603D01*
X7634229Y-15046603D02*
X7634229Y-15037079D01*
X7634229Y-15037079D02*
X7643753Y-15018031D01*
X7643753Y-15018031D02*
X7653277Y-15008508D01*
X7653277Y-15008508D02*
X7672325Y-14998984D01*
X7672325Y-14998984D02*
X7710420Y-14998984D01*
X7710420Y-14998984D02*
X7729468Y-15008508D01*
X7729468Y-15008508D02*
X7738991Y-15018031D01*
X7738991Y-15018031D02*
X7748515Y-15037079D01*
X7748515Y-15037079D02*
X7748515Y-15046603D01*
X7748515Y-15046603D02*
X7738991Y-15065650D01*
X7738991Y-15065650D02*
X7729468Y-15075174D01*
X7729468Y-15075174D02*
X7710420Y-15084698D01*
X7710420Y-15084698D02*
X7672325Y-15084698D01*
X7672325Y-15084698D02*
X7653277Y-15094222D01*
X7653277Y-15094222D02*
X7643753Y-15103746D01*
X7643753Y-15103746D02*
X7634229Y-15122793D01*
X7634229Y-15122793D02*
X7634229Y-15160888D01*
X7634229Y-15160888D02*
X7643753Y-15179936D01*
X7643753Y-15179936D02*
X7653277Y-15189460D01*
X7653277Y-15189460D02*
X7672325Y-15198984D01*
X7672325Y-15198984D02*
X7710420Y-15198984D01*
X7710420Y-15198984D02*
X7729468Y-15189460D01*
X7729468Y-15189460D02*
X7738991Y-15179936D01*
X7738991Y-15179936D02*
X7748515Y-15160888D01*
X7748515Y-15160888D02*
X7748515Y-15122793D01*
X7748515Y-15122793D02*
X7738991Y-15103746D01*
X7738991Y-15103746D02*
X7729468Y-15094222D01*
X7729468Y-15094222D02*
X7710420Y-15084698D01*
X7986610Y-15198984D02*
X7986610Y-14998984D01*
X8072325Y-15198984D02*
X8072325Y-15094222D01*
X8072325Y-15094222D02*
X8062801Y-15075174D01*
X8062801Y-15075174D02*
X8043753Y-15065650D01*
X8043753Y-15065650D02*
X8015182Y-15065650D01*
X8015182Y-15065650D02*
X7996134Y-15075174D01*
X7996134Y-15075174D02*
X7986610Y-15084698D01*
X8196134Y-15198984D02*
X8177087Y-15189460D01*
X8177087Y-15189460D02*
X8167563Y-15179936D01*
X8167563Y-15179936D02*
X8158039Y-15160888D01*
X8158039Y-15160888D02*
X8158039Y-15103746D01*
X8158039Y-15103746D02*
X8167563Y-15084698D01*
X8167563Y-15084698D02*
X8177087Y-15075174D01*
X8177087Y-15075174D02*
X8196134Y-15065650D01*
X8196134Y-15065650D02*
X8224706Y-15065650D01*
X8224706Y-15065650D02*
X8243753Y-15075174D01*
X8243753Y-15075174D02*
X8253277Y-15084698D01*
X8253277Y-15084698D02*
X8262801Y-15103746D01*
X8262801Y-15103746D02*
X8262801Y-15160888D01*
X8262801Y-15160888D02*
X8253277Y-15179936D01*
X8253277Y-15179936D02*
X8243753Y-15189460D01*
X8243753Y-15189460D02*
X8224706Y-15198984D01*
X8224706Y-15198984D02*
X8196134Y-15198984D01*
X8377087Y-15198984D02*
X8358039Y-15189460D01*
X8358039Y-15189460D02*
X8348515Y-15170412D01*
X8348515Y-15170412D02*
X8348515Y-14998984D01*
X8529468Y-15189460D02*
X8510420Y-15198984D01*
X8510420Y-15198984D02*
X8472325Y-15198984D01*
X8472325Y-15198984D02*
X8453277Y-15189460D01*
X8453277Y-15189460D02*
X8443753Y-15170412D01*
X8443753Y-15170412D02*
X8443753Y-15094222D01*
X8443753Y-15094222D02*
X8453277Y-15075174D01*
X8453277Y-15075174D02*
X8472325Y-15065650D01*
X8472325Y-15065650D02*
X8510420Y-15065650D01*
X8510420Y-15065650D02*
X8529468Y-15075174D01*
X8529468Y-15075174D02*
X8538992Y-15094222D01*
X8538992Y-15094222D02*
X8538992Y-15113269D01*
X8538992Y-15113269D02*
X8443753Y-15132317D01*
X8615182Y-15189460D02*
X8634230Y-15198984D01*
X8634230Y-15198984D02*
X8672325Y-15198984D01*
X8672325Y-15198984D02*
X8691373Y-15189460D01*
X8691373Y-15189460D02*
X8700896Y-15170412D01*
X8700896Y-15170412D02*
X8700896Y-15160888D01*
X8700896Y-15160888D02*
X8691373Y-15141841D01*
X8691373Y-15141841D02*
X8672325Y-15132317D01*
X8672325Y-15132317D02*
X8643753Y-15132317D01*
X8643753Y-15132317D02*
X8624706Y-15122793D01*
X8624706Y-15122793D02*
X8615182Y-15103746D01*
X8615182Y-15103746D02*
X8615182Y-15094222D01*
X8615182Y-15094222D02*
X8624706Y-15075174D01*
X8624706Y-15075174D02*
X8643753Y-15065650D01*
X8643753Y-15065650D02*
X8672325Y-15065650D01*
X8672325Y-15065650D02*
X8691373Y-15075174D01*
X8767563Y-15275174D02*
X8777087Y-15265650D01*
X8777087Y-15265650D02*
X8796134Y-15237079D01*
X8796134Y-15237079D02*
X8805658Y-15218031D01*
X8805658Y-15218031D02*
X8815182Y-15189460D01*
X8815182Y-15189460D02*
X8824706Y-15141841D01*
X8824706Y-15141841D02*
X8824706Y-15103746D01*
X8824706Y-15103746D02*
X8815182Y-15056127D01*
X8815182Y-15056127D02*
X8805658Y-15027555D01*
X8805658Y-15027555D02*
X8796134Y-15008508D01*
X8796134Y-15008508D02*
X8777087Y-14979936D01*
X8777087Y-14979936D02*
X8767563Y-14970412D01*
X3792500Y-15271500D02*
X3992500Y-15471500D01*
X3992500Y-15271500D02*
X3792500Y-15471500D01*
X3892500Y-15271500D02*
X3892500Y-15471500D01*
X3792500Y-15371500D02*
X3992500Y-15371500D01*
X4243753Y-15282031D02*
X4253277Y-15272508D01*
X4253277Y-15272508D02*
X4272324Y-15262984D01*
X4272324Y-15262984D02*
X4319944Y-15262984D01*
X4319944Y-15262984D02*
X4338991Y-15272508D01*
X4338991Y-15272508D02*
X4348515Y-15282031D01*
X4348515Y-15282031D02*
X4358039Y-15301079D01*
X4358039Y-15301079D02*
X4358039Y-15320127D01*
X4358039Y-15320127D02*
X4348515Y-15348698D01*
X4348515Y-15348698D02*
X4234229Y-15462984D01*
X4234229Y-15462984D02*
X4358039Y-15462984D01*
X4443753Y-15443936D02*
X4453277Y-15453460D01*
X4453277Y-15453460D02*
X4443753Y-15462984D01*
X4443753Y-15462984D02*
X4434229Y-15453460D01*
X4434229Y-15453460D02*
X4443753Y-15443936D01*
X4443753Y-15443936D02*
X4443753Y-15462984D01*
X4577086Y-15262984D02*
X4596134Y-15262984D01*
X4596134Y-15262984D02*
X4615182Y-15272508D01*
X4615182Y-15272508D02*
X4624705Y-15282031D01*
X4624705Y-15282031D02*
X4634229Y-15301079D01*
X4634229Y-15301079D02*
X4643753Y-15339174D01*
X4643753Y-15339174D02*
X4643753Y-15386793D01*
X4643753Y-15386793D02*
X4634229Y-15424888D01*
X4634229Y-15424888D02*
X4624705Y-15443936D01*
X4624705Y-15443936D02*
X4615182Y-15453460D01*
X4615182Y-15453460D02*
X4596134Y-15462984D01*
X4596134Y-15462984D02*
X4577086Y-15462984D01*
X4577086Y-15462984D02*
X4558039Y-15453460D01*
X4558039Y-15453460D02*
X4548515Y-15443936D01*
X4548515Y-15443936D02*
X4538991Y-15424888D01*
X4538991Y-15424888D02*
X4529467Y-15386793D01*
X4529467Y-15386793D02*
X4529467Y-15339174D01*
X4529467Y-15339174D02*
X4538991Y-15301079D01*
X4538991Y-15301079D02*
X4548515Y-15282031D01*
X4548515Y-15282031D02*
X4558039Y-15272508D01*
X4558039Y-15272508D02*
X4577086Y-15262984D01*
X4834229Y-15462984D02*
X4719944Y-15462984D01*
X4777086Y-15462984D02*
X4777086Y-15262984D01*
X4777086Y-15262984D02*
X4758039Y-15291555D01*
X4758039Y-15291555D02*
X4738991Y-15310603D01*
X4738991Y-15310603D02*
X4719944Y-15320127D01*
X4958039Y-15262984D02*
X4977086Y-15262984D01*
X4977086Y-15262984D02*
X4996134Y-15272508D01*
X4996134Y-15272508D02*
X5005658Y-15282031D01*
X5005658Y-15282031D02*
X5015182Y-15301079D01*
X5015182Y-15301079D02*
X5024705Y-15339174D01*
X5024705Y-15339174D02*
X5024705Y-15386793D01*
X5024705Y-15386793D02*
X5015182Y-15424888D01*
X5015182Y-15424888D02*
X5005658Y-15443936D01*
X5005658Y-15443936D02*
X4996134Y-15453460D01*
X4996134Y-15453460D02*
X4977086Y-15462984D01*
X4977086Y-15462984D02*
X4958039Y-15462984D01*
X4958039Y-15462984D02*
X4938991Y-15453460D01*
X4938991Y-15453460D02*
X4929467Y-15443936D01*
X4929467Y-15443936D02*
X4919944Y-15424888D01*
X4919944Y-15424888D02*
X4910420Y-15386793D01*
X4910420Y-15386793D02*
X4910420Y-15339174D01*
X4910420Y-15339174D02*
X4919944Y-15301079D01*
X4919944Y-15301079D02*
X4929467Y-15282031D01*
X4929467Y-15282031D02*
X4938991Y-15272508D01*
X4938991Y-15272508D02*
X4958039Y-15262984D01*
X5110420Y-15462984D02*
X5110420Y-15329650D01*
X5110420Y-15348698D02*
X5119944Y-15339174D01*
X5119944Y-15339174D02*
X5138991Y-15329650D01*
X5138991Y-15329650D02*
X5167563Y-15329650D01*
X5167563Y-15329650D02*
X5186610Y-15339174D01*
X5186610Y-15339174D02*
X5196134Y-15358222D01*
X5196134Y-15358222D02*
X5196134Y-15462984D01*
X5196134Y-15358222D02*
X5205658Y-15339174D01*
X5205658Y-15339174D02*
X5224705Y-15329650D01*
X5224705Y-15329650D02*
X5253277Y-15329650D01*
X5253277Y-15329650D02*
X5272325Y-15339174D01*
X5272325Y-15339174D02*
X5281848Y-15358222D01*
X5281848Y-15358222D02*
X5281848Y-15462984D01*
X5377086Y-15462984D02*
X5377086Y-15329650D01*
X5377086Y-15348698D02*
X5386610Y-15339174D01*
X5386610Y-15339174D02*
X5405658Y-15329650D01*
X5405658Y-15329650D02*
X5434229Y-15329650D01*
X5434229Y-15329650D02*
X5453277Y-15339174D01*
X5453277Y-15339174D02*
X5462801Y-15358222D01*
X5462801Y-15358222D02*
X5462801Y-15462984D01*
X5462801Y-15358222D02*
X5472325Y-15339174D01*
X5472325Y-15339174D02*
X5491372Y-15329650D01*
X5491372Y-15329650D02*
X5519944Y-15329650D01*
X5519944Y-15329650D02*
X5538991Y-15339174D01*
X5538991Y-15339174D02*
X5548515Y-15358222D01*
X5548515Y-15358222D02*
X5548515Y-15462984D01*
X5938991Y-15253460D02*
X5767563Y-15510603D01*
X6196134Y-15262984D02*
X6215182Y-15262984D01*
X6215182Y-15262984D02*
X6234229Y-15272508D01*
X6234229Y-15272508D02*
X6243753Y-15282031D01*
X6243753Y-15282031D02*
X6253277Y-15301079D01*
X6253277Y-15301079D02*
X6262801Y-15339174D01*
X6262801Y-15339174D02*
X6262801Y-15386793D01*
X6262801Y-15386793D02*
X6253277Y-15424888D01*
X6253277Y-15424888D02*
X6243753Y-15443936D01*
X6243753Y-15443936D02*
X6234229Y-15453460D01*
X6234229Y-15453460D02*
X6215182Y-15462984D01*
X6215182Y-15462984D02*
X6196134Y-15462984D01*
X6196134Y-15462984D02*
X6177086Y-15453460D01*
X6177086Y-15453460D02*
X6167563Y-15443936D01*
X6167563Y-15443936D02*
X6158039Y-15424888D01*
X6158039Y-15424888D02*
X6148515Y-15386793D01*
X6148515Y-15386793D02*
X6148515Y-15339174D01*
X6148515Y-15339174D02*
X6158039Y-15301079D01*
X6158039Y-15301079D02*
X6167563Y-15282031D01*
X6167563Y-15282031D02*
X6177086Y-15272508D01*
X6177086Y-15272508D02*
X6196134Y-15262984D01*
X6348515Y-15443936D02*
X6358039Y-15453460D01*
X6358039Y-15453460D02*
X6348515Y-15462984D01*
X6348515Y-15462984D02*
X6338991Y-15453460D01*
X6338991Y-15453460D02*
X6348515Y-15443936D01*
X6348515Y-15443936D02*
X6348515Y-15462984D01*
X6481848Y-15262984D02*
X6500896Y-15262984D01*
X6500896Y-15262984D02*
X6519944Y-15272508D01*
X6519944Y-15272508D02*
X6529467Y-15282031D01*
X6529467Y-15282031D02*
X6538991Y-15301079D01*
X6538991Y-15301079D02*
X6548515Y-15339174D01*
X6548515Y-15339174D02*
X6548515Y-15386793D01*
X6548515Y-15386793D02*
X6538991Y-15424888D01*
X6538991Y-15424888D02*
X6529467Y-15443936D01*
X6529467Y-15443936D02*
X6519944Y-15453460D01*
X6519944Y-15453460D02*
X6500896Y-15462984D01*
X6500896Y-15462984D02*
X6481848Y-15462984D01*
X6481848Y-15462984D02*
X6462801Y-15453460D01*
X6462801Y-15453460D02*
X6453277Y-15443936D01*
X6453277Y-15443936D02*
X6443753Y-15424888D01*
X6443753Y-15424888D02*
X6434229Y-15386793D01*
X6434229Y-15386793D02*
X6434229Y-15339174D01*
X6434229Y-15339174D02*
X6443753Y-15301079D01*
X6443753Y-15301079D02*
X6453277Y-15282031D01*
X6453277Y-15282031D02*
X6462801Y-15272508D01*
X6462801Y-15272508D02*
X6481848Y-15262984D01*
X6615182Y-15262984D02*
X6748515Y-15262984D01*
X6748515Y-15262984D02*
X6662801Y-15462984D01*
X6834229Y-15462984D02*
X6872325Y-15462984D01*
X6872325Y-15462984D02*
X6891372Y-15453460D01*
X6891372Y-15453460D02*
X6900896Y-15443936D01*
X6900896Y-15443936D02*
X6919944Y-15415365D01*
X6919944Y-15415365D02*
X6929467Y-15377269D01*
X6929467Y-15377269D02*
X6929467Y-15301079D01*
X6929467Y-15301079D02*
X6919944Y-15282031D01*
X6919944Y-15282031D02*
X6910420Y-15272508D01*
X6910420Y-15272508D02*
X6891372Y-15262984D01*
X6891372Y-15262984D02*
X6853277Y-15262984D01*
X6853277Y-15262984D02*
X6834229Y-15272508D01*
X6834229Y-15272508D02*
X6824706Y-15282031D01*
X6824706Y-15282031D02*
X6815182Y-15301079D01*
X6815182Y-15301079D02*
X6815182Y-15348698D01*
X6815182Y-15348698D02*
X6824706Y-15367746D01*
X6824706Y-15367746D02*
X6834229Y-15377269D01*
X6834229Y-15377269D02*
X6853277Y-15386793D01*
X6853277Y-15386793D02*
X6891372Y-15386793D01*
X6891372Y-15386793D02*
X6910420Y-15377269D01*
X6910420Y-15377269D02*
X6919944Y-15367746D01*
X6919944Y-15367746D02*
X6929467Y-15348698D01*
X7119944Y-15462984D02*
X7005658Y-15462984D01*
X7062801Y-15462984D02*
X7062801Y-15262984D01*
X7062801Y-15262984D02*
X7043753Y-15291555D01*
X7043753Y-15291555D02*
X7024706Y-15310603D01*
X7024706Y-15310603D02*
X7005658Y-15320127D01*
X7196134Y-15262984D02*
X7196134Y-15301079D01*
X7272325Y-15262984D02*
X7272325Y-15301079D01*
X7567563Y-15539174D02*
X7558039Y-15529650D01*
X7558039Y-15529650D02*
X7538991Y-15501079D01*
X7538991Y-15501079D02*
X7529468Y-15482031D01*
X7529468Y-15482031D02*
X7519944Y-15453460D01*
X7519944Y-15453460D02*
X7510420Y-15405841D01*
X7510420Y-15405841D02*
X7510420Y-15367746D01*
X7510420Y-15367746D02*
X7519944Y-15320127D01*
X7519944Y-15320127D02*
X7529468Y-15291555D01*
X7529468Y-15291555D02*
X7538991Y-15272508D01*
X7538991Y-15272508D02*
X7558039Y-15243936D01*
X7558039Y-15243936D02*
X7567563Y-15234412D01*
X7729468Y-15262984D02*
X7691372Y-15262984D01*
X7691372Y-15262984D02*
X7672325Y-15272508D01*
X7672325Y-15272508D02*
X7662801Y-15282031D01*
X7662801Y-15282031D02*
X7643753Y-15310603D01*
X7643753Y-15310603D02*
X7634229Y-15348698D01*
X7634229Y-15348698D02*
X7634229Y-15424888D01*
X7634229Y-15424888D02*
X7643753Y-15443936D01*
X7643753Y-15443936D02*
X7653277Y-15453460D01*
X7653277Y-15453460D02*
X7672325Y-15462984D01*
X7672325Y-15462984D02*
X7710420Y-15462984D01*
X7710420Y-15462984D02*
X7729468Y-15453460D01*
X7729468Y-15453460D02*
X7738991Y-15443936D01*
X7738991Y-15443936D02*
X7748515Y-15424888D01*
X7748515Y-15424888D02*
X7748515Y-15377269D01*
X7748515Y-15377269D02*
X7738991Y-15358222D01*
X7738991Y-15358222D02*
X7729468Y-15348698D01*
X7729468Y-15348698D02*
X7710420Y-15339174D01*
X7710420Y-15339174D02*
X7672325Y-15339174D01*
X7672325Y-15339174D02*
X7653277Y-15348698D01*
X7653277Y-15348698D02*
X7643753Y-15358222D01*
X7643753Y-15358222D02*
X7634229Y-15377269D01*
X7986610Y-15462984D02*
X7986610Y-15262984D01*
X8072325Y-15462984D02*
X8072325Y-15358222D01*
X8072325Y-15358222D02*
X8062801Y-15339174D01*
X8062801Y-15339174D02*
X8043753Y-15329650D01*
X8043753Y-15329650D02*
X8015182Y-15329650D01*
X8015182Y-15329650D02*
X7996134Y-15339174D01*
X7996134Y-15339174D02*
X7986610Y-15348698D01*
X8196134Y-15462984D02*
X8177087Y-15453460D01*
X8177087Y-15453460D02*
X8167563Y-15443936D01*
X8167563Y-15443936D02*
X8158039Y-15424888D01*
X8158039Y-15424888D02*
X8158039Y-15367746D01*
X8158039Y-15367746D02*
X8167563Y-15348698D01*
X8167563Y-15348698D02*
X8177087Y-15339174D01*
X8177087Y-15339174D02*
X8196134Y-15329650D01*
X8196134Y-15329650D02*
X8224706Y-15329650D01*
X8224706Y-15329650D02*
X8243753Y-15339174D01*
X8243753Y-15339174D02*
X8253277Y-15348698D01*
X8253277Y-15348698D02*
X8262801Y-15367746D01*
X8262801Y-15367746D02*
X8262801Y-15424888D01*
X8262801Y-15424888D02*
X8253277Y-15443936D01*
X8253277Y-15443936D02*
X8243753Y-15453460D01*
X8243753Y-15453460D02*
X8224706Y-15462984D01*
X8224706Y-15462984D02*
X8196134Y-15462984D01*
X8377087Y-15462984D02*
X8358039Y-15453460D01*
X8358039Y-15453460D02*
X8348515Y-15434412D01*
X8348515Y-15434412D02*
X8348515Y-15262984D01*
X8529468Y-15453460D02*
X8510420Y-15462984D01*
X8510420Y-15462984D02*
X8472325Y-15462984D01*
X8472325Y-15462984D02*
X8453277Y-15453460D01*
X8453277Y-15453460D02*
X8443753Y-15434412D01*
X8443753Y-15434412D02*
X8443753Y-15358222D01*
X8443753Y-15358222D02*
X8453277Y-15339174D01*
X8453277Y-15339174D02*
X8472325Y-15329650D01*
X8472325Y-15329650D02*
X8510420Y-15329650D01*
X8510420Y-15329650D02*
X8529468Y-15339174D01*
X8529468Y-15339174D02*
X8538992Y-15358222D01*
X8538992Y-15358222D02*
X8538992Y-15377269D01*
X8538992Y-15377269D02*
X8443753Y-15396317D01*
X8615182Y-15453460D02*
X8634230Y-15462984D01*
X8634230Y-15462984D02*
X8672325Y-15462984D01*
X8672325Y-15462984D02*
X8691373Y-15453460D01*
X8691373Y-15453460D02*
X8700896Y-15434412D01*
X8700896Y-15434412D02*
X8700896Y-15424888D01*
X8700896Y-15424888D02*
X8691373Y-15405841D01*
X8691373Y-15405841D02*
X8672325Y-15396317D01*
X8672325Y-15396317D02*
X8643753Y-15396317D01*
X8643753Y-15396317D02*
X8624706Y-15386793D01*
X8624706Y-15386793D02*
X8615182Y-15367746D01*
X8615182Y-15367746D02*
X8615182Y-15358222D01*
X8615182Y-15358222D02*
X8624706Y-15339174D01*
X8624706Y-15339174D02*
X8643753Y-15329650D01*
X8643753Y-15329650D02*
X8672325Y-15329650D01*
X8672325Y-15329650D02*
X8691373Y-15339174D01*
X8767563Y-15539174D02*
X8777087Y-15529650D01*
X8777087Y-15529650D02*
X8796134Y-15501079D01*
X8796134Y-15501079D02*
X8805658Y-15482031D01*
X8805658Y-15482031D02*
X8815182Y-15453460D01*
X8815182Y-15453460D02*
X8824706Y-15405841D01*
X8824706Y-15405841D02*
X8824706Y-15367746D01*
X8824706Y-15367746D02*
X8815182Y-15320127D01*
X8815182Y-15320127D02*
X8805658Y-15291555D01*
X8805658Y-15291555D02*
X8796134Y-15272508D01*
X8796134Y-15272508D02*
X8777087Y-15243936D01*
X8777087Y-15243936D02*
X8767563Y-15234412D01*
M02*
